<?xml version="1.0" encoding="UTF-8" standalone="no"?>
<svg
   xmlns:dc="http://purl.org/dc/elements/1.1/"
   xmlns:cc="http://creativecommons.org/ns#"
   xmlns:rdf="http://www.w3.org/1999/02/22-rdf-syntax-ns#"
   xmlns:svg="http://www.w3.org/2000/svg"
   xmlns="http://www.w3.org/2000/svg"
   viewBox="0 0 334.13919 349.89227"
   height="349.89227"
   width="334.13919"
   xml:space="preserve"
   id="svg2"
   version="1.1"><metadata
     id="metadata8"><rdf:RDF><cc:Work
         rdf:about=""><dc:format>image/svg+xml</dc:format><dc:type
           rdf:resource="http://purl.org/dc/dcmitype/StillImage" /></cc:Work></rdf:RDF></metadata><defs
     id="defs6"><clipPath
       id="clipPath20"
       clipPathUnits="userSpaceOnUse"><path
         id="path18"
         d="m 77.66203,143.1966 h 54.35633 v 39.74548 H 77.66203 Z" /></clipPath><clipPath
       id="clipPath34"
       clipPathUnits="userSpaceOnUse"><path
         id="path32"
         d="m 118.2803,161.2516 h 24.52421 v 65.16764 H 118.2803 Z" /></clipPath><clipPath
       id="clipPath46"
       clipPathUnits="userSpaceOnUse"><path
         id="path44"
         d="m 70.23282,158.943 h 57.24603 v 46.70011 H 70.23282 Z" /></clipPath><clipPath
       id="clipPath58"
       clipPathUnits="userSpaceOnUse"><path
         id="path56"
         d="m 109.5088,153.5719 h 41.81023 v 46.70923 H 109.5088 Z" /></clipPath><clipPath
       id="clipPath70"
       clipPathUnits="userSpaceOnUse"><path
         id="path68"
         d="m 127.7268,168.0787 h 66.29861 v 34.42861 H 127.7268 Z" /></clipPath><clipPath
       id="clipPath82"
       clipPathUnits="userSpaceOnUse"><path
         id="path80"
         d="M 36,36 H 214.6044 V 179.4026 H 36 Z" /></clipPath><clipPath
       id="clipPath96"
       clipPathUnits="userSpaceOnUse"><path
         id="path94"
         d="m 45.96674,114.0533 h 50.77011 v 48.4445 H 45.96674 Z" /></clipPath><clipPath
       id="clipPath108"
       clipPathUnits="userSpaceOnUse"><path
         id="path106"
         d="m 158.1762,151.0944 h 34.45137 v 19.33262 H 158.1762 Z" /></clipPath><clipPath
       id="clipPath120"
       clipPathUnits="userSpaceOnUse"><path
         id="path118"
         d="m 91.13562,54.71614 h 39.90012 v 113.5626 H 91.13562 Z" /></clipPath></defs><g
     transform="matrix(1.3333333,0,0,-1.3333333,0,349.89227)"
     id="g10"><g
       id="g12" /><g
       id="g14"><g
         clip-path="url(#clipPath20)"
         id="g16"><path
           id="path22"
           style="fill:#e10012;fill-opacity:1;fill-rule:nonzero;stroke:none"
           d="m 79.68008,172.1126 c 8.94731,7.8603 21.24022,10.7097 32.73322,7.5874 6.8972,-1.8737 13.0453,-5.8363 17.6004,-11.3438 l -0.3015,-23.112 -49.06124,2.3122 z" /><g
           transform="matrix(1,0,0,-1,79.68008,180.9421)"
           id="g24"><path
             id="path26"
             style="fill:none;stroke:#000000;stroke-width:2;stroke-linecap:butt;stroke-linejoin:miter;stroke-miterlimit:4;stroke-dasharray:none;stroke-opacity:1"
             d="M 0,8.82955 C 8.947309,0.9692504 21.24022,-1.880206 32.73326,1.242087 39.63038,3.115815 45.77848,7.078404 50.33357,12.58588 l -0.30149,23.112 -49.061209,-2.31211 z" /></g></g></g><g
       id="g28"><g
         clip-path="url(#clipPath34)"
         id="g30"><path
           id="path36"
           style="fill:#003000;fill-opacity:1;fill-rule:nonzero;stroke:none"
           d="m 119.8713,162.9772 c 1.347,11.1889 3.9014,22.1991 7.6185,32.8382 3.576,10.235 8.2083,20.0697 13.8221,29.3449 -0.8397,-4.8495 -1.2506,-9.7528 -1.2331,-14.6537 0.0112,-3.1011 0.1923,-6.2216 -0.3656,-9.2753 -0.675,-3.6939 -2.3724,-7.0386 -3.5885,-10.5793 -1.0067,-2.9311 -1.6708,-5.9635 -2.2482,-9.0077 -0.9215,-4.8581 -1.6243,-9.7551 -2.1064,-14.6763 z" /><path
           id="path38"
           style="fill:#000000;fill-opacity:1;fill-rule:nonzero;stroke:none"
           d="m 131.4697,166.6413 c -0.2665,-0.0962 -1.4368,-0.4914 -1.4599,-0.4849 0.4401,0.1449 1.3671,0.4654 1.4599,0.4849 0,0 0,0 0,0 z m 0.7047,2.0905 c -0.0399,-0.449 -0.1452,-1.416 -0.1833,-1.7174 0.0539,0.5143 0.1557,1.5657 0.1833,1.7174 0,0 0,0 0,0 z m -1.9867,-2.4865 c -0.629,-0.2075 -1.7803,-0.6032 -2.0721,-0.6895 0.6287,0.2075 1.7793,0.6029 2.0721,0.6895 0,0 0,0 0,0 z m 9.2499,32.1802 c -0.0783,-0.2778 -0.4688,-1.446 -0.4802,-1.4376 0.1508,0.4199 0.4451,1.3605 0.4802,1.4376 0,0 0,0 0,0 z m -2.4104,-6.3899 c -0.149,-0.4207 -0.4824,-1.3283 -0.5877,-1.6137 0.1683,0.4865 0.5222,1.4719 0.5877,1.6137 0,0 0,0 0,0 z m -1.2402,-3.7425 c -0.2538,-0.8852 -0.491,-1.8409 -0.4572,-1.6534 0.0815,0.2793 0.4171,1.5692 0.4572,1.6534 0,0 0,0 0,0 z M 130.4671,166.91 c 0.3585,0.1181 0.6769,0.2252 0.9685,0.3242 0.0476,0.4945 0.0883,0.9207 0.1322,1.3254 0.2741,2.5309 0.0313,0.2006 -0.1241,-1.3312 -0.4488,-0.1499 -0.8272,-0.274 -0.9766,-0.3184 0,0 0,0 0,0 z m 3.732,14.6107 c 0.1242,0.6562 0.2296,1.1753 0.2992,1.4855 -0.1223,-0.605 -0.2796,-1.4585 -0.2992,-1.4855 0,0 0,0 0,0 z m -0.983,-5.658 c -0.0155,-0.152 -0.5091,-3.5265 -0.7435,-5.3976 0.1893,1.5974 0.759,5.5496 0.7435,5.3976 0,0 0,0 0,0 z m -0.9552,-1.7389 c 0.3193,2.1767 0.9037,5.6535 1.2039,7.2246 0.2981,1.5591 -0.5365,-2.7916 -1.1205,-6.815 -0.5863,-4.0349 -0.1348,-0.6864 -0.3539,-2.3324 -0.2181,-1.6331 0.1932,1.5853 0.4444,3.213 0.2495,1.6158 -0.155,-1.0882 -0.1739,-1.2902 0,0 0,0 0,0 z m -0.0573,-0.0638 c -0.1116,-0.7934 -0.2045,-1.4754 -0.2696,-1.9224 0.1019,0.8217 0.2072,1.6054 0.2696,1.9224 0,0 0,0 0,0 z m -12.2029,-10.6133 c -0.0999,0.2861 0.0289,2.2138 0.2682,4.3164 0.0614,0.5231 0.1255,1.046 0.1943,1.5844 0.5616,3.8309 1.2978,7.6602 2.1915,11.4529 0.1776,0.7508 0.3605,1.5004 0.555,2.2712 0.5817,2.3157 1.2252,4.6291 1.9272,6.9387 0.2331,0.766 0.4719,1.5303 0.7243,2.3159 0.8719,2.7633 1.8135,5.3765 2.8311,8.0362 0.5091,1.3297 1.0401,2.6772 1.5935,4.0557 0.2761,0.6895 1.5415,3.6081 2.0175,4.6286 -0.476,-0.9798 1.7428,3.7479 1.6409,3.536 0.2628,0.519 0.5359,1.0604 0.8088,1.6019 0.2734,0.5412 -0.0665,-0.1467 -0.4018,-0.8367 0.3052,0.6083 0.6115,1.216 0.9257,1.8336 0.3282,0.6485 0.6609,1.2949 1.0085,1.9583 1.1237,2.1636 2.4104,4.4523 3.5689,6.4002 0.3118,0.532 0.6812,1.1544 1.0957,1.8393 -0.4538,-7.4091 -0.4067,-20.8985 -0.4289,-18.1215 -0.0291,3.4819 -0.037,1.6914 -0.0278,0.7613 0.006,-0.5457 0.0127,-1.2787 3e-4,-2.1 0.006,0.0237 0.0109,0.085 0.0147,0.2089 -0.0111,-1.5572 -0.0943,-3.7846 -0.59,-5.8863 0.0873,0.3935 0.1847,0.9034 0.2104,1.0928 -0.1872,-1.0812 -0.0421,-0.2219 -0.2006,-0.9195 -0.434,-1.9499 -0.7118,-2.8529 -0.1524,-0.6194 -0.5303,-2.0694 -1.0536,-3.3082 -1.8318,-5.2369 -0.2868,-0.7368 -0.13,-0.3338 -0.0384,-0.1205 -0.5,-1.2914 -1.5955,-4.2521 -1.6808,-4.5373 -0.0842,-0.286 3.0114,8.0341 2.4744,6.5406 -0.2183,-0.6068 -0.7047,-1.8488 -0.8863,-2.3229 0.4138,1.0432 0.9063,2.3388 1.1482,3.014 -0.2552,-0.739 -0.6486,-1.7674 -0.8661,-2.3338 0.2747,0.7019 0.459,1.1874 0.5409,1.393 -0.3833,-1.0335 -0.693,-1.8029 -1.171,-3.0181 -0.2151,-0.536 0.1653,0.4678 -0.2773,-0.6805 -0.0853,-0.2018 0.2929,0.7592 0.2607,0.6948 -0.3675,-0.9264 -1.0408,-2.7855 -1.1959,-3.2504 -0.1523,-0.4523 0.3898,1.1384 0.3985,1.1762 -1.3023,-3.6141 -2.1395,-7.9395 -2.3985,-9.2723 -0.2608,-1.3453 -0.0203,-0.0826 0.088,0.4896 -0.3098,-1.561 -0.5256,-2.742 -0.8356,-4.6072 -0.1991,-1.1941 -0.1214,-0.7172 -0.0505,-0.2635 -0.053,-0.3164 -0.099,-0.5963 -0.1292,-0.7786 -0.0225,-0.1334 -0.0773,-0.4745 -0.1155,-0.7049 0.1107,0.7349 0.3364,2.0997 0.4345,2.6999 -0.1958,-1.0906 -0.5944,-3.7109 -0.7399,-4.6579 0.2088,1.5225 0.4629,3.1459 0.7507,4.8424 -0.5746,-3.2969 -1.0147,-6.723 -1.3422,-9.3832 0.0526,0.4804 0.0696,0.6952 0.1127,1.0912 -0.1161,-1.0238 -0.2716,-2.5424 -0.3775,-3.4406 -0.0103,-0.0996 -0.0225,-0.2187 -0.0362,-0.353 -0.5283,-0.1745 -1.3025,-0.4298 -2.0747,-0.6866 0.7893,0.2667 1.4558,0.4918 2.0628,0.696 0.0692,0.7125 0.1346,1.3442 0.2077,1.9874 -0.005,-0.0227 -0.0197,-0.1314 -0.0438,-0.3389 0.2737,2.7425 0.52,4.2718 0.8074,6.1997 0.0209,0.15 0.0421,0.2999 0.0642,0.4543 0.0808,0.6324 -0.2344,-1.5723 -0.2729,-1.7864 0.3893,2.8682 0.9297,5.9691 1.1745,7.3764 -0.6251,-3.3765 -1.0623,-6.3767 -1.4011,-8.9299 0.0714,0.672 0.4363,3.2357 0.6186,4.4627 -0.8761,-5.5457 -0.85,-6.1236 -0.9044,-6.576 0.048,0.4304 0.0977,0.8605 0.1506,1.3035 -0.0157,-0.1074 -0.0313,-0.2149 -0.0473,-0.3256 -0.1589,-1.3115 -0.3115,-2.7489 -0.4132,-3.7797 -0.8626,-0.2887 -1.4293,-0.4777 -1.3651,-0.454 0.0497,0.0183 0.5739,0.1956 1.358,0.4597 0.0856,0.8849 0.2097,2.085 0.3546,3.3157 -0.0346,-0.2427 -0.0686,-0.4854 -0.1031,-0.7356 -0.0944,-0.8275 -0.1875,-1.6872 -0.2762,-2.5604 -1.9809,-0.6565 -4.0322,-1.3339 -5.8969,-1.9665 0.4279,0.1572 0.2052,0.0804 -0.3534,-0.0988 0.8313,0.287 2.0206,0.6859 2.9107,0.9913 -0.309,-0.0996 -0.8608,-0.2867 -1.0414,-0.3412 0.4443,0.1531 1.1516,0.3883 1.3681,0.4705 -1.2616,-0.4184 -2.6154,-0.8697 -3.9457,-1.3125 -0.2776,-0.0795 0.5744,0.1954 0.4988,0.1789 -1.2594,-0.4177 -3.0185,-1.0138 -3.9398,-1.3099 1.0526,0.3626 3.1227,1.0481 3.7642,1.2707 -0.4205,-0.137 -0.8408,-0.2739 -1.2736,-0.4149 -0.8569,-0.2861 -1.2686,-0.4214 -0.3097,-0.0944 0.5141,0.1759 0.5021,0.1725 0.3725,0.1304 -0.5903,-0.1891 -2.6283,-0.874 -2.577,-0.8378 0.5151,0.1728 2.5522,0.8553 3.0604,1.0387 -0.3934,-0.1176 -1.4301,-0.4735 -1.5412,-0.4978 2.2591,0.7516 2.1735,0.7296 2.7401,0.9101 -0.2444,-0.084 -0.8894,-0.2969 -0.8615,-0.2957 1.3894,0.4662 2.7787,0.9324 4.2102,1.4128 -0.1363,-0.0355 -0.0987,-0.0107 0.0247,0.0375 -0.6079,-0.2032 -1.2409,-0.4121 -2.3723,-0.7936 0.2908,0.1172 1.331,0.4634 2.2925,0.7798 -0.01,-4e-4 -0.0198,-8e-4 -0.03,-0.001 -1.5513,-0.5209 -3.9232,-1.3103 -5.5143,-1.8338 0.7207,0.2458 3.3898,1.141 5.2106,1.7483 -0.0604,-0.0166 -0.1207,-0.0333 -0.1828,-0.0504 0.994,0.3316 2.0597,0.6913 3.1577,1.0619 0.1457,1.5107 0.3185,3.0776 0.5154,4.5968 -0.1851,-1.281 -0.3453,-2.8141 -0.5166,-4.4929 -0.003,-0.0318 -0.006,-0.0635 -0.01,-0.095 -0.7013,-0.2323 -1.3559,-0.4447 -2.0422,-0.6677 -2.0208,-0.6825 -8.0352,-2.7024 -8.7249,-2.9249 -0.7591,-0.2451 5.3331,1.7982 5.3646,1.8142 0.0315,0.016 -2.8067,-0.9298 -1.4701,-0.4828 0.6979,0.2327 2.2212,0.7415 3.3265,1.1102 0.0303,0.0214 0.0606,0.0428 0.0918,0.0648 -0.9633,-0.3224 -2.1035,-0.6994 -2.1366,-0.7322 -0.4776,-0.1575 -1.4712,-0.4996 -1.6279,-0.5413 0.1617,0.0556 0.4062,0.1363 0.4032,0.1407 -0.2324,-0.0773 -0.5679,-0.1918 -0.6059,-0.1984 1.159,0.3907 2.7558,0.9324 4.0203,1.3558 0.1034,0.0399 0.2068,0.0797 0.3132,0.1207 -0.0246,-0.006 -1.0128,-0.3329 -1.8602,-0.6143 -0.8939,-0.2965 0.9553,0.3292 2.4266,0.8213 0.2288,0.0824 0.4574,0.1646 0.6927,0.2494 -0.5085,-0.1713 -1.0985,-0.3691 -1.7936,-0.6009 -0.8143,-0.2663 -0.799,-0.2496 -1.6123,-0.5156 1.4876,0.503 3.2891,1.1079 4.7359,1.5898 0.1182,0.042 0.2363,0.0839 0.3547,0.126 0.0358,0.4376 0.0734,0.8772 0.1137,1.3267 -0.0502,-0.4533 -0.0976,-0.8939 -0.1407,-1.3049 -0.7041,-0.2319 -1.3177,-0.4323 -1.7443,-0.5706 -0.529,-0.1788 -1.0811,-0.3653 -1.2826,-0.4254 0.4918,0.1697 -0.7996,-0.2614 -0.6134,-0.1853 0.7116,0.2257 2.1121,0.7009 2.6335,0.8581 0.3243,0.1088 0.6576,0.2206 0.9936,0.3334 0.0856,0.8629 0.1799,1.7423 0.2728,2.5469 0.0151,0.1467 0.0304,0.2934 0.0464,0.4446 -0.1149,-0.9662 -0.2176,-1.8834 -0.3257,-2.9096 0.0296,0.4795 0.3334,3.3237 0.6153,5.3686 0.5429,4.1871 1.2886,8.3543 2.2215,12.4673 0.0378,0.1687 0.0908,0.4108 0.1506,0.677 0.0654,0.3007 0.1329,0.6011 0.2048,0.9101 -0.2464,-0.9819 -0.4432,-1.8604 -0.5999,-2.5824 0.606,2.9307 -0.8184,-4.1823 -0.9115,-4.6345 0.4079,2.3865 1.0139,5.8126 2.0118,9.247 0.9979,3.4344 2.5391,6.7642 3.3807,9.3693 -0.4091,-1.2506 -0.5558,-1.6476 -0.1092,-0.3049 0.1209,0.3635 0.2361,0.7283 0.3467,1.1062 -1.5892,-5.3185 -3.9481,-10.8397 -4.8862,-15.2583 0.5405,2.6362 1.6857,6.5692 2.0508,7.6409 -0.2668,-0.7449 -0.6116,-1.8471 -0.6638,-1.9968 0.392,1.3354 2.072,5.6324 2.5319,6.891 -2.3111,-6.1045 -4.484,-14.9405 -5.261,-19.7441 0.5743,3.6426 1.2936,7.9256 2.4436,11.9854 1.1499,4.0598 2.9373,7.734 3.8001,10.6909 -0.2942,-1.0295 -0.3083,-1.0403 -0.1355,-0.5036 0.5671,1.8283 0.9083,3.7181 1.0196,5.6958 0.0185,0.3994 0.0234,0.2646 -0.0547,-0.6839 -0.0643,-0.7803 -0.1267,-1.233 -0.1684,-1.4803 0.0701,0.525 0.5041,6.6228 0.1735,1.7739 -0.3298,-4.8365 -3.7266,-12.6667 -1.965,-8.0452 1.7614,4.6211 1.9561,6.5468 1.2895,3.9701 -0.6697,-2.588 -3.868,-10.6106 -2.8543,-7.8785 1.0093,2.7205 3.177,8.3227 3.4392,11.6747 0.263,3.3641 0.1143,-2.3449 0.1483,2.6816 0.0339,5.0266 -0.0116,0.8425 -0.023,1.8101 -0.0185,1.531 -0.0531,4.3684 0.0852,7.0522 0.0949,1.8839 0.3223,4.3043 0.4583,5.5195 -0.0178,-0.0846 -0.5144,-5.812 -0.3519,-3.5477 0.2266,3.0129 0.6747,6.2027 1.0031,8.088 -0.008,-1.6938 -0.3521,-2.2781 0.2427,-1.263 -1.763,-2.9645 -2.9748,-5.1928 -3.9814,-7.0968 -1.5441,-2.9702 -3.2091,-6.4838 -3.3867,-6.876 -0.2075,-0.4598 -3.8567,-8.8312 -4.992,-12.0739 -0.0903,-0.2423 -2.0993,-6.0626 -2.2735,-6.5628 -1.7556,-5.5914 -1.5198,-4.8042 -2.8832,-10.4098 -1.1394,-4.6854 -1.3736,-6.1465 -1.5297,-6.9433 -0.9782,-4.9865 -0.8932,-4.9646 -1.3168,-7.4173 -0.1273,-0.7408 -0.2825,-1.8886 -0.3671,-2.2754 -0.1691,-0.7736 -0.2997,-1.131 -0.3789,-0.8723 0,0 0,0 0,0 z m 9.7431,2.8389 c -0.8508,-0.2908 -2.3997,-0.8062 -3.2972,-1.114 1.0405,0.3347 2.3154,0.7664 3.6115,1.2072 -0.1038,-0.0308 -0.2075,-0.0615 -0.3143,-0.0932 0,0 0,0 0,0 z m 2.3763,5.6252 c -0.0775,-0.5989 -0.1555,-1.3296 -0.2366,-2.0011 -0.0744,-0.6366 -0.1464,-1.3003 -0.2519,-2.2645 0.002,0.0911 0.1623,1.6911 0.3125,2.9263 -0.004,0.003 -0.007,0.006 -0.0107,0.009 -0.0774,-0.5957 -0.1632,-1.3034 -0.2536,-2.1495 -0.0299,-0.2879 -0.059,-0.576 -0.0882,-0.8728 0.004,-0.0298 0.0554,0.4203 0.0716,0.5935 -0.008,-0.1488 -0.0426,-0.5188 -0.0895,-1.0267 -0.2551,-0.0876 -0.5485,-0.1874 -0.8676,-0.2956 -0.109,-0.0388 -0.218,-0.0776 -0.3304,-0.1176 -0.1185,-0.0507 0.5818,0.1787 -0.1964,-0.0809 0.2989,0.0937 0.8447,0.2766 1.4228,0.4713 0.0513,0.5259 0.1074,1.0776 0.1552,1.5068 -0.1352,-1.0242 0.3267,2.8981 0.4446,3.8715 -0.0273,-0.1878 -0.0543,-0.3756 -0.0818,-0.5692 z m 1.5681,7.1593 c 0.0911,0.5269 0.1846,1.0533 0.2837,1.5951 -0.1435,-0.7777 -0.2493,-1.3735 -0.3445,-1.9209 0.02,0.1075 0.0401,0.2151 0.0608,0.3258 z m 7.5959,43.4354 c -0.483,-3.1967 -0.8072,-9.9697 -0.8314,-10.4103 -0.009,-0.6909 -0.008,-1.3811 -4e-4,-2.0941 -0.0365,4.5007 0.3729,9.3027 0.8318,12.5044 0,0 0,0 0,0 z m -1.5852,-11.241 c -2e-4,-0.2713 0,-0.1607 0.009,0.492 0.0474,3.4733 0.2334,5.5259 0.1221,3.3347 -0.095,-1.8711 -0.0976,-5.9493 -0.0996,-4.7557 -0.007,1.5886 0.0304,3.1789 0.1169,4.815 0.0601,1.2562 0.1379,2.4757 0.2415,3.719 -0.2586,-2.6771 -0.3748,-5.2521 -0.3901,-7.605 0,0 0,0 0,0 z m 0.5274,9.1057 c -0.1083,-0.9569 -0.218,-2.0994 -0.3032,-3.2555 0.0758,1.0022 0.1693,2.0035 0.2847,3.0336 0.006,0.0732 0.0121,0.1464 0.0185,0.2219 z m 0.1334,1.2283 c -0.252,-1.9475 -0.4323,-3.9013 -0.221,-1.9384 0.0474,0.4414 0.0981,0.8825 0.1542,1.3366 0.0213,0.1986 0.0433,0.3972 0.0668,0.6018 z m 0.1555,1.2009 c 9e-4,-0.0252 -0.0443,-0.3559 -0.1288,-1.0051 0.1288,0.9751 0.3923,2.665 0.5228,3.4357 0.6096,-0.5191 0.5289,-0.657 0.5479,-0.6307 0.0688,0.1139 0.1388,0.2293 0.2098,0.3461 -0.8982,-0.4808 -1.0305,-1.3038 -1.1517,-2.146 0,0 0,0 0,0 z m 1.1148,1.8272 c -0.1409,-0.8537 -0.259,-1.598 -0.0328,-0.2452 0.0394,0.2358 0.0797,0.4715 0.1213,0.7085 -0.9081,0.0403 -1.057,-0.2057 -1.2075,-0.4562 0.1495,0.2452 0.2996,0.49 0.4524,0.7375 0.7219,-0.4338 0.6942,-0.5884 0.6666,-0.7446 z m -8.2979,-43.8413 c 0.068,0.3627 0.328,1.7435 0.4938,2.5385 0.0486,0.0612 -0.5741,-3.0577 -0.4938,-2.5385 0,0 0,0 0,0 z m -0.882,-5.179 c 0.0545,0.3524 0.2711,1.7406 0.4107,2.5522 0.0467,0.0603 -0.4746,-3.0744 -0.4107,-2.5522 0,0 0,0 0,0 z m -3.7039,22.3095 c 0.001,0.004 0.003,0.008 0.004,0.0116 -0.001,-0.004 -0.003,-0.008 -0.004,-0.0116 0,0 0,0 0,0 z" /></g></g><g
       id="g40"><g
         clip-path="url(#clipPath46)"
         id="g42"><path
           id="path48"
           style="fill:#003000;fill-opacity:1;fill-rule:nonzero;stroke:none"
           d="m 108.7462,160.6023 c 0.9424,3.2478 0.483,6.7417 -1.2669,9.6355 -2.1034,3.4784 -5.7716,5.5958 -8.51095,8.5785 -5.51774,6.0079 -7.11238,15.2521 -14.2424,19.4602 -4.02457,2.3753 -8.9852,2.5241 -13.1449,0.3943 4.97268,4.8273 12.1454,6.6302 18.80958,4.7279 10.47827,-2.9911 15.96357,-13.4215 21.89847,-22.5433 3.8871,-5.9743 8.3088,-11.5833 13.2107,-16.7576 z" /><path
           id="path50"
           style="fill:#000000;fill-opacity:1;fill-rule:nonzero;stroke:none"
           d="m 121.9839,163.1454 c -0.3017,-0.0695 -1.6401,-0.3514 -1.6724,-0.3443 0.5046,0.1027 1.5606,0.3322 1.6724,0.3443 0,0 0,0 0,0 z m 2.7075,0.5583 c -0.4719,-0.1076 -1.5535,-0.3274 -1.9062,-0.3924 0.5745,0.1166 1.7101,0.3627 1.9062,0.3924 0,0 0,0 0,0 z m -4.1888,-0.8344 c -0.7199,-0.1469 -2.0318,-0.4298 -2.3688,-0.4889 0.7192,0.1467 2.0297,0.4294 2.3688,0.4889 0,0 0,0 0,0 z m -13.8262,27.3973 c 0.1921,-0.2668 0.9728,-1.4194 0.9535,-1.4148 -0.2766,0.4198 -0.9132,1.3373 -0.9535,1.4148 0,0 0,0 0,0 z m 4.1882,-6.4892 c 0.2839,-0.4293 0.8652,-1.3533 1.0406,-1.6412 -0.3105,0.4889 -0.9598,1.4933 -1.0406,1.6412 0,0 0,0 0,0 z m 2.4119,-3.7266 c 0.5632,-0.8487 1.1814,-1.7439 1.0453,-1.5691 -0.1678,0.263 -1.0089,1.4865 -1.0453,1.5691 0,0 0,0 0,0 z m 7.2799,-16.6173 c 1.0283,0.2093 1.7509,0.3706 2.4401,0.5137 3.5247,0.7328 -1.7289,-0.3884 -2.4401,-0.5137 0,0 0,0 0,0 z m -2.8814,10.3788 c -0.4452,0.583 -0.79,1.0499 -0.9886,1.3297 0.4036,-0.5453 0.9878,-1.3052 0.9886,-1.3297 0,0 0,0 0,0 z m 3.9423,-4.9063 c 0.1198,-0.1286 2.5809,-2.9491 3.9891,-4.4553 -1.2169,1.2858 -4.1088,4.5838 -3.9891,4.4553 0,0 0,0 0,0 z m 0.3347,-1.4465 c -1.5617,1.8071 -3.9732,4.8021 -5.0197,6.1897 -1.0386,1.3772 1.8586,-2.4969 4.7569,-5.8497 2.9054,-3.3622 0.4485,-0.5793 1.6552,-1.9223 1.1962,-1.3323 -1.1861,1.2935 -2.3392,2.6599 -1.1447,1.3567 0.7875,-0.9096 0.9468,-1.0776 0,0 0,0 0,0 z m -0.0185,-0.0515 c 0.5749,-0.6581 1.072,-1.2166 1.3917,-1.5807 -0.612,0.6701 -1.186,1.3184 -1.3917,1.5807 0,0 0,0 0,0 z m -12.9811,-6.3101 c -0.0594,0.3236 0.3003,2.4293 -0.1078,4.6282 -0.0996,0.5476 -0.2369,1.0875 -0.4184,1.6306 -1.2268,3.8964 -4.7536,6.5439 -7.963,9.4226 -0.63506,0.5705 -1.25519,1.1603 -1.85581,1.816 -1.80572,1.9678 -3.19487,4.2743 -4.48805,6.6295 -0.42874,0.7813 -0.84653,1.5669 -1.27791,2.3695 -1.52806,2.8114 -2.97376,5.4384 -4.99444,7.5958 -1.01011,1.0789 -2.17856,2.0508 -3.57667,2.8191 -0.69937,0.3835 -3.86741,1.4871 -5.03555,1.627 1.12776,-0.1523 -4.29372,-0.2485 -4.05211,-0.1989 -0.60002,-0.111 -1.21985,-0.2744 -1.82686,-0.4888 -0.60722,-0.2138 0.15313,0.0882 0.93333,0.3066 -0.69442,-0.1854 -1.37752,-0.4312 -2.05279,-0.744 -0.15384,-0.0716 -0.30671,-0.1464 -0.45866,-0.2244 -0.0263,1.1517 0.46608,1.5859 0.98856,2.0014 2.16873,1.7356 4.86406,3.0111 7.30499,3.6346 3.33334,0.872 10.23339,0.5416 14.67918,-1.8468 4.44579,-2.3883 6.90379,-5.395 5.69569,-4.2362 -2.72863,2.6156 -1.36551,1.2361 -0.62409,0.5568 0.43549,-0.3984 1.00759,-0.948 1.62329,-1.5945 -0.0121,0.0202 -0.0531,0.0698 -0.1439,0.1674 1.1814,-1.2161 2.7595,-3.064 4.1523,-4.9934 -0.2664,0.3598 -0.6082,0.8144 -0.7438,0.9806 0.7309,-0.9583 0.1345,-0.1927 0.5977,-0.8295 1.3037,-1.7775 1.9037,-2.6492 0.4085,-0.5719 1.3729,-1.9275 2.1787,-3.2087 3.4306,-5.1963 0.4881,-0.7566 0.2212,-0.343 0.0879,-0.1217 0.8583,-1.3262 2.7722,-4.3456 2.9628,-4.6279 0.1926,-0.2831 -5.2647,8.1801 -4.2631,6.6779 0.407,-0.6104 1.2251,-1.8837 1.5421,-2.3707 -0.6841,1.0753 -1.5444,2.3931 -1.9879,3.067 0.4945,-0.7351 1.176,-1.7831 1.5535,-2.3636 -0.463,0.7207 -0.7833,1.2135 -0.9145,1.4229 0.6863,-1.0452 1.1976,-1.8412 1.992,-3.0947 0.3464,-0.5539 -0.3162,0.4772 0.4328,-0.7038 0.1243,-0.2091 -0.4988,0.7813 -0.4633,0.7134 0.6024,-0.956 1.8062,-2.8466 2.101,-3.3096 0.2853,-0.4508 -0.7333,1.1441 -0.7625,1.1815 2.3327,-3.6678 5.1239,-7.5438 6.0205,-8.7319 0.9059,-1.1991 0.0507,-0.075 -0.3381,0.4371 1.0436,-1.3975 1.8523,-2.4378 3.1685,-4.0415 0.8417,-1.0268 0.5032,-0.6156 0.1774,-0.2264 0.2226,-0.2714 0.4205,-0.5103 0.5491,-0.6656 0.0936,-0.1136 0.3363,-0.4036 0.4988,-0.5986 -0.5323,0.6221 -1.4963,1.7928 -1.9219,2.313 0.7512,-0.9453 2.6441,-3.1684 3.3246,-3.9561 -1.1269,1.2663 -2.2901,2.6431 -3.4799,4.116 2.1971,-2.743 4.6605,-5.4528 6.6181,-7.5482 -0.1279,-0.0261 -0.2548,-0.0516 -0.3804,-0.0767 0.1426,0.0303 0.2623,0.0563 0.3696,0.0799 -0.2102,0.217 -0.3652,0.3722 -0.5891,0.6051 0.1753,-0.1839 0.3709,-0.3875 0.5747,-0.6004 -1.0102,-0.2164 -2.1917,-0.4659 -2.9969,-0.6206 -0.5611,-0.1151 -1.672,-0.341 -2.7771,-0.5689 1.9246,0.4055 3.2113,0.6766 4.5659,0.954 -0.0319,-0.004 -0.1589,-0.0279 -0.3934,-0.0749 0.5524,0.1191 1.0638,0.2276 1.5443,0.3281 -1.4561,1.5351 -2.3958,2.6059 -3.5338,3.9192 -0.1104,0.1254 -0.2206,0.251 -0.3339,0.3807 -0.476,0.5311 1.1388,-1.3111 1.2847,-1.4879 -2.1245,2.3698 -4.2795,5.0584 -5.2586,6.299 2.3023,-2.9764 4.49,-5.4935 6.3864,-7.5731 -0.5232,0.5475 -2.399,2.6691 -3.2896,3.7098 3.339,-3.9679 4.2808,-4.8125 4.6672,-5.2232 -0.1052,-0.0218 -0.1869,-0.0385 -0.2658,-0.0546 0.0874,0.0185 0.1748,0.037 0.2624,0.0555 -0.2682,0.2816 -0.5377,0.5648 -0.8115,0.8563 0.0776,-0.0868 0.1553,-0.1735 0.2354,-0.2626 0.1816,-0.1935 0.3677,-0.3899 0.5539,-0.5866 -2.4882,-0.5185 -5.0558,-1.0543 -4.9156,-1.0209 0.1124,0.0266 2.4014,0.5068 4.895,1.0272 -0.0668,0.0705 -0.1339,0.1414 -0.2009,0.2121 0.0626,-0.0692 0.1254,-0.1386 0.1883,-0.208 -0.183,-0.0344 -0.3672,-0.0689 -0.5548,-0.104 -3.0469,-0.6331 -6.523,-1.3333 -9.5484,-1.9744 0.4847,0.1143 0.2315,0.0595 -0.4063,-0.0657 0.9448,0.2051 2.2985,0.4875 3.3093,0.705 -0.3529,-0.0697 -0.98,-0.2025 -1.1873,-0.2398 0.5041,0.1091 1.3092,0.2751 1.552,0.335 -1.4354,-0.2949 -2.9745,-0.6134 -4.4866,-0.9255 -0.317,-0.053 0.6521,0.1386 0.5648,0.129 -1.4304,-0.2938 -3.4273,-0.7164 -4.4727,-0.922 1.1944,0.2584 3.5435,0.74 4.2702,0.8989 -0.4774,-0.0958 -0.9546,-0.1914 -1.4457,-0.2898 -0.9714,-0.2014 -1.4382,-0.2961 -0.3517,-0.0642 0.5822,0.1248 0.5685,0.1226 0.4215,0.0932 -0.6691,-0.131 -2.9767,-0.6138 -2.9176,-0.583 0.5827,0.1216 2.8872,0.6017 3.4606,0.7339 -0.4461,-0.0792 -1.617,-0.3314 -1.743,-0.3452 2.5526,0.5266 2.4548,0.5128 3.0965,0.6375 -0.2757,-0.0595 -1.0051,-0.2084 -0.9725,-0.2095 1.5705,0.3279 3.1409,0.6557 4.7588,0.9935 -0.1578,-0.023 -0.12,-0.003 0.0167,0.0319 -0.6863,-0.1426 -1.4018,-0.2886 -2.6779,-0.5568 0.3228,0.0865 1.4965,0.3287 2.5829,0.5495 -0.0122,2e-4 -0.0245,5e-4 -0.0371,8e-4 -1.7487,-0.3655 -4.4238,-0.9177 -6.2179,-1.2822 0.8114,0.1733 3.8176,0.8005 5.8695,1.2253 -0.0692,-0.0109 -0.1385,-0.0219 -0.2097,-0.0332 2.0859,0.432 4.4433,0.9341 6.8017,1.4259 -0.3923,0.4156 -0.7798,0.8329 -1.1594,1.2488 0.3462,-0.3898 0.7291,-0.8061 1.1409,-1.2428 -0.974,-0.2027 -2.0189,-0.4266 -3.1465,-0.6586 -0.8291,-0.1704 -1.5989,-0.3237 -2.4068,-0.485 -2.2699,-0.4783 -9.0316,-1.8917 -9.8063,-2.0448 -0.852,-0.1685 5.9916,1.2594 6.0258,1.2718 0.0341,0.0124 -3.1528,-0.6466 -1.6524,-0.3349 0.7835,0.1622 2.494,0.5171 3.7355,0.7741 0.0302,0.0172 0.0604,0.0344 0.0914,0.0521 -1.0798,-0.2247 -2.3589,-0.4863 -2.3912,-0.5141 -0.5363,-0.1093 -1.6494,-0.3501 -1.8266,-0.3765 0.1812,0.0391 0.4556,0.095 0.4514,0.0995 -0.2607,-0.0538 -0.6365,-0.1342 -0.6798,-0.1373 1.2986,0.273 3.0865,0.6519 4.5034,0.9469 0.1141,0.0288 0.228,0.0576 0.3452,0.0872 -0.0284,-0.004 -1.1359,-0.2304 -2.0849,-0.4258 -1.0009,-0.2056 1.066,0.231 2.7122,0.5731 0.2535,0.0583 0.5067,0.1166 0.7672,0.1766 -0.5679,-0.1192 -1.2273,-0.2568 -2.0045,-0.4176 -0.912,-0.1837 -0.8982,-0.1696 -1.8079,-0.3528 1.6588,0.35 3.6684,0.77 5.2845,1.1039 0.5711,0.1291 1.1409,0.258 1.7268,0.3906 -1.3438,-0.2758 -2.5894,-0.5271 -3.3308,-0.6745 -0.5881,-0.1241 -1.2021,-0.2535 -1.429,-0.2936 0.5452,0.1184 -0.8918,-0.1795 -0.6893,-0.124 0.7957,0.1535 2.3507,0.4832 2.939,0.5888 1.231,0.2568 2.5763,0.5382 3.77,0.7866 0.149,0.0328 0.298,0.0656 0.4515,0.0995 -1.0148,-0.2105 -1.9804,-0.4093 -3.0659,-0.6298 0.2912,0.0725 1.6022,0.3505 3.0755,0.6569 -0.6003,0.6433 -1.2249,1.3288 -1.7641,1.9356 -3.0941,3.4308 -5.8805,7.0362 -8.518,10.7908 -0.1086,0.1539 -0.2665,0.3752 -0.4398,0.6197 -0.1982,0.2761 -0.3951,0.553 -0.5967,0.8392 0.6204,-0.9105 1.1831,-1.7111 1.6482,-2.3641 -1.9229,2.6491 2.7732,-3.7172 3.0658,-4.1105 -3.2974,4.1505 -8.578,12.6295 -12.1047,17.7257 0.8414,-1.2244 1.1049,-1.6225 0.1974,-0.3017 -0.2457,0.3577 -0.4933,0.7129 -0.7507,1.0757 3.5915,-5.1141 6.9667,-10.8415 9.8204,-14.8195 -1.7247,2.372 -4.1478,6.1119 -4.843,7.1739 0.4699,-0.7401 1.1604,-1.8085 1.2467,-1.9536 -0.8488,1.2861 -3.5834,5.6345 -4.4323,6.8995 4.0398,-6.1552 9.5097,-14.347 12.8701,-18.4167 -5.1341,6.1714 -10.8527,15.6449 -14.8488,21.3045 0.702,-0.9839 0.7119,-1.0022 0.356,-0.4807 -1.2338,1.771 -2.5193,3.4744 -3.9453,5.0818 -0.2923,0.3235 -0.1918,0.2255 0.4809,-0.5649 0.5531,-0.6503 0.8695,-1.0474 1.0345,-1.2652 -0.37,0.4578 -4.7397,5.4979 -1.2625,1.504 3.4678,-3.9831 8.5551,-12.1542 5.4931,-7.4845 -3.0613,4.6687 -4.4465,6.3048 -2.691,3.8873 1.763,-2.4279 6.9162,-10.5866 5.1806,-7.8545 -1.7282,2.7203 -5.4665,8.4178 -7.8601,11.2028 -2.40248,2.7954 1.8674,-1.6323 -1.9122,2.1328 -3.77982,3.7652 -0.64716,0.6301 -1.40439,1.2963 -1.19865,1.0542 -3.51926,2.8193 -6.09036,3.931 -1.80626,0.7786 -4.39129,1.3731 -5.68415,1.5043 0.08715,-0.0171 6.0365,-1.5148 3.723,-0.7925 -5.67978,1.7933 -12.30966,-0.0903 -9.68339,0.4882 -3.53581,-0.756 -5.89614,-2.1806 -7.71534,-3.5993 -0.51811,-0.4094 -1.03291,-0.8606 -1.5205,-1.3367 2.35175,2.1872 5.4097,2.2635 5.80404,2.27 0.28308,0.005 3.06418,0.0418 5.94904,-1.2776 2.88487,-1.3194 5.30162,-3.9355 6.44217,-5.4357 0.16758,-0.2289 3.64787,-6.0864 3.91293,-6.6132 3.09321,-5.7459 2.15237,-5.3409 6.75615,-9.5963 3.8482,-3.5565 5.1571,-4.6576 5.7445,-5.348 1.8378,-2.1606 2.2972,-3.6387 2.6061,-4.6495 0.3089,-1.0109 0.4606,-1.6952 0.4978,-3.0878 0.0231,-0.8411 -0.0867,-2.1388 -0.1893,-2.5715 -0.2053,-0.8654 -0.4178,-1.2369 -0.4605,-0.9455 0,0 0,0 0,0 z m 10.9663,1.8328 c -0.9609,-0.2057 -2.7154,-0.5678 -3.7296,-0.7861 1.1821,0.2329 2.625,0.5379 4.0905,0.8496 -0.1192,-0.021 -0.2383,-0.0419 -0.3609,-0.0635 0,0 0,0 0,0 z m 3.8696,2.7041 c 0.3887,-0.4275 0.8692,-0.9342 1.3211,-1.4141 -0.0894,-0.0193 -0.1785,-0.0377 -0.2673,-0.0558 -0.6757,-0.1403 -1.3716,-0.2881 -2.4084,-0.4972 0.0706,0.0212 1.4176,0.3087 2.6397,0.5636 -0.1017,0.109 -0.2018,0.216 -0.2987,0.32 -0.007,0.002 -0.0149,0.005 -0.0226,0.007 0.0934,-0.1019 0.1909,-0.2076 0.2927,-0.3173 -0.5461,-0.1109 -1.1645,-0.2374 -1.8663,-0.3839 -0.3012,-0.0637 -0.6025,-0.1274 -0.9129,-0.1931 -0.0141,-0.0102 0.4732,0.0862 0.651,0.1253 -0.2142,-0.0559 -0.9958,-0.2242 -2.0147,-0.4401 -0.1208,-0.0274 -0.2418,-0.0548 -0.3664,-0.083 -0.1277,-0.0372 0.6594,0.1217 -0.213,-0.059 0.6281,0.1192 2.1988,0.4568 3.1921,0.6608 -0.6427,-0.1201 0.3913,0.0968 1.6018,0.3496 -0.6769,0.7194 -1.4166,1.531 -1.7387,1.8815 0.1351,-0.1536 0.2706,-0.3069 0.4106,-0.4645 z m -4.5106,6.0222 c -0.3674,0.4582 -0.7314,0.9191 -1.1026,1.3968 0.5313,-0.6857 0.9433,-1.2051 1.3241,-1.6798 -0.0733,0.0933 -0.1464,0.1867 -0.2215,0.283 z m -33.9576,32.8691 c 1.80644,-0.0382 4.69019,-0.5018 6.93292,-1.3597 2.24274,-0.8579 3.87243,-1.9431 4.06499,-2.0778 0.63104,-0.4051 1.24202,-0.8389 1.85167,-1.3135 -3.83289,3.0032 -9.22517,4.6989 -12.84958,4.751 0,0 0,0 0,0 z m 11.03037,-4.3524 c 0.23255,-0.1562 0.1452,-0.0836 -0.41782,0.2829 -2.99849,1.9493 -5.12618,2.5796 -3.02305,1.6552 1.79593,-0.7894 5.24249,-3.2109 4.2539,-2.4752 -1.31959,0.9773 -2.72731,1.8224 -4.30028,2.511 -1.21239,0.524 -2.48533,0.9306 -3.81016,1.1989 2.83492,-0.6099 5.29331,-1.8109 7.29741,-3.1728 0,0 0,0 0,0 z m -8.90056,3.4252 c 1.01919,-0.1282 2.24904,-0.3812 3.43189,-0.757 -1.02419,0.3275 -2.09679,0.5783 -3.19322,0.7318 -0.07878,0.009 -0.15754,0.0171 -0.23867,0.0252 z m -1.31375,0.1041 c 2.07494,-0.1177 4.14629,-0.5771 2.06489,-0.2242 -0.46808,0.0792 -0.93733,0.1409 -1.42105,0.1855 -0.21259,0.0164 -0.42509,0.0293 -0.64384,0.0387 z m -1.28048,0.0208 c 0.02755,0.005 0.38016,0.0216 1.07219,-0.009 -1.40914,0.0648 -4.19123,-0.2714 -4.06471,-0.2602 0.91809,0.1559 1.93894,0.2575 2.99252,0.2691 0,0 0,0 0,0 z m -1.92952,0.7054 c 0.95997,0.1069 1.80047,0.1771 0.27614,0.036 -0.58019,-0.0539 -1.1573,-0.1329 -1.74666,-0.2412 0.48238,0.0858 0.96792,0.1542 1.47052,0.2052 z M 117.2762,173.153 c -0.2431,0.3189 -1.1665,1.5416 -1.6819,2.2549 0.003,0.0556 2.051,-2.7114 1.6819,-2.2549 0,0 0,0 0,0 z m 3.5738,-4.454 c -0.2494,0.2964 -1.231,1.4726 -1.7892,2.1703 0.005,0.0514 2.1812,-2.6098 1.7892,-2.1703 0,0 0,0 0,0 z m -30.75673,25.2002 c -0.0027,0.004 -0.0053,0.007 -0.008,0.0109 0.0027,-0.004 0.0053,-0.007 0.008,-0.0109 0,0 0,0 0,0 z" /></g></g><g
       id="g52"><g
         clip-path="url(#clipPath58)"
         id="g54"><path
           id="path60"
           style="fill:#003000;fill-opacity:1;fill-rule:nonzero;stroke:none"
           d="m 111.116,155.1984 c 0.8894,5.5296 1.328,11.11 1.336,16.6651 0.008,5.5172 -0.4076,11.3363 1.5652,16.4059 2.9305,7.5307 9.6009,10.2584 16.088,10.4919 6.6549,0.2397 13.2522,-1.7005 19.2113,-5.6497 -4.8343,-2.3759 -9.967,-3.4913 -15.1183,-3.2861 -3.9791,0.1585 -8.35,0.8273 -11.1906,-2.9761 -2.9408,-3.9376 -2.2935,-10.0374 -1.0209,-15.3831 1.0807,-4.5394 2.4656,-9.0012 4.1716,-13.3635 z" /><path
           id="path62"
           style="fill:#000000;fill-opacity:1;fill-rule:nonzero;stroke:none"
           d="m 123.9655,157.4612 c -0.2951,-0.0635 -1.5949,-0.3171 -1.6223,-0.3086 0.4892,0.0918 1.5174,0.2995 1.6223,0.3086 0,0 0,0 0,0 z m 2.4466,0.5984 c 0.0158,-0.0382 0.033,-0.0804 0.0511,-0.1253 -0.505,-0.1031 -1.4095,-0.2721 -1.7203,-0.3243 0.4752,0.089 1.351,0.2643 1.7125,0.3291 -0.0211,0.0561 -0.0363,0.0982 -0.0433,0.1205 0,0 0,0 0,0 z m -3.8751,-0.8413 c -0.6986,-0.1316 -1.9755,-0.3874 -2.3003,-0.4389 0.698,0.1315 1.974,0.387 2.3003,0.4389 0,0 0,0 0,0 z m 3.1587,31.4199 c -0.2455,-0.1339 -1.264,-0.8627 -1.2768,-0.8559 0.3605,0.3069 1.1912,0.8241 1.2768,0.8559 0,0 0,0 0,0 z m -3.9652,-5.4333 c -0.0997,-0.432 -0.276,-1.4126 -0.322,-1.7304 0.0669,0.5349 0.2717,1.5767 0.322,1.7304 0,0 0,0 0,0 z m -0.4328,-4.1066 c 0.009,-1.0082 0.1139,-2.1123 0.0826,-1.9044 -0.0179,0.3287 -0.0969,1.7985 -0.0826,1.9044 0,0 0,0 0,0 z m 1.4648,-21.2852 c 1.0118,0.1901 1.7279,0.3389 2.4073,0.4694 0.1893,0.0364 0.3524,0.0677 0.4914,0.0942 -0.3815,0.9966 -0.2603,0.6964 0.0141,-0.005 -0.9257,-0.1855 -2.5451,-0.4995 -2.9128,-0.5583 0,0 0,0 0,0 z m -0.4019,13.5515 c -0.168,0.7001 -0.2963,1.3014 -0.3625,1.655 0.1412,-0.683 0.3686,-1.6195 0.3625,-1.655 0,0 0,0 0,0 z m 1.6118,-5.9745 c 0.0559,-0.1567 1.176,-3.6593 1.8737,-5.5692 -0.6066,1.6291 -1.9296,5.7257 -1.8737,5.5692 0,0 0,0 0,0 z m -0.1189,-1.9226 c -0.7044,2.2021 -1.6926,5.7745 -2.0845,7.4093 -0.3891,1.6232 0.6732,-2.9143 1.9754,-6.9911 1.305,-4.0876 0.1822,-0.7036 0.7504,-2.3545 0.5628,-1.6373 -0.5653,1.5875 -1.0701,3.2407 -0.5013,1.642 0.3528,-1.1017 0.4288,-1.3044 0,0 0,0 0,0 z m -0.027,-0.0712 c 0.261,-0.8 0.4927,-1.4842 0.641,-1.932 -0.2908,0.8217 -0.5546,1.6102 -0.641,1.932 0,0 0,0 0,0 z m -12.5593,-7.701 c -0.0876,0.31 0.1202,2.3716 0.2914,4.6333 0.0446,0.5639 0.0848,1.1282 0.1213,1.7101 0.3312,4.1416 0.4034,8.2613 0.3465,12.49 -0.0107,0.8373 -0.021,1.6792 -0.0207,2.548 -0.002,2.611 0.0975,5.2442 0.5955,7.7955 0.1654,0.8461 0.3733,1.682 0.6465,2.5274 0.9487,2.9851 3.0322,6.115 5.4565,8.0097 1.2121,0.9469 2.5581,1.7169 4.0224,2.326 0.733,0.3055 3.9691,1.1637 5.1276,1.2994 -1.1031,-0.1118 4.3713,0.2016 4.12,0.2072 0.6058,-0.0254 1.2413,-0.0659 1.8802,-0.1233 0.638,-0.0579 -0.1806,0.0181 -0.9994,0.0585 0.7145,-0.0439 1.4313,-0.1093 2.1615,-0.2002 0.7681,-0.0941 1.5337,-0.2163 2.3186,-0.3726 2.5697,-0.5027 5.2508,-1.4258 7.4853,-2.4828 1.4055,-0.6548 3.3196,-1.7229 5.3731,-3.0845 -3.7496,-1.8062 -8.2367,-3.1241 -11.4994,-3.4734 -3.2626,-0.3493 -5.2372,-0.1366 -3.9524,-0.162 3.7521,-0.0731 1.8054,0.0165 0.7984,0.0138 -0.5901,-0.002 -1.3801,0.0229 -2.2585,0.0693 0.0308,-0.007 0.1011,-0.0149 0.2361,-0.0242 -1.6582,0.0786 -4.0377,0.2848 -6.1098,-0.1914 0.3812,0.0931 0.8877,0.1707 1.07,0.2008 -1.0857,-0.1375 -0.2434,0.007 -0.9348,-0.1408 -1.9212,-0.4194 -2.774,-0.7955 -0.6122,-0.1514 -2.0169,-0.5887 -3.3427,-1.7775 -4.3271,-3.5356 -0.3631,-0.668 -0.1611,-0.3044 -0.0482,-0.107 -0.6172,-1.1786 -1.2286,-4.3489 -1.2472,-4.6606 -0.009,-0.156 0.1538,2.1262 0.9062,3.9022 0.7524,1.776 2.2672,3.2128 1.6606,2.5677 -0.4933,-0.5245 -1.2203,-1.6538 -1.4296,-2.093 0.478,0.9718 1.4425,2.1563 2.0314,2.6384 -0.6315,-0.5285 -1.3888,-1.516 -1.6804,-2.0161 0.3678,0.6212 0.7425,1.0645 0.9161,1.2533 -0.8327,-0.9438 -1.1795,-1.5751 -1.6265,-2.7708 -0.2021,-0.5292 0.1064,0.483 -0.2421,-0.6877 -0.0697,-0.2094 0.2533,0.7584 0.2216,0.6919 -0.3444,-0.9139 -0.6907,-2.9181 -0.7382,-3.4356 -0.0476,-0.5042 0.1563,1.2457 0.1582,1.2836 -0.6716,-3.8948 0.4423,-9.0233 0.7851,-10.4994 0.3464,-1.4892 0.0152,-0.0961 -0.1308,0.5407 0.3855,-1.7438 0.6984,-2.9532 1.2518,-4.9134 0.3535,-1.2551 0.2115,-0.754 0.0721,-0.279 0.0938,-0.3323 0.1784,-0.6256 0.2335,-0.8166 0.04,-0.1399 0.1451,-0.4966 0.2156,-0.7375 -0.2353,0.7655 -0.6427,2.1977 -0.8192,2.8286 0.3043,-1.1519 1.1357,-3.8835 1.4453,-4.8651 -0.5219,1.5725 -1.0301,3.2659 -1.5175,5.0522 0.9324,-3.4754 2.1476,-7.0024 3.1563,-9.7036 -0.1889,0.4872 -0.2794,0.7053 -0.4331,1.1083 0.2206,-0.5855 0.5099,-1.3276 0.7832,-2.025 -0.5778,-0.1113 -1.1334,-0.2162 -1.5708,-0.2932 -0.5435,-0.103 -1.6189,-0.3047 -2.69,-0.5089 1.7739,0.3463 2.9896,0.5836 4.231,0.819 -0.0237,0.0611 -0.0477,0.1233 -0.0716,0.1851 0.004,-0.0161 0.0257,-0.0757 0.0657,-0.1823 -0.0494,-0.008 -0.1075,-0.0188 -0.1747,-0.0312 0.0572,0.0115 0.114,0.0228 0.1703,0.034 -1.0615,2.6667 -1.556,4.2192 -2.1755,6.1774 -0.0505,0.1551 -0.1006,0.3103 -0.1518,0.4703 -0.2188,0.653 0.5178,-1.6276 0.5828,-1.8494 -0.9959,2.9514 -1.8734,6.2165 -2.2583,7.7026 0.8888,-3.5789 1.8744,-6.6865 2.7875,-9.2988 -0.2581,0.6852 -1.128,3.3253 -1.5205,4.6 1.7226,-5.7697 2.1084,-6.2932 2.2802,-6.7512 -0.1673,0.4355 -0.3315,0.872 -0.4973,1.3227 0.0372,-0.1095 0.0746,-0.2189 0.1133,-0.3315 0.2429,-0.6596 0.5063,-1.3474 0.7608,-1.999 -1.9182,-0.3693 -3.5549,-0.6848 -3.4428,-0.6598 0.0895,0.0199 1.5754,0.3089 3.4292,0.6677 -0.1909,0.4873 -0.3902,1.0029 -0.5859,1.5255 0.0858,-0.2461 0.1725,-0.4918 0.2629,-0.7446 0.0968,-0.253 0.1961,-0.5087 0.2963,-0.7665 -2.7562,-0.5261 -5.7887,-1.0918 -8.468,-1.6181 0.474,0.1047 0.2272,0.0551 -0.392,-0.0566 0.921,0.1857 2.2387,0.4401 3.2241,0.637 -0.3425,-0.0622 -0.9535,-0.1822 -1.154,-0.215 0.4918,0.0989 1.2753,0.2482 1.5141,0.3036 -1.397,-0.2652 -2.8958,-0.5519 -4.3683,-0.833 -0.307,-0.0461 0.6357,0.1254 0.5521,0.1178 -1.3935,-0.2645 -3.3403,-0.6463 -4.3583,-0.8303 1.1651,0.2341 3.4544,0.6676 4.164,0.8118 -0.465,-0.0858 -0.9297,-0.1717 -1.4082,-0.26 -0.9472,-0.1816 -1.4022,-0.2668 -0.3418,-0.0568 0.5684,0.113 0.555,0.1111 0.4118,0.0847 -0.6519,-0.1173 -2.9039,-0.5534 -2.8452,-0.5237 0.5689,0.1099 2.8188,0.5436 3.3804,0.6645 -0.4339,-0.0699 -1.5786,-0.2989 -1.7005,-0.3099 2.4932,0.4755 2.3987,0.4638 3.0241,0.5754 -0.2697,-0.0541 -0.9817,-0.1883 -0.9511,-0.1903 1.534,0.2964 3.0679,0.5928 4.6482,0.8982 -0.1515,-0.0194 -0.1113,2e-4 0.0241,0.0329 -0.6706,-0.1288 -1.3692,-0.2604 -2.6171,-0.5034 0.3197,0.0808 1.4669,0.2997 2.5277,0.4986 -0.0113,7e-4 -0.0225,0.001 -0.034,0.002 -1.7104,-0.3309 -4.3255,-0.8299 -6.0792,-1.1587 0.7944,0.1573 3.7358,0.7253 5.7427,1.1095 -0.0668,-0.01 -0.1337,-0.0189 -0.2025,-0.0286 1.6565,0.3173 3.4918,0.6778 5.3586,1.0406 -0.3643,0.9318 -0.7151,1.8745 -1.0427,2.805 0.2831,-0.8411 0.6335,-1.7843 1.0307,-2.798 -0.5704,-0.1117 -1.1643,-0.2275 -1.7823,-0.345 -0.8109,-0.1539 -1.5623,-0.2917 -2.3513,-0.4369 -2.2244,-0.434 -8.8466,-1.7153 -9.605,-1.8532 -0.8342,-0.1519 5.8707,1.1427 5.9052,1.1546 0.0345,0.012 -3.0881,-0.585 -1.6176,-0.3024 0.7677,0.1469 2.4437,0.4685 3.6599,0.7014 0.0325,0.0171 0.0648,0.0342 0.0981,0.0518 -1.0591,-0.2039 -2.3126,-0.4406 -2.3484,-0.4686 -0.5253,-0.0988 -1.618,-0.3183 -1.7902,-0.341 0.1779,0.0356 0.4467,0.0862 0.4434,0.0909 -0.2555,-0.0487 -0.6244,-0.1219 -0.666,-0.124 1.2741,0.2479 3.0291,0.5927 4.419,0.8604 0.1131,0.0268 0.2262,0.0537 0.3427,0.0813 -0.0274,-0.003 -1.1133,-0.2084 -2.0443,-0.3855 -0.9819,-0.1863 1.0486,0.211 2.6646,0.5217 0.2505,0.0538 0.5007,0.1075 0.7584,0.1628 -0.5581,-0.1084 -1.2058,-0.2334 -1.9689,-0.3795 -0.8943,-0.1661 -0.8782,-0.1518 -1.7708,-0.3176 1.6314,0.319 3.6072,0.7011 5.1948,1.0044 0.565,0.119 1.1291,0.2379 1.7094,0.3603 -1.3204,-0.2504 -2.5431,-0.4779 -3.2705,-0.6111 -0.5793,-0.1132 -1.184,-0.2313 -1.4054,-0.2668 0.538,0.1085 -0.8763,-0.1626 -0.6736,-0.1103 0.7803,0.1381 2.3132,0.4394 2.8868,0.533 0.9532,0.1841 1.9762,0.382 2.9412,0.5682 -0.0975,0.2539 -0.1921,0.502 -0.2832,0.7436 -0.057,0.146 -0.1135,0.2921 -0.1714,0.4428 0.1477,-0.3986 0.2945,-0.7878 0.4445,-1.1788 -0.5781,-0.1121 -1.163,-0.2227 -1.788,-0.34 0.2011,0.047 0.88,0.1827 1.7586,0.3541 -0.42,1.0831 -0.9252,2.4745 -1.3132,3.6259 -1.4543,4.2083 -2.6812,8.426 -3.3855,13.0825 -0.0292,0.1908 -0.0714,0.4639 -0.1133,0.7645 -0.0493,0.3384 -0.0934,0.6769 -0.1326,1.025 0.108,-1.1167 0.2652,-2.1141 0.41,-2.9257 -0.6141,3.2762 1.0136,-4.4995 1.1242,-4.9718 -0.6604,2.46 -1.6698,6.299 -1.7046,10.1701 -0.0349,3.871 1.2466,7.6428 3.7219,9.5179 -1.1949,-0.899 -1.5491,-1.2806 -0.3,-0.2286 0.3381,0.2848 0.6901,0.5306 1.0648,0.7462 -2.6584,-1.5114 -4.0082,-4.6424 -4.3675,-7.5051 -0.3592,-2.8628 0.0292,-5.8269 0.5004,-8.2946 -0.5788,2.9312 -0.6342,7.4136 -0.4832,8.576 -0.1184,-0.8154 -0.1683,-2.0434 -0.178,-2.2155 0.0152,1.4882 1.2451,6.052 2.0229,7.1731 -1.9375,-2.7259 -2.3287,-6.9928 -1.7991,-11.0644 0.5295,-4.0716 1.5967,-7.5788 2.3137,-10.0293 -1.1011,3.7106 -2.443,8.3423 -2.5631,12.9245 -0.1201,4.5822 1.7021,8.9659 4.699,10.5658 -1.0356,-0.5595 -1.0203,-0.6367 -0.4813,-0.2994 1.8059,1.154 3.8896,1.3745 6.0233,1.3468 0.4266,-0.002 0.2811,0.0236 -0.7484,0.007 -0.8468,-0.0135 -1.3337,-0.073 -1.6081,-0.1 0.5606,0.073 7.1493,0.1508 1.9074,0.1202 -1.3066,-0.008 -2.8517,-0.1356 -4.2498,-0.6799 -1.3982,-0.5444 -2.7744,-1.7809 -3.4161,-2.6513 -1.2836,-1.7407 -1.6826,-2.548 -0.3074,-0.4291 1.3746,2.118 3.5658,3.0803 4.3472,3.3198 0.7815,0.2396 0.5653,0.2856 -0.7767,-0.2655 -1.3474,-0.5534 -3.78,-2.9124 -4.5589,-4.9414 -0.7789,-2.029 -0.8811,-3.5813 -0.5991,-2.1012 0.2807,1.4736 0.8566,3.6955 2.8295,5.5712 1.9728,1.8757 4.5344,2.199 6.3522,2.2419 3.65,0.0862 -2.3642,0.1545 2.9238,-0.1216 5.2886,-0.2762 0.865,-0.0438 1.8544,-0.0675 1.5652,-0.0372 4.4429,0.1041 7.1249,0.6921 1.8788,0.4142 4.2647,1.2347 5.4327,1.7305 -0.0985,-0.0328 -5.7324,-1.8719 -3.5035,-1.2228 1.587,0.4563 3.2054,1.0705 4.6337,1.7309 -3.4093,2.1492 -5.9964,3.0934 -4.2196,2.2986 -3.3161,1.5076 -5.8578,2.104 -8.0206,2.4657 -3.3954,0.5445 -7.3252,0.2977 -7.7544,0.2468 -0.2516,-0.0302 -2.666,-0.2403 -5.2141,-1.242 -2.5481,-1.0017 -5.0291,-3.0134 -6.1756,-4.44 -0.0867,-0.1038 -1.1635,-1.4022 -1.9977,-3.1101 -0.8342,-1.708 -1.2335,-3.3241 -1.3045,-3.5783 -1.4281,-5.7931 -0.8612,-5.1271 -0.8058,-11.2808 0.0467,-5.1448 -0.0731,-6.6773 -0.1146,-7.5374 -0.2606,-5.3831 -0.3432,-5.3504 -0.732,-7.961 -0.1169,-0.7901 -0.2862,-2.0125 -0.3807,-2.422 -0.1892,-0.8212 -0.3397,-1.1959 -0.408,-0.9175 0,0 0,0 0,0 z m 10.7545,1.6061 c -0.9393,-0.1866 -2.6508,-0.5131 -3.6421,-0.7111 1.1505,0.2084 2.5592,0.4843 3.9909,0.7667 -0.1152,-0.0184 -0.2303,-0.0367 -0.3488,-0.0556 0,0 0,0 0,0 z m 2.7464,3.9504 c 0.2114,-0.6033 0.4894,-1.3363 0.7383,-2.0075 0.1173,-0.3131 0.2395,-0.6323 0.3779,-0.9896 -0.3853,-0.0751 -0.8154,-0.157 -1.3308,-0.2528 0.0458,0.0129 0.6017,0.1244 1.3097,0.2635 -0.2012,0.5146 -0.4273,1.1102 -0.6215,1.6407 -0.005,0.003 -0.0101,0.005 -0.0154,0.008 0.1683,-0.4712 0.3669,-1.0108 0.6059,-1.6305 -0.1722,-0.0343 -0.3502,-0.0685 -0.5342,-0.104 -0.2962,-0.0581 -0.5925,-0.1162 -0.8978,-0.176 -0.0165,-0.0104 0.4601,0.0763 0.6354,0.1122 -0.2145,-0.0526 -0.9839,-0.2064 -1.9852,-0.403 -0.1193,-0.0253 -0.2387,-0.0505 -0.3618,-0.0765 -0.1286,-0.0353 0.6419,0.1082 -0.2136,-0.0557 0.6123,0.1064 2.1564,0.4144 3.1295,0.599 -0.3644,-0.0622 -0.1714,-0.0211 0.2881,0.0694 -0.3595,0.9164 -1.081,2.9158 -1.3164,3.5774 0.0628,-0.1899 0.1261,-0.3796 0.1919,-0.5748 z m -1.8081,7.4863 c -0.1492,0.5553 -0.2937,1.1119 -0.4377,1.6866 0.2054,-0.8254 0.3708,-1.4547 0.5261,-2.0316 -0.0294,0.1138 -0.0585,0.2276 -0.0884,0.345 z m 26.4305,24.7853 c 0.2219,-0.1485 0.4564,-0.3072 0.7121,-0.4786 -3.5411,-1.6847 -9.7234,-3.2205 -10.1875,-3.2732 -0.7409,-0.1121 -1.4847,-0.1977 -2.2532,-0.2566 4.4997,0.3311 9.1705,1.9561 12.4411,3.5564 -0.2419,0.1394 -0.4783,0.2977 -0.7125,0.452 0,0 0,0 0,0 z m -11.4221,-3.2305 c -0.2738,-0.0249 -0.1584,-0.0239 0.5067,0.0429 3.5381,0.3575 5.6048,1.0148 3.4002,0.5298 -1.8827,-0.414 -6.0344,-0.7324 -4.8103,-0.6686 1.6244,0.0886 3.2428,0.3071 4.894,0.6726 1.2572,0.2847 2.4535,0.6438 3.6518,1.0848 -2.6483,-0.9363 -5.249,-1.4575 -7.6424,-1.6615 0,0 0,0 0,0 z m 9.0773,2.2301 c -0.9348,-0.3827 -2.0578,-0.7876 -3.2059,-1.1217 0.999,0.2886 1.9907,0.6278 3.002,1.0322 0.0674,0.0293 0.1347,0.0589 0.2039,0.0895 z m 1.1637,0.5189 c -1.8916,-0.8579 -3.8151,-1.5251 -1.8795,-0.7913 0.435,0.1651 0.8682,0.34 1.3125,0.5309 0.1876,0.0841 0.3747,0.1699 0.567,0.2604 z m -0.6151,0.6592 c 0.0307,-0.0133 0.3237,-0.179 0.8771,-0.529 -0.0152,-0.0182 -0.042,-0.0307 -0.0695,-0.0434 0.0265,0.0122 0.0534,0.0247 0.0809,0.0374 -1.2589,0.7994 -3.6746,2.0469 -3.5787,1.9893 0.8441,-0.4104 1.7621,-0.9006 2.6902,-1.4543 0,0 0,0 0,0 z m -0.2375,1.0884 c 0.8471,-0.4791 1.5824,-0.91 0.2562,-0.138 -0.5051,0.2938 -1.0142,0.5741 -1.5429,0.8481 0.4275,-0.2247 0.8523,-0.4588 1.2867,-0.7101 z m -25.4696,-24.5084 c -0.0926,0.3764 -0.4466,1.839 -0.6227,2.7215 0.0187,0.0858 0.7708,-3.2537 0.6227,-2.7215 0,0 0,0 0,0 z m 1.4639,-5.3167 c -0.1088,0.3581 -0.5306,1.7722 -0.7588,2.6055 0.0173,0.0726 0.9366,-3.133 0.7588,-2.6055 0,0 0,0 0,0 z m -6.3487,27.5272 c 0.003,0.003 0.006,0.007 0.008,0.01 -0.003,-0.003 -0.005,-0.006 -0.008,-0.01 0,0 0,0 0,0 z" /></g></g><g
       id="g64"><g
         clip-path="url(#clipPath70)"
         id="g66"><path
           id="path72"
           style="fill:#003000;fill-opacity:1;fill-rule:nonzero;stroke:none"
           d="m 145.5024,172.9182 c 1.5034,2.0283 3.2479,3.8663 5.1953,5.473 6.6572,5.4924 15.0302,7.9365 23.3555,9.4026 5.226,0.9203 10.8001,1.6041 14.6724,5.3318 1.876,1.8059 3.1144,4.1724 3.5289,6.7431 -2.4982,-2.8519 -5.666,-5.0387 -9.2189,-6.3622 -5.4381,-2.0258 -11.3111,-1.9054 -17.0074,-2.4387 -5.2058,-0.4874 -10.3836,-1.5248 -15.2806,-3.4901 -8.7371,-3.5063 -16.1047,-9.7463 -21.0017,-17.7869 z" /><path
           id="path74"
           style="fill:#000000;fill-opacity:1;fill-rule:nonzero;stroke:none"
           d="m 133.4501,170.7444 c 0.2935,0.0648 1.5166,0.3102 1.5107,0.2952 -0.4529,-0.0872 -1.4413,-0.2926 -1.5107,-0.2952 0,0 0,0 0,0 z m -2.4415,-0.478 c 0.4603,0.1005 1.4223,0.2855 1.7161,0.3353 -0.5121,-0.0984 -1.5767,-0.3189 -1.7161,-0.3353 0,0 0,0 0,0 z m 3.7045,0.6958 c 0.6525,0.1262 1.8771,0.3785 2.1627,0.424 -0.6535,-0.1264 -1.8799,-0.3791 -2.1627,-0.424 0,0 0,0 0,0 z m 19.3145,17.3567 c -0.2721,-0.0931 -1.4379,-0.492 -1.4412,-0.4788 0.4236,0.1473 1.3571,0.4637 1.4412,0.4788 0,0 0,0 0,0 z m -6.4106,-2.5639 c -0.3943,-0.2084 -1.2695,-0.6652 -1.5491,-0.811 0.4604,0.2517 1.3956,0.7464 1.5491,0.811 0,0 0,0 0,0 z m -3.481,-1.9577 c -0.7926,-0.4922 -1.6124,-1.053 -1.4744,-0.9434 0.26,0.1636 1.3729,0.8984 1.4744,0.9434 0,0 0,0 0,0 z m -11.0197,-13.7039 c -1.0608,-0.2053 -1.8533,-0.3731 -2.5743,-0.5156 -3.5166,-0.6953 1.9016,0.4051 2.5743,0.5156 0,0 0,0 0,0 z m 5.3196,9.5223 c 0.5051,0.4437 0.9215,0.7852 1.1827,0.9895 -0.4826,-0.3935 -1.1321,-0.9639 -1.1827,-0.9895 0,0 0,0 0,0 z m -4.1111,-4.1131 c -0.0838,-0.1082 -2.277,-2.7865 -3.3655,-4.4027 0.9039,1.361 3.4494,4.511 3.3655,4.4027 0,0 0,0 0,0 z m -2.8033,-2.4034 c 1.4445,1.9538 4.0276,4.7867 5.3016,5.9808 1.2631,1.1838 -2.307,-2.0337 -4.9733,-5.5794 -2.6767,-3.5586 -0.5483,-0.6321 -1.5644,-2.162 -1.0108,-1.5207 0.9361,1.4472 2.0625,2.8753 1.1169,1.4159 -0.7178,-0.9502 -0.8264,-1.1147 0,0 0,0 0,0 z m -0.1571,-0.1345 c -0.5157,-0.7116 -0.9449,-1.3456 -1.2341,-1.7753 0.4894,0.7574 0.9849,1.4617 1.2341,1.7753 0,0 0,0 0,0 z m 14.5001,0.3149 c 0.0632,0.3029 1.2022,1.9566 2.7062,3.5374 0.3738,0.3903 0.7571,0.7707 1.1618,1.1515 2.9433,2.6707 6.4527,4.7687 10.1211,6.3225 0.7265,0.307 1.4606,0.5956 2.2239,0.8745 2.287,0.8382 4.6575,1.5143 7.0633,2.0752 0.7982,0.1859 1.5988,0.3592 2.4244,0.526 2.864,0.5939 5.763,0.9484 8.5655,1.6199 1.4019,0.3355 2.7727,0.7551 4.053,1.3278 0.6372,0.2858 3.2822,1.8634 4.1298,2.6459 -0.8682,-0.7788 2.3651,3.1754 2.2591,2.976 0.2906,0.5214 0.5424,1.0792 0.7418,1.6445 0.2016,0.5694 -0.015,-0.1356 -0.3058,-0.8127 0.1969,0.4425 0.3629,0.894 0.4998,1.3563 -0.1204,-0.2031 -0.2671,-0.3456 -0.4167,-0.4873 -0.5439,-0.5174 -1.1112,-1.0081 -1.7191,-1.4829 -1.9942,-1.5684 -4.3772,-2.8197 -6.5564,-3.577 -6.047,-2.1442 -23.1925,-3.1604 -20.1367,-2.7147 3.455,0.5052 1.6944,0.2468 0.7696,0.1269 -0.543,-0.0709 -1.2702,-0.1726 -2.0808,-0.3056 0.0212,-0.002 0.0795,0.003 0.2007,0.0205 -1.5382,-0.2536 -3.6926,-0.6968 -5.7519,-1.2479 0.3842,0.1084 0.8781,0.236 1.0606,0.2893 -1.0506,-0.2651 -0.2158,-0.035 -0.9014,-0.2163 -1.9147,-0.5155 -2.8226,-0.7926 -0.6127,-0.1638 -2.0551,-0.5726 -3.356,-1.002 -5.3259,-1.8199 -0.7421,-0.3185 -0.3358,-0.1452 -0.1118,-0.0568 -1.2934,-0.5632 -4.1524,-2.0547 -4.4064,-2.208 -0.2525,-0.1539 7.9683,3.5696 6.4631,3.0023 -0.6108,-0.2301 -1.8713,-0.74 -2.3406,-0.9511 1.0484,0.4568 2.3649,0.9581 3.0518,1.1931 -0.7436,-0.2637 -1.7852,-0.6681 -2.3517,-0.9086 0.7073,0.295 1.2014,0.4786 1.4141,0.5532 -1.0427,-0.3933 -1.8232,-0.7155 -3.0263,-1.2746 -0.5363,-0.2448 0.4393,0.2344 -0.6857,-0.3139 -0.2077,-0.0933 0.7447,0.3571 0.6724,0.3305 -0.9235,-0.4261 -2.7024,-1.3698 -3.1395,-1.6151 -0.4278,-0.2385 1.0729,0.5912 1.1022,0.6119 -3.4641,-1.8366 -6.9695,-4.5835 -8.0116,-5.4804 -1.0511,-0.9056 -0.0736,-0.0544 0.3688,0.324 -1.2365,-1.0392 -2.1294,-1.86 -3.4487,-3.2476 -0.8465,-0.8893 -0.5118,-0.5395 -0.2015,-0.2034 -0.2246,-0.238 -0.4208,-0.4515 -0.549,-0.5916 -0.0946,-0.103 -0.3303,-0.3656 -0.4916,-0.5467 0.4894,0.5654 1.4521,1.5909 1.8757,2.0249 -0.8092,-0.8041 -2.5673,-2.8131 -3.1972,-3.5911 0.9549,1.2176 2.0619,2.4759 3.2847,3.7084 -2.4055,-2.4029 -4.4788,-5.157 -5.9969,-7.5237 0.004,0.004 0.0118,0.005 0.0197,0.007 -0.008,-0.002 -0.0164,-0.003 -0.0244,-0.005 0.2536,0.3987 0.3544,0.5679 0.5657,0.8944 -0.1757,-0.2688 -0.3748,-0.58 -0.5787,-0.908 0.842,0.1739 1.7539,0.3559 2.3588,0.4641 0.499,0.0971 1.4828,0.2865 2.4725,0.4803 -1.7478,-0.3509 -2.9183,-0.5858 -4.1238,-0.8199 0.0195,0.001 0.1251,0.0196 0.3301,0.0583 -0.3917,-0.0806 -0.758,-0.155 -1.1036,-0.2244 1.1405,1.8239 2.0511,3.002 3.1406,4.3325 0.0955,0.1186 0.1915,0.2368 0.2912,0.358 0.3864,0.485 -1.0331,-1.2771 -1.1886,-1.4667 1.7827,2.3524 4.0591,4.6453 5.0992,5.624 -2.5797,-2.3754 -4.5484,-4.7696 -6.0973,-6.9555 0.3657,0.5462 2.0031,2.6713 2.8186,3.6188 -3.8144,-4.3509 -3.848,-5.0999 -4.1043,-5.5046 0.2347,0.3775 0.4749,0.7512 0.7282,1.1318 -0.0685,-0.0977 -0.1367,-0.1958 -0.2065,-0.2972 -0.1965,-0.2983 -0.3941,-0.6067 -0.5873,-0.917 2.1736,0.4312 4.311,0.8554 4.1775,0.8249 -0.1067,-0.0242 -2.0329,-0.409 -4.2011,-0.8397 0.1073,0.1694 0.2147,0.3396 0.3237,0.5096 -0.1172,-0.1742 -0.2332,-0.3495 -0.3502,-0.5292 0.0528,0.009 0.108,0.0187 0.1635,0.0283 2.8069,0.5545 5.9642,1.1562 8.7934,1.7276 -0.4717,-0.1068 -0.2329,-0.0574 0.3488,0.0502 -0.894,-0.1854 -2.1583,-0.4363 -3.1169,-0.6332 0.3216,0.0599 0.9127,0.1792 1.095,0.2095 -0.4806,-0.0994 -1.2314,-0.2464 -1.4805,-0.305 1.3398,0.2613 2.7834,0.5452 4.2025,0.8236 0.2824,0.0429 -0.6182,-0.1254 -0.5482,-0.12 1.3462,0.2626 3.2387,0.6441 4.2207,0.8265 -1.1378,-0.235 -3.3574,-0.667 -4.0561,-0.8129 0.4481,0.085 0.8967,0.1701 1.3594,0.2579 0.9235,0.182 1.3659,0.2672 0.3256,0.0554 -0.5591,-0.1142 -0.5467,-0.1124 -0.4079,-0.0862 0.6311,0.1167 2.8403,0.5565 2.7759,0.5253 -0.56,-0.1111 -2.7741,-0.5499 -3.3405,-0.6748 0.4143,0.0684 1.5534,0.3024 1.6647,0.312 -2.4629,-0.4829 -2.3775,-0.4726 -2.9846,-0.5839 0.2694,0.0555 0.9694,0.1911 0.9484,0.1948 -1.5153,-0.3009 -3.0307,-0.6019 -4.592,-0.9121 0.1286,0.0157 0.0634,-0.009 -0.0853,-0.0452 0.6651,0.1314 1.3532,0.2647 2.5976,0.5137 -0.3501,-0.0886 -1.4902,-0.3123 -2.5358,-0.5139 0.005,-0.002 0.0102,-0.004 0.0155,-0.005 1.7085,0.3398 4.3116,0.8506 6.0557,1.1869 -0.7997,-0.1627 -3.7481,-0.7479 -5.7529,-1.1426 0.0597,0.008 0.1195,0.0168 0.1812,0.0255 -1.944,-0.3828 -4.1674,-0.8332 -6.38,-1.2731 0.3478,0.5714 0.7049,1.1396 1.0756,1.6929 -0.3651,-0.53 -0.7261,-1.0999 -1.0961,-1.7081 0.8688,0.1744 1.8057,0.3647 2.7813,0.5555 0.8096,0.158 1.5487,0.2975 2.3281,0.445 2.2568,0.4525 8.9448,1.7826 9.708,1.9255 0.8428,0.1581 -5.9496,-1.1901 -5.9926,-1.2039 -0.0431,-0.0138 3.1222,0.6085 1.6289,0.3135 -0.7785,-0.1532 -2.478,-0.4886 -3.7093,-0.731 -0.0546,-0.0217 -0.1092,-0.0434 -0.1656,-0.0658 1.0815,0.214 2.3553,0.4616 2.4235,0.4962 0.5317,0.1029 1.6557,0.3345 1.8193,0.3565 -0.183,-0.0377 -0.4557,-0.0905 -0.4587,-0.0963 0.2602,0.051 0.639,0.1281 0.6752,0.1294 -1.305,-0.261 -3.1099,-0.6252 -4.5318,-0.9067 -0.1261,-0.0301 -0.2524,-0.0601 -0.3827,-0.0911 0.0239,0.003 1.1311,0.2179 2.0843,0.4045 1.0057,0.1963 -1.0954,-0.226 -2.7585,-0.5548 -0.2707,-0.0591 -0.5418,-0.1184 -0.8215,-0.1795 0.5788,0.1155 1.2486,0.2485 2.0352,0.4033 0.9133,0.1747 0.8764,0.1562 1.7926,0.3315 -1.7042,-0.3422 -3.7621,-0.7513 -5.4053,-1.0742 -0.6166,-0.1324 -1.2348,-0.265 -1.8733,-0.4021 1.369,0.2671 2.628,0.5085 3.374,0.6493 0.6121,0.1228 1.2505,0.2508 1.4677,0.2867 -0.5766,-0.119 0.9096,0.174 0.6698,0.1132 -0.7977,-0.1458 -2.4265,-0.4743 -2.9869,-0.5685 -1.274,-0.2528 -2.6686,-0.5303 -3.9016,-0.7744 -0.0676,-0.0141 -0.1352,-0.0283 -0.2032,-0.0425 0.0438,0.0738 0.0897,0.151 0.1374,0.2314 -0.0496,-0.0812 -0.0979,-0.1603 -0.1471,-0.2408 0.9485,0.1909 1.8611,0.3693 2.8692,0.564 -0.3163,-0.0736 -1.5234,-0.3179 -2.9162,-0.5942 0.5076,0.8331 1.076,1.745 1.6058,2.516 2.566,3.7939 5.8765,7.2099 9.4784,9.9842 0.1468,0.1135 0.3546,0.2751 0.5849,0.4503 0.2565,0.1978 0.5155,0.393 0.7849,0.5912 -0.8891,-0.6322 -1.6581,-1.2277 -2.2814,-1.7313 2.4744,2.0368 -3.4242,-3.0898 -3.8,-3.4584 3.6044,3.7542 11.9401,9.2124 17.7022,11.1515 -1.389,-0.4623 -1.8322,-0.6227 -0.3451,-0.1085 0.4028,0.1393 0.8073,0.273 1.2256,0.405 -5.9171,-1.8338 -11.5331,-5.1985 -15.3237,-8.3507 2.2287,1.8776 5.9943,4.2512 7.0501,4.853 -0.7546,-0.4157 -1.8206,-1.0643 -1.9757,-1.1531 1.2651,0.8018 5.807,3.059 7.188,3.6141 -6.7952,-2.6493 -14.5377,-8.8822 -17.9723,-13.0216 5.1464,6.2481 14.6119,12.154 21.2364,14.167 -1.147,-0.3548 -1.1562,-0.3741 -0.5519,-0.188 2.0411,0.6503 4.1167,1.1615 6.2742,1.5646 0.4365,0.0856 0.2911,0.0692 -0.7458,-0.1357 -0.8536,-0.1686 -1.3511,-0.2872 -1.6239,-0.3436 0.577,0.1381 7.2582,1.4612 1.9473,0.4244 -5.3015,-1.035 -14.0813,-4.6571 -8.941,-2.5868 5.1439,2.0718 7.3139,2.3663 4.4301,1.5395 -2.8988,-0.831 -11.5363,-4.9885 -8.7086,-3.4823 2.8167,1.5003 9.2068,3.7974 12.9204,4.5418 3.7249,0.7468 -2.5584,-0.3592 2.9357,0.4664 5.4931,0.8254 0.93,0.1563 1.9851,0.2821 1.6696,0.1993 4.7535,0.4138 7.6647,0.6227 2.047,0.149 4.6472,0.4342 5.9484,0.6619 -0.0769,-0.005 -6.2427,-0.7035 -3.7869,-0.4689 6.0178,0.5558 12.2079,3.1603 9.6375,2.081 3.4126,1.4091 5.5462,3.1409 7.1811,4.7445 0.7463,0.7415 1.4772,1.6056 2.1612,2.3899 -0.4169,-2.6069 -1.1961,-4.705 -1.3377,-5.0036 -0.1162,-0.2456 -1.4075,-2.7967 -3.8779,-4.6325 -2.4704,-1.8357 -5.799,-2.7977 -7.5754,-3.239 -0.2813,-0.0644 -6.9395,-1.2812 -7.5284,-1.3787 -6.1544,-1.1935 -5.368,-0.8663 -11.1368,-3.076 -4.8183,-1.846 -6.0798,-2.8705 -6.8184,-3.3262 -4.6205,-2.8495 -4.424,-3.1227 -6.3212,-4.9983 -0.5695,-0.5637 -1.3739,-1.4924 -1.6675,-1.7972 -0.5839,-0.6055 -0.8861,-0.8736 -0.8168,-0.6019 0,0 0,0 0,0 z m -11.0793,-2.486 c 0.9342,0.1907 2.6073,0.5189 3.5913,0.7207 -1.1043,-0.2053 -2.4903,-0.4844 -3.9059,-0.7713 0.1037,0.0167 0.2075,0.0334 0.3146,0.0506 0,0 0,0 0,0 z m -4.2712,0.5898 c -0.3624,-0.5434 -0.7549,-1.1928 -1.1429,-1.8235 -0.0116,-0.0191 -0.0231,-0.0379 -0.0347,-0.057 0.6611,0.1334 1.3589,0.2742 2.3468,0.4632 -0.0846,-0.0227 -1.2408,-0.258 -2.3809,-0.4852 0.1345,0.2211 0.2693,0.4436 0.401,0.6562 -0.008,-0.005 -0.0156,-0.0106 -0.0236,-0.0161 -0.1312,-0.2087 -0.2673,-0.4298 -0.414,-0.6677 0.4606,0.0918 0.9724,0.1918 1.5449,0.3054 0.3095,0.0623 0.619,0.1246 0.9378,0.1888 0.0383,0.0149 -0.4384,-0.0745 -0.6255,-0.1136 0.2554,0.0619 1.0633,0.2275 2.1027,0.4371 0.1284,0.0276 0.2567,0.0553 0.3889,0.0837 0.1586,0.042 -0.617,-0.1066 0.2555,0.0652 -0.596,-0.1064 -2.2025,-0.4352 -3.1882,-0.6275 0.5414,0.0947 -0.2687,-0.0682 -1.3346,-0.2802 0.5437,0.8936 1.2504,1.9786 1.5322,2.3977 -0.1217,-0.1727 -0.2423,-0.3464 -0.3654,-0.5265 z m 5.9413,6.4715 c 0.3841,0.382 0.7751,0.7569 1.1853,1.1351 -0.5915,-0.5437 -1.0327,-0.9747 -1.4326,-1.3763 0.0813,0.0799 0.163,0.1595 0.2473,0.2412 z m 41.7134,13.9644 c -3.2046,-0.5356 -10.1762,-0.972 -10.6024,-0.9872 -0.7022,-0.0559 -1.4,-0.1178 -2.1197,-0.1933 4.527,0.4599 9.474,0.6123 12.7221,1.1805 0,0 0,0 0,0 z m -10.6705,-0.2451 c -0.2945,-0.024 -0.1772,-0.0152 0.5264,0.0342 3.7434,0.2647 5.9455,0.3916 3.5812,0.2252 -2.0189,-0.1421 -6.4226,-0.4835 -5.1411,-0.3758 1.7082,0.1474 3.4249,0.2425 5.1857,0.3647 1.3607,0.1006 2.6918,0.2212 4.0433,0.3999 -2.8584,-0.343 -5.6553,-0.4554 -8.1955,-0.6482 0,0 0,0 0,0 z m 9.827,0.8941 c -1.0169,-0.1611 -2.2424,-0.3098 -3.4891,-0.424 1.0776,0.0967 2.1493,0.2146 3.2427,0.3794 0.0813,0.0145 0.1626,0.0292 0.2464,0.0446 z m 1.3259,0.2494 c -2.0514,-0.4005 -4.1518,-0.6365 -2.0655,-0.3495 0.4692,0.0647 0.9365,0.1366 1.4156,0.2201 0.2149,0.0407 0.4294,0.0833 0.6499,0.1294 z m 1.2745,0.2847 c -0.0342,-0.0128 -0.3857,-0.1061 -1.0704,-0.2454 1.3901,0.2801 4.0939,1.148 3.99,1.1206 -0.8915,-0.3279 -1.8848,-0.6278 -2.9196,-0.8752 0,0 0,0 0,0 z m 0.3581,-0.7582 c -0.8656,-0.2148 -1.6227,-0.3885 -0.2628,-0.0713 0.5177,0.1209 1.0332,0.2554 1.5614,0.4112 -0.4267,-0.123 -0.8553,-0.235 -1.2986,-0.3399 z m -43.9706,-13.6145 c 0.2904,0.2808 1.4074,1.3222 2.0862,1.8969 0.1251,0.0603 -2.4644,-2.2857 -2.0862,-1.8969 0,0 0,0 0,0 z m -3.8663,-4.2679 c 0.2447,0.308 1.2204,1.4926 1.8299,2.1645 0.1281,0.0885 -2.1519,-2.5967 -1.8299,-2.1645 0,0 0,0 0,0 z m 47.6952,14.0927 c 0.004,0.001 0.009,0.002 0.0132,0.003 -0.004,-0.001 -0.009,-0.002 -0.0132,-0.003 0,0 0,0 0,0 z" /></g></g><g
       id="g76"><g
         clip-path="url(#clipPath82)"
         id="g78"><path
           id="path84"
           style="fill:#ea0011;fill-opacity:1;fill-rule:nonzero;stroke:none"
           d="m 46.26244,157.8962 c -5.94047,-7.3771 -8.85756,-16.735 -8.16128,-26.181 -0.05524,-17.7197 4.6664,-35.1268 13.66814,-50.38987 9.52963,-16.15812 23.46556,-29.26677 40.17595,-37.79095 3.08071,-1.62027 6.45757,-2.60002 9.92705,-2.88022 3.5246,-0.28463 7.0601,0.1613 10.5938,0.08853 7.1592,-0.14743 14.1038,-2.41871 21.2578,-2.70832 14.5772,-0.59014 27.8182,6.49984 39.3227,15.11268 11.9462,8.94344 22.5142,19.93724 29.7426,32.44298 7.1253,12.32741 11.011,26.16327 9.4868,40.71777 -0.7492,7.1542 -2.8986,14.0632 -5.6992,20.6849 -2.7882,6.5921 -6.234,12.8729 -10.9175,18.1651 -5.3829,6.0826 -12.3829,10.7631 -20.4849,11.9391 -5.4063,0.7847 -10.8572,-0.1056 -16.2641,-0.8247 -5.8853,-0.7827 -11.8257,-1.3671 -17.5098,-3.0966 -5.1053,-1.5534 -9.8591,-3.9845 -14.6566,-6.2348 -4.6846,-2.1973 -9.4544,-4.2467 -14.3039,-6.1423 l -20.54944,8.6484 C 75.80624,176.1901 57.201,171.4802 46.26244,157.8962 Z" /><g
           transform="matrix(1,0,0,-1,38,177.4026)"
           id="g86"><path
             id="path88"
             style="fill:none;stroke:#000000;stroke-width:2;stroke-linecap:butt;stroke-linejoin:miter;stroke-miterlimit:4;stroke-dasharray:none;stroke-opacity:1"
             d="M 8.262442,19.50639 C 2.321969,26.88352 -0.5951239,36.24141 0.1011633,45.68738 0.04592459,63.40714 4.767556,80.81424 13.7693,96.07731 c 9.52963,16.15809 23.46556,29.26679 40.17595,37.79099 3.08071,1.6202 6.45757,2.6 9.92709,2.8802 3.52453,0.2846 7.06002,-0.1613 10.59375,-0.0886 7.15916,0.1475 14.10385,2.4188 21.25781,2.7084 14.5772,0.5901 27.8182,-6.4999 39.3227,-15.1127 11.9462,-8.9435 22.5142,-19.9373 29.7426,-32.443 7.1253,-12.3274 11.011,-26.16323 9.4868,-40.71777 -0.7492,-7.15418 -2.8986,-14.06318 -5.6992,-20.68489 -2.7882,-6.59206 -6.234,-12.87288 -10.9175,-18.16513 C 152.2764,6.162192 145.2764,1.481756 137.1744,0.3057744 131.7681,-0.4789362 126.3172,0.4113441 120.9103,1.130396 115.025,1.913087 109.0846,2.497518 103.4005,4.227007 98.29518,5.780399 93.54143,8.211514 88.74386,10.46182 c -4.68459,2.1973 -9.45433,4.2467 -14.30381,6.14235 L 53.89056,7.955732 C 37.80624,1.212561 19.201,5.922438 8.262442,19.50639 Z" /></g></g></g><g
       id="g90"><g
         clip-path="url(#clipPath96)"
         id="g92"><path
           id="path98"
           style="fill:#ffffff;fill-opacity:1;fill-rule:nonzero;stroke:none"
           d="m 92.03364,157.636 c -3.99097,1.8247 -8.3182,2.7983 -12.70612,2.8588 -4.94655,0.0682 -9.84027,-1.0236 -14.28882,-3.1877 -7.62367,-2.9523 -13.47673,-9.2316 -15.88677,-17.0436 -2.32452,-7.5349 -1.19527,-15.7121 3.08436,-22.3349 1.41412,11.972 7.52783,22.8914 16.9953,30.3544 6.5783,5.1856 14.47717,8.4255 22.80205,9.353 z" /><path
           id="path100"
           style="fill:#000000;fill-opacity:1;fill-rule:nonzero;stroke:none"
           d="m 80.66086,155.2896 c 0.25835,0.1138 1.3718,0.5246 1.3799,0.4987 -0.4173,-0.1406 -1.3049,-0.4932 -1.3799,-0.4987 0,0 0,0 0,0 z m -2.19435,-0.9017 c 0.39596,0.1973 1.26415,0.5519 1.53848,0.6449 -0.46454,-0.1811 -1.40057,-0.6071 -1.53848,-0.6449 0,0 0,0 0,0 z m 3.37566,1.2715 c 0.59787,0.2059 1.7181,0.5859 1.99157,0.6462 -0.60764,-0.1782 -1.72292,-0.5739 -1.99157,-0.6462 0,0 0,0 0,0 z m -24.843,-20.4674 c 0.13449,0.2667 0.72737,1.288 0.72284,1.2279 -0.21848,-0.3536 -0.68526,-1.2057 -0.72284,-1.2279 0,0 0,0 0,0 z m 3.5733,5.3406 c 0.2633,0.3788 0.84338,1.0888 1.02698,1.289 -0.31451,-0.3767 -0.93926,-1.2098 -1.02698,-1.289 0,0 0,0 0,0 z m 2.4353,2.9632 c 0.59679,0.6597 1.26216,1.3452 1.12958,1.1706 -0.19189,-0.1672 -1.07532,-1.1566 -1.12958,-1.1706 0,0 0,0 0,0 z m 17.98216,10.6911 c -0.91422,-0.3448 -1.57083,-0.6524 -2.17523,-0.9243 -3.03256,-1.366 1.57467,0.739 2.17523,0.9243 0,0 0,0 0,0 z m -13.12652,-6.137 c -0.50094,-0.4168 -0.88812,-0.75 -1.1175,-0.9345 0.44952,0.3969 1.09918,0.9562 1.1175,0.9345 0,0 0,0 0,0 z m 4.48549,3.2599 c 0.12491,0.0989 2.9422,1.7926 4.57078,2.5707 -1.39012,-0.6881 -4.69587,-2.6697 -4.57078,-2.5707 0,0 0,0 0,0 z m 1.52519,-0.6725 c -1.873,-1.1283 -4.7072,-3.2795 -5.92383,-4.3254 -1.20601,-1.0366 2.12699,2.0086 5.56792,4.1619 3.45287,2.1593 0.58198,0.3288 2.03169,1.1239 1.4401,0.7882 -1.39423,-0.8026 -2.77477,-1.6932 -1.36849,-0.8827 0.92686,0.6041 1.09899,0.7328 0,0 0,0 0,0 z m 0.06439,-0.0725 c 0.6841,0.4221 1.28363,0.7577 1.67974,0.9616 -0.72442,-0.413 -1.40233,-0.8319 -1.67974,-0.9616 0,0 0,0 0,0 z m 17.71692,7.3976 c -0.34885,-0.14 -2.14248,0.3984 -4.09554,0.8012 -0.4823,0.1032 -0.96479,0.1945 -1.46165,0.2758 -3.52348,0.7215 -7.1827,0.8798 -10.74988,0.4375 -0.70627,-0.0863 -1.40861,-0.1965 -2.12659,-0.3357 -2.15009,-0.4219 -4.2723,-1.0646 -6.32284,-1.9369 -0.68054,-0.2891 -1.41372,-0.641 -2.12192,-0.9363 -2.44207,-1.0512 -4.68506,-2.3803 -6.67185,-4.0467 -0.99427,-0.8331 -1.92287,-1.7529 -2.75415,-2.7483 -0.41246,-0.496 -2.16434,-2.8022 -2.73688,-3.7015 0.61201,0.8997 -1.66672,-3.3295 -1.58294,-3.1328 -0.24653,-0.5171 -0.47287,-1.0563 -0.66958,-1.5936 -0.19884,-0.5395 0.01736,0.1223 0.26629,0.7749 -0.24888,-0.603 -0.46623,-1.2101 -0.6585,-1.8307 -0.19701,-0.6463 -0.36827,-1.297 -0.51682,-1.9709 -0.45833,-2.161 -0.68139,-4.6014 -0.61659,-6.7295 0.11489,-2.6048 1.03798,-7.2995 2.95504,-10.944 0.79969,4.9502 2.28212,8.643 1.77358,7.1262 -1.06768,-3.1921 -0.49238,-1.6384 -0.21991,-0.799 0.1597,0.4952 0.38292,1.1538 0.65391,1.8827 -0.0093,0.005 -0.0309,-0.0276 -0.07215,-0.1257 0.50714,1.4139 1.31431,3.4209 2.23473,5.1619 -0.17239,-0.3497 -0.38577,-0.7857 -0.46331,-0.9799 0.44619,0.9319 0.08719,0.1262 0.38956,0.7083 0.84533,1.6665 1.27651,2.4394 0.27362,0.5082 0.93106,1.742 1.58565,2.7631 2.6924,4.3531 0.42367,0.6437 0.19285,0.2918 0.06963,0.134 0.74577,1.1367 2.62298,3.5409 2.81021,3.7879 0.1877,0.2516 -4.72015,-6.7715 -3.92352,-5.4321 0.3232,0.5432 1.0223,1.6062 1.30005,2.0294 -0.6102,-0.8828 -1.31387,-2.0132 -1.66276,-2.5795 0.3814,0.6541 0.94642,1.5459 1.27001,2.0464 -0.40068,-0.6025 -0.66251,-1.0173 -0.77338,-1.176 0.55729,0.8985 0.99525,1.5736 1.72927,2.5891 0.32373,0.4343 -0.29321,-0.426 0.41456,0.5279 0.12392,0.1432 -0.46289,-0.6439 -0.42443,-0.6125 0.55912,0.7663 1.74513,2.2734 2.04813,2.6272 0.29486,0.3399 -0.73529,-0.906 -0.75983,-0.9516 2.3062,2.9082 5.4554,5.8094 6.46645,6.6529 1.02137,0.854 0.05979,0.0467 -0.3712,-0.3338 1.17458,1.0001 2.0924,1.7348 3.58979,2.7827 0.95904,0.6695 0.57733,0.3926 0.21161,0.1306 0.25494,0.1741 0.48215,0.3247 0.63047,0.421 0.10859,0.0697 0.38714,0.2512 0.57625,0.3678 -0.60371,-0.3979 -1.70413,-1.1567 -2.18055,-1.5183 0.86538,0.6139 3.01228,2.0454 3.80804,2.4903 -1.28031,-0.7733 -2.61269,-1.6421 -3.95609,-2.651 2.61238,1.924 5.52578,3.6499 7.86664,4.6871 -0.42246,-0.2015 -0.60853,-0.3107 -0.95275,-0.4915 0.8906,0.4575 2.23537,1.0794 3.04663,1.3735 0.45268,0.1802 1.35174,0.5199 2.26526,0.8309 -1.6044,-0.564 -2.65192,-1.0102 -3.7292,-1.4826 0.02081,0.004 0.11783,0.0419 0.30297,0.1192 -2.43932,-1.118 -3.74529,-1.7758 -5.35736,-2.7439 -0.12525,-0.0783 -0.25016,-0.1573 -0.37848,-0.2394 -0.52604,-0.3584 1.31925,0.7729 1.50153,0.8563 -2.43476,-1.4025 -4.89965,-3.2004 -5.99334,-4.1193 2.62445,2.1098 5.12259,3.6694 7.32563,4.805 -0.57881,-0.3381 -2.75384,-1.5732 -3.76106,-2.2579 4.56296,2.9783 5.21174,2.9341 5.61133,3.1171 -0.3794,-0.182 -0.75644,-0.3693 -1.1422,-0.568 0.09415,0.0421 0.18845,0.0838 0.28579,0.1265 2.14543,1.067 4.78796,2.0514 4.65179,1.9919 -0.10216,-0.0442 -2.16631,-0.8045 -4.24765,-1.8173 0.21475,0.0913 0.43032,0.1809 0.6533,0.2716 2.45668,1.1426 5.352,2.1275 7.99118,2.8193 -0.43294,-0.1368 -0.21141,-0.0734 0.33773,0.0461 -0.83168,-0.221 -2.00311,-0.5495 -2.87536,-0.8408 0.29764,0.0867 0.83965,0.2547 1.01223,0.2931 -0.44,-0.1369 -1.12886,-0.3501 -1.34785,-0.4408 1.22458,0.3914 2.56039,0.7615 3.89033,1.0617 0.2709,0.036 -0.57595,-0.1421 -0.50588,-0.1423 1.25671,0.2961 3.04336,0.6417 3.98083,0.757 -1.08049,-0.1797 -3.17013,-0.5866 -3.81692,-0.756 0.41929,0.0924 0.84029,0.1791 1.27578,0.262 0.86601,0.1782 1.2831,0.2518 0.30904,0.0449 -0.52305,-0.112 -0.51036,-0.1136 -0.37984,-0.0888 0.59385,0.108 2.67789,0.4655 2.62038,0.4204 -0.52988,-0.0792 -2.60901,-0.4648 -3.12966,-0.6061 0.39149,0.0596 1.45193,0.2872 1.56037,0.2825 -2.30808,-0.4182 -2.21193,-0.4677 -2.77649,-0.5917 0.24704,0.0664 0.89645,0.2141 0.87287,0.2246 -1.40471,-0.3256 -2.79151,-0.7171 -4.1956,-1.1904 0.12449,0.0215 0.07632,-0.019 -0.05108,-0.0758 0.59685,0.2007 1.21756,0.4011 2.35194,0.7208 -0.30618,-0.124 -1.34355,-0.419 -2.28529,-0.7241 0.0071,-0.004 0.01416,-0.007 0.02146,-0.0105 1.5292,0.5161 3.91418,1.1427 5.53905,1.4464 -0.74123,-0.1554 -3.45494,-0.7984 -5.25389,-1.3841 0.05653,0.0114 0.1131,0.0228 0.17143,0.0344 -2.26293,-0.7275 -4.85338,-1.8369 -7.21163,-3.0775 1.13006,0.5517 2.49193,1.2553 4.02869,1.8767 0.70713,0.2855 1.3641,0.5213 2.0612,0.7539 1.99391,0.7178 8.15486,2.0756 8.87206,2.157 0.79135,0.0903 -5.49237,-1.1269 -5.52801,-1.1472 -0.03568,-0.0203 2.85811,0.6695 1.49042,0.354 -0.7134,-0.1634 -2.25867,-0.566 -3.36147,-0.9113 -0.03987,-0.0349 -0.07973,-0.07 -0.12077,-0.1061 0.96386,0.3074 2.11865,0.6093 2.16715,0.6649 0.48356,0.1228 1.50549,0.3833 1.66048,0.397 -0.16696,-0.0401 -0.41686,-0.0957 -0.41689,-0.1063 0.23795,0.0545 0.58401,0.1355 0.61993,0.1315 -1.19469,-0.2663 -2.82413,-0.7134 -4.08967,-1.1197 -0.10806,-0.045 -0.21598,-0.0906 -0.32704,-0.1379 0.02287,0.004 1.00878,0.3163 1.86682,0.5537 0.90549,0.2494 -0.98245,-0.2795 -2.44766,-0.7845 -0.23331,-0.0921 -0.46598,-0.1862 -0.70494,-0.2853 0.50493,0.1861 1.09341,0.3916 1.79212,0.6112 0.81506,0.2457 0.79059,0.2156 1.61595,0.4309 -1.52355,-0.4302 -3.33146,-1.048 -4.74863,-1.6128 -0.51933,-0.2307 -1.03488,-0.4713 -1.5615,-0.7301 1.16081,0.5118 2.25584,0.918 2.90994,1.1429 0.52951,0.1971 1.08718,0.389 1.28384,0.4394 -0.50131,-0.1762 0.80461,0.2461 0.60425,0.1555 -0.71165,-0.1998 -2.12216,-0.714 -2.62206,-0.8716 -1.09718,-0.4249 -2.27753,-0.9412 -3.30369,-1.4366 -0.13168,-0.0676 -0.26306,-0.1358 -0.3981,-0.2068 0.86749,0.4281 1.70315,0.8058 2.65185,1.1891 -0.43538,-0.2208 -3.03336,-1.3912 -4.82594,-2.3871 -3.66341,-2.1136 -7.06298,-4.5936 -9.99649,-7.5857 -0.12017,-0.1237 -0.29193,-0.3077 -0.4787,-0.5136 -0.21117,-0.2386 -0.41982,-0.4794 -0.632,-0.7298 0.67504,0.7448 1.30207,1.3814 1.82771,1.8889 -2.13731,-2.1458 3.18727,2.8325 3.55061,3.0878 -3.84153,-3.1212 -9.66393,-10.0535 -12.13374,-15.0849 0.59536,1.191 0.79608,1.5616 0.14877,0.262 -0.17536,-0.3523 -0.34622,-0.7069 -0.51726,-1.0748 2.4219,5.0646 6.0564,9.8904 9.30029,12.9633 -1.94067,-1.8907 -4.49675,-5.0334 -5.15321,-6.0046 0.45892,0.6365 1.16094,1.5508 1.25801,1.6527 -0.86133,-1.1298 -3.40901,-4.9021 -4.06199,-6.1406 3.19671,5.7485 9.65112,12.3463 13.66066,15.0616 -6.08661,-4.1936 -12.42577,-12.2584 -15.08173,-17.9062 0.45907,1.0044 0.47356,1.031 0.22339,0.5413 -0.84382,-1.747 -1.57682,-3.549 -2.20432,-5.4538 -0.12434,-0.4027 -0.08989,-0.2797 0.22716,0.6195 0.26112,0.7397 0.428,1.1828 0.5222,1.391 -0.19122,-0.522 -2.18105,-6.4444 -0.60915,-1.7496 1.56926,4.6869 5.87722,12.0756 3.43359,7.6911 -2.44557,-4.388 -2.99335,-6.3788 -1.89477,-3.895 1.10439,2.497 5.77894,9.733 4.13033,7.3275 -1.64219,-2.3962 -4.44044,-7.8967 -5.53653,-11.1705 -1.09937,-3.2837 0.51132,2.5252 -0.8253,-2.4084 -1.33632,-4.9325 -0.21388,-0.9003 -0.43008,-1.8552 -0.33528,-1.4843 -0.74969,-4.3032 -1.06443,-6.9767 -0.0076,0.0441 -0.03416,0.0851 -0.06344,0.1304 -1.08767,1.674 -2.39846,3.818 -2.95186,4.9377 0.0433,-0.126 3.17246,-5.3196 1.87071,-3.3332 -3.23968,5.0144 -4.47493,11.4918 -3.84923,8.9782 -0.82246,3.4953 -0.82057,6.1877 -0.6348,8.4535 0.23528,3.4313 1.60272,7.4175 1.7543,7.832 0.08803,0.2422 1.04039,2.6638 2.64122,5.1021 1.60083,2.4384 3.89564,4.7949 5.17817,5.9532 0.21097,0.1761 5.67861,3.7111 6.23088,3.9367 5.60037,2.6552 4.62976,2.6298 10.61254,3.6021 4.9963,0.8127 6.61315,0.3895 7.46508,0.3299 5.32782,-0.3751 5.26223,-0.6639 7.71151,-1.5924 0.73516,-0.2776 1.85956,-0.7005 2.21579,-0.9183 0.70689,-0.4333 0.97524,-0.7539 0.66308,-0.8578 0,0 0,0 0,0 z m -9.5702,-2.5975 c 0.83298,0.3046 2.35689,0.7713 3.25796,1.0271 -1.02624,-0.248 -2.28906,-0.64 -3.55139,-1.107 0.0967,0.0267 0.19353,0.0531 0.29343,0.0799 0,0 0,0 0,0 z m -6.32055,-3.2706 c 0.52575,0.2845 1.17002,0.6443 1.77217,0.9303 0.57034,0.2763 1.16771,0.5634 2.05195,0.9244 -0.08064,-0.0497 -1.53729,-0.7017 -2.6378,-1.254 -0.0014,-0.009 -0.0028,-0.0186 -0.0042,-0.0282 0.53252,0.2566 1.16865,0.5578 1.93839,0.9019 0.26161,0.1189 0.52431,0.2352 0.79612,0.3523 0.02444,0.0258 -0.38951,-0.1401 -0.54658,-0.2134 0.20429,0.1137 0.88762,0.4249 1.78727,0.781 0.10934,0.047 0.21884,0.0935 0.33184,0.141 0.12769,0.0705 -0.55637,-0.1737 0.20863,0.1087 -0.5338,-0.1742 -1.91617,-0.7507 -2.75979,-1.1242 0.93875,0.3697 -2.59201,-1.2804 -3.43759,-1.778 0.16431,0.0863 0.32917,0.1715 0.49961,0.2582 z m -6.00389,-2.7111 c -0.41613,-0.3131 -0.82755,-0.6336 -1.24845,-0.9738 0.60403,0.4849 1.07185,0.8366 1.50602,1.1543 -0.0852,-0.0593 -0.17021,-0.1188 -0.25757,-0.1805 z M 49.35307,126.7816 c 0.37854,-1.8812 1.41902,-4.7673 2.47644,-6.7154 0.20427,1.4913 0.45216,2.5606 0.49413,2.6853 0.14623,0.6662 0.30666,1.328 0.4872,2.0046 -0.41401,-1.5101 -0.76028,-3.084 -1.01869,-4.6309 -1.24546,2.3438 -2.02947,4.7717 -2.43908,6.6564 0,0 0,0 0,0 z m 3.87193,-7.2504 c 0.04105,0.278 0.0171,0.1787 -0.081,-0.4654 -0.20349,-1.3461 -0.32851,-2.5176 -0.42282,-3.2619 -0.66121,1.0686 -0.80086,1.2989 -0.03719,0.1168 0.01466,-0.0227 0.02839,-0.0439 0.04351,-0.0673 0.209,1.9219 0.83636,5.9149 0.6184,4.7686 -0.28146,-1.5213 -0.46281,-3.0977 -0.65484,-4.6861 -0.0095,0.0404 -0.03418,0.0789 -0.06089,0.1204 -0.7117,1.085 -1.38454,2.0467 -2.00151,3.1007 0.66959,-1.2173 1.4075,-2.3066 2.12733,-3.4239 0.1372,1.3066 0.27927,2.6068 0.46901,3.7981 0,0 0,0 0,0 z m -3.30692,0.9121 c 0.43849,-0.9032 1.01875,-1.9491 1.68338,-2.973 -0.57895,0.8992 -1.105,1.8231 -1.58489,2.8008 -0.0327,0.0567 -0.06521,0.1135 -0.09849,0.1722 z m -0.53077,1.087 c 0.81191,-1.8919 1.83492,-3.6794 0.87353,-1.8128 -0.21593,0.4185 -0.4208,0.8415 -0.61972,1.2817 -0.08563,0.1744 -0.16945,0.3496 -0.25381,0.5311 z m -0.47312,1.1284 c 0.0094,7e-4 0.12661,-0.3051 0.39195,-0.9313 -0.5411,1.2905 -1.31706,3.9698 -1.29236,3.7918 0.22968,-0.9039 0.53076,-1.8811 0.90041,-2.8605 0,0 0,0 0,0 z m 0.10851,6.1605 c 0.11251,-0.7764 0.22074,-1.4492 0.04242,-0.1864 -0.06808,0.4794 -0.12296,0.9605 -0.16497,1.4574 0.03005,-0.42 0.07017,-0.8396 0.12255,-1.271 z m 19.36691,17.7982 c -0.28417,-0.2386 -1.34608,-1.1822 -1.93573,-1.7341 -0.04599,0.0542 2.34116,2.1183 1.93573,1.7341 0,0 0,0 0,0 z m 4.22498,3.1485 c -0.29796,-0.1948 -1.45747,-0.9999 -2.11965,-1.4886 -0.0523,0.0511 2.55794,1.8154 2.11965,1.4886 0,0 0,0 0,0 z m -15.85038,3.7045 c -0.0033,-0.003 -0.0065,-0.006 -0.0099,-0.008 0.0033,0.003 0.0065,0.006 0.0099,0.008 0,0 0,0 0,0 z" /></g></g><g
       id="g102"><g
         clip-path="url(#clipPath108)"
         id="g104"><path
           id="path110"
           style="fill:#ffffff;fill-opacity:1;fill-rule:nonzero;stroke:none"
           d="m 159.4065,165.6731 c 2.1117,1.096 4.3508,1.9268 6.6664,2.4735 2.1403,0.5053 4.3314,0.7644 6.5306,0.7722 3.908,0.1221 7.7739,-1.1203 11.0113,-3.5546 3.774,-2.8378 6.3936,-7.0547 7.2581,-11.8904 -4.7069,4.3552 -10.2743,7.6755 -16.3432,9.7469 -4.8675,1.6613 -9.9802,2.4904 -15.1232,2.4524 z" /><path
           id="path112"
           style="fill:#000000;fill-opacity:1;fill-rule:nonzero;stroke:none"
           d="m 165.9552,165.0349 c -0.1508,0.0142 -0.8115,0.0951 -0.8231,0.1102 0.2483,-0.0322 0.7719,-0.0921 0.8231,-0.1102 0,0 0,0 0,0 z m 1.3276,-0.2092 c -0.2348,0.0302 -0.7634,0.1185 -0.9337,0.1519 0.2813,-0.0445 0.842,-0.1254 0.9337,-0.1519 0,0 0,0 0,0 z m -2.0474,0.3349 c -0.3546,0.0463 -1.0069,0.1053 -1.1709,0.1319 0.3557,-0.0371 1.0069,-0.101 1.1709,-0.1319 0,0 0,0 0,0 z m 17.9806,-6.4356 c -0.1259,0.0685 -0.7034,0.4058 -0.7202,0.4312 0.2152,-0.1276 0.6657,-0.3854 0.7202,-0.4312 0,0 0,0 0,0 z m -3.3352,1.8634 c -0.2085,0.0923 -0.7,0.3356 -0.8625,0.4203 0.2614,-0.1253 0.7709,-0.3627 0.8625,-0.4203 0,0 0,0 0,0 z m -1.9733,0.9115 c -0.4694,0.2062 -0.9737,0.4129 -0.8923,0.3934 0.1624,-0.0786 0.8261,-0.3477 0.8923,-0.3934 0,0 0,0 0,0 z m -12.4637,4.1804 c 0.5174,-0.0696 0.8851,-0.1123 1.2316,-0.1656 1.7391,-0.2669 -0.8804,0.0991 -1.2316,0.1656 0,0 0,0 0,0 z m 8.8274,-2.7309 c 0.3484,-0.1175 0.627,-0.219 0.8002,-0.2886 -0.3212,0.1158 -0.7683,0.2629 -0.8002,0.2886 0,0 0,0 0,0 z m -3.0385,0.9225 c -0.0733,0.0112 -1.8957,0.4605 -2.9206,0.6677 0.8641,-0.1639 2.9938,-0.6788 2.9206,-0.6677 0,0 0,0 0,0 z m -1.6565,1.1073 c 1.1425,-0.2598 2.9356,-0.7432 3.7488,-0.9998 0.8078,-0.255 -1.4153,0.4505 -3.5102,0.922 -2.1005,0.4733 -0.3853,0.1221 -1.2477,0.2953 -0.8556,0.1726 0.8129,-0.1449 1.6633,-0.3506 0.8452,-0.2045 -0.5594,0.1223 -0.6542,0.1331 0,0 0,0 0,0 z m -0.0829,0.0668 c -0.4104,0.088 -0.7671,0.1615 -1.0063,0.2149 0.4221,-0.0768 0.8241,-0.1577 1.0063,-0.2149 0,0 0,0 0,0 z m -9.825,0.681 c 0.0722,0.1872 0.9674,0.7631 2.0252,1.2803 0.2656,0.1276 0.534,0.2516 0.8135,0.3753 2.0137,0.814 4.1536,1.3826 6.3266,1.6876 0.4305,0.0598 0.8624,0.1102 1.3086,0.1519 1.3432,0.1277 2.692,0.1846 4.0468,0.104 0.4492,-0.0269 0.897,-0.071 1.3558,-0.1349 1.6333,-0.2121 3.1151,-0.6572 4.5982,-1.3002 0.7411,-0.3216 1.4881,-0.6979 2.255,-1.1454 0.3856,-0.2242 1.8757,-1.2891 2.3342,-1.6916 -0.4074,0.3813 1.7115,-1.6118 1.6198,-1.5151 0.2008,-0.229 0.4135,-0.4759 0.6276,-0.7322 0.2125,-0.2555 -0.0716,0.0795 -0.3652,0.4016 0.2415,-0.2776 0.4819,-0.5648 0.7219,-0.8668 0.255,-0.3184 0.5003,-0.645 0.742,-0.99 0.8062,-1.1354 1.4906,-2.4284 1.963,-3.5839 0.5157,-1.2206 1.0907,-3.3432 1.472,-5.4869 -2.5227,2.3668 -5.1123,4.3456 -4.2792,3.7168 1.5076,-1.1365 0.7081,-0.5219 0.3013,-0.205 -0.2379,0.1847 -0.5593,0.4307 -0.9232,0.6991 0.018,-0.0196 0.0516,-0.0499 0.1099,-0.0961 -0.6797,0.4968 -1.6397,1.1503 -2.6481,1.8076 0.1804,-0.1114 0.4146,-0.263 0.4908,-0.3042 -0.4947,0.3219 -0.1202,0.097 -0.4529,0.3137 -0.9162,0.5866 -1.3625,0.8612 -0.3014,0.1974 -1.0002,0.6395 -1.6671,1.0487 -2.7009,1.6198 -0.3794,0.1989 -0.1718,0.0897 -0.0498,0.0169 -0.6611,0.3419 -2.2342,1.1032 -2.3744,1.1596 -0.1389,0.0545 4.1868,-2.1826 3.444,-1.7736 -0.3022,0.1665 -0.9487,0.5213 -1.1885,0.6419 0.5485,-0.2914 1.2108,-0.6613 1.5585,-0.8691 -0.3669,0.2092 -0.8949,0.5025 -1.183,0.6535 0.3645,-0.1966 0.6153,-0.34 0.7281,-0.4095 -0.5259,0.2955 -0.9225,0.5086 -1.565,0.8395 -0.2893,0.1535 0.2302,-0.1001 -0.377,0.2042 -0.1174,0.0668 0.3967,-0.1983 0.353,-0.1686 -0.4937,0.257 -1.4788,0.728 -1.7292,0.8466 -0.2454,0.1178 0.6024,-0.2822 0.6158,-0.2836 -1.9207,0.9227 -4.1975,1.7679 -4.9101,2.0154 -0.7181,0.2487 -0.0477,0.0208 0.2516,-0.0799 -0.8335,0.2955 -1.4611,0.4988 -2.4615,0.7864 -0.641,0.185 -0.3883,0.1137 -0.149,0.0497 -0.1708,0.0494 -0.3222,0.0923 -0.4214,0.1205 -0.0729,0.0211 -0.2572,0.0719 -0.3836,0.1077 0.3914,-0.0999 1.1244,-0.3088 1.4394,-0.3978 -0.5919,0.1854 -1.9867,0.5455 -2.5082,0.6799 0.8116,-0.1844 1.6838,-0.4164 2.5825,-0.6805 -1.7629,0.534 -3.5792,0.9153 -5.0458,1.2026 0.2584,-0.0442 0.3668,-0.056 0.5767,-0.0917 -0.5469,0.0976 -1.3615,0.2255 -1.8638,0.3173 -0.2746,0.0429 -0.8184,0.1255 -1.3624,0.1923 0.9501,-0.1083 1.5827,-0.2037 2.2436,-0.3206 -0.0146,0.005 -0.0757,0.0181 -0.1898,0.0389 1.4652,-0.221 2.3255,-0.4501 3.3671,-0.7103 0.0796,-0.0185 0.1591,-0.0372 0.241,-0.0567 0.3252,-0.0677 -0.8532,0.2127 -0.9776,0.25 1.5371,-0.3424 3.1978,-0.8432 3.9271,-1.0637 -1.7924,0.5817 -3.3949,0.9709 -4.7836,1.2695 0.3477,-0.0569 1.7335,-0.382 2.3798,-0.5427 -2.9728,0.7931 -3.3002,0.7503 -3.5466,0.7969 0.2309,-0.0399 0.4615,-0.0815 0.6986,-0.1263 -0.0602,0.0143 -0.1205,0.0285 -0.1825,0.043 -1.321,0.2526 -2.8876,0.4546 -2.8093,0.4492 0.0587,-0.004 1.2777,-0.1551 2.5523,-0.39 -0.1361,0.0312 -0.2722,0.0617 -0.4125,0.0924 -1.4943,0.2637 -3.2087,0.4962 -4.7176,0.5902 0.2444,-0.004 0.1181,0.004 -0.198,0.032 0.4727,-0.0227 1.1466,-0.0778 1.6507,-0.1222 -0.1742,0.0215 -0.4867,0.0486 -0.5883,0.0633 0.252,-0.0182 0.6517,-0.0598 0.7751,-0.0637 -0.7122,0.0794 -1.4788,0.1444 -2.2337,0.1897 -0.1557,0.0215 0.3263,-0.0168 0.2846,-0.006 -0.7138,0.0487 -1.7149,0.0755 -2.2375,0.0945 0.6004,0.001 1.7754,-0.0551 2.1404,-0.0698 -0.238,0.018 -0.4761,0.0342 -0.7214,0.049 -0.4864,0.0226 -0.72,0.033 -0.1745,0.0163 0.2925,-0.008 0.2857,-0.008 0.2122,-0.004 -0.3338,0.0233 -1.4927,0.0494 -1.4606,0.067 0.293,-0.004 1.4501,-0.0411 1.7402,-0.0435 -0.2212,0.0248 -0.8109,0.0398 -0.8722,0.054 1.2824,-0.0464 1.2334,-0.0539 1.5531,-0.084 -0.1387,0.007 -0.5038,0.0316 -0.4891,0.0231 0.7879,-0.0431 1.5741,-0.1061 2.3816,-0.1927 -0.0758,0.0179 -0.0534,0.0272 0.0168,0.0261 -0.3426,0.0376 -0.6994,0.0784 -1.3395,0.1265 0.1666,0.006 0.7545,-0.0458 1.2958,-0.1095 -0.005,0.003 -0.0106,0.007 -0.016,0.0101 -0.8747,0.0925 -2.216,0.1957 -3.1176,0.2395 0.4093,-0.0116 1.9217,-0.0976 2.948,-0.2062 -0.0337,0.007 -0.0673,0.0138 -0.102,0.0208 1.2896,-0.1333 2.7863,-0.3303 4.215,-0.6173 -0.6987,0.1595 -1.4951,0.2801 -2.3925,0.4118 -0.4125,0.0607 -0.7947,0.1165 -1.197,0.1695 -1.138,0.1254 -4.5461,0.286 -4.9366,0.2967 -0.4295,0.0115 3.0243,-0.1085 3.0428,-0.1046 0.0184,0.004 -1.5869,0.1044 -0.8304,0.0621 0.3948,-0.0226 1.256,-0.0841 1.879,-0.1455 0.0183,0.009 0.0365,0.0179 0.0553,0.0271 -0.5429,0.053 -1.1865,0.1049 -1.2078,0.0856 -0.2696,0.0215 -0.833,0.045 -0.9203,0.0597 0.0917,-0.003 0.23,-0.012 0.2289,-0.007 -0.1314,0.008 -0.3216,0.0152 -0.3423,0.022 0.6564,-0.0291 1.5596,-0.0871 2.2721,-0.157 0.0588,-8e-4 0.1175,-0.002 0.178,-0.003 -0.0137,0.003 -0.5698,0.063 -1.0478,0.1029 -0.5042,0.0425 0.5407,-0.0295 1.3683,-0.1202 0.1291,-0.009 0.2582,-0.0178 0.391,-0.0278 -0.2858,0.0327 -0.6176,0.0689 -1.0091,0.1072 -0.4579,0.0498 -0.448,0.0599 -0.9063,0.1005 0.8398,-0.0587 1.8535,-0.164 2.6639,-0.2753 0.2904,-0.0288 0.5801,-0.0603 0.8777,-0.0956 -0.672,0.1073 -1.2963,0.1939 -1.6679,0.244 -0.2971,0.0331 -0.6076,0.0638 -0.7202,0.0821 0.277,-0.023 -0.4492,0.0492 -0.343,0.0524 0.3992,-0.0491 1.1862,-0.131 1.4769,-0.1842 0.6202,-0.0774 1.2963,-0.1759 1.8937,-0.2764 0.0753,-0.0109 0.1506,-0.022 0.2282,-0.0335 -0.5073,0.0887 -0.9906,0.1669 -1.5347,0.2478 0.2364,-0.0144 1.7266,-0.2392 2.8027,-0.4663 2.1689,-0.4235 4.4037,-1.1126 6.5184,-1.8853 0.0863,-0.0311 0.2074,-0.073 0.3398,-0.1192 0.1468,-0.049 0.2932,-0.0986 0.4437,-0.1506 -0.5021,0.1927 -0.9541,0.3574 -1.3289,0.4912 1.4806,-0.4981 -2.1619,0.7009 -2.4118,0.7863 2.4326,-0.6719 6.9028,-2.4761 9.4657,-3.8592 -0.6223,0.3414 -0.8259,0.4508 -0.1643,0.098 0.179,-0.0953 0.3573,-0.1918 0.5403,-0.2925 -2.6233,1.4784 -5.4662,2.6492 -7.7612,3.4516 1.3414,-0.4496 3.3445,-1.2778 3.8656,-1.4889 -0.3806,0.1683 -0.9344,0.3972 -1.0197,0.4393 0.6565,-0.2565 2.8824,-1.3031 3.4988,-1.604 -3.1071,1.6048 -7.5907,3.1532 -10.1045,3.795 3.7749,-0.9339 8.6354,-2.9088 11.5517,-4.5598 -0.4988,0.2756 -0.4995,0.2681 -0.2238,0.108 0.906,-0.5036 1.7957,-1.0372 2.6928,-1.6187 0.1749,-0.1088 0.1137,-0.0638 -0.3251,0.2188 -0.3611,0.2326 -0.5695,0.3573 -0.6957,0.4422 0.2385,-0.141 3.0092,-1.8981 0.8034,-0.4914 -2.1987,1.4022 -6.2421,3.4205 -3.9019,2.2405 2.3382,-1.179 3.1925,-1.7347 1.941,-1.0194 -1.2561,0.7179 -5.3932,2.6648 -4.0054,2.0489 1.3814,-0.6131 4.1963,-2.0748 5.7274,-3.0363 1.5375,-0.9654 -0.9374,0.6064 1.2758,-0.8849 2.2137,-1.4915 0.3475,-0.2148 0.7655,-0.5091 0.6609,-0.4649 1.8546,-1.3456 2.9387,-2.2434 0.2918,-0.2406 0.6139,-0.5135 0.9242,-0.7838 -0.1799,0.6305 -0.3704,1.2268 -0.5043,1.6007 0,-0.0139 0.3149,-0.9793 0.464,-1.5746 -0.315,0.3005 -0.4944,0.4548 -0.1247,0.1393 0.0461,-0.0399 0.0922,-0.08 0.1383,-0.1202 -0.7175,2.7514 -2.2524,5.3557 -1.6219,4.2027 -0.8213,1.5472 -1.6,2.5625 -2.2969,3.381 -1.1327,1.2944 -2.6571,2.5183 -2.8395,2.651 -0.2145,0.1556 -4.2253,2.5098 -5.9742,2.9287 -0.1229,0.0345 -3.1372,0.5472 -3.3845,0.576 -2.9514,0.1495 -2.6098,0.1142 -5.5297,-0.3151 -2.4426,-0.3595 -3.159,-0.639 -3.5598,-0.7512 -2.5102,-0.7019 -2.4614,-0.7993 -3.6502,-1.2438 -0.3612,-0.1359 -0.9038,-0.3899 -1.1007,-0.4478 -0.3968,-0.1173 -0.6089,-0.1297 -0.5403,0.0288 0,0 0,0 0,0 z m 5.3353,-0.3584 c -0.4801,0.0504 -1.3549,0.1379 -1.8639,0.1693 0.5878,-0.0573 1.3088,-0.12 2.0399,-0.2016 -0.0581,0.0108 -0.1162,0.0215 -0.176,0.0323 0,0 0,0 0,0 z m 3.5746,-0.343 c -0.3155,0.0624 -0.6892,0.1198 -1.0464,0.1844 -0.3363,0.0585 -0.6842,0.1134 -1.2002,0.1952 0.0421,0.001 0.8808,-0.117 1.5328,-0.2359 -0.002,0.004 -0.004,0.009 -0.006,0.013 -0.3187,0.063 -0.6947,0.131 -1.1407,0.1994 -0.1511,0.0223 -0.3022,0.0439 -0.4581,0.0653 -0.01,-0.006 0.2323,-0.0462 0.322,-0.0577 -0.1114,0.006 -0.5042,0.0596 -1.0164,0.1217 -0.0613,0.006 -0.1227,0.0112 -0.186,0.0168 -0.0675,-0.002 0.3255,-0.0548 -0.1116,-6e-4 0.3111,-0.0494 1.1007,-0.146 1.595,-0.2267 -0.5621,0.1129 1.5213,-0.2527 2.023,-0.344 -0.1012,0.0232 -0.2025,0.046 -0.3069,0.0691 z m 4.3118,-1.5664 c 0.2799,-0.0841 0.5592,-0.1708 0.846,-0.263 -0.4132,0.1342 -0.7317,0.2327 -1.0248,0.3212 0.059,-0.0191 0.118,-0.0383 0.1788,-0.0582 z m 17.9662,-8.1653 c 0.181,-0.712 0.3879,-1.8013 0.5786,-2.8671 -1.0635,1.0083 -2.0626,1.8838 -2.1859,2.0023 -0.2881,0.2432 -0.579,0.4828 -0.8819,0.7257 1.0606,-0.8614 2.1181,-1.8314 3.0755,-2.7208 -0.1904,1.0701 -0.3709,2.0601 -0.5863,2.8599 0,0 0,0 0,0 z m -3.1105,1.3042 c -0.1115,0.0832 -0.0613,0.0442 0.2137,-0.1704 1.4618,-1.1378 2.2887,-1.8905 1.4009,-1.1487 -0.7581,0.6335 -2.4651,1.9236 -1.9541,1.5358 0.674,-0.507 1.3352,-1.0326 2.0014,-1.5939 0.314,-0.2595 0.6139,-0.5101 0.9078,-0.7592 -0.0781,0.2495 -0.1476,0.4975 -0.2232,0.7458 0.065,-0.2333 0.1253,-0.4668 0.1809,-0.7 -0.8515,0.7658 -1.7104,1.4655 -2.5274,2.0906 0,0 0,0 0,0 z m 2.0836,-0.5944 c 0.1394,-0.4229 0.2889,-0.9282 0.4177,-1.4547 -0.0322,0.0441 -0.0814,0.087 -0.1308,0.1298 0.0497,-0.0434 0.0993,-0.087 0.1488,-0.1307 -0.1238,0.4444 -0.2466,0.8855 -0.3885,1.3309 -0.0155,0.0413 -0.031,0.0824 -0.0472,0.1247 z m -0.2379,0.636 c 0.3459,-0.9424 0.6252,-1.9296 0.3325,-0.9653 -0.0661,0.2173 -0.1359,0.433 -0.2118,0.6534 -0.039,0.1034 -0.0788,0.2064 -0.1207,0.3119 z m -0.2389,0.5945 c 0.0135,-0.0213 0.0871,-0.1866 0.2061,-0.5024 -0.2375,0.6379 -0.8075,1.8599 -0.8006,1.8229 0.1982,-0.3999 0.4028,-0.8487 0.5945,-1.3205 0,0 0,0 0,0 z m 1.1779,-0.8104 c 0.1617,-0.4715 0.2967,-0.8865 0.0588,-0.1516 -0.0909,0.2802 -0.1878,0.5578 -0.2939,0.8408 0.0817,-0.2257 0.1594,-0.4531 0.2351,-0.6892 z m -17.5288,7.6829 c 0.1878,-0.0576 0.8943,-0.2766 1.3057,-0.4182 0.0776,-0.0632 -1.554,0.4772 -1.3057,0.4182 0,0 0,0 0,0 z m -2.6863,0.7334 c 0.1838,-0.0445 0.9005,-0.2199 1.3231,-0.3366 0.0732,-0.0569 -1.5775,0.3812 -1.3231,0.3366 0,0 0,0 0,0 z m 7.1112,3.0413 c 0.002,-6e-4 0.004,-0.001 0.006,-0.002 -0.002,6e-4 -0.004,0.001 -0.006,0.002 0,0 0,0 0,0 z" /></g></g><g
       id="g114"><g
         clip-path="url(#clipPath120)"
         id="g116"><path
           id="path122"
           style="fill:#000000;fill-opacity:0.25;fill-rule:nonzero;stroke:none"
           d="m 100.0328,151.6785 c -3.40101,-7.791 -5.73278,-16.0062 -6.93145,-24.4222 -3.61358,-25.3715 3.00124,-51.10258 18.37595,-71.54016 -6.2489,16.38528 -9.0531,32.76896 -8.9232,49.67156 0.1086,14.1447 2.2845,29.0992 8.5552,43.3908 3.7425,8.5297 11.2279,14.3536 18.9264,18.5002 l -18.1669,-7.6368 c -2.4414,0.5078 -4.9624,0.0382 -7.1134,-1.3267 -2.305,-1.4626 -4.0022,-3.8255 -4.7226,-6.6367 z" /></g></g></g></svg>