<?xml version="1.0" encoding="UTF-8" standalone="no"?>
<svg
   xmlns:dc="http://purl.org/dc/elements/1.1/"
   xmlns:cc="http://creativecommons.org/ns#"
   xmlns:rdf="http://www.w3.org/1999/02/22-rdf-syntax-ns#"
   xmlns:svg="http://www.w3.org/2000/svg"
   xmlns="http://www.w3.org/2000/svg"
   viewBox="0 0 377.59027 388.33652"
   height="388.33652"
   width="377.59027"
   xml:space="preserve"
   id="svg2"
   version="1.1"><metadata
     id="metadata8"><rdf:RDF><cc:Work
         rdf:about=""><dc:format>image/svg+xml</dc:format><dc:type
           rdf:resource="http://purl.org/dc/dcmitype/StillImage" /></cc:Work></rdf:RDF></metadata><defs
     id="defs6"><clipPath
       id="clipPath20"
       clipPathUnits="userSpaceOnUse"><path
         id="path18"
         d="m 81.24482,129.7793 h 54.35633 v 39.74548 H 81.24482 Z" /></clipPath><clipPath
       id="clipPath34"
       clipPathUnits="userSpaceOnUse"><path
         id="path32"
         d="m 119.0227,145.0474 h 40.05295 v 110.205 H 119.0227 Z" /></clipPath><clipPath
       id="clipPath46"
       clipPathUnits="userSpaceOnUse"><path
         id="path44"
         d="m 36,141.0188 h 96.29773 v 78.23541 H 36 Z" /></clipPath><clipPath
       id="clipPath58"
       clipPathUnits="userSpaceOnUse"><path
         id="path56"
         d="m 103.91,131.7338 h 69.47772 v 78.27489 H 103.91 Z" /></clipPath><clipPath
       id="clipPath70"
       clipPathUnits="userSpaceOnUse"><path
         id="path68"
         d="m 135.621,156.8095 h 111.5717 v 56.21315 H 135.621 Z" /></clipPath><clipPath
       id="clipPath82"
       clipPathUnits="userSpaceOnUse"><path
         id="path80"
         d="m 38.21179,36 h 178.7265 V 166.7321 H 38.21179 Z" /></clipPath><clipPath
       id="clipPath96"
       clipPathUnits="userSpaceOnUse"><path
         id="path94"
         d="m 49.54952,100.6359 h 50.77011 v 48.4445 H 49.54952 Z" /></clipPath></defs><g
     transform="matrix(1.3333333,0,0,-1.3333333,0,388.33653)"
     id="g10"><g
       id="g12" /><g
       id="g14"><g
         clip-path="url(#clipPath20)"
         id="g16"><path
           id="path22"
           style="fill:#64c466;fill-opacity:1;fill-rule:nonzero;stroke:none"
           d="m 83.26287,158.6952 c 8.94731,7.8603 21.24023,10.7097 32.73323,7.5874 6.8972,-1.8737 13.0453,-5.8363 17.6003,-11.3437 l -0.3014,-23.112 -49.06126,2.3121 z" /><g
           transform="matrix(1,0,0,-1,83.26287,167.5247)"
           id="g24"><path
             id="path26"
             style="fill:none;stroke:#000000;stroke-width:2;stroke-linecap:butt;stroke-linejoin:miter;stroke-miterlimit:4;stroke-dasharray:none;stroke-opacity:1"
             d="M 0,8.82955 C 8.947309,0.9692504 21.24022,-1.880206 32.73326,1.242087 39.63038,3.115815 45.77848,7.078404 50.33357,12.58588 l -0.30149,23.112 -49.061209,-2.31211 z" /></g></g></g><g
       id="g28"><g
         clip-path="url(#clipPath34)"
         id="g30"><path
           id="path36"
           style="fill:#003000;fill-opacity:1;fill-rule:nonzero;stroke:none"
           d="m 120.6136,146.773 c 2.3227,19.2928 6.7272,38.2774 13.1365,56.622 6.1659,17.6479 14.1532,34.6056 23.8328,50.5986 -1.4477,-8.362 -2.1563,-16.8165 -2.126,-25.2671 0.0192,-5.347 0.3315,-10.7277 -0.6305,-15.993 -1.1638,-6.3693 -4.0906,-12.1365 -6.1875,-18.2417 -1.7358,-5.054 -2.881,-10.2826 -3.8766,-15.5316 -1.5888,-8.3767 -2.8007,-16.8205 -3.632,-25.3059 z" /><path
           id="path38"
           style="fill:#000000;fill-opacity:1;fill-rule:nonzero;stroke:none"
           d="m 140.4645,153.205 c -0.4614,-0.1615 -2.4704,-0.8381 -2.502,-0.8344 0.7536,0.25 2.3499,0.795 2.502,0.8344 0,0 0,0 0,0 z m 1.2139,3.5982 c -0.0749,-0.7687 -0.253,-2.4378 -0.3131,-2.9614 0.0908,0.8877 0.2729,2.6942 0.3131,2.9614 0,0 0,0 0,0 z m -3.3941,-4.2954 c -1.078,-0.3581 -3.0596,-1.0323 -3.5547,-1.1868 1.0777,0.3581 3.0587,1.032 3.5547,1.1868 0,0 0,0 0,0 z m 15.8203,55.5929 c -0.1376,-0.4752 -0.8072,-2.4851 -0.8186,-2.4766 0.2569,0.7243 0.7654,2.3394 0.8186,2.4766 0,0 0,0 0,0 z m -4.1337,-11.0442 c -0.2642,-0.7237 -0.8409,-2.3022 -1.0186,-2.7987 0.29,0.8413 0.9116,2.5475 1.0186,2.7987 0,0 0,0 0,0 z m -2.1558,-6.4685 c -0.439,-1.5282 -0.8497,-3.1765 -0.783,-2.8592 0.1342,0.4869 0.7232,2.7065 0.783,2.8592 0,0 0,0 0,0 z m -8.709,-37.2336 c 0.6246,0.2073 1.1803,0.3941 1.6898,0.5661 0.0821,0.8481 0.1541,1.579 0.2289,2.2751 0.4683,4.3626 0.0434,0.3629 -0.2209,-2.2812 -0.782,-0.2614 -1.441,-0.4796 -1.6978,-0.56 0,0 0,0 0,0 z m 5.9895,25.5385 c 0.2144,1.1302 0.3947,2.0258 0.5104,2.5636 -0.2109,-1.0427 -0.4858,-2.5102 -0.5104,-2.5636 0,0 0,0 0,0 z m -1.6881,-9.7517 c -0.0318,-0.258 -0.882,-6.0721 -1.2805,-9.3001 0.3287,2.7503 1.3124,9.558 1.2805,9.3001 0,0 0,0 0,0 z m -1.1924,-3.3474 c 0.5419,3.7602 1.5475,9.7572 2.0603,12.4702 0.509,2.6922 -0.9311,-4.8095 -1.933,-11.751 -1.0053,-6.9618 -0.2131,-1.1986 -0.586,-4.0408 -0.3707,-2.8204 0.3397,2.7284 0.7668,5.5401 0.424,2.7911 -0.2693,-1.875 -0.3081,-2.2185 0,0 0,0 0,0 z m -0.0672,-0.1346 c -0.1921,-1.3684 -0.35,-2.5465 -0.457,-3.3213 0.1779,1.4154 0.3611,2.7655 0.457,3.3213 0,0 0,0 0,0 z m -21.3626,-18.0705 c -0.0758,0.4812 0.2249,3.7931 0.6931,7.4063 0.1185,0.8992 0.2414,1.7978 0.373,2.723 1.0088,6.5909 2.2977,13.1794 3.8466,19.7071 0.3072,1.2923 0.6239,2.5824 0.9603,3.9092 1.0081,3.9853 2.1184,7.9674 3.3285,11.9431 0.4016,1.3187 0.8132,2.6345 1.2481,3.987 1.5127,4.7536 3.1211,9.2567 4.8738,13.8354 0.8767,2.2892 1.7946,4.6076 2.7591,6.9759 0.4817,1.1844 2.6573,6.2096 3.469,7.9701 -0.8006,-1.6954 3.0104,6.4471 2.8345,6.0825 0.4457,0.8968 0.9116,1.8309 1.3796,2.7641 0.4685,0.9328 -0.1194,-0.25 -0.6987,-1.437 0.5216,1.0491 1.0471,2.0963 1.5876,3.1599 0.5654,1.1163 1.1386,2.2288 1.7374,3.3708 1.9415,3.7213 4.1502,7.6647 6.136,11.0236 0.5423,0.9252 1.1856,2.0094 1.9079,3.2028 -1.3476,-12.5723 -1.2598,-35.7415 -1.2973,-30.9785 -0.0482,5.9787 -0.051,2.9044 -0.0334,1.3053 0.0108,-0.9382 0.0241,-2.1976 0.006,-3.6066 0.006,0.0415 0.0116,0.1473 0.016,0.3603 -0.0187,-2.6706 -0.1573,-6.4591 -0.9859,-10.0738 0.1492,0.675 0.3127,1.5492 0.36,1.8704 -0.3127,-1.8455 -0.0604,-0.3825 -0.3255,-1.5827 -0.7314,-3.352 -1.203,-4.9076 -0.2542,-1.067 -0.8923,-3.563 -1.7782,-5.7089 -3.1109,-9.0508 -0.4969,-1.272 -0.2253,-0.5764 -0.0713,-0.2042 -0.8681,-2.2279 -2.7681,-7.3572 -2.9201,-7.8459 -0.151,-0.4898 5.2023,13.8883 4.2732,11.3165 -0.3775,-1.0449 -1.2146,-3.1907 -1.5314,-4.0076 0.7138,1.8041 1.5617,4.0391 1.973,5.2054 -0.4393,-1.2724 -1.1164,-3.0471 -1.4939,-4.0234 0.4738,1.2122 0.7897,2.0506 0.9274,2.4076 -0.6593,-1.7821 -1.195,-3.1094 -2.0217,-5.2121 -0.3697,-0.9296 0.2937,0.8044 -0.4736,-1.1835 -0.1438,-0.3529 0.5089,1.3124 0.457,1.1978 -0.634,-1.6046 -1.8047,-4.8261 -2.0714,-5.6302 -0.2611,-0.783 0.6767,1.9696 0.6947,2.0328 -2.2611,-6.2668 -3.7004,-13.703 -4.145,-16.0005 -0.448,-2.3187 -0.033,-0.1438 0.1562,0.8403 -0.5316,-2.6916 -0.9037,-4.7254 -1.4376,-7.9389 -0.3426,-2.0578 -0.2071,-1.2373 -0.0825,-0.4575 -0.0907,-0.5456 -0.1694,-1.0283 -0.2207,-1.3429 -0.0379,-0.2305 -0.1318,-0.8186 -0.1959,-1.2167 0.1928,1.2645 0.5807,3.6166 0.753,4.6482 -0.3321,-1.8829 -1.0263,-6.392 -1.2702,-8.0288 0.3653,2.6191 0.8028,5.4165 1.3022,8.3366 -0.9874,-5.6825 -1.7673,-11.5693 -2.3165,-16.1644 0.0923,0.8266 0.1272,1.1921 0.2047,1.8719 -0.2053,-1.7599 -0.4809,-4.3708 -0.6526,-5.9269 -0.0172,-0.1699 -0.0377,-0.3723 -0.0607,-0.6007 -0.904,-0.3006 -2.2323,-0.7417 -3.5585,-1.1843 1.3576,0.4573 2.5035,0.8432 3.5467,1.1937 0.1192,1.2238 0.2322,2.3098 0.3563,3.4169 -0.007,-0.0405 -0.0304,-0.2291 -0.0709,-0.5876 0.4867,4.7145 0.8869,7.3681 1.3788,10.6925 0.0368,0.2578 0.0739,0.5156 0.1126,0.7812 0.1481,1.083 -0.3992,-2.7128 -0.4597,-3.0862 0.6753,4.9389 1.6018,10.2853 2.0329,12.7031 -1.0755,-5.8192 -1.8339,-10.9849 -2.4105,-15.39 0.1329,1.1505 0.7563,5.5722 1.0764,7.6818 -1.5029,-9.5615 -1.4578,-10.5573 -1.55,-11.3381 0.0837,0.7409 0.1703,1.4813 0.2627,2.2439 -0.0255,-0.1865 -0.0508,-0.3729 -0.0767,-0.5651 -0.2733,-2.2567 -0.537,-4.7291 -0.7116,-6.505 -1.485,-0.4973 -2.4608,-0.8236 -2.3491,-0.7839 0.0865,0.0306 0.9907,0.3354 2.3419,0.7897 0.1482,1.5233 0.3631,3.5871 0.6128,5.7039 -0.0557,-0.4213 -0.1104,-0.8427 -0.1658,-1.277 -0.1622,-1.4236 -0.3212,-2.9036 -0.4717,-4.4072 -3.4012,-1.1329 -6.9239,-2.3038 -10.1344,-3.3877 0.7414,0.2622 0.3578,0.1315 -0.5991,-0.1812 1.4329,0.4887 3.478,1.1746 5.012,1.6959 -0.5293,-0.1734 -1.4793,-0.4941 -1.7871,-0.5912 0.7663,0.2611 1.9821,0.6668 2.3595,0.803 -2.1681,-0.7225 -4.4963,-1.5006 -6.784,-2.2645 -0.4725,-0.1449 0.9895,0.3346 0.8631,0.3011 -2.166,-0.7217 -5.1961,-1.7441 -6.7782,-2.2619 1.8151,0.6183 5.3765,1.804 6.484,2.1829 -0.7225,-0.2382 -1.4448,-0.4765 -2.1888,-0.7218 -1.4753,-0.4935 -2.1836,-0.7283 -0.5299,-0.1682 0.8869,0.3008 0.8664,0.2946 0.6436,0.2213 -1.0139,-0.3313 -4.5262,-1.5106 -4.4325,-1.4601 0.8879,0.2977 4.3992,1.4748 5.2802,1.7832 -0.6729,-0.2114 -2.4637,-0.8202 -2.6511,-0.8702 3.8944,1.3001 3.7494,1.2583 4.7227,1.5752 -0.4223,-0.1437 -1.5333,-0.5129 -1.4885,-0.5061 2.396,0.8039 4.7919,1.6077 7.2605,2.4359 -0.2295,-0.0668 -0.158,-0.0306 0.0585,0.0489 -1.0484,-0.351 -2.1389,-0.7134 -4.0922,-1.3705 0.511,0.1911 2.3054,0.7902 3.9616,1.3396 -0.0155,-0.002 -0.031,-0.005 -0.0469,-0.007 -2.6782,-0.8989 -6.77,-2.2652 -9.5135,-3.1752 1.246,0.422 5.8554,1.968 8.9979,3.0186 -0.1023,-0.0307 -0.2045,-0.0614 -0.3099,-0.093 1.7181,0.5744 3.5627,1.1953 5.4635,1.8352 0.2524,2.6004 0.5516,5.2972 0.8873,7.9161 -0.3036,-2.2205 -0.5913,-4.8541 -0.8826,-7.7511 -0.005,-0.0522 -0.0105,-0.1043 -0.0157,-0.1562 -1.2128,-0.4038 -2.3418,-0.7753 -3.526,-1.1653 -3.4951,-1.177 -13.8899,-4.6661 -15.0795,-5.0562 -1.3099,-0.4298 9.2221,3.1026 9.279,3.1271 0.0569,0.0246 -4.8487,-1.6147 -2.5377,-0.8409 1.2062,0.4032 3.8395,1.2843 5.7497,1.923 0.0583,0.0308 0.1166,0.0615 0.1766,0.0932 -1.6666,-0.5583 -3.6371,-1.2137 -3.7041,-1.258 -0.825,-0.274 -2.5473,-0.8604 -2.8141,-0.9391 0.2803,0.0954 0.7028,0.2358 0.6998,0.2402 -0.4019,-0.1341 -0.9831,-0.3311 -1.0465,-0.3462 2.0062,0.6749 4.7723,1.6088 6.9604,2.3419 0.1817,0.0662 0.3633,0.1322 0.5504,0.2003 -0.0416,-0.0119 -1.75,-0.5801 -3.2159,-1.0691 -1.5463,-0.5152 1.6585,0.5651 4.206,1.4182 0.3992,0.1395 0.7984,0.279 1.2095,0.4227 -0.8813,-0.2963 -1.9034,-0.6391 -3.1069,-1.0414 -1.4074,-0.4652 -1.3751,-0.4428 -2.7816,-0.9077 2.5806,0.8696 5.7039,1.9178 8.2098,2.7549 0.2088,0.0724 0.4176,0.1448 0.6267,0.2173 0.0662,0.7478 0.1356,1.4992 0.2097,2.2676 -0.0847,-0.7797 -0.1644,-1.5382 -0.2366,-2.2459 -1.2217,-0.4055 -2.2857,-0.7569 -3.0247,-0.9999 -0.9187,-0.3095 -1.8776,-0.6325 -2.223,-0.7409 0.8561,0.2919 -1.3843,-0.4574 -1.054,-0.3331 1.2284,0.3991 3.6626,1.221 4.5568,1.5032 0.5652,0.1896 1.1461,0.3844 1.7318,0.5809 0.1464,1.4855 0.3082,2.9992 0.4671,4.3849 0.0271,0.2522 0.0545,0.5043 0.0831,0.764 -0.1964,-1.6672 -0.371,-3.2506 -0.5526,-5.0237 0.0629,0.8173 0.5843,5.723 1.0619,9.2559 0.9411,7.2161 2.1834,14.4388 3.7791,21.5327 0.065,0.2907 0.1572,0.707 0.2613,1.1645 0.1155,0.516 0.2342,1.0312 0.3606,1.5611 -0.4217,-1.6923 -0.758,-3.2077 -1.0247,-4.4542 1.0496,5.046 -1.4007,-7.2176 -1.5522,-8.0043 0.7088,4.1116 1.7524,10.0201 3.4619,15.9338 1.7096,5.9137 4.3801,11.6913 5.8533,16.2236 -0.7131,-2.178 -0.9676,-2.8695 -0.1855,-0.5344 0.2117,0.6323 0.4136,1.2672 0.6078,1.9252 -1.3845,-4.6376 -3.4776,-9.1768 -5.0484,-13.6887 -1.5708,-4.5119 -2.5856,-8.8914 -3.3824,-12.7066 0.9298,4.5439 2.8818,11.3146 3.5201,13.16 -0.459,-1.289 -1.0491,-3.1821 -1.1346,-3.4429 0.6786,2.2927 3.5705,9.7409 4.3796,11.9222 -2.0097,-5.3087 -4.5154,-11.642 -5.9658,-17.842 -1.4504,-6.1999 -2.4166,-12.1067 -3.0757,-16.2565 0.9836,6.2866 2.2237,13.6778 4.1912,20.6678 1.9675,6.9901 5.0679,13.3699 6.572,18.5334 -0.5168,-1.7952 -0.544,-1.8111 -0.2464,-0.8725 0.9892,3.1885 1.584,6.4914 1.7749,9.9233 0.0345,0.6922 0.0446,0.4588 -0.0881,-1.1892 -0.1092,-1.3559 -0.2188,-2.1433 -0.2866,-2.5754 0.1246,0.9124 0.8799,11.5023 0.3072,3.0816 -0.5713,-8.3994 -6.4932,-22.0558 -3.4231,-14.0246 3.07,8.0309 3.433,11.4156 2.2662,6.9109 -1.1721,-4.5247 -6.7016,-18.4399 -4.9531,-13.712 1.741,4.7077 5.5466,14.4943 6.0032,20.3254 0.4582,5.8522 0.1653,-4.0431 0.2239,4.6631 0.0586,8.7062 -0.009,1.4574 -0.0292,3.1298 -0.0323,2.6463 -0.0916,7.5345 0.1476,12.1595 0.1657,3.2463 0.5579,7.4175 0.7976,9.5107 -0.025,-0.1466 -0.8866,-10.0159 -0.6004,-6.1149 0.3895,5.1702 1.1582,10.6425 1.7235,13.8968 -0.6319,-2.724 -1.2331,-3.7528 -0.1966,-1.9953 -3.0428,-5.1155 -5.1327,-8.9615 -6.8672,-12.2486 -2.6755,-5.1198 -5.5462,-11.1848 -5.8555,-11.8604 -0.3619,-0.7917 -6.633,-15.2485 -8.6266,-20.8324 -0.1549,-0.4185 -3.6125,-10.4665 -3.9026,-11.333 -3.0402,-9.6457 -2.6421,-8.2854 -4.9907,-17.9607 -1.9627,-8.087 -2.3604,-10.6096 -2.6289,-11.985 -1.6814,-8.6067 -1.5473,-8.5674 -2.2291,-12.8066 -0.2053,-1.2803 -0.4726,-3.2608 -0.5939,-3.9312 -0.2426,-1.3409 -0.4046,-1.9647 -0.4619,-1.5286 0,0 0,0 0,0 z m 16.8434,4.8884 c -1.4693,-0.4983 -4.1366,-1.3888 -5.6865,-1.9154 1.7861,0.5848 3.9845,1.3262 6.221,2.0824 -0.1764,-0.0551 -0.3528,-0.1102 -0.5345,-0.167 0,0 0,0 0,0 z m 4.2416,9.581 c -0.1328,-1.0331 -0.2746,-2.287 -0.4118,-3.4466 -0.1276,-1.0981 -0.2531,-2.2413 -0.4296,-3.9078 0.008,0.1533 0.2882,2.9087 0.5452,5.0399 -0.004,0.003 -0.007,0.006 -0.0107,0.008 -0.1292,-1.0304 -0.2741,-2.2529 -0.4293,-3.712 -0.0519,-0.4961 -0.1026,-0.9924 -0.1533,-1.5038 0.002,-0.0476 0.087,0.7314 0.1162,1.029 -0.0193,-0.2521 -0.0807,-0.8844 -0.1631,-1.7545 -0.4446,-0.151 -0.9561,-0.324 -1.5126,-0.5119 -0.19,-0.066 -0.3801,-0.132 -0.576,-0.2 -0.2118,-0.0819 0.9969,0.318 -0.3489,-0.132 0.5145,0.166 1.4623,0.4838 2.4659,0.8212 0.0883,0.9039 0.1854,1.8512 0.2664,2.5899 -0.2162,-1.7792 0.5677,4.9927 0.7773,6.6658 -0.0454,-0.3252 -0.0901,-0.6504 -0.1357,-0.9856 z m 2.3861,12.5825 c 0.1574,0.9073 0.3191,1.8139 0.4904,2.7471 -0.2473,-1.3401 -0.4289,-2.3671 -0.5924,-3.3107 0.0335,0.186 0.0671,0.372 0.102,0.5636 z m 13.01,74.8652 c -0.812,-5.5153 -1.3979,-17.1871 -1.4275,-17.9484 -0.0171,-1.1909 -0.0191,-2.381 -0.007,-3.6092 -0.0612,7.7538 0.6466,16.0373 1.4345,21.5576 0,0 0,0 0,0 z m -2.1889,-19.4653 c -10e-4,-0.4673 -0.002,-0.2765 0.0122,0.8485 0.0761,5.9865 0.3899,9.5254 0.1976,5.7492 -0.1642,-3.2247 -0.1715,-10.2532 -0.1782,-8.1951 -0.0127,2.7385 0.0499,5.479 0.1977,8.2988 0.1073,2.1646 0.2504,4.265 0.4405,6.4055 -0.4451,-4.6138 -0.6451,-9.0518 -0.6698,-13.1069 0,0 0,0 0,0 z m 0.9211,15.6907 c -0.1874,-1.6488 -0.3782,-3.6176 -0.5263,-5.6099 0.1304,1.7273 0.2911,3.453 0.4898,5.2283 0.0119,0.1259 0.0239,0.2519 0.0365,0.3816 z m 0.2414,2.115 c -0.434,-3.3563 -0.7471,-6.7232 -0.3856,-3.3398 0.0811,0.7607 0.1681,1.5209 0.2643,2.3036 0.0388,0.3421 0.0788,0.684 0.1213,1.0362 z m 0.274,2.0687 c -0.002,-0.043 -0.0825,-0.6125 -0.2288,-1.7312 0.2194,1.6633 0.665,4.5335 0.8951,5.8796 0.492,-0.7133 0.3425,-0.9658 0.3746,-0.918 0.1255,0.2082 0.2533,0.4194 0.3831,0.6333 -0.9922,-1.0235 -1.2173,-2.4275 -1.424,-3.8637 0,0 0,0 0,0 z m 1.3367,3.2497 c -0.2447,-1.4713 -0.4501,-2.7544 -0.0622,-0.4216 0.0653,0.3928 0.1321,0.7854 0.2011,1.1802 -1.0219,-0.1478 -1.2849,-0.5836 -1.5509,-1.0274 0.2629,0.4349 0.527,0.8692 0.7959,1.3086 0.7047,-0.5314 0.6603,-0.7843 0.6161,-1.0398 z M 144.065,177.2791 c 0.1161,0.6264 0.5637,3.0082 0.8456,4.381 0.0609,0.1226 -0.9933,-5.2693 -0.8456,-4.381 0,0 0,0 0,0 z m -1.5068,-8.942 c 0.0929,0.6086 0.4655,3.0032 0.7029,4.4052 0.057,0.1221 -0.8223,-5.2984 -0.7029,-4.4052 0,0 0,0 0,0 z m -6.9725,38.7765 c 0.002,0.007 0.005,0.0132 0.007,0.02 -0.002,-0.007 -0.005,-0.0132 -0.007,-0.02 0,0 0,0 0,0 z" /></g></g><g
       id="g40"><g
         clip-path="url(#clipPath46)"
         id="g42"><path
           id="path48"
           style="fill:#003000;fill-opacity:1;fill-rule:nonzero;stroke:none"
           d="m 101.431,142.6781 c 1.6249,5.6 0.8328,11.6245 -2.18447,16.6142 -3.62682,5.9976 -9.95191,9.6486 -14.67522,14.7916 -9.51407,10.3594 -12.26366,26.2988 -24.55773,33.5548 -6.93944,4.0956 -15.49291,4.3521 -22.66535,0.6798 8.57423,8.3235 20.94194,11.4322 32.43277,8.1521 18.0673,-5.1573 27.52559,-23.1423 37.7589,-38.8707 6.7023,-10.3014 14.3266,-19.9726 22.7788,-28.8946 z" /><path
           id="path50"
           style="fill:#000000;fill-opacity:1;fill-rule:nonzero;stroke:none"
           d="m 123.9951,147.1671 c -0.522,-0.1155 -2.8083,-0.5951 -2.8502,-0.59 0.859,0.1766 2.6714,0.5639 2.8502,0.59 0,0 0,0 0,0 z m 4.613,0.9559 c -0.8167,-0.1796 -2.6547,-0.5571 -3.2467,-0.6721 0.9766,0.2005 2.9261,0.6164 3.2467,0.6721 0,0 0,0 0,0 z m -7.1093,-1.4437 c -1.2274,-0.2528 -3.4776,-0.7316 -4.0444,-0.8386 1.2266,0.2526 3.4755,0.7311 4.0444,0.8386 0,0 0,0 0,0 z m -24.04184,47.2139 c 0.32347,-0.4553 1.66211,-2.4278 1.64276,-2.4233 -0.47796,0.7198 -1.56254,2.2883 -1.64276,2.4233 0,0 0,0 0,0 z m 7.23014,-11.1394 c 0.4776,-0.7347 1.4834,-2.3265 1.7933,-2.8248 -0.5364,0.8425 -1.6425,2.5667 -1.7933,2.8248 0,0 0,0 0,0 z m 4.1392,-6.4156 c 0.9679,-1.462 2.0288,-3.0039 1.8098,-2.7077 -0.3005,0.457 -1.7303,2.5598 -1.8098,2.7077 0,0 0,0 0,0 z m 13.3398,-28.9668 c 1.7944,0.3692 3.0723,0.6463 4.2787,0.8974 6.1191,1.2741 -3.06,-0.6662 -4.2787,-0.8974 0,0 0,0 0,0 z m -5.7407,18.2044 c -0.7644,1.0044 -1.3594,1.8099 -1.7088,2.2947 0.6936,-0.9397 1.6903,-2.2469 1.7088,-2.2947 0,0 0,0 0,0 z m 6.7864,-8.46 c 0.1956,-0.2184 4.4267,-5.0815 6.8593,-7.6821 -2.0873,2.2158 -7.0549,7.9005 -6.8593,7.6821 0,0 0,0 0,0 z m 1.4981,-2.7948 c -2.7209,3.1221 -6.8986,8.2902 -8.7195,10.6877 -1.807,2.3793 3.2052,-4.3045 8.2305,-10.09 5.039,-5.8022 0.8161,-1.0125 2.9152,-3.3315 2.0819,-2.3011 -2.0396,2.2257 -4.0483,4.5868 -1.994,2.3439 1.3591,-1.5675 1.6221,-1.853 0,0 0,0 0,0 z m 0.0333,-0.1104 c 0.9962,-1.1353 1.862,-2.0999 2.4265,-2.7314 -1.0553,1.1541 -2.0459,2.2708 -2.4265,2.7314 0,0 0,0 0,0 z m -23.0061,-10.6617 c -0.008,0.5359 0.6996,4.1801 0.0375,8.0296 -0.1629,0.9587 -0.3921,1.9052 -0.6992,2.8594 -2.12317,6.8294 -8.27924,11.443 -13.7747,16.3952 -1.0877,0.981 -2.1454,1.9922 -3.16915,3.1162 -3.07656,3.3745 -5.45363,7.333 -7.67681,11.3892 -0.73722,1.3455 -1.45667,2.6996 -2.20072,4.0847 -2.62598,4.8564 -5.14441,9.4015 -8.67145,13.1541 -1.76328,1.8765 -3.80819,3.575 -6.24824,4.9222 -1.22035,0.673 -6.76544,2.5857 -8.80837,2.8166 0.98687,-0.1202 -0.88876,0.1534 -2.96712,0.1074 -2.07835,-0.046 -4.32776,-0.503 -4.11655,-0.4594 -1.04735,-0.2038 -2.12872,-0.4964 -3.18827,-0.8752 -1.05976,-0.3781 0.26939,0.1493 1.63237,0.5314 -1.21142,-0.3306 -2.40294,-0.7643 -3.58118,-1.3134 -0.25498,-0.1192 -0.50839,-0.2433 -0.76037,-0.3725 0.31459,1.4825 1.16348,2.2298 2.0647,2.9446 3.69214,2.9392 8.26614,5.1132 12.41379,6.1882 2.83244,0.7443 7.04121,1.3906 11.65217,0.9702 4.61095,-0.4204 9.53926,-2.02 13.33798,-4.0386 7.59743,-4.0373 11.81993,-9.1543 9.75234,-7.1829 -4.66932,4.4504 -2.32335,2.1054 -1.05119,0.9501 0.74691,-0.6776 1.72858,-1.613 2.78586,-2.7143 -0.02552,0.034 -0.09986,0.1181 -0.25796,0.2842 2.02221,-2.0713 4.7151,-5.2206 7.12168,-8.5205 -0.455,0.6148 -1.04199,1.3915 -1.26785,1.6748 1.2546,-1.6375 0.24491,-0.3308 1.04503,-1.4204 2.24367,-3.0407 3.27883,-4.5342 0.70824,-0.9793 2.37233,-3.3008 3.77988,-5.503 5.95207,-8.9221 0.8365,-1.2986 0.3789,-0.5886 0.1423,-0.2063 1.4676,-2.2753 4.7616,-7.4712 5.0815,-7.9547 0.3219,-0.4844 -9.05495,14.0542 -7.34277,11.4801 0.69567,-1.0459 2.10477,-3.2318 2.64437,-4.0666 -1.1782,1.8471 -2.65634,4.1074 -3.42477,5.2639 0.84745,-1.2593 2.01877,-3.0571 2.66387,-4.0521 -0.796,1.2368 -1.3486,2.0824 -1.57945,2.4428 1.17905,-1.792 2.05525,-3.1569 3.42195,-5.3106 0.6001,-0.953 -0.5313,0.8166 0.7563,-1.2133 0.2211,-0.3619 -0.8548,1.3418 -0.7869,1.2229 1.0398,-1.6438 3.1083,-4.8963 3.6185,-5.6949 0.4954,-0.7778 -1.2604,1.9693 -1.3058,2.0322 4.0151,-6.3129 8.81,-12.999 10.3543,-15.0475 1.5593,-2.0672 0.0909,-0.1304 -0.573,0.7506 1.7985,-2.41 3.1874,-4.2024 5.4502,-6.9668 1.4481,-1.7702 0.8691,-1.0624 0.3137,-0.3931 0.384,-0.4682 0.7256,-0.8804 0.9481,-1.1486 0.1625,-0.1964 0.5811,-0.6967 0.8634,-1.0339 -0.911,1.0712 -2.5701,3.0897 -3.2957,3.9844 1.302,-1.6329 4.5423,-5.4606 5.726,-6.823 -1.9269,2.18 -3.9281,4.5537 -5.9669,7.09 3.7767,-4.7217 7.9588,-9.3776 11.3531,-12.9894 -0.2259,-0.0461 -0.4494,-0.0917 -0.6704,-0.1367 0.2548,0.0537 0.4677,0.0992 0.6587,0.1405 -0.347,0.3614 -0.603,0.6234 -0.9766,1.0166 0.294,-0.3108 0.6208,-0.6536 0.9627,-1.0124 -1.7336,-0.367 -3.7623,-0.7934 -5.1249,-1.0643 -0.9537,-0.197 -2.8402,-0.5847 -4.7209,-0.9744 3.2843,0.6892 5.4807,1.1501 7.7833,1.6252 -0.0511,-0.008 -0.2643,-0.0498 -0.6616,-0.1307 0.9566,0.2034 1.8394,0.3893 2.6668,0.5623 -2.4949,2.6318 -4.1383,4.4875 -6.0964,6.748 -0.1887,0.2158 -0.377,0.432 -0.5705,0.6551 -0.8013,0.9101 1.9685,-2.2636 2.2314,-2.5721 -3.6462,4.0832 -7.3623,8.7209 -9.0289,10.853 3.9641,-5.1315 7.7178,-9.4681 10.996,-13.0582 -0.8802,0.9378 -4.1192,4.5994 -5.6398,6.3894 5.7071,-6.7846 7.354,-8.2737 8.0309,-8.9911 -0.1922,-0.0396 -0.3383,-0.0697 -0.4789,-0.0986 0.1583,0.0333 0.3166,0.0665 0.4751,0.0999 -0.4541,0.4778 -0.9098,0.959 -1.373,1.4545 0.1369,-0.1507 0.2741,-0.3012 0.4157,-0.456 0.3068,-0.3274 0.6205,-0.6592 0.9354,-0.9917 -4.2598,-0.8879 -8.6668,-1.8075 -8.4224,-1.7523 0.1957,0.044 4.1276,0.8669 8.4015,1.7588 -0.1087,0.1148 -0.218,0.2301 -0.3272,0.3456 0.1049,-0.1139 0.2101,-0.2278 0.3155,-0.3419 -0.3166,-0.062 -0.6351,-0.1243 -0.9598,-0.1879 -5.211,-1.0846 -11.1384,-2.2963 -16.3278,-3.3889 0.839,0.1882 0.4039,0.0955 -0.6839,-0.1236 1.6246,0.3469 3.9454,0.8311 5.6839,1.2004 -0.6018,-0.1216 -1.679,-0.3483 -2.0299,-0.4156 0.868,0.1851 2.2476,0.4709 2.6724,0.5688 -2.46,-0.5087 -5.1003,-1.0569 -7.6944,-1.5949 -0.5373,-0.0989 1.1213,0.2366 0.9765,0.215 -2.455,-0.5076 -5.8882,-1.2299 -7.6805,-1.5913 2.0562,0.4382 6.0906,1.2714 7.344,1.5402 -0.8188,-0.1669 -1.6371,-0.3338 -2.4799,-0.5056 -1.6705,-0.3472 -2.4723,-0.5118 -0.6006,-0.116 1.0035,0.2126 0.9802,0.2084 0.7279,0.1571 -1.1479,-0.2309 -5.1217,-1.0614 -5.0146,-1.0206 1.0039,0.2095 4.9746,1.0373 5.9693,1.2574 -0.7621,-0.1452 -2.7852,-0.5752 -2.9974,-0.607 4.4008,0.9123 4.2359,0.8845 5.3373,1.105 -0.4769,-0.1014 -1.733,-0.3602 -1.6812,-0.3573 2.7081,0.5652 5.4161,1.1305 8.2061,1.7128 -0.2632,-0.045 -0.187,-0.0173 0.055,0.0398 -1.1842,-0.2464 -2.4168,-0.5003 -4.6218,-0.9623 0.5719,0.1384 2.5978,0.5585 4.4694,0.943 -0.0186,-0.001 -0.0372,-0.002 -0.0563,-0.003 -3.0223,-0.6312 -7.6412,-1.589 -10.7376,-2.2251 1.4051,0.2971 6.6041,1.3818 10.1499,2.1183 -0.1167,-0.0208 -0.2333,-0.0417 -0.3534,-0.0631 3.6128,0.7505 7.7124,1.6161 11.8018,2.4691 -0.6715,0.7104 -1.3357,1.4239 -1.9875,2.1355 0.6047,-0.6705 1.2638,-1.383 1.9689,-2.1295 -1.6922,-0.3525 -3.5172,-0.7393 -5.4748,-1.1444 -1.4324,-0.2963 -2.7576,-0.5655 -4.1496,-0.8487 -3.9361,-0.8258 -15.6485,-3.2722 -16.9882,-3.5431 -1.4743,-0.2984 10.3869,2.1764 10.4498,2.1947 0.0629,0.0184 -5.4605,-1.1281 -2.8589,-0.5866 1.358,0.2821 4.323,0.8987 6.4742,1.3456 0.0619,0.0237 0.1237,0.0475 0.1872,0.072 -1.8746,-0.3905 -4.0921,-0.8479 -4.1628,-0.8837 -0.9288,-0.1912 -2.8655,-0.6038 -3.1672,-0.6562 0.3153,0.0671 0.7908,0.165 0.7866,0.1694 -0.4522,-0.0937 -1.1057,-0.2321 -1.1777,-0.2411 2.2562,0.4727 5.3655,1.1273 7.8262,1.6401 0.2025,0.0472 0.4049,0.0945 0.6133,0.1431 -0.0475,-0.008 -1.969,-0.4042 -3.617,-0.7454 -1.7383,-0.3594 1.8608,0.3968 4.7231,0.9927 0.4463,0.0985 0.8922,0.197 1.3514,0.2984 -0.9893,-0.2071 -2.137,-0.4465 -3.4888,-0.7273 -1.5823,-0.3235 -1.5494,-0.3054 -3.1293,-0.6285 2.894,0.6078 6.3975,1.3394 9.2105,1.9231 1.0072,0.2201 2.0132,0.44 3.0484,0.6663 -2.3397,-0.4836 -4.5045,-0.9267 -5.7918,-1.188 -1.0286,-0.2159 -2.1022,-0.4412 -2.492,-0.5153 0.957,0.2043 -1.5525,-0.3173 -1.1872,-0.2279 1.3798,0.2753 4.1031,0.8488 5.1127,1.0423 2.1503,0.4487 4.5011,0.9398 6.5854,1.374 0.2628,0.0566 0.5256,0.1131 0.7963,0.1714 -1.7714,-0.3682 -3.4551,-0.7169 -5.345,-1.1053 0.525,0.1213 2.8369,0.6082 5.4228,1.1467 -1.036,1.1023 -2.1143,2.2783 -3.0483,3.3208 -5.3435,5.9131 -10.2544,12.1621 -14.832,18.6464 -0.1881,0.2657 -0.4591,0.6469 -0.7561,1.0678 -0.3373,0.4745 -0.6725,0.9505 -1.0158,1.4424 1.0758,-1.5721 2.0533,-2.955 2.8633,-4.0835 -3.3142,4.5671 4.8153,-6.4193 5.3393,-7.1039 -5.6852,7.1543 -14.8456,21.788 -20.92949,30.6311 1.45668,-2.1259 1.91435,-2.8174 0.34946,-0.5253 -0.42377,0.6206 -0.85072,1.2373 -1.29474,1.8673 6.22667,-8.8886 12.03377,-18.7636 17.01157,-25.6398 -2.9864,4.0934 -7.1936,10.551 -8.378,12.3808 0.8139,-1.2801 2.0064,-3.1245 2.1631,-3.3774 -1.455,2.2155 -6.2061,9.7492 -7.66046,11.9406 7.00126,-10.6858 16.46946,-24.8004 22.33046,-31.833 -8.9167,10.653 -18.8076,26.999 -25.74525,36.848 1.21231,-1.7107 1.22478,-1.741 0.60159,-0.8331 -2.13841,3.0788 -4.36682,6.0453 -6.84058,8.8494 -0.50328,0.5645 -0.32721,0.3934 0.84227,-0.9852 0.9619,-1.1342 1.50849,-1.8261 1.80116,-2.2061 -0.63757,0.7977 -8.20991,9.5936 -2.18066,2.623 6.0135,-6.9524 14.82307,-21.1334 9.52834,-13.0291 -5.29404,8.1033 -7.68284,10.9659 -4.63848,6.7548 3.05771,-4.2295 11.99961,-18.3766 8.99551,-13.6471 -2.9913,4.7092 -9.45108,14.6173 -13.60525,19.4877 -4.1694,4.8884 3.19688,-2.8613 -3.36178,3.7278 -6.55889,6.5894 -1.10938,1.1053 -2.42512,2.2737 -2.08237,1.8487 -6.11676,4.9522 -10.59498,6.9166 -3.14475,1.3772 -7.6554,2.4373 -9.91176,2.682 0.1552,-0.0251 10.53392,-2.6972 6.50567,-1.411 -9.90123,3.1816 -21.5182,-0.0654 -16.92571,0.9166 -6.18251,-1.2991 -10.3126,-3.7807 -13.4934,-6.2555 -0.91921,-0.7207 -1.83237,-1.5168 -2.69607,-2.3579 4.34291,3.2065 9.50993,3.3445 10.17817,3.3546 0.48109,0.007 5.20743,0.086 10.11635,-2.1412 4.90892,-2.2272 9.04802,-6.6839 10.98844,-9.2582 0.28798,-0.3906 6.2805,-10.4434 6.74714,-11.3469 2.66233,-4.9581 3.8917,-7.0186 5.19594,-8.9835 1.30423,-1.965 2.50771,-3.9856 6.49265,-7.6735 6.66161,-6.1648 8.87793,-7.998 9.88224,-9.1709 3.14197,-3.6701 3.93147,-6.1807 4.46667,-7.903 0.5351,-1.7224 0.8055,-2.8858 0.8968,-5.2645 0.0558,-1.4367 -0.1293,-3.6563 -0.2806,-4.401 -0.3025,-1.4893 -0.6076,-2.1482 -0.6034,-1.6637 0,0 0,0 0,0 z m 18.9386,3.1419 c -1.6599,-0.3516 -4.6784,-0.9775 -6.4299,-1.3495 2.0247,0.4086 4.5114,0.9314 7.0398,1.4648 -0.2013,-0.0381 -0.4026,-0.0761 -0.6099,-0.1153 0,0 0,0 0,0 z m 6.9971,4.5534 c 0.668,-0.7319 1.4791,-1.5942 2.2552,-2.4161 -0.1635,-0.0347 -0.3266,-0.0686 -0.4888,-0.102 -1.1736,-0.2442 -2.3865,-0.4999 -4.1799,-0.8668 0.1311,0.0339 2.5006,0.5348 4.633,0.9795 -0.1702,0.1809 -0.3375,0.359 -0.4996,0.5323 -0.007,0.002 -0.015,0.005 -0.0227,0.007 0.1579,-0.1703 0.3223,-0.3468 0.4935,-0.5298 -0.9509,-0.1952 -2.0325,-0.4184 -3.2656,-0.6756 -0.5256,-0.1106 -1.0512,-0.2211 -1.5928,-0.335 -0.0333,-0.0142 0.8083,0.1561 1.1202,0.2232 -0.3866,-0.0919 -1.7523,-0.3821 -3.5277,-0.7558 -0.2125,-0.0465 -0.4251,-0.0931 -0.6441,-0.141 -0.2331,-0.0592 1.1286,0.2196 -0.3854,-0.0949 1.0782,0.2131 3.8171,0.7944 5.5382,1.1502 -1.1031,-0.216 0.7141,0.1643 2.829,0.6057 -1.166,1.2353 -2.4354,2.6242 -2.9834,3.2236 0.2372,-0.2662 0.4751,-0.5318 0.7209,-0.8047 z m -8.4144,10.5913 c -0.6308,0.7894 -1.2557,1.5835 -1.8932,2.4065 0.9138,-1.1819 1.6235,-2.0774 2.2795,-2.8961 -0.1277,0.1614 -0.2552,0.3229 -0.3863,0.4896 z M 60.95462,218.137 c 3.07957,-0.0467 7.99016,-0.8198 11.82257,-2.2711 3.8324,-1.4514 6.61904,-3.2937 6.95519,-3.5193 1.07845,-0.6884 2.12288,-1.4257 3.16536,-2.233 -6.56623,5.1038 -15.77259,7.9543 -21.94312,8.0234 0,0 0,0 0,0 z m 19.41457,-7.1061 c 0.40304,-0.2744 0.24981,-0.1478 -0.73006,0.4947 -5.21646,3.418 -8.92501,4.5258 -5.26837,2.8997 3.12253,-1.3887 9.10459,-5.6336 7.38485,-4.3465 -2.29219,1.7106 -4.73933,3.1925 -7.47481,4.4018 -2.10438,0.9236 -4.30898,1.6474 -6.61026,2.1354 4.9422,-1.084 9.21453,-3.196 12.69865,-5.5851 0,0 0,0 0,0 z m -15.4854,6.0509 c 1.77779,-0.2315 3.92219,-0.6847 5.98033,-1.3496 -1.78316,0.5782 -3.65387,1.0241 -5.5666,1.2994 -0.13653,0.0175 -0.27306,0.0341 -0.41373,0.0502 z m -2.28726,0.2025 c 3.62298,-0.2196 7.2358,-1.0404 3.60183,-0.411 -0.81713,0.1413 -1.63634,0.2519 -2.48084,0.3327 -0.37004,0.0322 -0.74002,0.0582 -1.12099,0.0783 z m -2.23385,0.0509 c 0.04702,0.005 0.66182,0.029 1.86979,-0.0297 -2.46048,0.1222 -7.31955,-0.4511 -7.09781,-0.4242 1.60408,0.2684 3.38767,0.4404 5.22802,0.4539 0,0 0,0 0,0 z m -3.48456,0.6149 c 1.63223,0.1836 3.06077,0.3046 0.46836,0.0566 -0.98662,-0.0946 -1.96788,-0.2316 -2.96985,-0.4183 0.82029,0.15 1.64622,0.2705 2.50149,0.3617 z m 59.74318,-53.8098 c -0.4231,0.5509 -2.0232,2.6611 -2.9222,3.8944 -0.0373,0.1109 3.5432,-4.6757 2.9222,-3.8944 0,0 0,0 0,0 z m 6.2156,-7.693 c -0.4342,0.5119 -2.1354,2.5413 -3.1084,3.7471 -0.0384,0.1046 3.768,-4.4989 3.1084,-3.7471 0,0 0,0 0,0 z m -53.88297,43.4904 c -0.0045,0.006 -0.0091,0.0122 -0.01376,0.0186 0.0046,-0.006 0.0091,-0.0123 0.01376,-0.0186 0,0 0,0 0,0 z" /></g></g><g
       id="g52"><g
         clip-path="url(#clipPath58)"
         id="g54"><path
           id="path60"
           style="fill:#003000;fill-opacity:1;fill-rule:nonzero;stroke:none"
           d="m 105.5171,133.3603 c 1.5336,9.5345 2.2898,19.1567 2.3037,28.7352 0.0137,9.5131 -0.7029,19.5468 2.6988,28.2882 5.053,12.9849 16.5545,17.6882 27.74,18.0909 11.475,0.4132 22.8504,-2.9322 33.1256,-9.7417 -8.3357,-4.0966 -17.186,-6.0199 -26.0681,-5.6661 -6.8611,0.2733 -14.3977,1.4265 -19.2956,-5.1315 -5.0708,-6.7895 -3.9546,-17.3073 -1.7603,-26.5248 1.8633,-7.8271 4.2514,-15.5204 7.193,-23.0423 z" /><path
           id="path62"
           style="fill:#000000;fill-opacity:1;fill-rule:nonzero;stroke:none"
           d="m 127.4769,137.3822 c -0.5101,-0.1051 -2.736,-0.5375 -2.7727,-0.5308 0.8353,0.1586 2.6024,0.509 2.7727,0.5308 0,0 0,0 0,0 z m 4.2024,1.0162 c 0.0246,-0.0608 0.0513,-0.1275 0.0796,-0.1985 -0.8664,-0.1731 -2.4245,-0.4683 -2.9526,-0.5624 0.8178,0.1551 2.3421,0.4558 2.9451,0.567 -0.0341,0.0895 -0.0592,0.1567 -0.0721,0.1939 0,0 0,0 0,0 z m -6.6223,-1.4506 c -1.1943,-0.2273 -3.3879,-0.6601 -3.9371,-0.755 1.1937,0.2273 3.3863,0.6598 3.9371,0.755 0,0 0,0 0,0 z m 5.3039,54.2506 c -0.4316,-0.2384 -2.209,-1.5487 -2.222,-1.5421 0.6259,0.5506 2.0796,1.4783 2.222,1.5421 0,0 0,0 0,0 z m -6.8226,-9.5459 c -0.1774,-0.7482 -0.474,-2.4466 -0.5469,-2.9963 0.1121,0.9245 0.4685,2.7284 0.5469,2.9963 0,0 0,0 0,0 z m -0.7421,-7.0944 c 0.0173,-1.7365 0.1963,-3.634 0.1521,-3.2778 -0.0386,0.566 -0.1656,3.0942 -0.1521,3.2778 0,0 0,0 0,0 z m 3.0852,-36.8999 c 1.7602,0.3346 3.0189,0.5882 4.2033,0.8162 0.3374,0.065 0.6268,0.1207 0.8723,0.1678 -0.6571,1.7002 -0.4552,1.1937 0.014,-0.006 -1.6156,-0.3182 -4.4565,-0.8681 -5.0896,-0.9781 0,0 0,0 0,0 z m -1.2356,23.6056 c -0.2872,1.1997 -0.5092,2.2367 -0.6276,2.8448 0.2417,-1.1725 0.627,-2.7815 0.6276,-2.8448 0,0 0,0 0,0 z m 2.7654,-10.2426 c 0.0889,-0.266 2.005,-6.2714 3.2057,-9.5506 -1.0339,2.7925 -3.2947,9.8164 -3.2057,9.5506 0,0 0,0 0,0 z m 0.4022,-3.5738 c -1.2367,3.8208 -2.9562,10.013 -3.6431,12.8485 -0.6817,2.8146 1.161,-5.0487 3.4307,-12.1135 2.2753,-7.0846 0.3432,-1.2315 1.3386,-4.0956 0.9868,-2.8415 -0.9742,2.7466 -1.8606,5.6164 -0.88,2.8495 0.6108,-1.9084 0.7344,-2.2558 0,0 0,0 0,0 z m -0.003,-0.1436 c 0.455,-1.3876 0.8617,-2.5757 1.1275,-3.356 -0.5035,1.4237 -0.9605,2.79 -1.1275,3.356 0,0 0,0 0,0 z m -22.0835,-13.0786 c -0.0552,0.5176 0.3803,4.0522 0.7313,7.934 0.0894,0.9672 0.1712,1.935 0.2471,2.9328 0.6125,7.1095 0.7666,14.1909 0.6792,21.4549 -0.0167,1.4383 -0.0333,2.8836 -0.0326,4.3737 -1e-4,4.4775 0.1634,8.9853 0.994,13.3428 0.2757,1.4453 0.6227,2.872 1.0787,4.3139 1.5906,5.0798 5.0579,10.4249 9.1401,13.6871 2.0412,1.6308 4.3114,2.9572 6.779,4.0023 1.2346,0.5236 6.7183,2.0434 8.6965,2.3027 -1.8961,-0.2311 7.4306,0.3957 7.0015,0.4022 1.0459,-0.0278 2.1395,-0.0842 3.2355,-0.1721 1.0951,-0.0884 -0.3014,0.0333 -1.6997,0.0939 1.2286,-0.0619 2.4586,-0.1629 3.7096,-0.3086 1.3145,-0.1516 2.6247,-0.3511 3.9683,-0.6085 4.3879,-0.8319 8.9938,-2.3684 12.8461,-4.1452 2.3951,-1.0948 5.6708,-2.8592 9.1629,-5.174 -6.37,-3.0917 -14.0424,-5.2248 -19.6037,-5.782 -5.5613,-0.5572 -8.9297,-0.1769 -6.741,-0.236 6.3817,-0.1712 3.0823,-0.005 1.3714,10e-5 -1.0031,0.002 -2.3409,0.0535 -3.8421,0.1329 0.0497,-0.008 0.1672,-0.0185 0.3963,-0.0328 -2.8352,0.141 -6.9216,0.4866 -10.5036,-0.3985 0.662,0.169 1.5374,0.3139 1.8556,0.3647 -1.8748,-0.2581 -0.412,-0.001 -1.6065,-0.2752 -3.3246,-0.772 -4.8066,-1.4529 -1.0574,-0.2809 -3.4923,-1.0795 -5.7735,-3.2022 -7.4514,-6.2692 -0.6256,-1.1636 -0.2777,-0.5303 -0.0887,-0.1846 -1.0658,-2.0521 -2.1081,-7.5411 -2.1446,-8.0787 -0.0177,-0.2689 0.2559,3.6703 1.5466,6.7613 1.2908,3.0911 3.8956,5.6191 2.8396,4.4752 -0.8585,-0.9297 -2.0891,-2.8811 -2.4524,-3.6459 0.8198,1.6944 2.4681,3.7587 3.4882,4.6221 -1.0998,-0.9425 -2.3901,-2.6602 -2.8944,-3.5331 0.6326,1.0854 1.2599,1.8429 1.5574,2.1798 -1.445,-1.6757 -2.0183,-2.7432 -2.7842,-4.8239 -0.3435,-0.9217 0.1903,0.8357 -0.4068,-1.197 -0.1145,-0.3646 0.436,1.3177 0.3863,1.2011 -0.5881,-1.5902 -1.1797,-5.0581 -1.2582,-5.9516 -0.0778,-0.8709 0.2666,2.1528 0.273,2.2179 -1.144,-6.7397 0.7649,-15.5323 1.354,-18.0668 0.595,-2.5573 0.0285,-0.1655 -0.2187,0.9272 0.6633,-2.9951 1.1992,-5.0674 2.1466,-8.4282 0.6059,-2.1521 0.3647,-1.2937 0.129,-0.4802 0.1615,-0.5701 0.3072,-1.0735 0.4025,-1.4014 0.0694,-0.2403 0.2502,-0.8523 0.3728,-1.2662 -0.4,1.3119 -1.0989,3.7685 -1.3971,4.8493 0.5279,-1.978 1.9421,-6.6599 2.4809,-8.3476 -0.8863,2.695 -1.7573,5.6005 -2.5877,8.6632 1.6012,-5.9639 3.6526,-12.0031 5.3999,-16.6485 -0.321,0.835 -0.4678,1.2052 -0.7266,1.8947 0.372,-0.9986 0.8582,-2.2626 1.3247,-3.4543 -0.9929,-0.1914 -1.9462,-0.3731 -2.6911,-0.5094 -0.9269,-0.177 -2.7599,-0.5251 -4.5887,-0.8755 3.0428,0.5912 5.1262,0.9961 7.2501,1.4018 -0.039,0.1003 -0.0784,0.2017 -0.1177,0.3028 0.009,-0.0278 0.0454,-0.1258 0.1119,-0.3 -0.087,-0.0155 -0.1911,-0.0349 -0.313,-0.0578 0.1037,0.0205 0.2065,0.0407 0.3084,0.0608 -1.8018,4.5599 -2.6751,7.239 -3.7395,10.598 -0.0856,0.2659 -0.1707,0.5319 -0.2576,0.8062 -0.3634,1.1162 0.8935,-2.7964 1.0126,-3.1807 -1.7007,5.0646 -3.2111,10.671 -3.8601,13.2183 1.527,-6.1443 3.2099,-11.4772 4.7848,-15.9675 -0.4291,1.1704 -1.928,5.7081 -2.5934,7.8939 2.9646,-9.9153 3.6258,-10.8149 3.9226,-11.603 -0.2856,0.7477 -0.5657,1.4969 -0.8486,2.2705 0.0661,-0.1893 0.1326,-0.3785 0.2015,-0.5733 0.4147,-1.1283 0.8632,-2.3046 1.299,-3.4194 -3.2922,-0.6346 -6.1049,-1.1772 -5.91,-1.1361 0.1557,0.0326 2.7116,0.5283 5.8963,1.144 -0.326,0.833 -0.6649,1.7133 -0.9984,2.6061 0.1528,-0.426 0.3072,-0.8514 0.4682,-1.289 0.1644,-0.4301 0.3328,-0.8646 0.5035,-1.3027 -4.7253,-0.9064 -9.9194,-1.8894 -14.5269,-2.788 0.8201,0.1715 0.3957,0.0876 -0.6632,-0.1089 1.5851,0.3139 3.8475,0.7507 5.5438,1.0848 -0.5857,-0.1091 -1.6363,-0.314 -1.9771,-0.3738 0.8472,0.1675 2.1919,0.4251 2.6085,0.5148 -2.3979,-0.4584 -4.9723,-0.9529 -7.5018,-1.438 -0.5222,-0.0876 1.094,0.2139 0.9543,0.1955 -2.3943,-0.4577 -5.7441,-1.1104 -7.4918,-1.4354 2.007,0.3967 5.9425,1.148 7.1666,1.3916 -0.7984,-0.1502 -1.5964,-0.3004 -2.4184,-0.4551 -1.6301,-0.3134 -2.4124,-0.4618 -0.585,-0.1038 0.9799,0.1925 0.9572,0.1888 0.7111,0.1426 -1.1196,-0.2076 -4.9992,-0.958 -4.8936,-0.9192 0.9804,0.1893 4.8578,0.9373 5.831,1.1377 -0.7426,-0.1296 -2.7197,-0.5193 -2.9258,-0.5466 4.2985,0.8241 4.1385,0.7998 5.2128,0.998 -0.4661,-0.092 -1.6926,-0.3255 -1.6432,-0.3239 2.6452,0.511 5.2903,1.0219 8.0155,1.5483 -0.2544,-0.0392 -0.1768,-0.0124 0.0615,0.0402 -1.157,-0.2228 -2.3607,-0.4519 -4.5159,-0.87 0.5629,0.1278 2.5426,0.5074 4.3704,0.8544 -0.0174,-6e-4 -0.0348,-0.001 -0.0527,-0.002 -2.9544,-0.5711 -7.4684,-1.4367 -10.4941,-2.0111 1.3743,0.2693 6.4577,1.2508 9.9238,1.9168 -0.1132,-0.0184 -0.2263,-0.0368 -0.3428,-0.0557 2.8662,0.5508 6.0495,1.1717 9.2848,1.7987 -0.6266,1.6024 -1.231,3.224 -1.7982,4.8261 0.5021,-1.4548 1.1038,-3.0763 1.7861,-4.8192 -0.9925,-0.1931 -2.0259,-0.3938 -3.0988,-0.5991 -1.4001,-0.2677 -2.6941,-0.5103 -4.0536,-0.7656 -3.8519,-0.7483 -15.3101,-2.9633 -16.6203,-3.2077 -1.4422,-0.2693 10.164,1.9717 10.2266,1.989 0.0625,0.0173 -5.3423,-1.0203 -2.7962,-0.53 1.329,0.2553 4.2303,0.8135 6.3351,1.2179 0.0633,0.0231 0.1266,0.0461 0.1917,0.0699 -1.8355,-0.3538 -4.0057,-0.7675 -4.0789,-0.8027 -0.9088,-0.1728 -2.806,-0.5477 -3.0997,-0.5939 0.3088,0.0609 0.7741,0.1495 0.7708,0.1541 -0.4426,-0.0848 -1.0827,-0.2104 -1.1524,-0.2179 2.2094,0.4286 5.2552,1.0226 7.6647,1.4871 0.1996,0.0436 0.3991,0.0871 0.6046,0.1319 -0.046,-0.007 -1.927,-0.3655 -3.5408,-0.6745 -1.7022,-0.3254 1.8249,0.3609 4.6288,0.901 0.4388,0.0901 0.8774,0.1802 1.329,0.273 -0.9696,-0.1879 -2.0944,-0.405 -3.4187,-0.6594 -1.5491,-0.2926 -1.5143,-0.2747 -3.0616,-0.5669 2.838,0.552 6.2731,1.2159 9.0298,1.7449 0.991,0.2013 1.9811,0.4024 3.0003,0.6095 -2.2932,-0.4382 -4.4138,-0.8391 -5.6744,-1.0753 -1.0096,-0.1962 -2.0633,-0.401 -2.4437,-0.4672 0.9403,0.1861 -1.5218,-0.2873 -1.16,-0.2043 1.3509,0.2484 4.0249,0.7699 5.0101,0.9431 1.6648,0.3214 3.4523,0.667 5.1368,0.9921 -0.1676,0.4325 -0.3304,0.857 -0.4872,1.2707 -0.0974,0.2519 -0.1942,0.5039 -0.2932,0.7638 0.2557,-0.6853 0.5101,-1.3548 0.7703,-2.0275 -1.0103,-0.195 -2.0318,-0.3899 -3.123,-0.5971 0.3588,0.0774 1.5531,0.3126 3.0936,0.6118 -0.7282,1.8706 -1.6074,4.2746 -2.2867,6.2669 -2.5203,7.2864 -4.7039,14.6088 -5.9413,22.6565 -0.0511,0.3296 -0.1232,0.8012 -0.1946,1.3202 -0.0824,0.584 -0.156,1.1682 -0.2209,1.7689 0.1908,-1.929 0.4674,-3.6532 0.7229,-5.0562 -1.0607,5.6618 1.7705,-7.7811 1.9741,-8.6026 -1.1399,4.261 -2.8941,10.8986 -2.9655,17.5784 -0.0715,6.6799 2.1462,13.153 6.3715,16.3157 -2.037,-1.5186 -2.6398,-2.1648 -0.5063,-0.3887 0.5775,0.4808 1.1784,0.8946 1.8181,1.2566 -2.2648,-1.2729 -4.2827,-3.6277 -5.4036,-5.7921 -1.121,-2.1644 -1.7606,-4.5665 -2.0673,-7.0303 -0.6135,-4.9277 0.0671,-10.0582 0.9003,-14.326 -1.0088,5.0697 -1.1258,12.81 -0.8567,14.8079 -0.2015,-1.403 -0.2858,-3.5202 -0.2973,-3.8175 0.0155,1.2835 0.1702,4.0528 0.8481,6.5868 0.678,2.534 1.9483,4.7663 2.6193,5.7199 -3.317,-4.6476 -3.9877,-11.9888 -3.0559,-19.0309 0.9318,-7.0421 2.7902,-13.1224 4.0517,-17.376 -1.9247,6.4379 -4.2596,14.4671 -4.4826,22.3789 -0.1115,3.9559 0.3938,7.6915 1.6752,10.7748 1.2813,3.0833 3.7948,5.9632 6.3452,7.3054 -1.7657,-0.936 -1.743,-1.0661 -0.8293,-0.4967 3.0737,1.94 6.6367,2.2994 10.3211,2.2425 0.7389,-0.007 0.4866,0.0341 -1.2863,0.01 -1.4585,-0.0201 -2.2954,-0.1163 -2.7625,-0.1645 0.9647,0.1174 12.3329,0.2047 3.2882,0.1855 -2.255,-0.005 -4.9076,-0.2107 -7.2917,-1.1197 -2.3841,-0.9089 -4.729,-2.9933 -5.8274,-4.4757 -2.1966,-2.9648 -2.8773,-4.3413 -0.5198,-0.732 1.1784,1.8042 2.9913,3.4524 4.3343,4.2553 1.3431,0.803 2.4246,1.1421 3.0929,1.3397 1.3366,0.3953 0.9659,0.4718 -1.3192,-0.4459 -1.1474,-0.4608 -2.8707,-1.3453 -4.4912,-3.0527 -1.6205,-1.7073 -2.6225,-3.589 -3.2879,-5.3241 -1.3308,-3.47 -1.5007,-6.1428 -1.0179,-3.6007 0.4807,2.5311 1.4939,6.3584 4.8558,9.5073 3.3618,3.1489 7.7234,3.6549 10.8583,3.7124 6.2933,0.1154 -4.1459,0.2901 5.032,-0.1901 9.1787,-0.4801 1.5094,-0.0884 3.2403,-0.1212 2.7385,-0.0515 7.7743,0.2222 12.4642,1.283 3.288,0.7459 7.4558,2.215 9.5055,3.099 -0.1609,-0.0604 -10.0166,-3.3579 -6.1099,-2.1943 2.8015,0.8286 5.6574,1.9418 8.1691,3.1336 -5.8869,3.8027 -10.352,5.4792 -7.2877,4.0621 -5.7708,2.6934 -10.206,3.7757 -13.9828,4.4381 -5.9045,1.0121 -12.7838,0.6349 -13.5298,0.5568 -0.4372,-0.0461 -4.6577,-0.3789 -9.1359,-2.0844 -4.4783,-1.7056 -8.8631,-5.1709 -10.9012,-7.613 -0.1537,-0.1803 -2.0642,-2.4304 -3.5475,-5.3928 -1.4833,-2.9624 -2.2203,-5.8478 -2.343,-6.2965 -1.2863,-5.0515 -1.2341,-7.4176 -1.3552,-9.7016 -0.1211,-2.2841 -0.1697,-4.5787 -0.1198,-9.9176 0.0838,-8.926 -0.1114,-11.5563 -0.1815,-13.0428 -0.4396,-9.3027 -0.5954,-9.242 -1.2178,-13.7649 -0.1875,-1.3676 -0.4794,-3.4787 -0.618,-4.1906 -0.2776,-1.4258 -0.4747,-2.0833 -0.5135,-1.6162 0,0 0,0 0,0 z m 18.5814,2.7606 c -1.6221,-0.3184 -4.5683,-0.8833 -6.2799,-1.2204 1.9737,0.3673 4.402,0.8401 6.8719,1.3229 -0.1954,-0.0338 -0.3908,-0.0676 -0.592,-0.1025 0,0 0,0 0,0 z m 4.9494,6.6962 c 0.3673,-1.0434 0.8382,-2.3047 1.273,-3.4666 0.2022,-0.5369 0.4118,-1.0837 0.6497,-1.6954 -0.6722,-0.1303 -1.4221,-0.274 -2.3197,-0.4436 0.0834,0.0202 1.06,0.213 2.2986,0.4545 -0.3459,0.8843 -0.7348,1.9071 -1.0707,2.8197 -0.005,0.003 -0.0101,0.005 -0.0154,0.008 0.2953,-0.8134 0.6416,-1.7436 1.0551,-2.8097 -0.3037,-0.0594 -0.618,-0.1199 -0.9432,-0.1827 -0.5154,-0.1004 -1.0309,-0.2008 -1.562,-0.3042 -0.0352,-0.0141 0.7875,0.1395 1.0938,0.2006 -0.3829,-0.0851 -1.7229,-0.349 -3.4631,-0.6883 -0.2089,-0.0425 -0.4178,-0.085 -0.6331,-0.1288 -0.2315,-0.0553 1.1002,0.1966 -0.382,-0.0883 1.052,0.1913 3.7372,0.7197 5.4212,1.0415 -0.6281,-0.1131 -0.2812,-0.0423 0.5288,0.1159 -0.6222,1.5879 -1.8707,5.028 -2.2711,6.1646 0.1112,-0.3294 0.2234,-0.6586 0.3401,-0.9973 z m -3.535,13.0654 c -0.255,0.9526 -0.5022,1.9072 -0.7484,2.893 0.3523,-1.4161 0.6364,-2.4959 0.9033,-3.4859 -0.0515,0.1956 -0.1026,0.3912 -0.1549,0.5929 z m 45.2819,42.6946 c 0.365,-0.2389 0.7536,-0.4998 1.1692,-0.7771 -5.9831,-2.8822 -16.6421,-5.3918 -17.4198,-5.4853 -1.2635,-0.1804 -2.5313,-0.3159 -3.8409,-0.406 7.6892,0.5149 15.6969,3.1928 21.259,5.9191 -0.3958,0.2412 -0.7857,0.5016 -1.1675,0.7493 0,0 0,0 0,0 z m -18.9134,-5.8218 c -0.4791,-0.045 -0.2793,-0.041 0.88,0.0826 6.168,0.6598 9.7583,1.8332 5.9136,0.9663 -3.2831,-0.7403 -10.5295,-1.325 -8.3978,-1.2018 2.8318,0.1676 5.652,0.5631 8.5277,1.2167 2.1967,0.5056 4.297,1.1385 6.4066,1.9175 -4.6155,-1.6664 -9.1532,-2.603 -13.3301,-2.9813 0,0 0,0 0,0 z m 15.86,3.9872 c -1.6312,-0.681 -3.5931,-1.4019 -5.5986,-1.9982 1.7425,0.5161 3.4715,1.121 5.2339,1.8406 0.1205,0.0516 0.2408,0.1035 0.3647,0.1576 z m 2.0522,0.9202 c -3.2977,-1.5273 -6.659,-2.7176 -3.2873,-1.408 0.7578,0.2945 1.5124,0.6062 2.286,0.9461 0.3312,0.1491 0.6617,0.3014 1.0013,0.4619 z m -0.9102,1.1671 c 0.0458,-0.0229 0.527,-0.3043 1.4432,-0.8952 -0.0558,-0.0494 -0.1262,-0.0828 -0.1991,-0.1172 0.0686,0.0323 0.1393,0.0657 0.2119,0.1002 -2.1994,1.4321 -6.3193,3.5991 -6.1401,3.4991 1.4713,-0.7308 3.0698,-1.6029 4.6841,-2.5869 0,0 0,0 0,0 z m -1.6103,1.8911 c 1.4521,-0.8095 2.7121,-1.5373 0.4289,-0.2331 -0.8694,0.4964 -1.7454,0.9695 -2.6547,1.4314 0.7392,-0.3786 1.474,-0.7736 2.2258,-1.1983 z m -43.0838,-42.3286 c -0.1623,0.653 -0.777,3.1801 -1.0881,4.7076 0.004,0.1542 1.3339,-5.6271 1.0881,-4.7076 0,0 0,0 0,0 z m 2.564,-9.2253 c -0.1908,0.6215 -0.9257,3.0738 -1.3267,4.5204 -8e-4,0.1368 1.6234,-5.4294 1.3267,-4.5204 0,0 0,0 0,0 z M 115.6084,198.13 c 0.005,0.006 0.01,0.0114 0.0146,0.0173 -0.005,-0.006 -0.01,-0.0114 -0.0146,-0.0173 0,0 0,0 0,0 z" /></g></g><g
       id="g64"><g
         clip-path="url(#clipPath70)"
         id="g66"><path
           id="path72"
           style="fill:#003000;fill-opacity:1;fill-rule:nonzero;stroke:none"
           d="m 164.8086,163.914 c 2.5922,3.4974 5.6002,6.6666 8.9581,9.437 11.4787,9.4704 25.9161,13.6846 40.2711,16.2126 9.0111,1.5868 18.6223,2.7659 25.2993,9.1935 3.2346,3.1139 5.3699,7.1943 6.0848,11.6269 -4.3077,-4.9175 -9.7698,-8.6881 -15.896,-10.9702 -9.3767,-3.493 -19.5034,-3.2854 -29.3254,-4.205 -8.9762,-0.8404 -17.904,-2.6292 -26.3478,-6.0178 -15.0651,-6.0458 -27.7688,-16.8053 -36.2125,-30.6695 z" /><path
           id="path74"
           style="fill:#000000;fill-opacity:1;fill-rule:nonzero;stroke:none"
           d="m 143.7851,159.9596 c 0.5052,0.1068 2.6402,0.5332 2.6436,0.5201 -0.7937,-0.1549 -2.5098,-0.5047 -2.6436,-0.5201 0,0 0,0 0,0 z m -4.2745,-0.8418 c 0.7919,0.1663 2.4815,0.4958 3.0057,0.5913 -0.8991,-0.1752 -2.7466,-0.5511 -3.0057,-0.5913 0,0 0,0 0,0 z m 6.5137,1.2534 c 1.1407,0.2231 3.268,0.6545 3.7746,0.7439 -1.1416,-0.2233 -3.2707,-0.6551 -3.7746,-0.7439 0,0 0,0 0,0 z m 33.458,30.3999 c -0.4782,-0.1581 -2.5259,-0.8554 -2.5291,-0.8421 0.743,0.2601 2.3823,0.8072 2.5291,0.8421 0,0 0,0 0,0 z m -11.2335,-4.5209 c -0.6965,-0.361 -2.2259,-1.1678 -2.7103,-1.4279 0.8046,0.4437 2.4476,1.3081 2.7103,1.4279 0,0 0,0 0,0 z m -6.1003,-3.4408 c -1.3864,-0.8669 -2.8207,-1.8544 -2.5673,-1.6652 0.4446,0.2912 2.4025,1.5802 2.5673,1.6652 0,0 0,0 0,0 z m -18.3104,-23.424 c -1.7977,-0.3516 -3.1244,-0.6254 -4.3428,-0.8666 -6.0126,-1.1908 3.182,0.6592 4.3428,0.8666 0,0 0,0 0,0 z m 8.3931,16.059 c 0.8809,0.7802 1.6045,1.3805 2.0524,1.7401 -0.8416,-0.6921 -1.9808,-1.6957 -2.0524,-1.7401 0,0 0,0 0,0 z m -7.1412,-7.2278 c -0.1565,-0.1939 -3.9609,-4.902 -5.8309,-7.7335 1.568,2.3934 5.9875,7.9275 5.8309,7.7335 0,0 0,0 0,0 z m -3.8716,-3.7349 c 2.4609,3.2936 6.8745,8.0823 9.0407,10.1002 2.1484,2.0014 -3.948,-3.4432 -8.5123,-9.4383 -4.5805,-6.0155 -0.8983,-1.0491 -2.6346,-3.6274 -1.7256,-2.5612 1.6235,2.4512 3.5404,4.8564 1.9015,2.3858 -1.2348,-1.6064 -1.4342,-1.8909 0,0 0,0 0,0 z m -0.2025,-0.1934 c -0.8837,-1.1991 -1.6156,-2.2649 -2.1016,-2.9823 0.8457,1.2787 1.6995,2.4666 2.1016,2.9823 0,0 0,0 0,0 z m 24.3749,0.2791 c 0.1887,0.4666 2.2239,3.2809 4.8755,5.9785 0.6596,0.6683 1.3359,1.3194 2.0503,1.9707 5.1526,4.6012 11.2736,8.2025 17.6687,10.8665 1.2664,0.5269 2.5464,1.0216 3.8775,1.4993 3.9923,1.4353 8.1248,2.5904 12.3174,3.5477 1.3909,0.3173 2.7858,0.6129 4.2243,0.8974 5.0161,1.0072 10.0558,1.6272 14.9418,2.8617 2.4436,0.6171 4.841,1.3935 7.1002,2.4683 1.1267,0.5367 5.7222,3.5372 7.1145,4.9656 -0.6969,-0.7029 0.6041,0.5394 1.762,2.1274 1.1579,1.588 2.0762,3.5479 1.9913,3.3653 0.4472,0.9335 0.8311,1.9331 1.1271,2.95 0.2979,1.0213 -0.0243,-0.2599 -0.4825,-1.4932 0.3016,0.7939 0.551,1.604 0.7489,2.4339 -0.2299,-0.2903 -0.4785,-0.5458 -0.732,-0.7995 -0.9196,-0.9228 -1.8816,-1.7994 -2.9148,-2.6492 -3.3779,-2.7894 -7.4739,-5.0799 -11.2451,-6.4867 -5.1971,-1.96 -15.4536,-3.2791 -23.6341,-3.8221 -8.1805,-0.543 -14.1965,-1.4786 -11.518,-1.097 6.053,0.8634 2.9577,0.4091 1.3361,0.2015 -0.9519,-0.1223 -2.2267,-0.2985 -3.6479,-0.5294 0.0397,0.001 0.1443,0.0139 0.3579,0.0455 -2.6951,-0.4349 -6.4708,-1.1906 -10.0871,-2.1649 0.6739,0.1871 1.5404,0.4097 1.8594,0.4968 -1.8422,-0.4615 -0.3803,-0.0722 -1.5823,-0.392 -3.3553,-0.902 -4.9455,-1.389 -1.0741,-0.2908 -3.5992,-1.0089 -5.8731,-1.7756 -9.3112,-3.2197 -1.2981,-0.5557 -0.5874,-0.2533 -0.1986,-0.094 -2.2649,-0.981 -7.2604,-3.5978 -7.7094,-3.8635 -0.2237,-0.1332 3.0834,1.7626 6.309,3.2258 3.2256,1.4633 6.3092,2.5374 4.991,2.0448 -1.0703,-0.4 -3.276,-1.295 -4.0996,-1.6617 1.8346,0.8022 4.1403,1.6796 5.3424,2.0949 -1.3032,-0.4596 -3.1278,-1.1681 -4.1215,-1.5872 1.2391,0.5173 2.1043,0.8404 2.4758,0.9747 -1.8278,-0.6887 -3.1969,-1.2521 -5.3042,-2.2348 -0.9372,-0.4327 0.7748,0.4045 -1.1951,-0.5581 -0.3598,-0.1679 1.3053,0.6252 1.1818,0.5747 -1.6145,-0.7499 -4.7271,-2.4063 -5.4894,-2.8386 -0.7448,-0.4208 1.8766,1.0381 1.9307,1.0721 -6.0548,-3.225 -12.1701,-8.0536 -13.9829,-9.6301 -1.8288,-1.5913 -0.1246,-0.0953 0.6504,0.5695 -2.1496,-1.8255 -3.7051,-3.2671 -5.9979,-5.7042 -1.4702,-1.5616 -0.8852,-0.9464 -0.341,-0.3548 -0.389,-0.4175 -0.7284,-0.7919 -0.9494,-1.0374 -0.1628,-0.1803 -0.5707,-0.6407 -0.8474,-0.9575 0.8538,0.9935 2.5244,2.7924 3.2671,3.555 -1.3955,-1.4079 -4.4621,-4.9364 -5.5396,-6.2944 1.6665,2.1394 3.5865,4.3441 5.7184,6.5053 -4.1726,-4.2082 -7.8098,-9.0588 -10.3996,-13.1848 0.0106,0.002 0.0247,0.005 0.0387,0.008 -0.0144,-0.003 -0.0287,-0.006 -0.0428,-0.009 0.4381,0.7051 0.6247,1.0095 0.9971,1.5854 -0.3074,-0.4727 -0.6554,-1.0202 -1.0107,-1.5965 1.4736,0.2966 3.0708,0.6147 4.1462,0.8163 0.8766,0.1721 2.6065,0.5095 4.3423,0.8514 -3.0558,-0.6105 -5.1013,-1.0191 -7.2187,-1.4341 0.038,0.005 0.2264,0.0397 0.5881,0.1095 -0.6814,-0.1381 -1.3198,-0.2666 -1.9233,-0.3872 1.9751,3.1963 3.5111,5.2345 5.3928,7.5611 0.1668,0.2083 0.3346,0.4157 0.5087,0.6285 0.6883,0.8559 -1.7795,-2.2309 -2.0359,-2.5565 3.095,4.1179 7.0366,8.1256 8.861,9.8386 -4.4756,-4.1508 -7.8965,-8.3402 -10.559,-12.1506 0.6535,0.9656 3.4751,4.6703 4.9008,6.3287 -6.5906,-7.5861 -6.6408,-8.8901 -7.0797,-9.5934 0.4074,0.6598 0.8244,1.3127 1.2643,1.9777 -0.1146,-0.168 -0.2287,-0.3366 -0.3455,-0.5109 -0.3392,-0.5199 -0.6804,-1.0573 -1.014,-1.5979 3.793,0.7514 7.5195,1.491 7.2909,1.4417 -0.1828,-0.0393 -3.5366,-0.7075 -7.3142,-1.4576 0.1836,0.296 0.3691,0.5924 0.5574,0.8886 -0.1955,-0.2989 -0.3891,-0.5995 -0.5841,-0.9074 0.0958,0.0168 0.1938,0.0349 0.2926,0.053 4.8885,0.9677 10.4037,2.0374 15.3145,3.022 -0.8125,-0.1745 -0.3986,-0.0903 0.616,0.1032 -1.548,-0.3152 -3.7426,-0.7508 -5.4012,-1.0866 0.561,0.1075 1.5851,0.3127 1.9056,0.3704 -0.8307,-0.1688 -2.1341,-0.4256 -2.5582,-0.519 2.3253,0.457 4.8281,0.9511 7.2881,1.4361 0.4942,0.0849 -1.0695,-0.2149 -0.9443,-0.1986 2.3318,0.4582 5.6059,1.114 7.3063,1.439 -1.9667,-0.3996 -5.8075,-1.1534 -7.0128,-1.3998 0.7764,0.1502 1.5533,0.3004 2.3543,0.4554 1.5958,0.3154 2.3606,0.4646 0.565,0.1029 -0.9644,-0.1947 -0.9428,-0.191 -0.7026,-0.1447 1.0916,0.2081 4.9035,0.966 4.793,0.9257 -0.9653,-0.1916 -4.7821,-0.9485 -5.7537,-1.1539 0.7183,0.1288 2.6771,0.5255 2.8713,0.5515 -4.2405,-0.8357 -4.0907,-0.8126 -5.1399,-1.0116 0.4628,0.0938 1.6694,0.33 1.6299,0.3301 -2.6095,-0.5182 -5.219,-1.0363 -7.9078,-1.5702 0.2299,0.0357 0.1279,0.004 -0.1221,-0.0526 1.144,0.2265 2.3296,0.4585 4.4674,0.8848 -0.5896,-0.1361 -2.5495,-0.5225 -4.3503,-0.874 0.0111,-6e-4 0.0223,-0.001 0.0338,-0.002 2.9336,0.5829 7.4065,1.4647 10.4033,2.0497 -1.3708,-0.276 -6.4285,-1.2799 -9.8702,-1.9597 0.1054,0.0174 0.2108,0.0349 0.3194,0.0528 -3.3364,-0.6591 -7.1384,-1.4229 -10.93,-2.1761 0.5981,0.9822 1.2144,1.9551 1.85,2.902 -0.6139,-0.8995 -1.2349,-1.8731 -1.8704,-2.9172 1.4868,0.2971 3.0864,0.6189 4.7614,0.9485 1.3899,0.2732 2.6632,0.5187 4.0044,0.7777 3.8595,0.7706 15.3095,3.0459 16.6161,3.2967 1.4415,0.2769 -10.1773,-2.0293 -10.248,-2.0486 -0.0707,-0.0192 5.342,1.0492 2.7895,0.5438 -1.3311,-0.2629 -4.2373,-0.8377 -6.3436,-1.2538 -0.0849,-0.0277 -0.17,-0.0554 -0.2577,-0.084 1.846,0.3657 4.0225,0.7924 4.1275,0.8343 0.9093,0.1779 2.8254,0.5668 3.1088,0.6125 -0.312,-0.0633 -0.7781,-0.1545 -0.7811,-0.1603 0.4444,0.0875 1.0904,0.2177 1.1542,0.2245 -2.2261,-0.4438 -5.3021,-1.0603 -7.7279,-1.5411 -0.2112,-0.0469 -0.4226,-0.0939 -0.6406,-0.1423 0.0423,0.006 1.9324,0.377 3.558,0.697 1.7149,0.3371 -1.8599,-0.3777 -4.6927,-0.9387 -0.4561,-0.0959 -0.9127,-0.192 -1.3834,-0.291 0.984,0.196 2.1236,0.4222 3.4628,0.6867 1.5581,0.3026 1.5027,0.2805 3.0638,0.5837 -2.8925,-0.578 -6.3872,-1.2723 -9.1818,-1.8237 -1.036,-0.2156 -2.0736,-0.4316 -3.1444,-0.6544 2.3269,0.4573 4.4701,0.8741 5.7412,1.1192 1.0358,0.2069 2.1163,0.4226 2.4901,0.4896 -0.9726,-0.1977 1.5451,0.3001 1.1487,0.2083 -1.3595,-0.2574 -4.112,-0.809 -5.0776,-0.9835 -2.1583,-0.4284 -4.52,-0.8978 -6.6096,-1.3119 -0.1135,-0.0233 -0.2271,-0.0465 -0.3413,-0.0699 0.0779,0.1297 0.1582,0.2634 0.2409,0.4011 -0.0842,-0.1379 -0.167,-0.2736 -0.2506,-0.4106 1.6063,0.3215 3.1549,0.6262 4.8678,0.9608 -0.5228,-0.1147 -2.559,-0.5235 -4.9147,-0.9909 0.8648,1.4195 1.8453,2.9626 2.7482,4.2635 4.4195,6.4272 9.9951,12.1919 16.1361,16.9058 0.2508,0.1929 0.6077,0.4672 1.0034,0.7646 0.4427,0.3351 0.8892,0.6657 1.3536,1.0012 -1.5159,-1.0736 -2.826,-2.0847 -3.886,-2.9395 4.2361,3.4533 -5.8369,-5.2387 -6.4625,-5.8597 3.0911,3.1797 7.9079,7.4088 13.45,10.9383 5.5421,3.5294 11.8112,6.3155 16.7116,7.9618 -2.3608,-0.788 -3.1136,-1.0619 -0.5856,-0.1901 0.6846,0.2361 1.372,0.463 2.0829,0.6867 -10.0488,-3.131 -19.6141,-8.8178 -26.0487,-14.1512 3.7993,3.1733 10.1961,7.1929 12.0015,8.2045 -1.2817,-0.7039 -3.0955,-1.8 -3.3544,-1.9525 2.159,1.3507 9.8624,5.1803 12.2097,6.1134 -5.7608,-2.2491 -12.1924,-5.726 -17.6558,-9.8008 -5.4634,-4.0749 -9.9623,-8.7009 -12.8812,-12.1841 4.3908,5.2623 10.3332,10.7293 16.8553,14.9727 6.5221,4.2433 13.606,7.2333 19.2198,8.9514 -1.9456,-0.6016 -1.9618,-0.6311 -0.9371,-0.3095 3.4638,1.1086 6.9874,1.9845 10.6528,2.6789 0.74,0.1442 0.4923,0.1144 -1.2696,-0.2405 -1.4502,-0.2919 -2.2942,-0.4934 -2.7586,-0.5954 0.9783,0.2335 12.3157,2.5021 3.3022,0.7212 -8.9948,-1.7772 -23.8727,-7.9185 -15.1591,-4.4143 8.7171,3.5056 12.391,4.0084 7.5068,2.5988 -2.4542,-0.7083 -7.5121,-2.4569 -11.1585,-4.1425 -3.6464,-1.6857 -5.9715,-3.0322 -3.5767,-1.7628 4.77,2.5283 15.5755,6.4099 21.8586,7.6863 6.3036,1.2805 -4.325,-0.5852 4.9917,0.8387 9.3157,1.4238 1.5685,0.2575 3.3576,0.476 2.831,0.3462 8.0587,0.7275 13.0149,1.0747 3.4822,0.2462 7.9244,0.7068 10.1432,1.0675 -0.1416,-0.0147 -10.6608,-1.14 -6.4815,-0.764 10.2608,0.9039 20.9627,5.1124 16.5428,3.376 5.9009,2.2944 9.6274,5.1723 12.4997,7.8511 1.3039,1.2253 2.5619,2.6418 3.7316,3.9805 -0.7051,-4.3936 -2.3213,-7.8692 -2.5891,-8.3632 -0.2203,-0.4068 -2.6042,-4.5584 -6.8477,-7.4676 -4.2435,-2.9092 -9.9161,-4.4469 -12.9888,-5.1547 -0.4763,-0.1043 -11.78,-2.1525 -12.7642,-2.3293 -10.529,-2.0696 -9.1985,-1.5039 -19.0415,-5.3332 -8.2235,-3.1995 -10.3754,-4.9671 -11.6376,-5.7536 -7.8965,-4.9195 -7.5745,-5.3806 -10.7783,-8.6241 -0.9639,-0.9768 -2.3435,-2.5723 -2.8267,-3.1093 -0.9632,-1.0701 -1.4305,-1.5664 -1.2472,-1.1459 0,0 0,0 0,0 z m -19.064,-4.3191 c 1.6065,0.3242 4.4955,0.8936 6.1886,1.2363 -1.9148,-0.3663 -4.3048,-0.8446 -6.7427,-1.3344 0.1827,0.0323 0.3655,0.0647 0.5541,0.0981 0,0 0,0 0,0 z m -7.0598,1.2009 c -0.6222,-0.9253 -1.3183,-2.0429 -1.977,-3.1181 -0.0198,-0.0325 -0.0395,-0.0648 -0.0594,-0.0974 1.126,0.2257 2.3124,0.4634 4.0047,0.7923 -0.1373,-0.0332 -2.0988,-0.4284 -4.0387,-0.8144 0.2313,0.3802 0.4639,0.7622 0.6899,1.1237 -0.008,-0.005 -0.0156,-0.0105 -0.0236,-0.0159 -0.2226,-0.3529 -0.4548,-0.7308 -0.703,-1.1354 0.7856,0.1564 1.6581,0.328 2.6317,0.5212 0.5253,0.1051 1.0506,0.2103 1.5918,0.3186 0.0567,0.0185 -0.7608,-0.1385 -1.0769,-0.2032 0.4212,0.0947 1.7909,0.3719 3.558,0.7259 0.2165,0.0451 0.433,0.0903 0.656,0.1368 0.2599,0.0621 -1.0683,-0.1963 0.4213,0.0981 -1.0289,-0.1924 -3.7591,-0.7442 -5.4448,-1.0755 0.9393,0.1738 -0.439,-0.102 -2.2555,-0.463 0.9316,1.5305 2.1507,3.3784 2.6424,4.0971 -0.2055,-0.2922 -0.4092,-0.5862 -0.6169,-0.8908 z m 9.5962,10.9133 c 0.6682,0.6694 1.3487,1.3262 2.0627,1.9888 -1.0281,-0.9523 -1.7936,-1.707 -2.4869,-2.4102 0.1395,0.1396 0.2794,0.2787 0.4242,0.4214 z m 72.8367,24.5284 c -5.6071,-1.0192 -17.7471,-1.7583 -18.5097,-1.7981 -1.2265,-0.0941 -2.4461,-0.1978 -3.7042,-0.3251 7.9267,0.787 16.5638,1.0709 22.2139,2.1232 0,0 0,0 0,0 z m -19.2965,-1.1113 c -0.4997,-0.0406 -0.2988,-0.0236 0.8997,0.0637 6.3764,0.4661 10.1525,0.6786 6.1189,0.3993 -3.4444,-0.2385 -10.9332,-0.8315 -8.7501,-0.6401 2.9074,0.2589 5.8341,0.4255 8.8416,0.6322 2.3172,0.1655 4.5767,0.3553 6.8703,0.6347 -4.8914,-0.5606 -9.6593,-0.752 -13.9804,-1.0898 0,0 0,0 0,0 z m 16.7472,1.4736 c -1.7405,-0.2608 -3.8339,-0.5006 -5.9609,-0.687 1.8409,0.1593 3.6742,0.3517 5.5473,0.6199 0.1366,0.0217 0.2731,0.0439 0.4136,0.0671 z m 2.2514,0.3907 c -3.518,-0.6491 -7.1044,-1.0294 -3.5296,-0.5608 0.8038,0.1055 1.6049,0.2225 2.4268,0.3586 0.3646,0.0636 0.7286,0.1301 1.1028,0.2022 z m 2.1757,0.4535 c -0.0527,-0.0165 -0.651,-0.164 -1.8241,-0.3887 2.3852,0.4543 7.0405,1.8681 6.8474,1.8116 -1.5368,-0.5347 -3.2465,-1.0221 -5.0233,-1.4229 0,0 0,0 0,0 z m 1.8215,-0.4022 c -1.4976,-0.3929 -2.8078,-0.7112 -0.4433,-0.1215 0.9,0.2246 1.7955,0.4741 2.7124,0.7628 -0.7451,-0.2317 -1.4939,-0.4431 -2.2691,-0.6413 z m -75.9773,-23.8698 c 0.4936,0.4738 2.3981,2.2322 3.5492,3.203 0.1751,0.102 -4.2119,-3.8623 -3.5492,-3.203 0,0 0,0 0,0 z m -6.5816,-7.1955 c 0.4166,0.5187 2.0849,2.5167 3.1202,3.6486 0.1726,0.136 -3.6913,-4.3861 -3.1202,-3.6486 0,0 0,0 0,0 z m 80.8251,24.2276 c 0.007,0.002 0.0149,0.003 0.0226,0.005 -0.007,-0.002 -0.0149,-0.003 -0.0226,-0.005 0,0 0,0 0,0 z" /></g></g><g
       id="g76"><g
         clip-path="url(#clipPath82)"
         id="g78"><path
           id="path84"
           style="fill:#64c466;fill-opacity:1;fill-rule:nonzero;stroke:none"
           d="M 49.5201,144.4879 C 40.91865,133.4633 39.00625,119.8632 40.85527,106.5562 42.96996,91.33735 49.88721,76.09964 61.35849,64.20146 77.8225,47.12471 101.0359,38.8786 124.769,38.06334 c 47.3566,-1.62677 90.9647,28.23397 90.1583,72.24276 -0.1468,8.009 -2.1293,15.8403 -5.0929,23.2782 -2.6536,6.6599 -6.095,12.9764 -10.9174,18.1652 -5.4893,5.9064 -12.5836,10.1419 -20.485,11.939 -16.5594,3.7663 -32.8901,-3.3667 -48.4305,-10.156 -4.755,-2.0774 -9.523,-4.1249 -14.3038,-6.1424 l -20.54948,8.6484 c -16.05629,7.022 -34.84817,2.2662 -45.62812,-11.5506 z" /><g
           transform="matrix(1,0,0,-1,40.21179,164.7321)"
           id="g86"><path
             id="path88"
             style="fill:none;stroke:#000000;stroke-width:2;stroke-linecap:butt;stroke-linejoin:miter;stroke-miterlimit:4;stroke-dasharray:none;stroke-opacity:1"
             d="M 9.308311,20.24422 C 0.7068664,31.26883 -1.205535,44.86886 0.6434882,58.17586 2.758173,73.39475 9.675427,88.63246 21.1467,100.5306 c 16.46401,17.0768 39.67745,25.3229 63.41049,26.1382 47.35661,1.6267 90.96481,-28.234 90.15831,-72.24279 -0.1468,-8.00903 -2.1293,-15.84033 -5.0929,-23.27825 -2.6535,-6.65987 -6.095,-12.97635 -10.9174,-18.16513 -5.4893,-5.906406 -12.5836,-10.141924 -20.4849,-11.939031 -16.5595,-3.76632 -32.8902,3.3667 -48.43058,10.156041 -4.75503,2.07739 -9.52306,4.12488 -14.30381,6.14235 L 54.93643,8.693557 C 38.88015,1.671568 20.08826,6.427375 9.308311,20.24422 Z" /></g></g></g><g
       id="g90"><g
         clip-path="url(#clipPath96)"
         id="g92"><path
           id="path98"
           style="fill:#ffffff;fill-opacity:1;fill-rule:nonzero;stroke:none"
           d="m 95.61643,144.2186 c -3.99097,1.8247 -8.31821,2.7983 -12.70612,2.8588 -4.94655,0.0682 -9.84027,-1.0235 -14.28882,-3.1877 -7.62367,-2.9523 -13.47673,-9.2316 -15.88677,-17.0436 -2.32452,-7.5348 -1.19527,-15.7121 3.08436,-22.3349 1.41412,11.972 7.52783,22.8914 16.9953,30.3544 6.57829,5.1856 14.47716,8.4255 22.80205,9.353 z" /><path
           id="path100"
           style="fill:#000000;fill-opacity:1;fill-rule:nonzero;stroke:none"
           d="m 84.24365,141.8723 c 0.25835,0.1137 1.3718,0.5245 1.3799,0.4986 -0.4173,-0.1406 -1.30491,-0.4932 -1.3799,-0.4986 0,0 0,0 0,0 z m -2.19435,-0.9018 c 0.39596,0.1974 1.26415,0.5519 1.53848,0.6449 -0.46454,-0.1811 -1.40057,-0.6071 -1.53848,-0.6449 0,0 0,0 0,0 z m 3.37566,1.2715 c 0.59787,0.2059 1.71809,0.5859 1.99157,0.6462 -0.60764,-0.1782 -1.72292,-0.5739 -1.99157,-0.6462 0,0 0,0 0,0 z M 60.58195,121.7746 c 0.1345,0.2667 0.72738,1.288 0.72285,1.2279 -0.21848,-0.3536 -0.68526,-1.2057 -0.72285,-1.2279 0,0 0,0 0,0 z m 3.57331,5.3406 c 0.2633,0.3788 0.84338,1.0888 1.02698,1.289 -0.31451,-0.3767 -0.93926,-1.2098 -1.02698,-1.289 0,0 0,0 0,0 z m 2.4353,2.9632 c 0.59679,0.6597 1.26216,1.3452 1.12958,1.1707 -0.19189,-0.1673 -1.07533,-1.1567 -1.12958,-1.1707 0,0 0,0 0,0 z m 17.98216,10.6911 c -0.91422,-0.3448 -1.57083,-0.6523 -2.17524,-0.9243 -3.03255,-1.366 1.57468,0.739 2.17524,0.9243 0,0 0,0 0,0 z m -13.12652,-6.137 c -0.50094,-0.4168 -0.88812,-0.75 -1.1175,-0.9345 0.44952,0.397 1.09918,0.9562 1.1175,0.9345 0,0 0,0 0,0 z m 4.48548,3.2599 c 0.12492,0.0989 2.94221,1.7926 4.57079,2.5707 -1.39012,-0.6881 -4.69587,-2.6697 -4.57079,-2.5707 0,0 0,0 0,0 z m 1.5252,-0.6725 c -1.873,-1.1283 -4.7072,-3.2795 -5.92383,-4.3254 -1.20601,-1.0365 2.12699,2.0086 5.56792,4.162 3.45286,2.1592 0.58198,0.3288 2.03169,1.1238 1.4401,0.7882 -1.39423,-0.8026 -2.77477,-1.6932 -1.36849,-0.8827 0.92685,0.6041 1.09899,0.7328 0,0 0,0 0,0 z m 0.06439,-0.0725 c 0.6841,0.4221 1.28363,0.7577 1.67974,0.9616 -0.72442,-0.4129 -1.40233,-0.8319 -1.67974,-0.9616 0,0 0,0 0,0 z m 17.71692,7.3976 c -0.34885,-0.14 -2.14248,0.3984 -4.09554,0.8012 -0.4823,0.1032 -0.96479,0.1945 -1.46165,0.2758 -3.52349,0.7215 -7.1827,0.8798 -10.74988,0.4375 -0.70627,-0.0863 -1.40861,-0.1965 -2.12659,-0.3357 -2.15009,-0.4219 -4.27231,-1.0646 -6.32284,-1.9369 -0.68054,-0.2891 -1.41372,-0.641 -2.12192,-0.9363 -2.44208,-1.0512 -4.68507,-2.3803 -6.67185,-4.0467 -0.99427,-0.8331 -1.92287,-1.7529 -2.75415,-2.7482 -0.41246,-0.4961 -2.16434,-2.8023 -2.73688,-3.7016 0.61201,0.8997 -1.66673,-3.3294 -1.58294,-3.1328 -0.24654,-0.5171 -0.47287,-1.0563 -0.66958,-1.5936 -0.19884,-0.5395 0.01736,0.1223 0.26629,0.7749 -0.24888,-0.603 -0.46623,-1.2101 -0.6585,-1.8307 -0.19701,-0.6462 -0.36827,-1.297 -0.51682,-1.9709 -0.45833,-2.161 -0.68139,-4.6014 -0.61659,-6.7295 0.11489,-2.6048 1.03798,-7.2995 2.95504,-10.944 0.79968,4.9502 2.28211,8.6431 1.77358,7.1262 -1.06768,-3.1921 -0.49238,-1.6384 -0.21991,-0.799 0.1597,0.4952 0.38292,1.1538 0.65391,1.8827 -0.0093,0.005 -0.0309,-0.0276 -0.07215,-0.1257 0.50714,1.414 1.3143,3.4209 2.23473,5.1619 -0.17239,-0.3497 -0.38578,-0.7857 -0.46331,-0.9799 0.44619,0.9319 0.08719,0.1262 0.38956,0.7083 0.84533,1.6665 1.27651,2.4394 0.27361,0.5082 0.93107,1.742 1.58566,2.7631 2.69241,4.3531 0.42367,0.6437 0.19285,0.2918 0.06963,0.134 0.74577,1.1367 2.62298,3.5409 2.81021,3.7879 0.1877,0.2516 -4.72015,-6.7715 -3.92352,-5.4321 0.3232,0.5432 1.0223,1.6062 1.30005,2.0294 -0.6102,-0.8828 -1.31387,-2.0132 -1.66276,-2.5795 0.3814,0.6541 0.94642,1.5459 1.27001,2.0464 -0.40068,-0.6025 -0.66251,-1.0173 -0.77339,-1.176 0.5573,0.8985 0.99526,1.5736 1.72928,2.5891 0.32373,0.4343 -0.29322,-0.426 0.41456,0.5279 0.12392,0.1432 -0.46289,-0.6439 -0.42443,-0.6124 0.55912,0.7662 1.74513,2.2733 2.04813,2.6271 0.29486,0.3399 -0.73529,-0.906 -0.75983,-0.9516 2.3062,2.9082 5.4554,5.8094 6.46645,6.653 1.02137,0.8539 0.05979,0.0466 -0.3712,-0.3339 1.17458,1.0001 2.0924,1.7348 3.58979,2.7828 0.95904,0.6695 0.57733,0.3925 0.21161,0.1305 0.25494,0.1741 0.48215,0.3247 0.63047,0.421 0.10859,0.0697 0.38713,0.2512 0.57625,0.3678 -0.60371,-0.3979 -1.70413,-1.1567 -2.18055,-1.5183 0.86538,0.614 3.01228,2.0454 3.80804,2.4903 -1.28031,-0.7733 -2.61269,-1.6421 -3.95609,-2.651 2.61237,1.924 5.52578,3.6499 7.86664,4.6871 -0.42247,-0.2015 -0.60853,-0.3107 -0.95275,-0.4914 0.89059,0.4574 2.23537,1.0793 3.04663,1.3734 0.45268,0.1802 1.35174,0.5199 2.26525,0.8309 -1.60439,-0.564 -2.65191,-1.0102 -3.7292,-1.4826 0.02082,0.004 0.11784,0.0419 0.30297,0.1192 -2.43931,-1.118 -3.74528,-1.7758 -5.35735,-2.7438 -0.12525,-0.0784 -0.25016,-0.1574 -0.37848,-0.2395 -0.52604,-0.3584 1.31925,0.7729 1.50153,0.8563 -2.43476,-1.4025 -4.89965,-3.2004 -5.99334,-4.1193 2.62445,2.1098 5.12259,3.6695 7.32563,4.805 -0.57881,-0.3381 -2.75384,-1.5732 -3.76106,-2.2579 4.56296,2.9783 5.21173,2.9341 5.61133,3.1172 -0.3794,-0.1821 -0.75645,-0.3694 -1.1422,-0.568 0.09414,0.042 0.18845,0.0837 0.28579,0.1264 2.14542,1.067 4.78796,2.0514 4.65179,1.9919 -0.10216,-0.0442 -2.16631,-0.8045 -4.24765,-1.8173 0.21475,0.0913 0.43032,0.1809 0.6533,0.2716 2.45668,1.1426 5.352,2.1275 7.99118,2.8194 -0.43294,-0.1369 -0.21141,-0.0735 0.33773,0.046 -0.83168,-0.221 -2.00311,-0.5495 -2.87536,-0.8408 0.29764,0.0867 0.83964,0.2547 1.01223,0.2931 -0.44,-0.1369 -1.12887,-0.3501 -1.34785,-0.4408 1.22458,0.3914 2.56039,0.7616 3.89033,1.0617 0.2709,0.0361 -0.57595,-0.1421 -0.50588,-0.1423 1.25671,0.2961 3.04335,0.6418 3.98083,0.757 -1.08049,-0.1797 -3.17013,-0.5866 -3.81692,-0.756 0.41929,0.0925 0.84029,0.1791 1.27578,0.262 0.866,0.1782 1.2831,0.2518 0.30904,0.045 -0.52305,-0.1121 -0.51036,-0.1137 -0.37984,-0.0889 0.59385,0.108 2.67789,0.4656 2.62038,0.4204 -0.52988,-0.0792 -2.60901,-0.4648 -3.12966,-0.6061 0.39148,0.0596 1.45193,0.2872 1.56037,0.2825 -2.30808,-0.4182 -2.21193,-0.4677 -2.77649,-0.5917 0.24704,0.0664 0.89645,0.2141 0.87287,0.2246 -1.40471,-0.3256 -2.79151,-0.7171 -4.1956,-1.1904 0.12449,0.0215 0.07632,-0.019 -0.05108,-0.0758 0.59685,0.2007 1.21756,0.4011 2.35194,0.7209 -0.30618,-0.1241 -1.34355,-0.4191 -2.28529,-0.7242 0.0071,-0.004 0.01416,-0.007 0.02146,-0.0105 1.5292,0.5161 3.91418,1.1427 5.53905,1.4464 -0.74123,-0.1554 -3.45494,-0.7983 -5.25389,-1.3841 0.05653,0.0115 0.1131,0.0228 0.17143,0.0344 -2.26293,-0.7275 -4.85338,-1.8369 -7.21163,-3.0775 1.13006,0.5517 2.49193,1.2553 4.02869,1.8767 0.70713,0.2855 1.3641,0.5213 2.0612,0.7539 1.99391,0.7179 8.15485,2.0756 8.87206,2.157 0.79135,0.0903 -5.49237,-1.1269 -5.52801,-1.1471 -0.03568,-0.0203 2.85811,0.6694 1.49042,0.3539 -0.7134,-0.1634 -2.25867,-0.566 -3.36147,-0.9112 -0.03987,-0.035 -0.07973,-0.0701 -0.12077,-0.1062 0.96386,0.3074 2.11865,0.6093 2.16715,0.6649 0.48356,0.1228 1.50549,0.3834 1.66048,0.397 -0.16696,-0.0401 -0.41686,-0.0957 -0.4169,-0.1063 0.23796,0.0545 0.58402,0.1355 0.61994,0.1315 -1.19469,-0.2663 -2.82413,-0.7134 -4.08968,-1.1196 -0.10805,-0.0451 -0.21598,-0.0906 -0.32703,-0.138 0.02287,0.004 1.00878,0.3163 1.86682,0.5537 0.90549,0.2494 -0.98246,-0.2795 -2.44766,-0.7845 -0.23332,-0.0921 -0.46598,-0.1862 -0.70494,-0.2853 0.50493,0.1861 1.09341,0.3916 1.79212,0.6112 0.81506,0.2458 0.79059,0.2156 1.61595,0.431 -1.52355,-0.4303 -3.33146,-1.0481 -4.74863,-1.6129 -0.51933,-0.2307 -1.03488,-0.4713 -1.5615,-0.7301 1.16081,0.5118 2.25584,0.918 2.90994,1.1429 0.52951,0.1971 1.08718,0.389 1.28384,0.4394 -0.50131,-0.1762 0.80461,0.2461 0.60425,0.1555 -0.71165,-0.1998 -2.12216,-0.714 -2.62206,-0.8716 -1.09718,-0.4249 -2.27753,-0.9412 -3.30369,-1.4366 -0.13168,-0.0675 -0.26306,-0.1358 -0.3981,-0.2067 0.86749,0.428 1.70315,0.8057 2.65185,1.189 -0.43539,-0.2208 -3.03336,-1.3912 -4.82594,-2.3871 -3.66341,-2.1136 -7.06298,-4.5936 -9.9965,-7.5857 -0.12016,-0.1237 -0.29192,-0.3077 -0.47869,-0.5136 -0.21117,-0.2386 -0.41982,-0.4794 -0.63201,-0.7297 0.67505,0.7448 1.30208,1.3813 1.82772,1.8888 -2.13732,-2.1457 3.18727,2.8325 3.55061,3.0878 -3.84153,-3.1211 -9.66393,-10.0535 -12.13374,-15.0849 0.59536,1.191 0.79608,1.5616 0.14877,0.262 -0.17536,-0.3523 -0.34622,-0.7069 -0.51726,-1.0748 2.4219,5.0646 6.0564,9.8904 9.30029,12.9633 -1.94067,-1.8907 -4.49676,-5.0334 -5.15321,-6.0046 0.45892,0.6365 1.16094,1.5509 1.25801,1.6527 -0.86133,-1.1298 -3.40901,-4.9021 -4.062,-6.1405 3.19672,5.7484 9.65113,12.3463 13.66067,15.0615 -6.08662,-4.1936 -12.42577,-12.2584 -15.08174,-17.9062 0.45908,1.0045 0.47357,1.031 0.2234,0.5413 -0.84382,-1.7469 -1.57682,-3.5489 -2.20432,-5.4537 -0.12434,-0.4028 -0.08989,-0.2798 0.22715,0.6195 0.26113,0.7396 0.42801,1.1827 0.52221,1.3909 -0.19122,-0.522 -2.18105,-6.4444 -0.60915,-1.7496 1.56926,4.6869 5.87722,12.0756 3.43359,7.6911 -2.44557,-4.388 -2.99335,-6.3788 -1.89477,-3.895 1.10439,2.497 5.77894,9.733 4.13033,7.3275 -1.64219,-2.3962 -4.44044,-7.8966 -5.53653,-11.1705 -1.09937,-3.2837 0.51132,2.5252 -0.8253,-2.4084 -1.33632,-4.9325 -0.21388,-0.9003 -0.43008,-1.8552 -0.33528,-1.4843 -0.74969,-4.3031 -1.06443,-6.9767 -0.0076,0.0441 -0.03416,0.0851 -0.06345,0.1304 -1.08766,1.674 -2.39845,3.818 -2.95185,4.9377 0.0433,-0.126 3.17246,-5.3196 1.87071,-3.3332 -3.23968,5.0144 -4.47493,11.4918 -3.84923,8.9782 -0.82246,3.4953 -0.82057,6.1877 -0.6348,8.4535 0.23528,3.4313 1.60271,7.4175 1.7543,7.832 0.08802,0.2422 1.04039,2.6638 2.64122,5.1022 1.60083,2.4383 3.89564,4.7948 5.17817,5.9531 0.21097,0.1761 5.67861,3.7112 6.23088,3.9367 5.60036,2.6552 4.62976,2.6299 10.61254,3.6022 4.9963,0.8126 6.61315,0.3894 7.46508,0.3298 5.32782,-0.375 5.26223,-0.6639 7.71151,-1.5924 0.73516,-0.2776 1.85956,-0.7005 2.21579,-0.9183 0.70689,-0.4333 0.97524,-0.7539 0.66308,-0.8578 0,0 0,0 0,0 z m -9.5702,-2.5975 c 0.83298,0.3046 2.35688,0.7713 3.25796,1.0271 -1.02625,-0.248 -2.28906,-0.64 -3.55139,-1.107 0.0967,0.0267 0.19353,0.0531 0.29343,0.0799 0,0 0,0 0,0 z m -6.32055,-3.2706 c 0.52574,0.2846 1.17002,0.6443 1.77217,0.9304 0.57034,0.2763 1.16771,0.5633 2.05194,0.9243 -0.08063,-0.0497 -1.53728,-0.7017 -2.63779,-1.254 -0.0014,-0.009 -0.0028,-0.0186 -0.0042,-0.0282 0.53252,0.2566 1.16865,0.5578 1.93839,0.902 0.26161,0.1188 0.52431,0.2351 0.79612,0.3522 0.02444,0.0258 -0.38951,-0.1401 -0.54658,-0.2134 0.20429,0.1137 0.88761,0.4249 1.78727,0.781 0.10934,0.047 0.21884,0.0935 0.33184,0.141 0.12769,0.0705 -0.55637,-0.1737 0.20863,0.1087 -0.5338,-0.1741 -1.91617,-0.7507 -2.75979,-1.1242 0.93875,0.3697 -2.59202,-1.2804 -3.43759,-1.7779 0.16431,0.0862 0.32917,0.1714 0.49961,0.2581 z m -6.00389,-2.7111 c -0.41613,-0.3131 -0.82755,-0.6336 -1.24846,-0.9738 0.60403,0.4849 1.07186,0.8366 1.50603,1.1543 -0.0852,-0.0593 -0.17021,-0.1188 -0.25757,-0.1805 z m -20.4077,-22.6016 c 0.37855,-1.8812 1.41902,-4.7673 2.47645,-6.7153 0.20427,1.4912 0.45216,2.5605 0.49413,2.6852 0.14623,0.6662 0.30665,1.328 0.4872,2.0046 -0.41401,-1.5101 -0.76028,-3.084 -1.01869,-4.6309 -1.24546,2.3438 -2.02947,4.7718 -2.43909,6.6564 0,0 0,0 0,0 z m 3.87194,-7.2504 c 0.04105,0.278 0.0171,0.1787 -0.081,-0.4653 -0.20349,-1.3462 -0.32851,-2.5177 -0.42282,-3.262 -0.66121,1.0686 -0.80086,1.2989 -0.03719,0.1169 0.01466,-0.0227 0.02839,-0.044 0.04351,-0.0674 0.209,1.9219 0.83636,5.9149 0.61839,4.7686 -0.28145,-1.5213 -0.4628,-3.0977 -0.65484,-4.6861 -0.0095,0.0405 -0.03417,0.0789 -0.06088,0.1205 -0.7117,1.0849 -1.38454,2.0466 -2.00151,3.1006 0.66958,-1.2173 1.4075,-2.3065 2.12733,-3.4239 0.1372,1.3066 0.27927,2.6068 0.46901,3.7981 0,0 0,0 0,0 z m -3.30693,0.9121 c 0.4385,-0.9032 1.01876,-1.949 1.68339,-2.973 -0.57895,0.8992 -1.105,1.8231 -1.58489,2.8008 -0.0327,0.0567 -0.06521,0.1135 -0.0985,0.1722 z m -0.53077,1.087 c 0.81192,-1.8919 1.83493,-3.6794 0.87354,-1.8128 -0.21593,0.4186 -0.4208,0.8415 -0.61972,1.2817 -0.08563,0.1744 -0.16946,0.3496 -0.25382,0.5311 z m -0.47311,1.1284 c 0.0094,7e-4 0.1266,-0.3051 0.39195,-0.9313 -0.5411,1.2905 -1.31706,3.9699 -1.29236,3.7918 0.22968,-0.9039 0.53076,-1.8811 0.90041,-2.8605 0,0 0,0 0,0 z m 0.10851,6.1605 c 0.11251,-0.7763 0.22074,-1.4492 0.04242,-0.1864 -0.06809,0.4794 -0.12296,0.9605 -0.16497,1.4574 0.03005,-0.42 0.07017,-0.8396 0.12255,-1.271 z M 71.97239,133.2 c -0.28416,-0.2386 -1.34607,-1.1822 -1.93572,-1.7341 -0.04599,0.0542 2.34116,2.1183 1.93572,1.7341 0,0 0,0 0,0 z m 4.22499,3.1485 c -0.29796,-0.1948 -1.45747,-0.9999 -2.11965,-1.4886 -0.0523,0.0511 2.55794,1.8154 2.11965,1.4886 0,0 0,0 0,0 z M 60.347,140.053 c -0.0033,-0.003 -0.0065,-0.005 -0.0099,-0.008 0.0033,0.003 0.0065,0.005 0.0099,0.008 0,0 0,0 0,0 z" /></g></g></g></svg>