<?xml version="1.0" encoding="UTF-8" standalone="no"?>
<!-- Created with Inkscape (http://www.inkscape.org/) -->

<svg
   version="1.1"
   id="svg2"
   width="264.20532"
   height="248.1608"
   viewBox="0 0 264.20532 248.1608"
   xmlns="http://www.w3.org/2000/svg"
   xmlns:svg="http://www.w3.org/2000/svg">
  <defs
     id="defs6">
    <clipPath
       clipPathUnits="userSpaceOnUse"
       id="clipPath18">
      <path
         d="m 36,36 h 126.154 v 69.95924 H 36 Z"
         id="path16" />
    </clipPath>
    <clipPath
       clipPathUnits="userSpaceOnUse"
       id="clipPath28">
      <path
         d="M 50.64368,63.06273 H 78.11403 V 94.59218 H 50.64368 Z"
         id="path26" />
    </clipPath>
    <clipPath
       clipPathUnits="userSpaceOnUse"
       id="clipPath38">
      <path
         d="M 45.7818,140.421 154.5353,140.306 154.4769,85.06301 45.72339,85.17799 Z"
         id="path36" />
    </clipPath>
    <clipPath
       clipPathUnits="userSpaceOnUse"
       id="clipPath44">
      <path
         d="M 0,0 H 198.154 V 186.1206 H 0 Z"
         id="path42" />
    </clipPath>
    <clipPath
       clipPathUnits="userSpaceOnUse"
       id="clipPath54">
      <path
         d="m 92.07263,100.0226 h 14.00876 v 50.09798 H 92.07263 Z"
         id="path52" />
    </clipPath>
  </defs>
  <g
     id="g8"
     transform="matrix(1.3333333,0,0,-1.3333333,0,248.1608)">
    <g
       id="g10" />
    <g
       id="g12">
      <g
         id="g14"
         clip-path="url(#clipPath18)">
        <path
           d="M 53.50539,100.5802 C 42.1374,94.51944 36.7888,84.23671 37.00638,73.66393 c 0.32551,-15.81767 13.0203,-29.096 29.89957,-33.94977 9.42693,-2.71078 19.21989,-2.7718 28.9306,-2.69757 9.75885,0.07459 19.72935,0.25826 29.41955,2.25111 20.4949,4.21492 37.6409,18.70476 35.7559,36.74292 -1.1231,10.74728 -9.3333,20.2498 -22.5224,24.77258 -11.654,3.9963 -25.1115,3.6774 -37.9771,2.2789 -2.14925,-0.2336 -4.292,-0.4964 -6.42689,-0.789 l -18.40196,2.3573 C 67.837,105.6867 60.22352,104.162 53.50539,100.5802 Z"
           style="fill:#54110a;fill-opacity:1;fill-rule:nonzero;stroke:none"
           id="path20" />
      </g>
    </g>
    <g
       id="g22">
      <g
         id="g24"
         clip-path="url(#clipPath28)">
        <path
           d="M 76.05792,90.71758 C 72.96728,94.29323 65.53797,94.33652 60.51984,91.93123 51.58236,87.64732 50.20001,78.7499 52.83856,71.47237 c 1.2503,-3.44855 3.97122,-7.03782 9.42334,-7.38576 3.77053,-0.24063 7.07892,1.37228 9.25162,3.25739 5.34567,4.6381 4.43324,10.74758 5.35011,17.28674 0.30253,2.15767 0.59246,4.46926 -0.80571,6.08684 z"
           style="fill:#fffdd7;fill-opacity:0.5129;fill-rule:nonzero;stroke:none"
           id="path30" />
      </g>
    </g>
    <g
       id="g32">
      <g
         id="g34"
         clip-path="url(#clipPath38)">
        <g
           id="g40"
           clip-path="url(#clipPath44)">
          <path
             d="m 94.14929,95.09708 c 3.09205,0.76902 6.21841,1.39015 9.36861,1.8613 6.7734,-0.24981 13.3222,-2.5145 18.8226,-6.50915 1.775,-1.28913 3.4223,-2.74841 4.9188,-4.35745 1.3873,2.4362 1.6023,5.37617 0.5843,7.99127 -1.4534,3.73363 -5.0689,6.14975 -9.0444,6.04405 6.467,-1.60064 13.2407,-1.42858 19.6196,0.4983 5.6526,1.7075 10.8224,4.7445 15.0839,8.861 -4.1699,-1.6581 -8.6214,-2.4766 -13.1032,-2.4091 -4.5137,0.0679 -8.9698,1.033 -13.1133,2.8401 3.7159,3.9477 6.3465,8.8048 7.632,14.0916 1.2245,5.0359 1.1878,10.2999 -0.1069,15.3179 -2.3922,-5.5851 -5.6459,-10.7531 -9.6403,-15.3122 -4.4482,-5.077 -9.748,-9.3243 -15.6567,-12.5474 l -9.8951,-0.0446 c -4.55869,0.3377 -8.92288,1.9996 -12.56544,4.7848 -5.68169,4.3444 -9.01272,10.867 -13.08212,16.6453 -1.45279,2.0629 -3.01161,4.0477 -4.67011,5.9462 -0.75985,-7.9569 0.89131,-15.9591 4.73538,-22.9496 1.27004,-2.3095 2.76951,-4.4829 4.4753,-6.4866 -6.27991,-0.1932 -12.55649,0.4807 -18.65531,2.003 -4.51424,1.1268 -8.90362,2.7122 -13.10082,4.7319 2.61149,-6.3802 7.33984,-11.647 13.37619,-14.8992 8.4598,-4.55796 18.56925,-4.76619 27.20664,-0.5604 -4.76492,0.3556 -9.38022,-1.76663 -12.23919,-5.62793 -1.73174,-2.33888 -2.68063,-5.17291 -2.70931,-8.09185 6.91787,3.55919 14.21887,6.3035 21.75888,8.17876 z"
             style="fill:#bcc185;fill-opacity:1;fill-rule:nonzero;stroke:none"
             id="path46" />
        </g>
      </g>
    </g>
    <g
       id="g48">
      <g
         id="g50"
         clip-path="url(#clipPath54)">
        <path
           d="m 98.27332,104.7774 1.34239,17.3791 -6.54308,25.5113 6.95637,1.4528 4.3999,-20.7726 0.6525,-27.3254 z"
           style="fill:#627849;fill-opacity:1;fill-rule:nonzero;stroke:none"
           id="path56" />
      </g>
    </g>
  </g>
</svg>
