<?xml version="1.0" encoding="UTF-8" standalone="no"?>
<svg
   xmlns:dc="http://purl.org/dc/elements/1.1/"
   xmlns:cc="http://creativecommons.org/ns#"
   xmlns:rdf="http://www.w3.org/1999/02/22-rdf-syntax-ns#"
   xmlns:svg="http://www.w3.org/2000/svg"
   xmlns="http://www.w3.org/2000/svg"
   viewBox="0 0 375.82492 367.95828"
   height="367.95828"
   width="375.82492"
   xml:space="preserve"
   id="svg2"
   version="1.1"><metadata
     id="metadata8"><rdf:RDF><cc:Work
         rdf:about=""><dc:format>image/svg+xml</dc:format><dc:type
           rdf:resource="http://purl.org/dc/dcmitype/StillImage" /></cc:Work></rdf:RDF></metadata><defs
     id="defs6"><clipPath
       id="clipPath20"
       clipPathUnits="userSpaceOnUse"><path
         id="path18"
         d="M 36,36 H 245.8687 V 178.2059 H 36 Z" /></clipPath><clipPath
       id="clipPath30"
       clipPathUnits="userSpaceOnUse"><path
         id="path28"
         d="m 163.3345,225.2351 27.5119,-13.2661 -18.4019,-38.163 -27.5119,13.2661 z" /></clipPath><clipPath
       id="clipPath36"
       clipPathUnits="userSpaceOnUse"><path
         id="path34"
         d="M 0,0 H 281.8687 V 275.9687 H 0 Z" /></clipPath><clipPath
       id="clipPath46"
       clipPathUnits="userSpaceOnUse"><path
         id="path44"
         d="m 149.1472,115.0283 h 34.80853 v 58.29934 H 149.1472 Z" /></clipPath><clipPath
       id="clipPath56"
       clipPathUnits="userSpaceOnUse"><path
         id="path54"
         d="m 88.62502,73.28328 h 46.91673 v 68.8908 H 88.62502 Z" /></clipPath><clipPath
       id="clipPath66"
       clipPathUnits="userSpaceOnUse"><path
         id="path64"
         d="m 104.1171,130.7312 h 48.65059 v 53.09579 H 104.1171 Z" /></clipPath><clipPath
       id="clipPath76"
       clipPathUnits="userSpaceOnUse"><path
         id="path74"
         d="m 142.2262,60.15665 h 48.65059 v 53.09579 H 142.2262 Z" /></clipPath><clipPath
       id="clipPath86"
       clipPathUnits="userSpaceOnUse"><path
         id="path84"
         d="m 97.54006,50.32524 h 39.55303 V 84.9834 H 97.54006 Z" /></clipPath><clipPath
       id="clipPath96"
       clipPathUnits="userSpaceOnUse"><path
         id="path94"
         d="m 43.08219,93.66957 h 46.91673 v 65.01048 H 43.08219 Z" /></clipPath><clipPath
       id="clipPath106"
       clipPathUnits="userSpaceOnUse"><path
         id="path104"
         d="m 193.3862,74.19316 h 31.42867 v 47.5126 H 193.3862 Z" /></clipPath><clipPath
       id="clipPath116"
       clipPathUnits="userSpaceOnUse"><path
         id="path114"
         d="m 186.3241,121.9942 h 39.55303 v 34.65816 H 186.3241 Z" /></clipPath><clipPath
       id="clipPath126"
       clipPathUnits="userSpaceOnUse"><path
         id="path124"
         d="M 61.98171,48.59968 H 99.99892 V 74.14179 H 61.98171 Z" /></clipPath><clipPath
       id="clipPath136"
       clipPathUnits="userSpaceOnUse"><path
         id="path134"
         d="M 63.47498,219.0494 221.1997,206.0786 215.0219,130.9569 57.29719,143.9278 Z" /></clipPath><clipPath
       id="clipPath142"
       clipPathUnits="userSpaceOnUse"><path
         id="path140"
         d="M 0,0 H 281.8687 V 275.9687 H 0 Z" /></clipPath><clipPath
       id="clipPath152"
       clipPathUnits="userSpaceOnUse"><path
         id="path150"
         d="m 129.0862,173.5607 h 16.60639 v 66.408 H 129.0862 Z" /></clipPath><clipPath
       id="clipPath162"
       clipPathUnits="userSpaceOnUse"><path
         id="path160"
         d="m 155.9391,37.005 h 89.3316 v 103.3483 h -89.3316 z" /></clipPath></defs><g
     transform="matrix(1.3333333,0,0,-1.3333333,0,367.95827)"
     id="g10"><g
       id="g12" /><g
       id="g14"><g
         clip-path="url(#clipPath20)"
         id="g16"><path
           id="path22"
           style="fill:#d72a15;fill-opacity:1;fill-rule:nonzero;stroke:none"
           d="M 64.61604,168.7725 C 45.39057,156.9714 36.6582,137.1991 37.01022,117.0215 37.77091,73.41925 77.33018,38.04928 123.1432,37.45339 c 7.2772,-0.09465 14.5796,-0.07436 21.8494,-0.3651 54.0984,-2.16362 104.7464,35.70243 99.5014,84.44511 -2.1883,20.3354 -15.4489,38.7327 -37.6841,47.6294 -19.4554,7.7844 -42.0033,7.0894 -63.5425,4.3815 -3.5958,-0.452 -7.1809,-0.9575 -10.7533,-1.517 l -30.7898,4.5324 c -13.14117,2.063 -25.86823,-0.8878 -37.10826,-7.7872 z" /></g></g><g
       id="g24"><g
         clip-path="url(#clipPath30)"
         id="g26"><g
           clip-path="url(#clipPath36)"
           id="g32"><path
             id="path38"
             style="fill:#5eb864;fill-opacity:1;fill-rule:nonzero;stroke:none"
             d="m 146.2677,187.5385 c 5.3042,3.236 10.4342,6.7207 15.3654,10.4539 4.4138,3.3416 8.7003,6.9006 13.6304,9.4322 4.4369,2.2783 9.2775,3.6642 14.2479,4.078 -3.6946,-4.2297 -7.164,-8.6507 -10.394,-13.2449 -1.8053,-2.5677 -3.5362,-5.1905 -5.0224,-7.9556 -0.8395,-1.5621 -1.5989,-3.1659 -2.2752,-4.8053 z" /></g></g></g><g
       id="g40"><g
         clip-path="url(#clipPath46)"
         id="g42"><path
           id="path48"
           style="fill:#a42117;fill-opacity:1;fill-rule:nonzero;stroke:none"
           d="m 178.5073,116.1823 c -2.0305,-0.6447 -4.2199,0.7609 -5.7448,3.7296 -6.9054,13.4426 2.2769,32.8051 10.1933,24.2228 -0.009,-2.0503 -1.674,-3.2911 -3.3284,-3.3725 -1.3438,-0.0661 -2.5769,1.288 -3.3974,2.9715 -5.5081,11.3007 -12.0955,30.5751 -15.3892,19.4234 -1.1716,-3.9665 1.5924,-9.2404 6.6409,-9.6673 4.3901,-0.3712 8.1949,2.9858 9.8159,7.5583 4.5857,-3.5773 6.7181,11.7794 1.5727,11.267 -2.0145,-0.2006 -2.7439,-3.3754 -3.5678,-5.9478 -1.7631,-5.5049 -7.4268,-9.8825 -6.7692,-15.741 0.3888,-3.4639 3.0134,-7.0568 0.744,-9.9629 -4.1133,-5.2671 -12.5889,1.6764 -17.3345,-2.0677 -10.4679,-8.259 28.6023,-12.4958 20.4655,-2.2193 1.8629,3.9434 5.8476,1.2743 5.3111,-3.8803 -0.464,-4.4575 -3.8828,-4.8123 -6.9909,-3.8937 -1.0389,0.3071 -2.1674,0.8398 -2.369,2.4888 -0.5908,4.8321 5.9581,3.0767 7.0983,-4.8119 0.5368,-3.7138 1.5805,-7.1696 3.0495,-10.097 z" /></g></g><g
       id="g50"><g
         clip-path="url(#clipPath56)"
         id="g52"><path
           id="path58"
           style="fill:#a42117;fill-opacity:1;fill-rule:nonzero;stroke:none"
           d="m 106.0885,90.70924 c -1.9539,1.82387 -4.1812,3.21983 -6.44903,4.27377 -3.33525,1.55001 -6.81206,2.66488 -8.25794,5.15339 -3.46543,5.9644 4.45165,12.3912 15.18787,10.3759 5.7856,-0.4054 11.587,0.567 16.8547,2.8254 9.5647,4.1004 4.2845,19.4048 -1.3594,14.7603 -3.3513,-2.7578 2.0179,-7.3124 -0.2692,-10.3342 -12.426,-16.418 -3.573,23.875 -13.8939,23.4062 -14.99349,-0.6811 4.2006,-15.7923 1.8313,-22.2069 -1.5616,-4.2278 -7.6293,-5.5992 -10.83272,-2.3505 -8.98884,-3.7955 -5.7544,-16.3974 4.10692,-15.9243 2.9269,0.1405 5.9416,1.1853 8.58,0.4999 20.376,-5.29334 -43.69618,-28.05814 -13.93282,-26.85927 6.54482,0.26363 3.27892,5.49329 7.32432,8.22887 3.6319,2.45598 10.7906,2.37656 14.2791,-0.10626 -2.513,-2.93405 -7.5964,-1.50002 -7.9271,2.23622 -0.8417,9.5103 28.7262,-2.4762 22.2951,11.89667 -2.1761,4.86327 -8.9621,1.11123 -14.7181,-3.13429 -3.6091,-2.66211 -8.3421,-3.67597 -12.8191,-2.7409 z" /></g></g><g
       id="g60"><g
         clip-path="url(#clipPath66)"
         id="g62"><path
           id="path68"
           style="fill:#a32217;fill-opacity:1;fill-rule:nonzero;stroke:none"
           d="m 139.4731,131.7312 c -5.6757,0.363 -10.607,3.1799 -12.7545,7.2859 -6.3612,12.1621 9.8117,24.0575 25.0491,18.424 -2.6393,-1.8778 -5.8538,-2.9618 -9.1988,-3.102 -21.3989,-0.8965 -25.5298,25.5612 -8.734,28.2543 7.4757,1.1987 13.5295,-5.4906 10.8142,-11.9496 0.8661,-8.5512 -13.3236,-9.6877 -14.0821,-1.128 -0.2557,2.8859 2.4199,4.9573 2.8083,7.7009 2.1821,15.4174 -37.97923,-5.1628 -22.318,-11.4039 0.1402,19.2058 44.6846,-16.2203 23.8199,-18.9439 -10.9728,-1.4324 -36.18264,7.7527 -28.2381,-3.2878 2.2862,-3.1771 7.095,-1.3628 11.3352,-0.4262 4.4716,0.9879 9.1455,0.0588 13.0707,-2.1367 3.8608,-2.1594 6.8253,-5.426 8.4281,-9.287 z" /></g></g><g
       id="g70"><g
         clip-path="url(#clipPath76)"
         id="g72"><path
           id="path78"
           style="fill:#a42117;fill-opacity:1;fill-rule:nonzero;stroke:none"
           d="m 177.5823,61.15665 c -5.6758,0.36301 -10.607,3.17991 -12.7546,7.28588 -6.3612,12.16209 9.8117,24.05749 25.0491,18.42395 -2.6393,-1.87781 -5.8538,-2.96177 -9.1988,-3.10192 -21.3989,-0.89653 -25.5297,25.56114 -8.734,28.25424 7.4757,1.1987 13.5295,-5.4906 10.8143,-11.9496 0.8661,-8.55119 -13.3237,-9.68764 -14.0822,-1.12798 -0.2557,2.88588 2.42,4.95728 2.8083,7.70088 2.1822,15.4175 -37.9792,-5.1628 -22.318,-11.40386 0.1402,19.20576 44.6846,-16.2203 23.82,-18.94393 -10.9729,-1.43237 -36.1827,7.75266 -28.2382,-3.2878 2.2862,-3.17711 7.0951,-1.36284 11.3352,-0.42616 4.4717,0.98784 9.1455,0.05876 13.0707,-2.13672 3.8608,-2.15946 6.8254,-5.42606 8.4282,-9.28698 z" /></g></g><g
       id="g80"><g
         clip-path="url(#clipPath86)"
         id="g82"><path
           id="path88"
           style="fill:#9f2116;fill-opacity:1;fill-rule:nonzero;stroke:none"
           d="m 110.9604,80.91439 c 1.465,6.35075 12.9387,1.75715 9.5926,-3.94607 -2.8784,-4.90626 -31.38583,-2.53223 -18.8392,-9.97851 2.2088,-1.31087 4.567,0.71241 6.9183,1.68001 13.6808,5.62979 22.3305,-13.95014 6.5688,-15.30265 -5.1038,-0.43796 -9.4721,2.84337 -8.1333,6.47198 -0.7355,4.65299 10.1126,5.28613 10.5911,0.61091 0.16,-1.56416 -1.7066,-2.70551 -2.1121,-4.17083 -2.9961,-10.82508 25.3594,-1.66777 16.7851,6.17639 -4.9917,4.56657 -24.9019,0.89655 -17.9147,10.26013 3.7088,4.97016 24.974,-11.07137 21.2376,1.78069 -0.6831,2.34952 -4.478,2.72294 -7.8958,2.25864 -3.4736,-0.47188 -7.0768,-1.06951 -10.4596,-0.87057 -3.6954,0.21733 -6.9788,2.25502 -6.3388,5.02988 z" /></g></g><g
       id="g90"><g
         clip-path="url(#clipPath96)"
         id="g92"><path
           id="path98"
           style="fill:#fffaf5;fill-opacity:0.43000004;fill-rule:nonzero;stroke:none"
           d="m 87.13648,151.5462 c -5.45032,7.6298 -18.55183,7.7221 -27.40126,2.5897 -15.76116,-9.1411 -18.19893,-28.1266 -13.54588,-43.6555 2.20491,-7.3586 7.00321,-15.01741 16.61799,-15.75987 6.64929,-0.51345 12.4836,2.92819 16.31513,6.95067 9.42705,9.8969 7.81799,22.9334 9.43488,36.8868 0.53352,4.6041 1.0448,9.5366 -1.42086,12.9882 z" /></g></g><g
       id="g100"><g
         clip-path="url(#clipPath106)"
         id="g102"><path
           id="path108"
           style="fill:#a42117;fill-opacity:1;fill-rule:nonzero;stroke:none"
           d="m 210.1767,120.4888 c 6.5015,-2.3601 -1.0353,-11.2769 2.9101,-14.7945 1.4374,-1.2815 3.7328,-1.1388 5.043,-2.5721 2.4954,-2.7299 -0.738,-6.59282 0.1643,-9.84754 0.964,-3.47727 6.5704,-6.07801 4.0257,-9.52861 -1.0502,-1.4242 -3.0895,-1.29937 -4.6263,-2.0928 -2.3616,-1.21924 -3.2075,-4.17648 -1.8477,-6.46009 5.4924,2.16242 3.9292,10.37008 -1.8947,10.29974 -4.5642,-0.05512 -10.258,-11.62213 -13.4525,-4.24737 -3.7725,8.70905 10.2135,4.6099 12.5587,8.75148 0.9252,1.63379 0.5832,3.76506 -0.7946,4.96286 -1.214,3.66036 0.072,7.46593 2.9073,9.41003 1.0885,0.7464 2.3814,0.9095 3.6164,1.2062 1.2345,0.2966 2.4103,0.7261 3.2704,1.998 6.8469,10.1246 -7.9294,13.9263 -16.4657,2.2051 -4.3155,-5.9257 -10.1653,-7.6726 -11.127,-1.7957 -0.7704,4.7081 4.352,5.5097 7.5452,7.5687 2.8987,1.8691 4.7878,6.1635 8.1674,4.9366 z" /></g></g><g
       id="g110"><g
         clip-path="url(#clipPath116)"
         id="g112"><path
           id="path118"
           style="fill:#a42117;fill-opacity:1;fill-rule:nonzero;stroke:none"
           d="m 199.7444,152.5833 c 1.465,6.3508 12.9387,1.7572 9.5926,-3.9461 -2.8784,-4.9062 -31.3858,-2.5322 -18.8392,-9.9785 2.2088,-1.3108 4.567,0.7124 6.9183,1.6801 13.6808,5.6297 22.3305,-13.9502 6.5688,-15.3027 -5.1038,-0.438 -9.4721,2.8434 -8.1333,6.472 -0.7355,4.653 10.1126,5.2861 10.5911,0.6109 0.16,-1.5642 -1.7066,-2.7055 -2.1121,-4.1708 -2.9961,-10.8251 25.3594,-1.6678 16.7851,6.1764 -4.9917,4.5665 -24.9019,0.8965 -17.9147,10.2601 3.7088,4.9701 24.974,-11.0714 21.2376,1.7807 -0.6831,2.3495 -4.478,2.7229 -7.8958,2.2586 -3.4736,-0.4719 -7.0768,-1.0695 -10.4596,-0.8706 -3.6954,0.2174 -6.9789,2.2551 -6.3388,5.0299 z" /></g></g><g
       id="g120"><g
         clip-path="url(#clipPath126)"
         id="g122"><path
           id="path128"
           style="fill:#5e120c;fill-opacity:0.67569999;fill-rule:nonzero;stroke:none"
           d="M 62.98171,73.14179 71.08922,60.63512 86.33863,51.39519 98.99892,49.59968 C 91.72979,52.27655 84.84754,55.7828 78.51077,60.03764 72.82518,63.85524 67.61655,68.25053 62.98171,73.14179 Z" /></g></g><g
       id="g130"><g
         clip-path="url(#clipPath136)"
         id="g132"><g
           clip-path="url(#clipPath142)"
           id="g138"><path
             id="path144"
             style="fill:#2ca63d;fill-opacity:1;fill-rule:nonzero;stroke:none"
             d="m 91.95141,142.0813 c 4.19149,8.9035 10.93009,15.44 18.71019,18.094 4.9728,1.6964 10.1122,1.6814 15.2204,2.0385 8.9135,0.6229 17.8834,2.2552 26.6147,-0.0382 4.7688,-1.2525 9.4114,-3.6004 13.6322,-6.4562 3.0124,-2.0382 5.8839,-4.3318 8.5882,-6.8659 l 9.3438,-5.9939 c -1.0416,3.9774 -2.1049,7.9481 -3.2363,11.8435 -1.1847,4.0786 -2.4366,8.1374 -3.7553,12.1746 3.6094,2.9107 8.1196,4.4742 12.7561,4.4219 4.7989,-0.0541 9.338,-1.8289 13.8743,-3.3646 4.2894,-1.4521 8.6449,-2.7009 13.0521,-3.7423 -6.9116,9.5847 -16.508,16.9067 -27.5776,21.0418 -5.4568,2.0384 -11.1905,3.2608 -17.0119,3.4842 -6.9126,0.2653 -13.9052,-0.857 -20.7546,-1.0119 -10.3776,-0.2348 -20.6675,1.8842 -29.9823,6.9967 -5.7202,3.1395 -10.8313,7.3105 -16.089,11.2766 -4.5323,3.419 -9.21269,6.7047 -14.08075,9.7813 0.70146,-4.3898 1.88501,-8.6066 3.51606,-12.5272 2.83539,-6.8154 6.94789,-12.582 11.98579,-16.8068 -5.2132,-0.0706 -10.41871,-0.7386 -15.53856,-1.994 -4.77277,-1.1702 -9.49794,-2.8421 -14.05587,-5.2263 -6.1692,-3.2271 -11.92775,-7.6973 -17.04966,-13.2352 5.27833,2.7004 10.82409,4.3331 16.43033,4.8158 4.64733,0.4002 9.29474,0.0198 13.94666,0.0203 4.41226,4e-4 8.82627,0.334 13.2124,1.006 -6.93179,-3.7799 -11.71895,-10.6012 -12.79881,-18.4224 -0.52574,-3.8077 -0.15872,-7.8101 1.04742,-11.3103 z" /></g></g></g><g
       id="g146"><g
         clip-path="url(#clipPath152)"
         id="g148"><path
           id="path154"
           style="fill:#1d6725;fill-opacity:1;fill-rule:nonzero;stroke:none"
           d="m 136.4119,179.5887 1.6327,23.2724 -7.9584,34.1621 8.4611,1.9455 5.3516,-27.8165 0.7937,-36.5915 z" /></g></g><g
       id="g156"><g
         clip-path="url(#clipPath162)"
         id="g158"><path
           id="path164"
           style="fill:#c02a1a;fill-opacity:1;fill-rule:nonzero;stroke:none"
           d="m 239.2962,139.3533 c 1.6219,-21.205 -4.2364,-42.36491 -16.6907,-60.15437 -15.097,-21.5643 -38.8492,-36.45244 -65.6664,-41.19393 22.2196,1.00776 43.5247,9.46341 60.9883,24.02203 9.0452,7.54056 16.8501,16.63362 21.4695,27.43929 2.7754,6.4921 4.319,13.46638 4.7505,20.60318 0.6079,10.0532 -1.0361,20.0349 -4.8512,29.2838 z" /></g></g></g></svg>