<?xml version="1.0" encoding="UTF-8" standalone="no"?>
<!-- Created with Inkscape (http://www.inkscape.org/) -->

<svg
   version="1.1"
   id="svg2"
   width="387.20068"
   height="377.68054"
   viewBox="0 0 387.20068 377.68054"
   xmlns="http://www.w3.org/2000/svg"
   xmlns:svg="http://www.w3.org/2000/svg">
  <defs
     id="defs6">
    <clipPath
       clipPathUnits="userSpaceOnUse"
       id="clipPath18">
      <path
         d="m 147.7473,242.1992 35.6548,-7.0153 -9.8094,-49.8561 -35.6549,7.0153 z"
         id="path16" />
    </clipPath>
    <clipPath
       clipPathUnits="userSpaceOnUse"
       id="clipPath24">
      <path
         d="M 0,0 H 290.4005 V 283.2604 H 0 Z"
         id="path22" />
    </clipPath>
    <clipPath
       clipPathUnits="userSpaceOnUse"
       id="clipPath34">
      <path
         d="M 36,36 H 254.4005 V 207.3687 H 36 Z"
         id="path32" />
    </clipPath>
    <clipPath
       clipPathUnits="userSpaceOnUse"
       id="clipPath44">
      <path
         d="m 156.6071,125.3846 h 34.80853 v 58.29934 H 156.6071 Z"
         id="path42" />
    </clipPath>
    <clipPath
       clipPathUnits="userSpaceOnUse"
       id="clipPath54">
      <path
         d="m 94.27064,76.96815 h 46.91673 v 68.8908 H 94.27064 Z"
         id="path52" />
    </clipPath>
    <clipPath
       clipPathUnits="userSpaceOnUse"
       id="clipPath64">
      <path
         d="m 109.7627,134.4161 h 48.65059 v 53.09579 H 109.7627 Z"
         id="path62" />
    </clipPath>
    <clipPath
       clipPathUnits="userSpaceOnUse"
       id="clipPath74">
      <path
         d="m 147.8718,63.84153 h 48.65059 v 53.09579 H 147.8718 Z"
         id="path72" />
    </clipPath>
    <clipPath
       clipPathUnits="userSpaceOnUse"
       id="clipPath84">
      <path
         d="m 103.1857,54.01011 h 39.55303 V 88.66827 H 103.1857 Z"
         id="path82" />
    </clipPath>
    <clipPath
       clipPathUnits="userSpaceOnUse"
       id="clipPath94">
      <path
         d="m 131.8048,37.04274 h 121.3397 v 103.1553 H 131.8048 Z"
         id="path92" />
    </clipPath>
    <clipPath
       clipPathUnits="userSpaceOnUse"
       id="clipPath104">
      <path
         d="m 46.80298,100.3544 h 48.84155 v 65.01048 H 46.80298 Z"
         id="path102" />
    </clipPath>
    <clipPath
       clipPathUnits="userSpaceOnUse"
       id="clipPath114">
      <path
         d="m 195.9347,74.23801 h 31.42867 v 44.70028 H 195.9347 Z"
         id="path112" />
    </clipPath>
    <clipPath
       clipPathUnits="userSpaceOnUse"
       id="clipPath124">
      <path
         d="m 199.7273,115.5306 h 39.55303 v 34.65816 H 199.7273 Z"
         id="path122" />
    </clipPath>
    <clipPath
       clipPathUnits="userSpaceOnUse"
       id="clipPath134">
      <path
         d="m 63.62732,53.28449 h 38.01721 V 78.8266 H 63.62732 Z"
         id="path132" />
    </clipPath>
    <clipPath
       clipPathUnits="userSpaceOnUse"
       id="clipPath144">
      <path
         d="m 64.36145,149.5008 h 151.5789 v 75.37522 H 64.36145 Z"
         id="path142" />
    </clipPath>
    <clipPath
       clipPathUnits="userSpaceOnUse"
       id="clipPath154">
      <path
         d="m 130.2772,180.8524 h 16.60639 v 66.408 H 130.2772 Z"
         id="path152" />
    </clipPath>
  </defs>
  <g
     id="g8"
     transform="matrix(1.3333333,0,0,-1.3333333,0,377.68053)">
    <g
       id="g10" />
    <g
       id="g12">
      <g
         id="g14"
         clip-path="url(#clipPath18)">
        <g
           id="g20"
           clip-path="url(#clipPath24)">
          <path
             d="m 139.112,193.1313 c 4.2225,4.7683 8.018,9.9671 11.3338,15.524 2.9973,5.0229 5.5968,10.3293 8.8922,15.1275 1.8737,2.7281 3.9749,5.2888 6.5409,7.2332 4.7778,3.6204 10.7288,4.8366 16.3411,3.3395 -9.8798,-4.2854 -17.5585,-13.115 -20.9746,-24.1185 -0.8685,-2.7973 -1.4227,-5.6949 -2.6358,-8.3668 -1.1995,-2.642 -2.9846,-4.9672 -5.2325,-6.7868 z"
             style="fill:#5eb864;fill-opacity:1;fill-rule:nonzero;stroke:none"
             id="path26" />
        </g>
      </g>
    </g>
    <g
       id="g28">
      <g
         id="g30"
         clip-path="url(#clipPath34)">
        <path
           d="m 40.5887,96.59968 c -8.68842,28.19002 -1.66453,59.22282 21.76982,77.58682 16.63844,13.0386 39.03678,16.9514 59.35818,10.3705 l 22.1494,3.1621 c 6.9314,9.0933 17.116,15.3794 28.5789,17.6394 24.6113,4.8523 48.4297,-8.2998 63.4276,-28.2057 11.4737,-15.2283 17.6135,-33.5904 17.527,-52.4166 C 250.114,84.33752 220.3901,50.47319 179.6272,40.6981 165.1997,37.23835 150.6141,37.09253 136.5441,37.01368 122.5708,36.93538 108.6615,37.07393 95.72642,40.73654 69.03649,48.29396 49.02555,69.22584 40.5887,96.59968 Z"
           style="fill:#db2813;fill-opacity:1;fill-rule:nonzero;stroke:none"
           id="path36" />
      </g>
    </g>
    <g
       id="g38">
      <g
         id="g40"
         clip-path="url(#clipPath44)">
        <path
           d="m 185.9671,126.5385 c -2.0305,-0.6446 -4.2199,0.7609 -5.7448,3.7296 -6.9054,13.4426 2.2769,32.8051 10.1933,24.2229 -0.009,-2.0504 -1.674,-3.2911 -3.3284,-3.3725 -1.3437,-0.0662 -2.5769,1.2879 -3.3974,2.9714 -5.5081,11.3007 -12.0954,30.5751 -15.3892,19.4235 -1.1715,-3.9666 1.5924,-9.2405 6.6409,-9.6673 4.3901,-0.3712 8.195,2.9857 9.8159,7.5582 4.5857,-3.5772 6.7181,11.7794 1.5727,11.267 -2.0145,-0.2006 -2.7439,-3.3753 -3.5678,-5.9477 -1.7631,-5.5049 -7.4268,-9.8826 -6.7692,-15.741 0.3888,-3.4639 3.0134,-7.0568 0.744,-9.9629 -4.1133,-5.2672 -12.5889,1.6763 -17.3344,-2.0678 -10.468,-8.259 28.6022,-12.4958 20.4654,-2.2193 1.863,3.9434 5.8476,1.2744 5.3111,-3.8802 -0.4639,-4.4575 -3.8828,-4.8124 -6.9909,-3.8937 -1.0389,0.307 -2.1674,0.8398 -2.369,2.4888 -0.5908,4.8321 5.9581,3.0767 7.0983,-4.8119 0.5368,-3.7138 1.5805,-7.1697 3.0495,-10.0971 z"
           style="fill:#a42117;fill-opacity:1;fill-rule:nonzero;stroke:none"
           id="path46" />
      </g>
    </g>
    <g
       id="g48">
      <g
         id="g50"
         clip-path="url(#clipPath54)">
        <path
           d="m 111.7342,94.39412 c -1.954,1.82386 -4.1813,3.21982 -6.4491,4.27376 -3.3353,1.55002 -6.81208,2.66492 -8.25795,5.15342 -3.46543,5.9644 4.45165,12.3912 15.18785,10.3759 5.7856,-0.4055 11.587,0.567 16.8548,2.8253 9.5646,4.1004 4.2845,19.4048 -1.3594,14.7604 -3.3514,-2.7579 2.0178,-7.3124 -0.2693,-10.3343 -12.426,-16.418 -3.573,23.8751 -13.8939,23.4063 -14.99348,-0.6811 4.2006,-15.7924 1.8313,-22.2069 -1.5616,-4.2279 -7.6292,-5.5992 -10.8327,-2.3505 -8.98884,-3.7955 -5.75441,-16.3975 4.1069,-15.9243 2.9269,0.1404 5.9416,1.1852 8.58,0.4998 20.3761,-5.29327 -43.69616,-28.05807 -13.9328,-26.8592 6.5448,0.26363 3.2789,5.49329 7.3243,8.22888 3.6319,2.45597 10.7906,2.37655 14.2791,-0.10627 -2.513,-2.93405 -7.5964,-1.50002 -7.9271,2.23622 -0.8416,9.5103 28.7262,-2.4762 22.2951,11.89667 -2.176,4.8632 -8.9621,1.1112 -14.718,-3.13429 -3.6092,-2.66211 -8.3422,-3.67596 -12.8191,-2.74089 z"
           style="fill:#a42117;fill-opacity:1;fill-rule:nonzero;stroke:none"
           id="path56" />
      </g>
    </g>
    <g
       id="g58">
      <g
         id="g60"
         clip-path="url(#clipPath64)">
        <path
           d="m 145.1187,135.4161 c -5.6757,0.363 -10.607,3.1799 -12.7545,7.2859 -6.3612,12.1621 9.8117,24.0575 25.0491,18.4239 -2.6393,-1.8778 -5.8538,-2.9617 -9.1988,-3.1019 -21.3989,-0.8965 -25.5298,25.5612 -8.734,28.2543 7.4757,1.1986 13.5295,-5.4907 10.8143,-11.9496 0.8661,-8.5512 -13.3237,-9.6877 -14.0822,-1.128 -0.2557,2.8859 2.42,4.9572 2.8083,7.7009 2.1821,15.4174 -37.9792,-5.1628 -22.318,-11.4039 0.1402,19.2058 44.6846,-16.2203 23.8199,-18.9439 -10.9728,-1.4324 -36.1826,7.7526 -28.2381,-3.2878 2.2862,-3.1771 7.095,-1.3629 11.3352,-0.4262 4.4717,0.9878 9.1455,0.0588 13.0707,-2.1367 3.8608,-2.1595 6.8253,-5.4261 8.4281,-9.287 z"
           style="fill:#a32217;fill-opacity:1;fill-rule:nonzero;stroke:none"
           id="path66" />
      </g>
    </g>
    <g
       id="g68">
      <g
         id="g70"
         clip-path="url(#clipPath74)">
        <path
           d="m 183.2279,64.84153 c -5.6758,0.363 -10.607,3.1799 -12.7546,7.28587 -6.3612,12.16209 9.8118,24.0575 25.0491,18.42395 -2.6393,-1.87781 -5.8538,-2.96177 -9.1988,-3.10191 -21.3989,-0.89654 -25.5297,25.56116 -8.734,28.25426 7.4757,1.1987 13.5295,-5.4907 10.8143,-11.9496 0.8661,-8.55122 -13.3237,-9.68767 -14.0822,-1.128 -0.2557,2.8859 2.42,4.9572 2.8083,7.7009 2.1822,15.4174 -37.9792,-5.1628 -22.3179,-11.40389 0.1402,19.20579 44.6846,-16.22029 23.8199,-18.94393 -10.9729,-1.43237 -36.1827,7.75266 -28.2382,-3.2878 2.2862,-3.17711 7.0951,-1.36284 11.3352,-0.42616 4.4717,0.98784 9.1455,0.05876 13.0707,-2.13672 3.8609,-2.15946 6.8254,-5.42606 8.4282,-9.28697 z"
           style="fill:#a42117;fill-opacity:1;fill-rule:nonzero;stroke:none"
           id="path76" />
      </g>
    </g>
    <g
       id="g78">
      <g
         id="g80"
         clip-path="url(#clipPath84)">
        <path
           d="m 116.6061,84.59926 c 1.4649,6.35075 12.9386,1.75715 9.5925,-3.94607 -2.8784,-4.90626 -31.38582,-2.53223 -18.8391,-9.97851 2.2087,-1.31087 4.5669,0.71241 6.9183,1.68001 13.6807,5.62979 22.3304,-13.95014 6.5687,-15.30265 -5.1038,-0.43796 -9.4721,2.84337 -8.1333,6.47198 -0.7355,4.65299 10.1127,5.28614 10.5911,0.61092 0.16,-1.56417 -1.7065,-2.70552 -2.1121,-4.17084 -2.9961,-10.82508 25.3594,-1.66777 16.7851,6.17639 -4.9917,4.56657 -24.9019,0.89655 -17.9147,10.26013 3.7088,4.97016 24.974,-11.07137 21.2376,1.78069 -0.683,2.34952 -4.478,2.72294 -7.8958,2.25864 -3.4736,-0.47188 -7.0768,-1.06951 -10.4596,-0.87057 -3.6954,0.21733 -6.9788,2.25502 -6.3387,5.02988 z"
           style="fill:#9f2116;fill-opacity:1;fill-rule:nonzero;stroke:none"
           id="path86" />
      </g>
    </g>
    <g
       id="g88">
      <g
         id="g90"
         clip-path="url(#clipPath94)">
        <path
           d="m 250.2247,139.1981 c -5.1291,-38.9856 -32.9812,-74.06824 -74.5448,-90.20786 -13.1901,-5.12189 -27.867,-8.45704 -42.8751,-9.86531 19.5307,-2.62245 39.436,-0.47154 57.8693,6.37461 19.3139,7.17325 35.8612,19.42951 47.0856,35.21507 12.6689,17.81683 17.4008,38.34999 12.465,58.48349 z"
           style="fill:#c82614;fill-opacity:1;fill-rule:nonzero;stroke:none"
           id="path96" />
      </g>
    </g>
    <g
       id="g98">
      <g
         id="g100"
         clip-path="url(#clipPath104)">
        <path
           d="m 92.70228,158.2311 c -5.68389,7.6297 -19.34684,7.7221 -28.57549,2.5897 -16.43658,-9.1411 -18.9788,-28.1266 -14.12636,-43.6555 2.29939,-7.3586 7.30332,-15.0174 17.33012,-15.7599 6.93423,-0.5135 13.01856,2.9282 17.01428,6.9507 9.83103,9.8969 8.15302,22.9334 9.83919,36.8868 0.55638,4.604 1.08958,9.5365 -1.48174,12.9882 z"
           style="fill:#fffaf5;fill-opacity:0.43;fill-rule:nonzero;stroke:none"
           id="path106" />
      </g>
    </g>
    <g
       id="g108">
      <g
         id="g110"
         clip-path="url(#clipPath114)">
        <path
           d="m 212.7252,117.7212 c 6.5009,-2.3607 -1.0366,-11.2766 2.9101,-14.7945 1.4355,-1.2796 3.736,-1.1409 5.0429,-2.5721 2.4949,-2.73199 -0.7615,-6.59777 0.1644,-9.84753 0.9913,-3.47931 6.6889,-6.11575 4.0257,-9.52861 -1.0847,-1.39005 -3.1573,-1.18991 -4.6264,-2.0928 -1.2489,-0.7676 -1.9144,-2.20451 -1.6894,-3.64765 2.5365,2.42519 1.2895,6.97339 -2.053,7.48731 -4.2791,0.65793 -9.8495,-11.92981 -13.4525,-4.24738 -4.137,8.8212 10.1987,4.64482 12.5588,8.75149 0.9382,1.63245 0.5955,3.77242 -0.7946,4.96286 -1.214,3.66036 0.0719,7.46594 2.9072,9.41001 1.0886,0.7464 2.3815,0.9095 3.6164,1.2062 1.2345,0.2966 2.4104,0.7262 3.2705,1.998 6.8469,10.1247 -7.9295,13.9263 -16.4657,2.2051 -4.3155,-5.9257 -10.1654,-7.67261 -11.127,-1.7956 -0.7704,4.708 4.352,5.5096 7.5451,7.5686 2.8988,1.8692 4.7879,6.1639 8.1675,4.9366 z"
           style="fill:#a42117;fill-opacity:1;fill-rule:nonzero;stroke:none"
           id="path116" />
      </g>
    </g>
    <g
       id="g118">
      <g
         id="g120"
         clip-path="url(#clipPath124)">
        <path
           d="m 213.1477,146.1198 c 1.465,6.3507 12.9386,1.7571 9.5926,-3.9461 -2.8785,-4.9063 -31.3859,-2.5322 -18.8392,-9.9785 2.2087,-1.3109 4.5669,0.7124 6.9183,1.68 13.6807,5.6298 22.3304,-13.9501 6.5688,-15.3026 -5.1039,-0.438 -9.4722,2.8433 -8.1333,6.4719 -0.7356,4.653 10.1126,5.2862 10.591,0.6109 0.1601,-1.5641 -1.7065,-2.7055 -2.1121,-4.1708 -2.996,-10.8251 25.3595,-1.6678 16.7851,6.1764 -4.9916,4.5666 -24.9019,0.8965 -17.9147,10.2601 3.7088,4.9702 24.974,-11.0713 21.2376,1.7807 -0.683,2.3495 -4.4779,2.723 -7.8958,2.2587 -3.4735,-0.4719 -7.0767,-1.0696 -10.4596,-0.8706 -3.6954,0.2173 -6.9788,2.255 -6.3387,5.0299 z"
           style="fill:#a42117;fill-opacity:1;fill-rule:nonzero;stroke:none"
           id="path126" />
      </g>
    </g>
    <g
       id="g128">
      <g
         id="g130"
         clip-path="url(#clipPath134)">
        <path
           d="M 64.62732,77.8266 72.73483,65.31993 87.98424,56.08 100.6445,54.28449 c -7.26911,2.67687 -14.15135,6.18312 -20.48812,10.43796 -5.68559,3.8176 -10.89423,8.21289 -15.52906,13.10415 z"
           style="fill:#5e120c;fill-opacity:0.6757;fill-rule:nonzero;stroke:none"
           id="path136" />
      </g>
    </g>
    <g
       id="g138">
      <g
         id="g140"
         clip-path="url(#clipPath144)">
        <path
           d="m 99.05042,150.5008 c 3.44768,9.2172 9.62788,16.2839 17.16428,19.5666 4.817,2.0983 9.9404,2.5046 15.0021,3.2791 8.8324,1.3515 17.6383,3.7134 26.5283,2.1434 4.8554,-0.8575 9.6748,-2.817 14.1154,-5.3173 3.1693,-1.7844 6.2192,-3.8349 9.1221,-6.1388 l 9.8037,-5.2079 c 0.1397,4.3639 -1.3934,8.5795 -4.1962,11.5384 -2.5962,2.7406 -6.258,4.2555 -7.8275,7.9452 -2.5293,5.9461 1.2772,12.5208 5.368,17.6933 3.3751,4.2676 6.8638,8.4033 11.1541,10.9549 3.94,2.3433 8.3281,3.2681 12.1428,5.9135 3.0527,2.117 5.6556,5.1716 7.5129,8.9346 -6.4961,-3.0663 -13.3023,-5.0806 -20.2346,-5.9882 -6.6009,-0.8643 -13.3675,-0.746 -19.6531,-3.2596 -7.3064,-2.9218 -13.2387,-9.0683 -20.4856,-11.7121 -9.9684,-3.6368 -20.6482,-0.4961 -30.4548,4.5157 -5.7991,2.9638 -11.3403,6.4925 -16.9591,9.9201 -4.8441,2.955 -9.77521,5.844 -14.83506,8.5943 1.0589,-4.3176 2.58407,-8.4232 4.53097,-12.1969 3.38449,-6.5601 7.95569,-11.9702 13.32299,-15.7679 -5.1899,-0.4976 -10.32315,-1.59 -15.32289,-3.2608 -4.66079,-1.5575 -9.23304,-3.611 -13.58023,-6.3608 -5.88395,-3.7218 -11.25674,-8.649 -15.90753,-14.588 5.03924,3.124 10.43253,5.2056 15.98035,6.1463 4.59889,0.7797 9.26239,0.7842 13.89807,1.1632 4.39758,0.3596 8.76923,1.0564 13.08553,2.0855 -0.7647,-3.5066 -2.1906,-6.7173 -4.1517,-9.3478 -2.4804,-3.3272 -5.79653,-5.7791 -7.09418,-10.0615 -1.17539,-3.879 -0.39998,-8.3218 1.9709,-11.1865 z"
           style="fill:#2ca63d;fill-opacity:1;fill-rule:nonzero;stroke:none"
           id="path146" />
      </g>
    </g>
    <g
       id="g148">
      <g
         id="g150"
         clip-path="url(#clipPath154)">
        <path
           d="m 137.6029,186.8804 1.6327,23.2724 -7.9584,34.1621 8.4611,1.9455 5.3516,-27.8165 0.7937,-36.5915 z"
           style="fill:#1d6725;fill-opacity:1;fill-rule:nonzero;stroke:none"
           id="path156" />
      </g>
    </g>
  </g>
</svg>
