<?xml version="1.0" encoding="UTF-8" standalone="no"?>
<!-- Created with Inkscape (http://www.inkscape.org/) -->

<svg
   version="1.1"
   id="svg2"
   width="375.82492"
   height="371.9772"
   viewBox="0 0 375.82492 371.9772"
   xmlns="http://www.w3.org/2000/svg"
   xmlns:svg="http://www.w3.org/2000/svg">
  <defs
     id="defs6">
    <clipPath
       clipPathUnits="userSpaceOnUse"
       id="clipPath18">
      <path
         d="M 36,36 H 245.8687 V 178.2059 H 36 Z"
         id="path16" />
    </clipPath>
    <clipPath
       clipPathUnits="userSpaceOnUse"
       id="clipPath28">
      <path
         d="m 62.42347,226.9446 157.10503,-0.1661 -0.0834,-78.8644 -157.10501,0.1661 z"
         id="path26" />
    </clipPath>
    <clipPath
       clipPathUnits="userSpaceOnUse"
       id="clipPath34">
      <path
         d="M 0,0 H 281.8687 V 278.9829 H 0 Z"
         id="path32" />
    </clipPath>
    <clipPath
       clipPathUnits="userSpaceOnUse"
       id="clipPath44">
      <path
         d="m 131.9437,167.9249 h 20.24061 v 75.05802 H 131.9437 Z"
         id="path42" />
    </clipPath>
    <clipPath
       clipPathUnits="userSpaceOnUse"
       id="clipPath54">
      <path
         d="m 49.2997,94.65577 h 48.52645 v 60.48119 H 49.2997 Z"
         id="path52" />
    </clipPath>
    <clipPath
       clipPathUnits="userSpaceOnUse"
       id="clipPath64">
      <path
         d="m 123.8783,39.25943 h 121.9466 v 105.3722 H 123.8783 Z"
         id="path62" />
    </clipPath>
  </defs>
  <g
     id="g8"
     transform="matrix(1.3333333,0,0,-1.3333333,0,371.9772)">
    <g
       id="g10" />
    <g
       id="g12">
      <g
         id="g14"
         clip-path="url(#clipPath18)">
        <path
           d="M 64.61604,168.7725 C 45.39057,156.9714 36.6582,137.1991 37.01022,117.0215 37.77091,73.41925 77.33018,38.04928 123.1432,37.45339 c 7.2772,-0.09465 14.5796,-0.07436 21.8494,-0.3651 54.0984,-2.16362 104.7464,35.70243 99.5014,84.44511 -2.1883,20.3354 -15.4489,38.7327 -37.6841,47.6294 -19.4554,7.7844 -42.0033,7.0894 -63.5425,4.3815 -3.5958,-0.452 -7.1809,-0.9575 -10.7533,-1.517 l -30.7898,4.5324 c -13.14117,2.063 -25.86823,-0.8878 -37.10826,-7.7872 z"
           style="fill:#931c11;fill-opacity:1;fill-rule:nonzero;stroke:none"
           id="path20" />
      </g>
    </g>
    <g
       id="g22">
      <g
         id="g24"
         clip-path="url(#clipPath28)">
        <g
           id="g30"
           clip-path="url(#clipPath34)">
          <path
             d="m 132.2459,161.9563 c 4.4925,1.1101 9.0349,2.0068 13.6119,2.6869 9.8413,-0.3607 19.3562,-3.6301 27.3479,-9.3971 2.579,-1.8611 4.9723,-3.9678 7.1466,-6.2907 2.0158,3.517 2.3281,7.7613 0.849,11.5366 -2.1117,5.3901 -7.3649,8.8782 -13.1409,8.7256 9.3961,-2.3108 19.2377,-2.0625 28.5058,0.7192 8.2128,2.465 15.7241,6.8493 21.9157,12.7921 -6.0586,-2.3937 -12.5263,-3.5752 -19.0379,-3.4778 -6.5582,0.0981 -13.0326,1.4914 -19.0528,4.1002 5.3989,5.6991 9.2209,12.711 11.0886,20.3433 1.7791,7.2701 1.7257,14.8695 -0.1554,22.1137 -3.4757,-8.0629 -8.2031,-15.5237 -14.0065,-22.1053 -6.4628,-7.3294 -14.1631,-13.4611 -22.7479,-18.1139 l -14.3769,-0.0643 c -6.6234,0.4876 -12.9643,2.8867 -18.2567,6.9076 -8.2551,6.2719 -13.0949,15.6883 -19.0075,24.0302 -2.1108,2.9781 -4.37573,5.8435 -6.78543,8.5843 -1.10392,-11.4871 1.29517,-23.0395 6.88043,-33.1313 1.8453,-3.3342 4.0239,-6.4718 6.5023,-9.3645 -9.1242,-0.2788 -18.24365,0.6942 -27.1048,2.8919 -6.55888,1.6267 -12.93634,3.9156 -19.03458,6.8314 3.79435,-9.211 10.66436,-16.8144 19.43476,-21.5095 12.29151,-6.5802 26.97982,-6.8809 39.52932,-0.8093 -6.9231,0.5135 -13.6288,-2.5503 -17.7827,-8.1246 -2.516,-3.3765 -3.8947,-7.4679 -3.9363,-11.6818 10.0511,5.1382 20.6589,9.0999 31.614,11.8071 z"
             style="fill:#478b4b;fill-opacity:1;fill-rule:nonzero;stroke:none"
             id="path36" />
        </g>
      </g>
    </g>
    <g
       id="g38">
      <g
         id="g40"
         clip-path="url(#clipPath44)">
        <path
           d="m 140.8433,174.6281 2.039,26.3979 -9.9386,38.7501 10.5663,2.2068 6.6832,-31.5523 0.9912,-41.5057 z"
           style="fill:#195720;fill-opacity:1;fill-rule:nonzero;stroke:none"
           id="path46" />
      </g>
    </g>
    <g
       id="g48">
      <g
         id="g50"
         clip-path="url(#clipPath54)">
        <path
           d="m 94.89696,148.444 c -5.64564,7.0813 -19.21668,7.1671 -28.38325,2.4036 -16.32601,-8.484 -18.85114,-26.1048 -14.03133,-40.5175 2.28392,-6.8296 7.25419,-13.93795 17.21353,-14.62703 6.88759,-0.47655 12.93099,2.71771 16.89983,6.45103 9.76489,9.1855 8.09817,21.2849 9.773,34.2353 0.55265,4.2731 1.08225,8.8511 -1.47178,12.0546 z"
           style="fill:#fffdd7;fill-opacity:0.5129;fill-rule:nonzero;stroke:none"
           id="path56" />
      </g>
    </g>
    <g
       id="g58">
      <g
         id="g60"
         clip-path="url(#clipPath64)">
        <path
           d="M 236.2518,143.6316 C 236.162,118.7935 223.0349,94.74822 198.9792,75.61057 179.7507,60.31317 153.8016,48.77762 124.8783,42.22759 c 40.9502,-7.62802 82.7413,7.3489 106.118,37.43456 3.6507,4.69844 6.7174,9.66909 9.0277,14.83688 2.3103,5.16779 3.8641,10.53267 4.4889,16.01967 1.3152,11.5516 -1.5439,23.0758 -8.2611,33.1129 z"
           style="fill:#000000;fill-opacity:0.1337;fill-rule:nonzero;stroke:none"
           id="path66" />
      </g>
    </g>
  </g>
</svg>
