<?xml version="1.0" encoding="UTF-8" standalone="no"?>
<!-- Created with Inkscape (http://www.inkscape.org/) -->

<svg
   version="1.1"
   id="svg2"
   width="306.48441"
   height="320.53561"
   viewBox="0 0 306.48441 320.53561"
   xmlns="http://www.w3.org/2000/svg"
   xmlns:svg="http://www.w3.org/2000/svg">
  <defs
     id="defs6">
    <clipPath
       clipPathUnits="userSpaceOnUse"
       id="clipPath18">
      <path
         d="m 36,37.61693 h 156.9356 v 111.8005 H 36 Z"
         id="path16" />
    </clipPath>
    <clipPath
       clipPathUnits="userSpaceOnUse"
       id="clipPath28">
      <path
         d="m 49.62523,84.93014 h 36.62291 v 47.3394 H 49.62523 Z"
         id="path26" />
    </clipPath>
    <clipPath
       clipPathUnits="userSpaceOnUse"
       id="clipPath38">
      <path
         d="M 58.30119,104.1142 H 80.9248 v 22.40024 H 58.30119 Z"
         id="path36" />
    </clipPath>
    <clipPath
       clipPathUnits="userSpaceOnUse"
       id="clipPath48">
      <path
         d="m 47.11711,125.4999 h 126.1851 v 65.90915 H 47.11711 Z"
         id="path46" />
    </clipPath>
    <clipPath
       clipPathUnits="userSpaceOnUse"
       id="clipPath58">
      <path
         d="m 104.6726,145.5469 h 15.6252 v 58.85484 h -15.6252 z"
         id="path56" />
    </clipPath>
    <clipPath
       clipPathUnits="userSpaceOnUse"
       id="clipPath68">
      <path
         d="m 123.2521,38.15862 h 69.6586 v 76.72201 h -69.6586 z"
         id="path66" />
    </clipPath>
    <clipPath
       clipPathUnits="userSpaceOnUse"
       id="clipPath78">
      <path
         d="m 93.80156,36 h 100.0617 v 89.56922 H 93.80156 Z"
         id="path76" />
    </clipPath>
  </defs>
  <g
     id="g8"
     transform="matrix(1.3333333,0,0,-1.3333333,0,320.5356)">
    <g
       id="g10" />
    <g
       id="g12">
      <g
         id="g14"
         clip-path="url(#clipPath18)">
        <path
           d="M 57.55372,141.8135 C 43.28774,132.529 36.98043,117.1376 37.00005,101.497 37.04671,64.30048 69.65235,34.54695 107.6775,39.27726 c 1.7116,0.21292 3.4104,0.48771 5.1179,0.47083 1.536,-0.01518 3.0531,-0.26792 4.5669,-0.47154 41.9053,-5.6371 79.1364,25.58697 74.118,65.73545 -1.9609,15.6877 -11.5783,30.0588 -28.0573,37.1055 -14.4487,6.1785 -31.2634,5.541 -47.3101,3.4135 -2.6768,-0.3549 -5.3461,-0.7488 -8.0063,-1.1819 l -22.92426,3.531 c -9.7893,1.6767 -19.27832,-0.6321 -27.62862,-6.0666 z"
           style="fill:#feb912;fill-opacity:1;fill-rule:nonzero;stroke:none"
           id="path20" />
      </g>
    </g>
    <g
       id="g22">
      <g
         id="g24"
         clip-path="url(#clipPath28)">
        <path
           d="m 83.81253,126.8559 c -4.20124,5.49 -14.3002,5.5565 -21.12156,1.8634 -12.14909,-6.5775 -14.02817,-20.2385 -10.44149,-31.41243 1.69959,-5.29488 5.39825,-10.80583 12.80955,-11.34006 5.12544,-0.36946 9.62266,2.10699 12.5761,5.00138 7.2666,7.12133 6.02629,16.50181 7.27264,26.54201 0.41124,3.3129 0.80535,6.8621 -1.09524,9.3457 z"
           style="fill:#fffdd7;fill-opacity:0.5129;fill-rule:nonzero;stroke:none"
           id="path30" />
      </g>
    </g>
    <g
       id="g32">
      <g
         id="g34"
         clip-path="url(#clipPath38)">
        <path
           d="m 64.81814,105.1918 c 2.91834,-0.3858 5.64818,0.7189 7.48177,2.1705 1.47247,1.1657 2.44617,2.5123 3.47052,3.8334 1.63912,2.1141 3.44681,4.2182 3.99418,6.5252 0.54304,2.2888 -0.25099,4.6836 -3.05231,6.2758 -2.7881,1.5848 -6.95952,1.9849 -10.38182,0.9324 -4.3129,-1.3265 -5.83033,-4.3207 -6.44206,-7.2109 -0.40964,-1.9355 -0.54244,-3.8863 -0.58469,-5.8364 -0.06349,-2.9304 1.0432,-6.0989 5.51441,-6.69 z"
           style="fill:#ffffff;fill-opacity:0.7447;fill-rule:nonzero;stroke:none"
           id="path40" />
      </g>
    </g>
    <g
       id="g42">
      <g
         id="g44"
         clip-path="url(#clipPath48)">
        <path
           d="m 103.2749,137.2671 c 3.596,0.927 7.2321,1.6766 10.8961,2.2461 7.8797,-0.2913 15.5006,-3.0013 21.904,-7.7892 2.0665,-1.5452 3.9845,-3.2947 5.7273,-5.2241 1.611,2.9259 1.8574,6.4552 0.67,9.5928 -1.6953,4.4798 -5.9042,7.3753 -10.5287,7.2433 7.5249,-1.913 15.4044,-1.6979 22.8227,0.6231 6.5734,2.0567 12.5836,5.7087 17.5359,10.6553 -4.8488,-1.9956 -10.0261,-2.9837 -15.2398,-2.9084 -5.2508,0.0758 -10.4358,1.2286 -15.258,3.3924 4.3177,4.7432 7.3719,10.5767 8.8608,16.9242 1.4183,6.0463 1.3691,12.3648 -0.1431,18.3864 -2.776,-6.707 -6.5547,-12.9144 -11.1956,-18.3918 -5.1683,-6.0998 -11.3283,-11.2047 -18.1978,-15.0809 l -11.5108,-0.0661 c -5.3035,0.3996 -10.38239,2.3888 -14.62315,5.7273 -6.61478,5.2075 -10.49775,13.0326 -15.23873,19.9633 -1.69255,2.4743 -3.50835,4.8547 -5.44,7.1314 -0.87413,-9.5519 1.05648,-19.155 5.53684,-27.541 1.48025,-2.7706 3.22724,-5.3775 5.21403,-7.7804 -7.30509,-0.2398 -14.60739,0.5612 -21.70394,2.3807 -5.25275,1.3467 -10.3608,3.2442 -15.24584,5.6632 3.04576,-7.6552 8.55267,-13.971 15.57867,-17.8671 9.84679,-5.4602 21.60724,-5.6973 31.64984,-0.6381 -5.54342,0.4208 -10.90973,-2.1324 -14.23078,-6.7709 -2.01164,-2.8096 -3.11198,-6.2125 -3.14175,-9.7163 8.04309,4.281 16.53287,7.5843 25.30181,9.8448 z"
           style="fill:#2a8930;fill-opacity:1;fill-rule:nonzero;stroke:none"
           id="path50" />
      </g>
    </g>
    <g
       id="g52">
      <g
         id="g54"
         clip-path="url(#clipPath58)">
        <path
           d="m 111.5733,150.9852 1.5231,20.5432 -7.4238,30.156 7.8927,1.7173 4.9921,-24.5545 0.7404,-32.3003 z"
           style="fill:#1a561f;fill-opacity:1;fill-rule:nonzero;stroke:none"
           id="path60" />
      </g>
    </g>
    <g
       id="g62">
      <g
         id="g64"
         clip-path="url(#clipPath68)">
        <path
           d="m 188.2254,113.8806 c 0.1013,-18.4414 -7.5557,-36.3379 -21.7083,-50.49298 -10.9992,-11.00117 -25.794,-19.30707 -42.265,-24.0606 10.5213,-0.72445 21.0324,0.89929 30.4904,4.66062 13.8104,5.49219 24.5978,15.17442 30.8967,26.80594 7.3317,13.53842 8.2897,28.93109 2.5862,43.08702 z"
           style="fill:#e1a416;fill-opacity:0.7443;fill-rule:nonzero;stroke:none"
           id="path70" />
      </g>
    </g>
    <g
       id="g72">
      <g
         id="g74"
         clip-path="url(#clipPath78)">
        <path
           d="m 183.9077,124.5692 c 0.0592,-9.6127 -1.9991,-19.1715 -6.001,-28.44877 C 173.6628,86.28212 167.2343,76.67868 158.3566,68.03452 142.7373,52.82617 120.3032,41.77104 94.80156,37 c 7.93004,1.44879 15.93134,2.34361 23.84444,2.70287 7.6771,0.34854 15.3124,0.22917 22.6158,1.51785 24.2478,4.27852 40.6851,20.50961 47.7631,37.38016 6.5052,15.50532 4.7044,31.86822 -5.1172,45.96832 z"
           style="fill:#bd5216;fill-opacity:0.1129;fill-rule:nonzero;stroke:none"
           id="path80" />
      </g>
    </g>
  </g>
</svg>
