<?xml version="1.0" encoding="UTF-8" standalone="no"?>
<!-- Created with Inkscape (http://www.inkscape.org/) -->

<svg
   version="1.1"
   id="svg2"
   width="258.81534"
   height="271.33493"
   viewBox="0 0 258.81534 271.33493"
   xmlns="http://www.w3.org/2000/svg"
   xmlns:svg="http://www.w3.org/2000/svg">
  <defs
     id="defs6">
    <clipPath
       clipPathUnits="userSpaceOnUse"
       id="clipPath18">
      <path
         d="m 36,36.05411 h 121.9466 v 88.96152 H 36 Z"
         id="path16" />
    </clipPath>
    <clipPath
       clipPathUnits="userSpaceOnUse"
       id="clipPath28">
      <path
         d="m 46.31175,74.2446 h 28.78496 v 37.22144 H 46.31175 Z"
         id="path26" />
    </clipPath>
    <clipPath
       clipPathUnits="userSpaceOnUse"
       id="clipPath38">
      <path
         d="m 53.02364,89.14756 h 17.95483 v 17.84771 H 53.02364 Z"
         id="path36" />
    </clipPath>
    <clipPath
       clipPathUnits="userSpaceOnUse"
       id="clipPath48">
      <path
         d="m 44.37141,105.7607 h 98.07201 v 51.64716 H 44.37141 Z"
         id="path46" />
    </clipPath>
    <clipPath
       clipPathUnits="userSpaceOnUse"
       id="clipPath58">
      <path
         d="m 88.89744,121.3341 h 12.54072 v 46.16709 H 88.89744 Z"
         id="path56" />
    </clipPath>
    <clipPath
       clipPathUnits="userSpaceOnUse"
       id="clipPath68">
      <path
         d="m 102.6167,36 h 55.49487 v 64.55924 H 102.6167 Z"
         id="path66" />
    </clipPath>
  </defs>
  <g
     id="g8"
     transform="matrix(1.3333333,0,0,-1.3333333,0,271.33493)">
    <g
       id="g10" />
    <g
       id="g12">
      <g
         id="g14"
         clip-path="url(#clipPath18)">
        <path
           d="M 52.90108,118.8751 C 41.8323,111.6157 37.04561,99.6662 37.00035,87.5556 36.89596,59.61929 60.00592,36.46393 88.87339,37.17137 c 2.67971,0.06567 5.33296,0.33629 7.98298,0.33851 3.06307,0.0026 6.09643,-0.35287 9.10623,-0.43534 30.0994,-0.82479 54.5851,23.4366 50.5467,53.21163 -1.6425,12.11013 -8.9609,23.29643 -21.7057,28.82503 -11.1609,4.8416 -24.1836,4.33 -36.59999,2.6517 -2.06842,-0.2796 -4.13243,-0.5908 -6.19384,-0.9181 l -17.73466,2.743 c -7.57821,1.3243 -14.91304,-0.4754 -21.37403,-4.7127 z"
           style="fill:#c4e033;fill-opacity:1;fill-rule:nonzero;stroke:none"
           id="path20" />
      </g>
    </g>
    <g
       id="g22">
      <g
         id="g24"
         clip-path="url(#clipPath28)">
        <path
           d="m 72.98609,107.0373 c -3.25016,4.2649 -11.06291,4.3166 -16.34005,1.4476 -9.39877,-5.1096 -10.85247,-15.72209 -8.07774,-24.40241 1.31484,-4.11327 4.17619,-8.3944 9.90972,-8.80941 3.96513,-0.28701 7.44428,1.6368 9.72911,3.88528 5.62159,5.53212 4.66206,12.81924 5.62626,20.61887 0.31814,2.57357 0.62303,5.33077 -0.8473,7.26007 z"
           style="fill:#fffdd7;fill-opacity:0.5129;fill-rule:nonzero;stroke:none"
           id="path30" />
      </g>
    </g>
    <g
       id="g32">
      <g
         id="g34"
         clip-path="url(#clipPath38)">
        <path
           d="m 58.29166,90.20783 c 2.25768,-0.2997 4.36954,0.55849 5.78804,1.68613 1.13913,0.90557 1.89241,1.95161 2.68486,2.97793 1.26806,1.64227 2.66652,3.27682 3.08998,5.06902 0.4201,1.77799 -0.19417,3.63839 -2.36133,4.87529 -2.15693,1.2311 -5.38402,1.542 -8.03157,0.7243 -3.33655,-1.0304 -4.51047,-3.3564 -4.98371,-5.60171 -0.31691,-1.50354 -0.41964,-3.01896 -0.45233,-4.53391 -0.04911,-2.27643 0.80705,-4.73789 4.26606,-5.19705 z"
           style="fill:#ffffff;fill-opacity:0.7447;fill-rule:nonzero;stroke:none"
           id="path40" />
      </g>
    </g>
    <g
       id="g42">
      <g
         id="g44"
         clip-path="url(#clipPath48)">
        <path
           d="m 88.04252,115.1252 c 2.78193,0.7201 5.59489,1.3024 8.42946,1.7448 6.09592,-0.2263 11.99162,-2.3315 16.94542,-6.051 1.5986,-1.2003 3.0824,-2.5594 4.4307,-4.0583 1.2463,2.273 1.4369,5.0147 0.5183,7.4521 -1.3115,3.4801 -4.5676,5.7294 -8.1452,5.6269 5.8215,-1.4861 11.9172,-1.319 17.6561,0.4841 5.0853,1.5977 9.7349,4.4347 13.5661,8.2774 -3.7511,-1.5503 -7.7564,-2.3178 -11.7898,-2.2593 -4.0621,0.0589 -8.0733,0.9544 -11.8039,2.6353 3.3403,3.6847 5.7031,8.2164 6.8549,13.1474 1.0972,4.697 1.0591,9.6055 -0.1107,14.2833 -2.1476,-5.2103 -5.0708,-10.0325 -8.6611,-14.2875 -3.9983,-4.7386 -8.7638,-8.7043 -14.0782,-11.7154 l -8.90502,-0.0514 c -4.10288,0.3104 -8.03198,1.8557 -11.31272,4.4492 -5.11732,4.0454 -8.12126,10.1242 -11.78898,15.5083 -1.30939,1.9221 -2.71413,3.7713 -4.20849,5.5399 -0.67624,-7.4202 0.81732,-14.8804 4.28341,-21.3949 1.14515,-2.1523 2.49666,-4.1774 4.03368,-6.0441 -5.65137,-0.1863 -11.30056,0.4359 -16.79059,1.8494 -4.06363,1.0462 -8.01532,2.5202 -11.79448,4.3994 2.35626,-5.9468 6.61651,-10.8532 12.05196,-13.8799 7.61767,-4.2417 16.71578,-4.4259 24.48493,-0.4957 -4.2885,0.3269 -8.43998,-1.6565 -11.00921,-5.2599 -1.55624,-2.1826 -2.40748,-4.8261 -2.43052,-7.548 6.22229,3.3257 12.79016,5.8918 19.57395,7.6479 z"
           style="fill:#2a8930;fill-opacity:1;fill-rule:nonzero;stroke:none"
           id="path50" />
      </g>
    </g>
    <g
       id="g52">
      <g
         id="g54"
         clip-path="url(#clipPath58)">
        <path
           d="m 94.46236,125.782 1.17829,15.9588 -5.74321,23.4263 6.10595,1.3341 3.86201,-19.0749 0.5728,-25.0922 z"
           style="fill:#1a561f;fill-opacity:1;fill-rule:nonzero;stroke:none"
           id="path60" />
      </g>
    </g>
    <g
       id="g62">
      <g
         id="g64"
         clip-path="url(#clipPath68)">
        <path
           d="m 154.1977,99.55924 c 0.0801,-15.43965 -5.974,-30.42307 -17.1639,-42.27408 -8.6966,-9.21047 -20.3942,-16.16439 -33.4171,-20.14416 8.3187,-0.60653 16.6294,0.7529 24.1075,3.90198 10.9193,4.59821 19.4484,12.70443 24.4287,22.44265 5.7968,11.33472 6.5543,24.22187 2.0448,36.07361 z"
           style="fill:#000000;fill-opacity:0.0614;fill-rule:nonzero;stroke:none"
           id="path70" />
      </g>
    </g>
  </g>
</svg>
