<?xml version="1.0" encoding="UTF-8" standalone="no"?>
<!-- Created with Inkscape (http://www.inkscape.org/) -->

<svg
   version="1.1"
   id="svg2"
   width="423.31747"
   height="415.71826"
   viewBox="0 0 423.31747 415.71826"
   xmlns="http://www.w3.org/2000/svg"
   xmlns:svg="http://www.w3.org/2000/svg">
  <defs
     id="defs6">
    <clipPath
       clipPathUnits="userSpaceOnUse"
       id="clipPath18">
      <path
         d="m 106.6602,39.50066 h 174.8279 v 236.2881 H 106.6602 Z"
         id="path16" />
    </clipPath>
    <clipPath
       clipPathUnits="userSpaceOnUse"
       id="clipPath32">
      <path
         d="M 36,36 H 265.4157 V 272.2481 H 36 Z"
         id="path30" />
    </clipPath>
    <clipPath
       clipPathUnits="userSpaceOnUse"
       id="clipPath46">
      <path
         d="m 61.1629,58.97481 h 178.7345 v 186.6302 H 61.1629 Z"
         id="path44" />
    </clipPath>
    <clipPath
       clipPathUnits="userSpaceOnUse"
       id="clipPath60">
      <path
         d="m 101.188,98.84824 h 102.4382 v 84.2793 H 101.188 Z"
         id="path58" />
    </clipPath>
    <clipPath
       clipPathUnits="userSpaceOnUse"
       id="clipPath74">
      <path
         d="m 121.8957,158.8761 h 58.65942 v 31.37515 H 121.8957 Z"
         id="path72" />
    </clipPath>
    <clipPath
       clipPathUnits="userSpaceOnUse"
       id="clipPath86">
      <path
         d="m 147.5103,172.7015 h 12.81091 v 30.98392 H 147.5103 Z"
         id="path84" />
    </clipPath>
  </defs>
  <g
     id="g8"
     transform="matrix(1.3333333,0,0,-1.3333333,0,415.71827)">
    <g
       id="g10" />
    <g
       id="g12">
      <g
         id="g14"
         clip-path="url(#clipPath18)">
        <path
           d="m 112.7915,264.8785 c 63.9797,24.7465 135.953,-7.0577 159.0189,-69.9637 7.0105,-19.1192 8.5805,-38.9652 6.0305,-57.6256 -2.5701,-18.8075 -9.4174,-36.7363 -21.412,-51.73426 C 247.7131,74.65675 236.8523,66.13645 224.7595,59.40862 213.7279,53.27113 201.6804,48.64098 189.638,44.4638 c -2.4852,-0.86203 -4.9756,-1.70873 -7.4713,-2.54001 31.5643,22.58247 54.8674,54.32802 66.5381,90.59041 8.8211,27.4085 10.0869,57.9016 -8.3723,80.0797 -11.3677,13.6578 -28.3979,21.1286 -45.3218,27.5393 -26.7689,10.14 -54.2499,18.4093 -82.2192,24.7453 z"
           style="fill:#f6a908;fill-opacity:1;fill-rule:nonzero;stroke:none"
           id="path20" />
        <g
           id="g22"
           transform="matrix(1,0,0,-1,112.7915,273.2929)">
          <path
             d="m 0,8.414335 c 63.97972,-24.746425 135.953,7.057775 159.0189,69.963785 7.0105,19.1192 8.5805,38.96518 6.0305,57.62558 -2.5701,18.8075 -9.4174,36.7363 -21.412,51.7342 -8.7158,10.8982 -19.5766,19.4185 -31.6693,26.1464 -11.0317,6.1375 -23.07915,10.7676 -35.12156,14.9448 -2.48517,0.862 -4.97565,1.7087 -7.47127,2.54 31.56433,-22.5825 54.86733,-54.328 66.53803,-90.5904 8.8212,-27.4085 10.087,-57.90165 -8.3723,-80.07969 C 116.1733,47.04117 99.14311,39.57041 82.21919,33.15966 55.45028,23.01965 27.96935,14.75035 0,8.414335 Z"
             style="fill:none;stroke:#000000;stroke-width:3;stroke-linecap:butt;stroke-linejoin:miter;stroke-miterlimit:4;stroke-dasharray:none;stroke-opacity:0"
             id="path24" />
        </g>
      </g>
    </g>
    <g
       id="g26">
      <g
         id="g28"
         clip-path="url(#clipPath32)">
        <path
           d="m 94.99667,257.7111 c 47.99943,26.0481 107.13963,7.944 141.18893,-36.2517 15.523,-20.1489 24.5704,-43.99 26.3872,-67.9398 C 264.8626,123.3329 255.727,93.04263 233.8826,70.25299 195.0806,29.77209 131.2899,28.4805 86.53057,63.61354 19.16387,116.4918 23.27807,218.7911 94.99667,257.7111 Z"
           style="fill:#fcfe01;fill-opacity:1;fill-rule:nonzero;stroke:none"
           id="path34" />
        <g
           id="g36"
           transform="matrix(1,0,0,-1,38.5,269.7481)">
          <path
             d="M 56.49667,12.03699 C 104.4961,-14.01117 163.6363,4.092966 197.6856,48.28871 c 15.523,20.14885 24.5704,43.98994 26.3872,67.93979 2.2898,30.1867 -6.8458,60.4769 -28.6902,83.2666 -38.802,40.4809 -102.59266,41.7725 -147.35203,6.6394 -67.3667,-52.8782 -63.2525,-155.1775 8.4661,-194.09751 z"
             style="fill:none;stroke:#000000;stroke-width:3;stroke-linecap:butt;stroke-linejoin:miter;stroke-miterlimit:4;stroke-dasharray:none;stroke-opacity:0.0413"
             id="path38" />
        </g>
      </g>
    </g>
    <g
       id="g40">
      <g
         id="g42"
         clip-path="url(#clipPath46)">
        <path
           d="M 98.87935,230.5221 C 135.323,254.8186 183.9371,242.1897 212.9427,207.5589 248.2666,165.3845 245.8264,102.8995 202.3358,73.945 168.1935,51.21432 122.88,61.09043 93.51877,91.16859 52.67751,133.007 53.05246,199.9699 98.87935,230.5221 Z"
           style="fill:#fdda04;fill-opacity:1;fill-rule:nonzero;stroke:none"
           id="path48" />
        <g
           id="g50"
           transform="matrix(1,0,0,-1,63.6629,243.105)">
          <path
             d="M 35.21645,12.58292 C 71.66007,-11.7136 120.2742,0.9152735 149.2798,35.54613 184.6037,77.72052 182.1635,140.2055 138.6729,169.16 104.5306,191.8907 59.21713,182.0146 29.85587,151.9364 -10.98539,110.098 -10.61044,43.13516 35.21645,12.58292 Z"
             style="fill:none;stroke:#ff9300;stroke-width:3;stroke-linecap:butt;stroke-linejoin:miter;stroke-miterlimit:4;stroke-dasharray:none;stroke-opacity:0.0741"
             id="path52" />
        </g>
      </g>
    </g>
    <g
       id="g54">
      <g
         id="g56"
         clip-path="url(#clipPath60)">
        <path
           d="m 108.4322,168.4529 c -4.8459,-6.9991 -5.9234,-15.6333 -4.8816,-24.0813 1.1915,-9.6619 5.0888,-19.3355 11.5512,-26.8894 9.2754,-10.8419 22.3534,-16.0787 35.7247,-16.5941 26.6715,-1.02812 51.2262,17.9269 50.7941,45.8641 -0.0787,5.0851 -1.1905,10.059 -2.8693,14.7784 -1.5023,4.2233 -3.4557,8.2218 -6.1507,11.5324 -3.075,3.7773 -7.0493,6.5447 -11.541,7.5796 -9.3518,2.1546 -18.1556,-3.3898 -27.2851,-6.4477 -2.1681,-0.7262 -4.3803,-1.3131 -6.625,-1.7477 l -13.011,3.3387 c -9.0459,4.458 -19.633,1.4387 -25.7063,-7.333 z"
           style="fill:#f9fe02;fill-opacity:1;fill-rule:nonzero;stroke:none"
           id="path62" />
        <g
           id="g64"
           transform="matrix(1,0,0,-1,103.188,181.1275)">
          <path
             d="M 5.24422,12.67467 C 0.3982477,19.67376 -0.6792271,28.30789 0.3625686,36.75598 1.554041,46.41782 5.451341,56.09147 11.91382,63.64538 21.18921,74.48725 34.26722,79.72401 47.63849,80.23944 74.30999,81.26756 98.86464,62.31249 98.43254,34.37535 98.35389,29.29022 97.24209,24.31636 95.56328,19.59691 94.06099,15.37364 92.10754,11.37515 89.41254,8.064577 86.33754,4.287195 82.36331,1.519843 77.87158,0.4849547 68.51973,-1.669702 59.71601,3.874703 50.58644,6.932627 48.4184,7.658802 46.20619,8.245738 43.96146,8.680317 L 30.95053,5.341613 C 21.90461,0.883664 11.31753,3.902936 5.24422,12.67467 Z"
             style="fill:none;stroke:#aa7942;stroke-width:2;stroke-linecap:butt;stroke-linejoin:miter;stroke-miterlimit:4;stroke-dasharray:none;stroke-opacity:0.0909"
             id="path66" />
        </g>
      </g>
    </g>
    <g
       id="g68">
      <g
         id="g70"
         clip-path="url(#clipPath74)">
        <path
           d="m 145.9562,180.357 c -2.1912,1.4708 -4.5682,2.644 -7.0684,3.4888 -4.0314,1.362 -8.3069,1.8489 -12.5413,1.428 3.208,-0.8171 6.1342,-2.4892 8.4668,-4.8382 1.4979,-1.5084 2.7194,-3.2681 3.609,-5.1988 -3.7575,-1.0295 -7.2529,-2.8465 -10.2542,-5.3305 -1.844,-1.526 -3.4795,-3.2876 -4.8647,-5.2395 5.0294,2.5526 10.4864,4.1557 16.0973,4.7289 3.4887,0.3564 7.0068,0.3101 10.485,-0.1379 2.1035,-0.0815 4.0986,-0.9544 5.5859,-2.444 1.4577,-1.4599 2.3228,-3.408 2.4283,-5.4684 1.4834,2.101 2.6105,4.4321 3.3358,6.8995 0.2803,0.9535 0.5101,1.9447 1.1121,2.7387 1.4366,1.8947 4.0745,1.9663 6.4869,1.6707 3.3208,-0.4069 6.5828,-1.1997 9.7199,-2.3624 -1.2844,2.6182 -3.2095,4.8694 -5.5965,6.5448 -2.269,1.5926 -4.8877,2.6164 -7.6352,2.985 1.3892,1.7736 2.9983,3.3631 4.7888,4.7305 2.4369,1.8611 5.177,3.2871 8.0994,4.2153 z"
           style="fill:#e6c40f;fill-opacity:1;fill-rule:nonzero;stroke:none"
           id="path76" />
        <path
           d="m 161.9883,184.316 c -0.3756,-0.1046 -1.9991,-0.5306 -2.0189,-0.5217 0.6076,0.1557 1.9013,0.5024 2.0189,0.5217 0,0 0,0 0,0 z m 3.2662,0.845 c -0.5883,-0.1627 -1.8857,-0.495 -2.298,-0.5939 0.6898,0.1766 2.082,0.5489 2.298,0.5939 0,0 0,0 0,0 z m -5.0132,-1.2672 c -0.8703,-0.2236 -2.4756,-0.6515 -2.8721,-0.7435 0.8702,0.2235 2.4756,0.6515 2.8721,0.7435 0,0 0,0 0,0 z m 15.1141,-9.6779 c -0.2687,0.2777 -1.4515,1.3661 -1.4203,1.3574 0.4399,-0.3757 1.3678,-1.2853 1.4203,-1.3574 0,0 0,0 0,0 z m -7.4721,4.6695 c -0.5798,0.1638 -1.823,0.4397 -2.2115,0.5091 0.6725,-0.1092 2.0317,-0.4438 2.2115,-0.5091 0,0 0,0 0,0 z m -1.956,2.2677 c 0.8831,1.0104 1.9246,1.99 1.7515,1.8077 -0.3281,-0.2968 -1.6302,-1.6923 -1.7515,-1.8077 0,0 0,0 0,0 z m -4.7727,3.5383 c 1.3137,0.3372 2.2626,0.5952 3.1486,0.8256 4.4463,1.1567 -2.2734,-0.6208 -3.1486,-0.8256 0,0 0,0 0,0 z m 12.7061,2.6398 c -0.8485,-0.4399 -1.5029,-0.8334 -1.9015,-1.0745 0.7523,0.4702 1.8417,1.0595 1.9015,1.0745 0,0 0,0 0,0 z m 1.0664,0.2426 c -0.1949,-0.0588 -4.7236,-1.2357 -7.2361,-1.8801 2.1321,0.5579 7.431,1.9389 7.2361,1.8801 0,0 0,0 0,0 z m -3.16,-0.1099 c 1.7923,0.4608 4.2363,1.0961 6.3546,1.6464 -1.0665,-1.0805 -2.1672,-1.5421 -2.9048,-1.8816 -1.1823,-0.5442 0.391,0.3529 3.0973,1.2144 -1.8929,0.2083 -3.9623,-0.3315 -5.9667,-0.8532 -5.4308,-1.4127 -0.9587,-0.2206 -3.1746,-0.7931 -2.1997,-0.5676 2.1131,0.5636 4.3131,1.13 2.1836,0.562 -1.4589,-0.3851 -1.7189,-0.4629 0,0 0,0 0,0 z m -0.1433,0.012 c -1.0661,-0.2787 -1.9854,-0.5157 -2.5942,-0.6671 1.098,0.2909 2.1469,0.5684 2.5942,0.6671 0,0 0,0 0,0 z m -26.181,-6.6968 c -0.3866,0.0879 -2.6788,1.4063 -5.379,2.3725 -0.6715,0.2423 -1.3526,0.4611 -2.0619,0.6598 -3.7565,1.1075 -7.7043,1.4768 -11.6164,1.0705 1.4492,0.4254 2.7909,-0.0816 4.0571,-0.7342 0.9841,-0.5077 1.9239,-1.101 2.831,-1.7991 2.4929,-1.9157 4.4192,-4.5052 5.7522,-7.3919 -0.2772,-0.0775 -0.5643,-0.1549 -0.842,-0.2353 -1.0654,-0.3082 -2.1092,-0.6797 -3.1548,-1.1286 -3.6573,-1.5868 -6.8601,-3.8781 -9.4775,-6.8054 -0.6679,-0.7467 -1.2992,-1.5384 -1.8886,-2.3758 0.2892,1.0829 1.1568,1.497 2.0446,1.8897 0.9046,0.4009 4.9023,1.8275 6.3635,2.2071 -1.4277,-0.3532 5.3828,1.1232 5.073,1.0757 0.7819,0.1077 1.5975,0.2032 2.4075,0.2799 0.8113,0.0761 -0.2052,-0.017 -1.2206,-0.1469 0.9128,0.108 1.824,0.1918 2.7495,0.2508 0.9685,0.0632 1.9383,0.0965 2.9374,0.098 3.2348,0.0136 6.956,0.0765 9.7242,-1.4388 1.7094,-0.9255 3.8317,-3.0407 4.4208,-5.9887 1.2602,1.8524 2.181,4.0504 2.8528,6.3578 0.6717,2.3075 2.8511,3.9578 4.8512,4.1554 4,0.395 6.239,-0.5827 4.7557,-0.342 -4.3475,0.7043 -2.1098,0.2901 -0.9358,0.122 0.6888,-0.0982 1.6103,-0.2481 2.6325,-0.459 -0.0367,0.0128 -0.1188,0.0344 -0.2762,0.0682 1.5631,-0.3066 3.6098,-0.8046 5.6874,-1.5233 -0.2612,0.4308 -0.5393,0.876 -0.8333,1.3038 0.3015,-0.4293 0.6483,-0.9978 0.7847,-1.2207 -0.7067,1.2279 -0.0978,0.2441 -0.6043,1.0069 -1.4323,2.1409 -2.2449,3.0662 -0.4642,0.6681 -1.6301,2.2148 -2.9795,3.4175 -5.3552,4.7563 -0.9221,0.5084 -0.4198,0.2267 -0.1624,0.0794 -1.6279,0.8714 -5.7148,1.8739 -6.1186,1.921 -0.2039,0.0231 2.6685,-0.3277 5.0559,-1.4128 2.3874,-1.0852 4.241,-2.7126 3.4036,-2.0667 -0.6798,0.5245 -2.1783,1.4554 -2.7862,1.7561 1.3191,-0.6672 2.8117,-1.7533 3.5105,-2.3709 -0.7792,0.6767 -1.9806,1.5082 -2.681,1.9077 0.8609,-0.4965 1.41,-0.9086 1.6341,-1.0815 -1.1681,0.8669 -2.1208,1.4385 -3.7115,2.0875 -0.697,0.2886 0.6499,-0.1823 -0.8878,0.345 -0.2619,0.0973 1.0087,-0.3792 0.9324,-0.3409 -1.2111,0.5005 -3.7877,1.0667 -4.4316,1.1563 -0.6301,0.0892 1.5863,-0.2666 1.6431,-0.2744 -0.6379,0.1406 -1.3108,0.2355 -1.974,0.3251 3.0615,3.9005 7.2808,6.7443 8.7767,7.5483 1.7291,0.9301 0.1058,0.0676 -0.6112,-0.3478 1.7411,0.9945 3.1752,1.6464 5.2643,2.3085 -0.1019,-0.686 -0.3921,-0.7614 -0.6958,-0.8404 -1.6081,-0.4173 -0.9688,-0.2486 -0.3626,-0.0872 -0.4269,-0.11 -0.8045,-0.2071 -1.0509,-0.27 -0.1808,-0.0458 -0.6405,-0.1643 -0.9528,-0.2431 0.8468,0.2231 2.3269,0.6074 3.2344,0.8465 -0.3166,0.5272 -0.4512,0.4825 -0.565,0.4437 0.1205,0.0396 0.2544,0.0828 0.3998,0.1285 -1.4695,-0.9889 -4.5343,-1.7951 -5.7142,-2.0924 1.8474,0.4884 3.8188,1.0014 5.8741,1.5406 -0.365,0.4677 -0.5753,0.3977 -0.7855,0.3248 0.2094,0.0719 0.4199,0.1414 0.6315,0.2084 -4.0944,-1.6359 -8.393,-2.7835 -11.8092,-3.6495 0.6393,0.1687 0.9161,0.2495 1.4399,0.3908 -1.3598,-0.3619 -3.3751,-0.8974 -4.5933,-1.1977 -0.6731,-0.1735 -2.0033,-0.5144 -3.3328,-0.8584 2.3285,0.6112 3.8863,1.02 5.5117,1.4385 -0.0335,-0.006 -0.1818,-0.042 -0.4612,-0.1129 3.6368,0.969 5.7297,1.476 8.3232,2.1456 0.2001,0.0531 0.4002,0.1061 0.6063,0.1608 0.8334,0.2306 -2.1183,-0.5437 -2.4158,-0.612 2.3671,0.6202 4.8667,1.2695 6.8766,1.7945 -1.4065,0.0652 -2.4478,-0.3742 -3.1438,-0.6972 1.0057,0.4574 2.0126,0.8409 3.0111,1.1577 -3.1993,-1.3184 -6.1988,-2.1018 -8.8489,-2.7825 0.8822,0.2447 4.3296,1.1336 5.968,1.5695 -7.4675,-1.9332 -8.2223,-2.1293 -8.8299,-2.2851 0.5735,0.1509 1.147,0.3018 1.7379,0.4572 -0.1468,-0.0357 -0.2936,-0.0713 -0.4449,-0.108 -3.2813,-0.8543 -7.1362,-1.8601 -6.9405,-1.8044 0.1469,0.0416 3.1483,0.8269 6.3144,1.6525 -0.3318,-0.0804 -0.6635,-0.1607 -1.0053,-0.2435 -3.7081,-0.9642 -7.9139,-2.0355 -11.6189,-3.0116 0.6038,0.1708 0.2926,0.0876 -0.4804,-0.1059 1.1628,0.3112 2.8196,0.7432 4.0648,1.0745 -0.4275,-0.1075 -1.1981,-0.3104 -1.4456,-0.3689 0.6224,0.1663 1.6072,0.421 1.9166,0.5111 -1.7565,-0.4534 -3.6437,-0.9428 -5.4982,-1.423 -0.3805,-0.0859 0.8032,0.2121 0.7026,0.1945 -1.7564,-0.4533 -4.2156,-1.1005 -5.4983,-1.4223 1.4742,0.3937 4.3635,1.1384 5.264,1.3806 -0.5857,-0.1488 -1.1713,-0.2975 -1.7747,-0.4508 -1.1978,-0.311 -1.7726,-0.4582 -0.4288,-0.1025 0.721,0.1914 0.7045,0.1877 0.5237,0.1419 -0.8224,-0.2057 -3.6765,-0.9513 -3.599,-0.9124 0.7218,0.1882 3.5764,0.9319 4.2951,1.1319 -0.5448,-0.128 -2.0028,-0.5162 -2.1536,-0.5428 3.1676,0.8199 3.0511,0.7962 3.8408,0.9928 -0.344,-0.0917 -1.247,-0.3239 -1.2123,-0.3228 1.9488,0.5084 3.8976,1.0168 5.9055,1.5405 -0.1829,-0.0377 -0.1202,-0.009 0.0586,0.044 -0.8532,-0.2218 -1.7398,-0.4497 -3.3306,-0.8665 0.4218,0.1293 1.8825,0.5075 3.2291,0.8527 -0.0115,-2e-4 -0.023,-3e-4 -0.0349,-5e-4 -2.1817,-0.5695 -5.5133,-1.4322 -7.7467,-2.0046 1.0161,0.269 4.7727,1.2485 7.3327,1.9127 -0.0821,-0.0179 -0.1642,-0.0358 -0.2487,-0.0542 3.2163,0.8347 6.9853,1.8341 10.5962,2.7676 -1.7445,-0.4315 -3.7742,-0.9794 -6.0229,-1.5604 -1.0341,-0.267 -1.9874,-0.5082 -2.9899,-0.7623 -2.8532,-0.7487 -11.3338,-2.9626 -12.3038,-3.2069 -1.0685,-0.2693 7.5275,1.9721 7.5754,1.99 0.0479,0.0178 -3.9563,-1.0203 -2.0694,-0.5296 0.9846,0.2554 3.1341,0.8138 4.693,1.2183 0.0514,0.0244 0.1029,0.0489 0.1559,0.074 -1.3617,-0.3544 -2.9707,-0.7686 -3.0311,-0.8057 -0.6733,-0.1729 -2.0819,-0.5488 -2.2978,-0.5945 0.2293,0.0612 0.5742,0.1498 0.5729,0.1548 -0.3283,-0.085 -0.8035,-0.2109 -0.8542,-0.2181 1.64,0.4296 3.9023,1.0255 5.6906,1.4911 0.1503,0.0443 0.3007,0.0886 0.4556,0.1342 -0.0333,-0.007 -1.4288,-0.3659 -2.627,-0.6757 -1.264,-0.3262 1.3594,0.3632 3.4431,0.9052 0.3289,0.0912 0.6578,0.1825 0.9967,0.2765 -0.7217,-0.1888 -1.5583,-0.407 -2.5429,-0.6624 -1.15,-0.2932 -1.1199,-0.274 -2.2699,-0.5672 2.1152,0.5556 4.6742,1.2235 6.7256,1.755 0.7446,0.2043 1.4892,0.4086 2.2563,0.619 -1.7072,-0.4404 -3.2841,-0.843 -4.221,-1.0799 -0.7543,-0.198 -1.5414,-0.4046 -1.8221,-0.4705 0.7043,0.1883 -1.1335,-0.2889 -0.8579,-0.2037 1.0038,0.2491 3.0039,0.776 3.7299,0.9479 1.5748,0.4107 3.2972,0.8604 4.823,1.2576 0.1944,0.0525 0.3889,0.1049 0.5892,0.159 -1.2963,-0.3367 -2.5273,-0.655 -3.9067,-1.0087 0.6188,0.18 4.4245,1.1731 7.1831,1.8817 2.7558,0.7251 5.5323,1.436 8.3097,2.144 -2.5316,-1.4337 -5.0956,-2.7106 -7.3833,-4.3714 -0.1837,-0.1339 -0.4417,-0.3284 -0.7196,-0.5491 -0.3095,-0.2485 -0.6128,-0.5033 -0.9184,-0.7725 1.0094,0.8655 1.9758,1.5572 2.7926,2.0844 -3.2525,-2.1339 4.9676,2.5267 5.5509,2.7198 -3.3772,-1.2144 -8.1478,-4.0032 -11.514,-8.1138 4.3274,-0.7281 8.1271,-3.2265 10.3777,-5.7991 -1.2472,1.433 -1.6889,1.8536 -0.2967,0.3434 0.3772,-0.4091 0.7354,-0.8356 1.0823,-1.2926 -2.6775,3.5549 -6.8807,6.0396 -11.1173,6.7599 1.9902,2.4417 4.333,4.3613 6.58,5.7215 -2.3003,-1.4093 -5.1467,-3.9767 -6.5664,-5.7109 0.7208,-0.1214 1.2802,-0.2593 1.634,-0.3511 -0.4849,0.1314 -1.0772,0.2636 -1.6064,0.3551 0.3697,0.4661 0.7096,0.8412 0.7931,0.928 -0.1982,-0.222 -0.4738,-0.536 -0.7898,-0.9205 2.7013,-0.4641 6.9831,-2.7526 8.2503,-3.7846 -2.1791,1.8035 -5.0672,3.239 -8.2171,3.7898 3.3707,4.1009 8.214,7.0055 12.2671,8.2838 -1.4225,0.4584 -2.528,0.1733 -3.5089,-0.0784 1.0587,0.275 2.1571,0.5606 3.2848,0.8541 -4.2912,-2.2147 -8.8424,-5.196 -12.0289,-9.0473 4.9975,-0.8802 9.0607,-3.9819 11.2891,-7.0823 -0.9208,1.2709 -0.9826,1.2573 -0.4867,0.6198 0.9735,-1.2323 1.7224,-2.6054 2.4241,-4.0398 -1.1846,0.4424 -2.3868,0.8781 -3.6181,1.2434 -0.5643,0.1634 -0.3656,0.1258 0.994,-0.3171 1.1206,-0.3651 1.761,-0.6129 2.1293,-0.757 -0.7389,0.2704 -9.46,3.0331 -2.5167,0.863 0.9518,-0.2975 1.9929,-0.6771 3.056,-1.0719 -3.0582,6.2454 -10.2935,10.8739 -5.402,7.0443 2.8359,-2.2203 4.0973,-4.48 4.6401,-5.469 0.5427,-0.9891 0.4935,-0.712 -0.5375,0.9384 -1.041,1.6663 -3.8632,4.7121 -6.5574,6.1821 -2.6941,1.47 -4.7511,1.8921 -2.7881,1.2298 1.6457,-0.5553 3.9966,-1.6829 6.0556,-3.4936 2.0589,-1.8106 3.6199,-4.2991 4.7294,-6.5596 -0.9551,0.3561 -1.8561,0.6909 -2.6558,0.953 -4.8755,1.5983 3.2833,-0.4791 -3.9676,1.1376 -7.296,1.6267 -1.2063,0.26 -2.6235,0.4844 -2.2416,0.3545 -7.162,0.7706 -8.3063,-2.9191 -0.8021,-2.5939 -2.3541,-6.05 -3.3932,-7.6014 0.0684,0.0875 3.728,7.974 2.4926,4.753 -0.8762,-2.2692 -2.2151,-4.3861 -3.5198,-6.2341 -0.2568,4.9735 -3.2149,7.6641 -1.7157,5.7632 -2.8428,3.6408 -7.1484,3.2796 -10.1754,3.3885 -4.6735,0.1451 -10.1033,-0.7924 -10.6917,-0.9178 -0.4743,-0.1014 -6.5904,-1.5231 -11.4278,-3.985 0.801,2.5932 2.3346,4.1839 3.3953,5.1685 0.1304,0.1176 1.7653,1.5807 3.6372,2.782 1.8719,1.2014 3.9584,2.1131 4.2986,2.2485 1.1417,0.4841 2.1103,0.8104 2.9431,1.0584 -0.9949,1.9941 -1.7602,2.9096 -2.7004,3.9501 -0.9402,1.0405 -2.0764,2.3089 -4.8414,3.7904 -1.5394,0.8247 -2.8892,1.2736 -4.0065,1.56 3.2343,1.2198 4.5313,1.0254 5.3429,0.9637 7.0619,-0.5377 6.9846,-1.1429 10.1123,-2.6183 0.9448,-0.4449 2.3634,-1.203 2.819,-1.5077 0.9111,-0.6093 1.2816,-0.9734 0.9365,-0.8836 0,0 0,0 0,0 z m 14.3431,3.1813 c -1.1962,-0.3172 -3.3626,-0.8781 -4.6241,-1.2137 1.447,0.3633 3.2341,0.8333 5.0536,1.3137 -0.1417,-0.033 -0.2835,-0.066 -0.4295,-0.1 0,0 0,0 0,0 z m 9.1992,2.6161 c -0.804,-0.209 -1.769,-0.4726 -2.672,-0.7048 -0.8532,-0.2218 -1.7384,-0.4552 -3.0362,-0.7863 0.1131,0.0368 2.2439,0.5997 3.9012,1.0299 -9e-4,0.004 -0.002,0.007 -0.003,0.0112 -0.8053,-0.2039 -1.7577,-0.4483 -2.8897,-0.7434 -0.3841,-0.1011 -0.7683,-0.2021 -1.164,-0.3062 -0.0311,-0.0155 0.5772,0.1378 0.8064,0.1996 -0.2925,-0.0876 -1.2919,-0.3536 -2.5871,-0.6946 -0.1564,-0.043 -0.3129,-0.086 -0.4741,-0.1303 -0.1778,-0.057 0.8078,0.1946 -0.2917,-0.0907 0.774,0.1898 2.7729,0.721 4.0205,1.043 -1.4006,-0.3399 3.8692,1.0182 5.1625,1.3661 -0.255,-0.0639 -0.5101,-0.1277 -0.7729,-0.1935 z m 8.2299,2.1449 c -0.7152,-0.2562 -1.4187,-0.5416 -2.1287,-0.8667 1.0211,0.4661 1.8289,0.7664 2.5787,1.0183 -0.1489,-0.0487 -0.2974,-0.0987 -0.45,-0.1516 z m -19.3298,-25.1586 c 0.1007,-0.3244 0.1908,-0.6802 0.2595,-1.0626 1.1941,1.7351 2.2692,4.3538 3.0025,6.7635 0.7333,2.4096 2.9103,3.4388 3.1648,3.5157 0.8589,0.2902 1.7959,0.3862 2.7663,0.3745 -1.4133,0.0206 -2.8487,-0.1903 -3.9914,-0.9635 -1.1428,-0.7732 -1.746,-2.2202 -2.1003,-3.4553 -0.7085,-2.47 -1.7233,-4.5934 -2.7945,-6.2676 -0.1133,0.4145 -0.2023,0.7645 -0.3069,1.0953 0,0 0,0 0,0 z m 7.7102,8.7538 c 0.3754,0.056 0.1894,0.0896 -0.6649,-0.1262 -2.2686,-0.574 -2.9207,-2.581 -3.195,-3.5216 -0.2743,-0.9406 -0.2966,-0.8398 0.185,0.6323 0.4111,1.2571 1.7792,2.6569 3.2582,2.9683 1.479,0.3113 2.6218,0.1629 1.7398,0.1664 -2.3427,0.006 -4.3252,-0.9921 -5.0338,-3.199 -0.54,-1.7022 -1.0826,-3.5207 -1.9251,-5.205 0.9109,1.782 1.453,3.7611 2.0413,5.4426 0.5883,1.6816 1.9645,2.6058 3.5945,2.8422 0,0 0,0 0,0 z m -6.7586,-10.2846 c 0.7765,1.2167 1.5767,2.7463 2.1919,4.3711 -0.5339,-1.4047 -1.1971,-2.7568 -2.0119,-4.0726 -0.0586,-0.0989 -0.118,-0.1974 -0.18,-0.2985 z m -1.0516,-1.5606 c 1.7031,2.4102 3.0876,5.0057 1.6051,2.4519 -0.333,-0.5739 -0.6897,-1.1345 -1.0821,-1.6958 -0.1736,-0.2538 -0.3422,-0.495 -0.523,-0.7561 z m -0.3093,0.9643 c 0.006,-0.0201 0.0338,-0.485 0.0764,-1.2992 0.0225,0.0392 0.0432,0.0685 0.0654,0.1 -0.0213,-0.0302 -0.042,-0.0594 -0.0641,-0.0907 -0.0939,1.8257 -1.3087,5.0716 -1.2207,4.9083 0.6184,-1.0154 1.0555,-2.2697 1.143,-3.6184 0,0 0,0 0,0 z m -0.9668,4.8044 c 0.7298,-0.9489 1.3026,-1.8184 0.1975,-0.2547 -0.4203,0.5943 -0.9209,1.1449 -1.4964,1.6315 0.475,-0.4053 0.9118,-0.8654 1.2989,-1.3768 z m 19.4274,21.2791 c -0.4403,-0.1872 -2.077,-0.975 -2.9881,-1.5063 -0.1351,-0.0384 3.5946,1.7822 2.9881,1.5063 0,0 0,0 0,0 z m -2.2078,0.4848 c 0.476,0.1228 2.346,0.6111 3.4461,0.8939 0.1239,-0.005 -4.1314,-1.0879 -3.4461,-0.8939 0,0 0,0 0,0 z m -46.8154,-18.5568 c -0.004,-0.004 -0.008,-0.007 -0.0124,-0.0113 0.004,0.004 0.008,0.007 0.0124,0.0113 0,0 0,0 0,0 z"
           style="fill:#000000;fill-opacity:0.0622;fill-rule:nonzero;stroke:none"
           id="path78" />
      </g>
    </g>
    <g
       id="g80">
      <g
         id="g82"
         clip-path="url(#clipPath86)">
        <path
           d="m 152.9807,200.3302 c 2.2346,-2.7995 3.3455,-6.2885 3.1679,-9.8148 -0.1733,-3.4424 -1.6049,-6.6421 -3.4185,-9.6494 -1.0515,-1.7435 -2.2327,-3.4187 -3.5363,-5.0124 0.7705,-0.7196 1.7892,-1.2357 2.9248,-1.4819 2.5043,-0.5428 5.1603,0.2397 6.6499,1.9591 -0.4285,1.5664 -0.7018,3.1509 -0.8166,4.7609 -0.3318,4.6485 0.6685,9.3072 0.5167,13.9747 -0.0766,2.3555 -0.4464,4.6922 -1.1008,6.9562 z"
           style="fill:#e6c40f;fill-opacity:1;fill-rule:nonzero;stroke:none"
           id="path88" />
        <path
           d="m 157.5296,200.5561 c -0.0361,0.1259 -0.1814,0.6957 -0.1734,0.7187 0.0542,-0.2172 0.172,-0.6648 0.1734,-0.7187 0,0 0,0 0,0 z m 0.2407,-1.1688 c -0.0472,0.2009 -0.1379,0.6685 -0.1636,0.8239 0.0515,-0.2485 0.1581,-0.7357 0.1636,-0.8239 0,0 0,0 0,0 z m -0.3689,1.8241 c -0.0388,0.1563 -0.0987,0.374 -0.1546,0.5709 -0.1848,-0.0735 -0.3501,-0.1367 -0.4124,-0.1549 0.1134,0.0424 0.266,0.1019 0.417,0.1608 0.0686,-0.2427 0.1328,-0.4839 0.15,-0.5768 0,0 0,0 0,0 z m 0.1004,-16.7266 c -0.001,0.138 0.0228,0.7302 0.0364,0.7299 -0.0135,-0.2152 -0.0239,-0.6886 -0.0364,-0.7299 0,0 0,0 0,0 z m 0.2401,3.3045 c 0.007,0.2134 0.0525,0.6847 0.0726,0.8348 -0.0232,-0.2505 -0.0553,-0.756 -0.0726,-0.8348 0,0 0,0 0,0 z m 0.1492,1.9091 c 0.0364,0.4458 0.0706,0.9203 0.0775,0.8351 -0.0215,-0.1456 -0.0579,-0.7839 -0.0775,-0.8351 0,0 0,0 0,0 z m -0.009,11.8149 c 0.126,-0.4948 0.2166,-0.8391 0.2896,-1.1728 0.367,-1.6737 -0.2196,0.8211 -0.2896,1.1728 0,0 0,0 0,0 z m 0.2485,-8.4421 c -0.009,-0.32 -0.0219,-0.5762 -0.0359,-0.7335 0.0136,0.2967 0.0211,0.7086 0.0359,0.7335 0,0 0,0 0,0 z m -0.0239,2.7583 c -0.0116,0.0649 -0.1423,1.6912 -0.2711,2.5937 0.1187,-0.7566 0.2828,-2.6586 0.2711,-2.5937 0,0 0,0 0,0 z m 0.5439,1.6807 c 0.1229,-1.1309 0.1956,-2.9373 0.1823,-3.7599 -0.0132,-0.8157 0.0443,1.4505 -0.1796,3.5188 -0.224,2.0759 -0.004,0.3905 -0.129,1.2384 -0.1235,0.8428 0.1358,-0.7947 0.2094,-1.6446 0.073,-0.8429 -0.0626,0.5556 -0.0831,0.6473 0,0 0,0 0,0 z m 0.0369,0.0934 c -0.0502,0.4087 -0.0997,0.7625 -0.13,1.0014 0.0698,-0.4157 0.125,-0.8154 0.13,-1.0014 0,0 0,0 0,0 z m -5.6138,2.4924 c 0.1881,-0.0241 0.8631,-0.7253 1.4454,-1.6003 0.1429,-0.2181 0.28,-0.4397 0.4149,-0.6713 0.8998,-1.6874 1.4462,-3.5621 1.6019,-5.4877 0.0303,-0.3813 0.0462,-0.7644 0.0468,-1.1602 0.004,-1.1873 -0.1457,-2.3762 -0.42,-3.5301 -0.0913,-0.3828 -0.1954,-0.7622 -0.3153,-1.1495 -0.4041,-1.3562 -0.9772,-2.6203 -1.6291,-3.8762 -0.3263,-0.6279 -0.6745,-1.2562 -1.0332,-1.8899 -0.1784,-0.3164 -1.0126,-1.6262 -1.3379,-2.0838 0.3366,0.4443 -1.1579,-1.649 -1.0896,-1.5564 -0.1849,-0.2306 -0.3745,-0.4687 -0.5616,-0.7047 -0.188,-0.2362 0.0395,0.0608 0.2642,0.3608 -0.211,-0.2672 -0.4211,-0.5319 -0.6356,-0.799 -0.013,-0.0162 -0.0259,-0.0325 -0.0389,-0.0487 0.1858,-0.1359 0.422,-0.2965 0.6816,-0.4436 0.9049,-0.5027 2.0959,-0.7972 3.1112,-0.83 1.2726,-0.023 3.5459,0.5634 4.7455,1.8376 -0.6708,2.4611 -0.7902,4.541 -0.7005,3.7305 0.1875,-1.6832 0.116,-0.8189 0.0631,-0.3699 -0.0315,0.2636 -0.0688,0.6176 -0.0996,1.0154 -0.004,-0.0112 -0.007,-0.0406 -0.004,-0.1004 -0.0676,0.7537 -0.125,1.8168 -0.0959,2.8465 -1e-4,-0.1923 -0.001,-0.4385 0.006,-0.5294 -0.001,0.5228 0.0125,0.1068 0.021,0.4487 0.015,0.9551 0.0345,1.4108 0.0113,0.3058 0.0333,1.0268 0.0931,1.6799 0.1828,2.6926 0.0243,0.3835 0.011,0.1738 -0.004,0.0596 0.0397,0.6704 0.169,2.2067 0.1735,2.3487 0.003,0.1416 -0.2986,-4.1657 -0.2652,-3.3979 0.0137,0.3116 0.0591,0.9583 0.0717,1.2033 -0.0413,-0.5443 -0.0812,-1.2151 -0.1043,-1.5627 0.0162,0.3776 0.0493,0.9104 0.0654,1.2033 -0.0249,-0.3648 -0.0416,-0.6162 -0.0531,-0.724 0.0304,0.5327 0.0556,0.9332 0.1054,1.5659 0.0261,0.2809 -0.008,-0.2378 0.0396,0.3591 0.0157,0.1082 -0.028,-0.3938 -0.0188,-0.3575 0.0411,0.4844 0.1194,1.4449 0.1422,1.6839 0.0237,0.2334 -0.0479,-0.5845 -0.0448,-0.6018 0.1575,1.8695 0.294,3.9841 0.3181,4.6382 0.0236,0.66 0.005,0.0431 -0.001,-0.2343 0.0331,0.7684 0.0451,1.3437 0.0213,2.2507 -0.0145,0.5816 -0.007,0.3518 0.003,0.1351 -0.004,0.1547 -0.008,0.2917 -0.0113,0.3813 -0.002,0.066 -0.009,0.2325 -0.0132,0.3467 0.0234,-0.3527 0.043,-1.0181 0.0514,-1.3061 0.002,0.5403 -0.0765,1.8002 -0.1095,2.2694 0.0752,-0.7259 0.1173,-1.5159 0.131,-2.3396 -0.0115,1.6166 -0.2116,3.2315 -0.4116,4.5297 0.0412,-0.2258 0.0642,-0.3168 0.0972,-0.4999 -0.0816,0.4796 -0.2235,1.186 -0.3034,1.6348 -0.05,0.2403 -0.1527,0.7168 -0.2731,1.1864 0.2171,-0.8128 0.3344,-1.3637 0.4387,-1.9481 -1e-4,0.0145 -0.008,0.0699 -0.0254,0.1714 0.2678,-1.2764 0.3197,-2.0657 0.3921,-3.0065 0.007,-0.0716 0.0135,-0.1432 0.02,-0.217 0.0351,-0.292 -0.0606,0.7706 -0.0639,0.885 0.1534,-1.3805 0.1645,-2.9092 0.1684,-3.5886 0.0282,1.6644 -0.0858,3.1185 -0.2421,4.3641 0.0559,-0.3055 0.1787,-1.5601 0.2215,-2.1499 -0.1456,2.7262 -0.3195,2.9855 -0.3554,3.206 0.037,-0.2046 0.0718,-0.4097 0.1053,-0.6214 -0.006,0.0552 -0.0118,0.1105 -0.0181,0.1674 -0.1854,1.1835 -0.5234,2.5505 -0.5026,2.4864 0.0155,-0.0483 0.2857,-1.1101 0.4755,-2.2506 -0.0148,0.1252 -0.0304,0.2504 -0.0475,0.3794 -0.1529,0.8574 -0.355,1.7916 -0.604,2.6883 -0.4732,-0.1807 -0.9425,-0.3607 -1.392,-0.5378 0.2091,0.0944 0.1032,0.0515 -0.1548,-0.0397 0.3967,0.1613 0.9579,0.3778 1.3841,0.5492 -0.1424,-0.0508 -0.4052,-0.1543 -0.4858,-0.1792 0.214,0.0867 0.5476,0.2134 0.6594,0.2662 -0.5957,-0.225 -1.2383,-0.4701 -1.8703,-0.7105 -0.1266,-0.035 0.2753,0.109 0.2439,0.1058 -0.6006,-0.2268 -1.4437,-0.5583 -1.8839,-0.7149 0.5064,0.205 1.4983,0.5786 1.8098,0.7064 -0.2003,-0.0731 -0.401,-0.1464 -0.6081,-0.2221 -0.413,-0.158 -0.6112,-0.2317 -0.1465,-0.0468 0.2499,0.0998 0.2443,0.0983 0.182,0.0757 -0.2834,-0.1004 -1.2728,-0.4834 -1.2476,-0.4543 0.2512,0.0969 1.2447,0.4794 1.4979,0.5903 -0.1872,-0.0577 -0.6984,-0.2632 -0.75,-0.27 1.1081,0.4212 1.0694,0.4133 1.3427,0.509 -0.1211,-0.0488 -0.4358,-0.1668 -0.426,-0.1712 0.6441,0.2486 1.2882,0.4974 1.9499,0.7528 0.0112,-0.0386 0.0223,-0.0772 0.0334,-0.116 -0.012,0.0775 0.002,0.0693 0.0252,0.0129 -0.0131,0.0463 -0.0264,0.0928 -0.04,0.1405 -0.2617,-0.0998 -0.5569,-0.2114 -1.0333,-0.397 0.1471,0.0754 0.6008,0.2494 1.0418,0.4143 0.01,-0.0356 0.0197,-0.0709 0.0295,-0.1062 7e-4,0.007 0.001,0.0151 0.002,0.0229 -0.009,0.0303 -0.0177,0.0611 -0.0268,0.0927 -0.77,-0.2971 -1.8849,-0.7211 -2.6429,-1.0036 0.361,0.1435 1.6935,0.6575 2.5992,1.0035 -0.0266,-0.007 -0.0532,-0.0133 -0.0807,-0.0201 0.0467,0.0178 0.0937,0.0359 0.1411,0.054 0.3245,-1.1309 0.6414,-2.4363 0.8301,-3.7276 -0.0787,0.6681 -0.2312,1.4007 -0.4201,2.2286 -0.0868,0.3811 -0.1705,0.7365 -0.2663,1.1087 -0.0335,0.1189 -0.0757,0.2642 -0.124,0.4298 -1.2601,-0.4897 -3.6668,-1.4194 -3.9745,-1.5302 -0.3845,-0.1386 2.6982,1.0506 2.7178,1.0637 0.0196,0.0131 -1.4189,-0.5356 -0.7402,-0.2752 0.3538,0.1351 1.126,0.4309 1.6852,0.6446 0.0257,0.0213 0.0515,0.0427 0.0782,0.0648 -0.4926,-0.1894 -1.0728,-0.4077 -1.1038,-0.4418 -0.242,-0.0905 -0.7528,-0.2966 -0.8279,-0.3145 0.0832,0.0334 0.2073,0.08 0.2084,0.0859 -0.1185,-0.045 -0.2908,-0.1136 -0.3078,-0.1139 0.5944,0.2314 1.4168,0.5549 2.0647,0.8041 0.058,0.0277 0.1161,0.0553 0.1761,0.0839 -0.0107,-0.002 -0.5158,-0.1921 -0.9508,-0.3572 -0.4146,-0.1568 0.3273,0.1342 1.0347,0.407 0.022,-0.0765 0.0434,-0.1507 0.0647,-0.2249 0.0384,-0.1136 0.0761,-0.2274 0.1142,-0.3451 -0.0493,0.1772 -0.1055,0.3713 -0.1686,0.5905 -0.1071,-0.0408 -0.2194,-0.0838 -0.3376,-0.1289 -0.4175,-0.1542 -0.4001,-0.1357 -0.8198,-0.2907 0.3681,0.1439 0.7723,0.3011 1.1758,0.4571 0.1305,-0.4502 0.2551,-0.8994 0.3537,-1.3026 0.076,-0.2645 0.1484,-0.5305 0.2188,-0.806 -0.1356,0.6423 -0.2829,1.2358 -0.3743,1.59 -0.0623,0.2196 -0.1287,0.4425 -0.166,0.5829 -0.0355,-0.0124 -0.0645,-0.0224 -0.0851,-0.0287 0.2541,0.1028 -0.4184,-0.1546 -0.3069,-0.0977 0.1082,0.0379 0.2497,0.0902 0.4021,0.1473 0.1023,-0.3678 0.2198,-0.7884 0.2612,-0.9921 0.154,-0.5834 0.3015,-1.2258 0.4133,-1.7995 0.0157,-0.0714 0.0312,-0.1428 0.0468,-0.2164 -0.0906,0.4891 -0.1869,0.953 -0.3073,1.4734 0.0698,-0.2107 0.3868,-1.6383 0.528,-2.6952 0.3172,-2.1191 0.2865,-4.3528 0.16,-6.4896 -0.005,-0.0872 -0.01,-0.2112 -0.0155,-0.3473 -0.004,-0.1526 -0.009,-0.3052 -0.0146,-0.4626 0.0355,0.5117 0.0631,0.9685 0.0838,1.3452 -0.0538,-1.5088 0.052,2.1741 0.0607,2.4217 0.0697,-2.4571 -0.4232,-7.0476 -0.5324,-9.8437 0.0311,0.6733 0.0454,0.8897 0.0154,0.1665 -0.008,-0.1958 -0.0151,-0.3916 -0.0208,-0.5932 0.1124,2.8477 0.4407,5.8303 0.5567,8.1475 -0.05,-1.3706 -0.231,-3.4425 -0.2605,-4.0071 0.0334,0.3994 0.0777,0.9802 0.0907,1.0629 -0.0422,-0.6984 -0.2483,-3.0369 -0.2777,-3.7188 0.22,3.3403 0.6083,7.9458 0.4385,10.4673 0.2847,-3.7945 -0.3837,-8.8788 -0.5073,-12.0531 0.0155,0.5503 0.0138,0.557 -0.005,0.2666 -0.0416,-0.9832 -0.0524,-1.9626 -0.004,-2.9681 0.0136,-0.2031 0.008,-0.136 -0.006,0.3487 -0.0113,0.3989 -0.0147,0.633 -0.009,0.7614 0.006,-0.2713 0.135,-3.3858 0.0313,-0.911 -0.1034,2.4699 0.262,6.7978 0.1008,4.2687 -0.1613,-2.5305 -0.1177,-3.5184 -0.0808,-2.146 0.037,1.3793 0.4068,5.7806 0.2877,4.3021 -0.1186,-1.4725 -0.3062,-4.5566 -0.2432,-6.2804 0.0632,-1.7292 -0.1939,1.1662 0.0411,-1.3629 0.235,-2.5287 0.0536,-0.4251 0.1164,-0.9062 0.0999,-0.7611 0.3587,-2.1551 0.7163,-3.46 9e-4,-0.003 0.002,-0.007 0.003,-0.01 -0.6604,-0.7644 -1.7164,-1.4941 -2.3141,-1.7751 0.0471,0.013 2.5093,1.8206 1.6157,1.0256 -2.2385,-1.9658 -6.1555,-1.7504 -4.6901,-1.7058 -1.9635,-0.0375 -3.4033,0.5942 -4.3552,1.2753 -0.3287,0.229 -0.6058,0.4843 -0.8997,0.7557 0.8134,1.0451 1.5518,2.0295 1.6466,2.1649 0.1413,0.2029 2.7003,4.0287 3.4028,5.5553 0.059,0.1156 1.2357,2.9162 1.3297,3.1642 0.8425,2.7171 0.8146,2.3541 0.7032,5.1544 -0.0934,2.3396 -0.4371,3.0133 -0.5469,3.3903 -0.6856,2.3586 -0.8464,2.2851 -1.4242,3.368 -0.1745,0.3256 -0.495,0.7974 -0.582,0.9763 -0.1732,0.3566 -0.2229,0.5562 -0.0605,0.5262 0,0 0,0 0,0 z m 4.4141,1.4899 c -0.0341,0.12 -0.0762,0.2686 -0.1232,0.4298 -0.3977,-0.1547 -0.8722,-0.337 -1.1882,-0.4639 0.3447,0.1229 0.7504,0.2784 1.1795,0.4463 0.0558,-0.1902 0.1113,-0.3844 0.165,-0.5801 -0.0107,0.0554 -0.0216,0.1108 -0.0331,0.1679 0,0 0,0 0,0 z m 0.8806,-3.156 c -0.0451,0.3019 -0.1155,0.6514 -0.176,0.9907 -0.0591,0.3183 -0.1263,0.6445 -0.2311,1.1315 0.0151,-0.034 0.1968,-0.816 0.3045,-1.4371 0.003,0.004 0.006,0.008 0.01,0.0122 -0.0484,0.3069 -0.113,0.6665 -0.2043,1.0872 -0.0317,0.1418 -0.0644,0.2835 -0.0993,0.4291 -0.008,0.004 0.0396,-0.2272 0.06,-0.3101 -0.0327,0.0967 -0.1186,0.4613 -0.2434,0.9335 -0.0164,0.055 -0.0329,0.11 -0.0501,0.1665 -0.0247,0.0531 0.068,-0.3135 -0.0386,0.0902 0.0673,-0.2966 0.2549,-1.0201 0.3497,-1.4852 -0.0899,0.5446 0.277,-1.4293 0.3545,-1.9051 -0.0112,0.0979 -0.0229,0.1958 -0.0356,0.2966 z m -0.1596,-4.1053 c 0.003,-0.257 0.002,-0.5141 -0.002,-0.7792 0.006,0.3816 0.007,0.674 0.004,0.9426 -8e-4,-0.0539 -0.002,-0.1079 -0.003,-0.1634 z m -2.532,-19.4642 c 0.8242,0.2179 2.0467,0.8824 2.6984,1.5857 -0.218,0.7406 -0.3346,1.3221 -0.3447,1.4064 -0.0701,0.3328 -0.1334,0.6666 -0.1913,1.0116 0.1306,-0.8119 0.3064,-1.6393 0.5158,-2.4354 -0.7631,-0.8147 -1.8193,-1.3254 -2.6782,-1.5683 0,0 0,0 0,0 z m 3.0541,3.2887 c -0.0277,0.1329 -0.021,0.0788 0.0435,-0.24 0.146,-0.717 0.3022,-1.3087 0.3979,-1.6709 -0.3517,-0.3978 -0.4116,-0.4617 -0.0179,-0.007 0.005,0.0239 7e-4,0.0397 -0.004,0.0553 -0.2485,0.9083 -0.6382,2.9072 -0.5385,2.3218 0.1365,-0.7791 0.3162,-1.5548 0.5311,-2.3485 0.001,-0.005 0.003,-0.0106 0.004,-0.0158 -0.4234,-0.4944 -0.8667,-0.9187 -1.4015,-1.2794 0.5592,0.3571 1.0216,0.7906 1.4302,1.2608 -0.1699,0.6695 -0.3258,1.3118 -0.4457,1.9239 0,0 0,0 0,0 z m -1.6679,-3.59 c 0.4634,0.2257 0.9819,0.55 1.4378,0.9504 -0.3971,-0.3461 -0.8414,-0.6431 -1.3353,-0.8924 -0.0336,-0.0194 -0.0674,-0.0386 -0.1025,-0.058 z m -0.6033,-0.2759 c 0.9986,0.3742 1.874,0.9545 0.9491,0.4449 -0.2077,-0.1146 -0.4222,-0.2191 -0.6495,-0.3155 -0.0975,-0.0448 -0.1964,-0.0876 -0.2996,-0.1294 z m -0.6254,-0.2123 c 0.0118,0.008 0.1895,0.0554 0.5241,0.1764 -0.6828,-0.2442 -2.1582,-0.4352 -2.0905,-0.4409 0.4978,0.0326 1.0367,0.1176 1.5664,0.2645 0,0 0,0 0,0 z m -1.0911,0.6079 c 0.3817,0.0573 0.7103,0.1174 0.1084,0.0244 -0.2289,-0.0356 -0.4608,-0.0603 -0.7017,-0.0737 0.1969,0.008 0.3931,0.0242 0.5933,0.0493 z m 4.1189,19.3901 c -0.001,-0.1904 -0.0101,-0.9099 -0.0291,-1.3279 -0.0376,-0.0603 0.0142,1.5846 0.0291,1.3279 0,0 0,0 0,0 z m -0.107,2.7108 c 0.0157,-0.184 0.0714,-0.9035 0.0869,-1.3304 -0.033,-0.0697 -0.125,1.5826 -0.0869,1.3304 0,0 0,0 0,0 z m -5.0987,-13.2577 c -9e-4,-0.002 -0.002,-0.004 -0.003,-0.005 9e-4,0.002 0.002,0.004 0.003,0.005 0,0 0,0 0,0 z"
           style="fill:#000000;fill-opacity:0.0604;fill-rule:nonzero;stroke:none"
           id="path90" />
      </g>
    </g>
  </g>
</svg>
