<?xml version="1.0" encoding="UTF-8" standalone="no"?>
<!-- Created with Inkscape (http://www.inkscape.org/) -->

<svg
   version="1.1"
   id="svg2"
   width="346.14853"
   height="333.29053"
   viewBox="0 0 346.14853 333.29053"
   xmlns="http://www.w3.org/2000/svg"
   xmlns:svg="http://www.w3.org/2000/svg">
  <defs
     id="defs6">
    <clipPath
       clipPathUnits="userSpaceOnUse"
       id="clipPath18">
      <path
         d="m 36,38.17419 h 187.3079 v 111.8005 H 36 Z"
         id="path16" />
    </clipPath>
    <clipPath
       clipPathUnits="userSpaceOnUse"
       id="clipPath28">
      <path
         d="m 51.16658,77.31429 h 43.3725 v 54.00296 h -43.3725 z"
         id="path26" />
    </clipPath>
    <clipPath
       clipPathUnits="userSpaceOnUse"
       id="clipPath38">
      <path
         d="M 51.14142,197.9296 208.2464,197.7635 208.163,118.8991 51.05804,119.0652 Z"
         id="path36" />
    </clipPath>
    <clipPath
       clipPathUnits="userSpaceOnUse"
       id="clipPath44">
      <path
         d="M 0,0 H 259.6114 V 249.9679 H 0 Z"
         id="path42" />
    </clipPath>
    <clipPath
       clipPathUnits="userSpaceOnUse"
       id="clipPath54">
      <path
         d="m 120.6617,138.9099 h 20.24061 v 75.05802 H 120.6617 Z"
         id="path52" />
    </clipPath>
    <clipPath
       clipPathUnits="userSpaceOnUse"
       id="clipPath64">
      <path
         d="m 101.6647,36 h 121.9466 v 85.71642 H 101.6647 Z"
         id="path62" />
    </clipPath>
  </defs>
  <g
     id="g8"
     transform="matrix(1.3333333,0,0,-1.3333333,0,333.29053)">
    <g
       id="g10" />
    <g
       id="g12">
      <g
         id="g14"
         clip-path="url(#clipPath18)">
        <path
           d="M 61.63537,141.8996 C 44.66791,132.1073 36.68477,115.4937 37.00952,98.41142 37.49536,72.8551 56.44316,51.40155 81.63656,43.55941 c 14.07032,-4.37977 28.68694,-4.47835 43.18084,-4.35843 14.5657,0.12053 29.4473,0.41728 43.9105,3.6371 30.59,6.80996 56.1816,30.22092 53.3681,59.36482 -1.6763,17.3642 -13.9306,32.7172 -33.6162,40.0246 -17.3943,6.4568 -37.4805,5.9415 -56.6833,3.682 -3.2079,-0.3775 -6.4061,-0.802 -9.5925,-1.2748 l -27.46614,3.8087 c -11.71164,1.7065 -23.07525,-0.7569 -33.10249,-6.5438 z"
           style="fill:#67130d;fill-opacity:1;fill-rule:nonzero;stroke:none"
           id="path20" />
      </g>
    </g>
    <g
       id="g22">
      <g
         id="g24"
         clip-path="url(#clipPath28)">
        <path
           d="m 91.8236,125.2549 c -5.02025,6.2969 -17.08796,6.3732 -25.23911,2.1373 -14.51751,-7.5442 -16.76291,-23.213 -12.47702,-36.02913 2.03092,-6.07308 6.45061,-12.39398 15.30671,-13.00673 6.12462,-0.42375 11.49857,2.41666 15.02777,5.73645 8.68318,8.16795 7.20109,18.92711 8.6904,30.44291 0.49142,3.7998 0.96235,7.8706 -1.30875,10.7192 z"
           style="fill:#fffdd7;fill-opacity:0.5129;fill-rule:nonzero;stroke:none"
           id="path30" />
      </g>
    </g>
    <g
       id="g32">
      <g
         id="g34"
         clip-path="url(#clipPath38)">
        <g
           id="g40"
           clip-path="url(#clipPath44)">
          <path
             d="m 120.9638,132.9412 c 4.4925,1.1102 9.035,2.0069 13.612,2.687 9.8412,-0.3607 19.3562,-3.6302 27.3478,-9.3971 2.579,-1.8611 4.9724,-3.9678 7.1467,-6.2907 2.0157,3.517 2.3281,7.7613 0.849,11.5366 -2.1118,5.3901 -7.365,8.8782 -13.141,8.7255 9.3961,-2.3107 19.2377,-2.0624 28.5059,0.7193 8.2128,2.4649 15.7241,6.8493 21.9156,12.7921 -6.0585,-2.3937 -12.5262,-3.5753 -19.0379,-3.4779 -6.5581,0.0982 -13.0326,1.4915 -19.0527,4.1002 5.3988,5.6991 9.2209,12.7111 11.0886,20.3434 1.779,7.27 1.7256,14.8695 -0.1554,22.1137 -3.4758,-8.063 -8.2031,-15.5237 -14.0065,-22.1053 -6.4629,-7.3295 -14.1631,-13.4611 -22.748,-18.114 l -14.3768,-0.0643 c -6.6235,0.4876 -12.9644,2.8868 -18.2568,6.9077 -8.2551,6.2718 -13.09489,15.6883 -19.00748,24.0302 -2.11082,2.9781 -4.3757,5.8434 -6.7854,8.5842 -1.10392,-11.487 1.29517,-23.0394 6.88039,-33.1312 1.8453,-3.3342 4.02394,-6.4718 6.50234,-9.3645 -9.12424,-0.2788 -18.24365,0.6942 -27.1048,2.8919 -6.55888,1.6267 -12.93634,3.9155 -19.03458,6.8313 3.79435,-9.2109 10.66436,-16.8143 19.43476,-21.5094 12.29151,-6.5802 26.97981,-6.8809 39.52927,-0.8093 -6.9231,0.5134 -13.62876,-2.5503 -17.7826,-8.1246 -2.51607,-3.3765 -3.8947,-7.4679 -3.93635,-11.6818 10.05113,5.1381 20.65895,9.0999 31.61395,11.807 z"
             style="fill:#a3c285;fill-opacity:1;fill-rule:nonzero;stroke:none"
             id="path46" />
        </g>
      </g>
    </g>
    <g
       id="g48">
      <g
         id="g50"
         clip-path="url(#clipPath54)">
        <path
           d="m 129.5612,145.6131 2.039,26.3978 -9.9385,38.7502 10.5663,2.2068 6.6831,-31.5524 0.9912,-41.5056 z"
           style="fill:#627849;fill-opacity:1;fill-rule:nonzero;stroke:none"
           id="path56" />
      </g>
    </g>
    <g
       id="g58">
      <g
         id="g60"
         clip-path="url(#clipPath64)">
        <path
           d="M 214.0383,120.7164 C 213.9485,100.6012 200.8214,81.128 176.7657,65.62928 157.5371,53.24062 131.5881,43.89849 102.6647,38.59392 c 40.9502,-6.17758 82.7414,5.95154 106.118,30.31655 3.6507,3.80506 6.7175,7.83056 9.0278,12.01572 2.3103,4.18515 3.8641,8.52996 4.4888,12.97362 1.3153,9.35509 -1.5439,18.68799 -8.261,26.81659 z"
           style="fill:#000000;fill-opacity:0.1784;fill-rule:nonzero;stroke:none"
           id="path66" />
      </g>
    </g>
  </g>
</svg>
