<?xml version="1.0" encoding="UTF-8" standalone="no"?>
<!-- Created with Inkscape (http://www.inkscape.org/) -->

<svg
   version="1.1"
   id="svg2"
   width="345.73959"
   height="357.00201"
   viewBox="0 0 345.73959 357.00201"
   xmlns="http://www.w3.org/2000/svg"
   xmlns:svg="http://www.w3.org/2000/svg">
  <defs
     id="defs6">
    <clipPath
       clipPathUnits="userSpaceOnUse"
       id="clipPath18">
      <path
         d="M 36,36.5133 H 223.1918 V 167.6966 H 36 Z"
         id="path16" />
    </clipPath>
    <clipPath
       clipPathUnits="userSpaceOnUse"
       id="clipPath28">
      <path
         d="m 52.2414,92.40469 h 43.3725 v 55.01042 H 52.2414 Z"
         id="path26" />
    </clipPath>
    <clipPath
       clipPathUnits="userSpaceOnUse"
       id="clipPath38">
      <path
         d="m 62.60869,114.8346 h 26.6441 v 25.85178 h -26.6441 z"
         id="path36" />
    </clipPath>
    <clipPath
       clipPathUnits="userSpaceOnUse"
       id="clipPath48">
      <path
         d="m 49.24433,139.8385 h 150.3944 v 76.72201 H 49.24433 Z"
         id="path46" />
    </clipPath>
    <clipPath
       clipPathUnits="userSpaceOnUse"
       id="clipPath58">
      <path
         d="m 118.02,163.2773 h 18.28138 v 68.47417 H 118.02 Z"
         id="path56" />
    </clipPath>
    <clipPath
       clipPathUnits="userSpaceOnUse"
       id="clipPath68">
      <path
         d="m 143.6111,37.4873 h 79.69364 v 94.14796 H 143.6111 Z"
         id="path66" />
    </clipPath>
    <clipPath
       clipPathUnits="userSpaceOnUse"
       id="clipPath78">
      <path
         d="m 103.3865,36 h 118.504 v 108.3784 h -118.504 z"
         id="path76" />
    </clipPath>
  </defs>
  <g
     id="g8"
     transform="matrix(1.3333333,0,0,-1.3333333,0,357.002)">
    <g
       id="g10" />
    <g
       id="g12">
      <g
         id="g14"
         clip-path="url(#clipPath18)">
        <path
           d="M 61.56934,158.9483 C 44.60641,148.041 37.28711,130.0483 37.00881,111.8106 36.33618,67.7308 74.25915,31.20921 118.9175,38.42836 c 2.9049,0.46959 5.7636,1.11988 8.6626,1.18599 2.8119,0.06412 5.5871,-0.42355 8.3518,-0.76505 48.9897,-6.05114 91.8068,30.55044 85.6724,77.071 -2.4159,18.3218 -13.8655,35.1282 -33.527,43.3835 -17.2575,7.2459 -37.3559,6.4817 -56.5329,3.9909 -3.1986,-0.4154 -6.3882,-0.8759 -9.5671,-1.3817 l -27.39327,4.1283 c -11.69906,2.0144 -23.05631,-0.6896 -33.01469,-7.093 z"
           style="fill:#fe6f15;fill-opacity:1;fill-rule:nonzero;stroke:none"
           id="path20" />
      </g>
    </g>
    <g
       id="g22">
      <g
         id="g24"
         clip-path="url(#clipPath28)">
        <path
           d="m 92.89842,141.2547 c -5.02025,6.4189 -17.08797,6.4966 -25.23911,2.1787 C 53.1418,135.7431 50.8964,119.7707 55.18229,106.7063 57.21321,100.5155 61.6329,94.07218 70.489,93.44756 c 6.12462,-0.43196 11.49857,2.46348 15.02776,5.84758 8.68319,8.32616 7.2011,19.29376 8.6904,31.03266 0.49142,3.8734 0.96236,8.0231 -1.30874,10.9269 z"
           style="fill:#fffdd7;fill-opacity:0.5129;fill-rule:nonzero;stroke:none"
           id="path30" />
      </g>
    </g>
    <g
       id="g32">
      <g
         id="g34"
         clip-path="url(#clipPath38)">
        <path
           d="m 70.20115,115.9253 c 3.48726,-0.4511 6.74927,0.8405 8.94031,2.5377 1.75952,1.3629 2.92304,2.9373 4.14708,4.482 1.95867,2.4717 4.11876,4.9318 4.77283,7.6292 0.64891,2.676 -0.29992,5.476 -3.64735,7.3376 -3.33162,1.8529 -8.31624,2.3207 -12.4057,1.0901 -5.15368,-1.5509 -6.96694,-5.0516 -7.69792,-8.4309 -0.4895,-2.263 -0.64818,-4.5438 -0.69867,-6.8239 -0.07587,-3.4261 1.24657,-7.1308 6.58942,-7.8218 z"
           style="fill:#ffffff;fill-opacity:0.7447;fill-rule:nonzero;stroke:none"
           id="path40" />
      </g>
    </g>
    <g
       id="g42">
      <g
         id="g44"
         clip-path="url(#clipPath48)">
        <path
           d="m 116.1548,153.4275 c 4.2971,1.0839 8.642,1.9602 13.0203,2.6261 9.4158,-0.3406 18.5224,-3.5091 26.1742,-9.1071 2.4693,-1.8066 4.7612,-3.8521 6.8438,-6.108 1.9249,3.421 2.2195,7.5473 0.8006,11.2159 -2.0259,5.2377 -7.0553,8.6231 -12.5813,8.4688 8.9919,-2.2367 18.4075,-1.9852 27.2719,0.7285 7.8549,2.4047 15.0368,6.6745 20.9545,12.4581 -5.794,-2.3333 -11.9807,-3.4885 -18.2108,-3.4005 -6.2744,0.0887 -12.4702,1.4365 -18.2325,3.9663 5.1595,5.5458 8.8091,12.3663 10.5882,19.7877 1.6948,7.0693 1.636,14.4568 -0.171,21.4972 -3.3172,-7.8418 -7.8325,-15.0994 -13.3781,-21.5036 -6.1758,-7.1318 -13.5367,-13.1004 -21.7454,-17.6324 l -13.7548,-0.0773 c -6.3374,0.4672 -12.4064,2.793 -17.4738,6.6964 -7.90435,6.0885 -12.54428,15.2376 -18.2095,23.3409 -2.0225,2.8929 -4.19229,5.676 -6.5005,8.3379 -1.04454,-11.1679 1.26244,-22.3959 6.61622,-32.2006 1.76882,-3.2394 3.85638,-6.2873 6.23048,-9.0968 -8.72919,-0.2804 -17.45503,0.656 -25.93503,2.7834 -6.27674,1.5746 -12.38059,3.7931 -18.21794,6.6214 3.63951,-8.9503 10.21997,-16.3347 18.61566,-20.89 11.76637,-6.3841 25.81947,-6.6613 37.81981,-0.7461 -6.6241,0.492 -13.03651,-2.4932 -17.00499,-7.9164 -2.40379,-3.285 -3.71863,-7.2637 -3.75422,-11.3603 9.61106,5.0053 19.75591,8.8676 30.23421,11.5105 z"
           style="fill:#27822e;fill-opacity:1;fill-rule:nonzero;stroke:none"
           id="path50" />
      </g>
    </g>
    <g
       id="g52">
      <g
         id="g54"
         clip-path="url(#clipPath58)">
        <path
           d="m 126.0711,169.4666 1.82,24.0189 -8.8711,35.2581 9.4314,2.0079 5.9653,-28.7089 0.8847,-37.7653 z"
           style="fill:#1a561f;fill-opacity:1;fill-rule:nonzero;stroke:none"
           id="path60" />
      </g>
    </g>
    <g
       id="g62">
      <g
         id="g64"
         clip-path="url(#clipPath68)">
        <path
           d="m 217.6565,130.6353 c 0.2036,-22.7456 -8.4748,-44.85018 -24.5981,-62.34003 -12.585,-13.65166 -29.55,-23.94158 -48.4473,-29.78798 12.4456,-0.27306 24.7467,2.2566 35.8098,7.32114 18.4402,8.44177 32.5299,23.4368 38.6268,41.61371 4.7645,14.20486 4.3025,29.36516 -1.3912,43.19316 z"
           style="fill:#e46418;fill-opacity:1;fill-rule:nonzero;stroke:none"
           id="path70" />
      </g>
    </g>
    <g
       id="g72">
      <g
         id="g74"
         clip-path="url(#clipPath78)">
        <path
           d="M 210.2506,143.3784 C 210.321,131.701 207.8756,120.089 203.1211,108.819 198.079,96.86754 190.4415,85.20136 179.8941,74.70049 161.3374,56.22551 134.6842,42.79582 104.3865,37 c 9.4213,1.75998 18.9275,2.84699 28.3288,3.28342 9.1209,0.42341 18.1921,0.27839 26.8691,1.84388 28.808,5.19752 48.3367,24.91492 56.7458,45.40913 7.7286,18.83577 5.5891,38.71327 -6.0796,55.84197 z"
           style="fill:#bd5216;fill-opacity:0.2076;fill-rule:nonzero;stroke:none"
           id="path80" />
      </g>
    </g>
  </g>
</svg>
