<?xml version="1.0" encoding="UTF-8" standalone="no"?>
<!-- Created with Inkscape (http://www.inkscape.org/) -->

<svg
   version="1.1"
   id="svg2"
   width="361.84253"
   height="345.60187"
   viewBox="0 0 361.84253 345.60187"
   xmlns="http://www.w3.org/2000/svg"
   xmlns:svg="http://www.w3.org/2000/svg">
  <defs
     id="defs6">
    <clipPath
       clipPathUnits="userSpaceOnUse"
       id="clipPath18">
      <path
         d="m 134.4556,210.8637 32.6617,-6.4264 -7.7889,-39.5864 -32.6617,6.4264 z"
         id="path16" />
    </clipPath>
    <clipPath
       clipPathUnits="userSpaceOnUse"
       id="clipPath24">
      <path
         d="M 0,0 H 271.3819 V 259.2014 H 0 Z"
         id="path22" />
    </clipPath>
    <clipPath
       clipPathUnits="userSpaceOnUse"
       id="clipPath34">
      <path
         d="M 36,36 H 235.3819 V 185.2047 H 36 Z"
         id="path32" />
    </clipPath>
    <clipPath
       clipPathUnits="userSpaceOnUse"
       id="clipPath44">
      <path
         d="m 184.8696,105.7199 h 36.25265 v 31.94856 H 184.8696 Z"
         id="path42" />
    </clipPath>
    <clipPath
       clipPathUnits="userSpaceOnUse"
       id="clipPath54">
      <path
         d="m 146.0074,109.8567 h 31.92513 v 53.62825 H 146.0074 Z"
         id="path52" />
    </clipPath>
    <clipPath
       clipPathUnits="userSpaceOnUse"
       id="clipPath64">
      <path
         d="m 89.14941,65.45728 h 42.96919 v 63.34095 H 89.14941 Z"
         id="path62" />
    </clipPath>
    <clipPath
       clipPathUnits="userSpaceOnUse"
       id="clipPath74">
      <path
         d="m 61.4093,58.89254 h 39.17162 v 61.06414 H 61.4093 Z"
         id="path72" />
    </clipPath>
    <clipPath
       clipPathUnits="userSpaceOnUse"
       id="clipPath84">
      <path
         d="m 72.70727,121.9884 h 30.75582 v 41.15749 H 72.70727 Z"
         id="path82" />
    </clipPath>
    <clipPath
       clipPathUnits="userSpaceOnUse"
       id="clipPath94">
      <path
         d="m 103.28,118.1389 h 44.55067 v 48.85644 H 103.28 Z"
         id="path92" />
    </clipPath>
    <clipPath
       clipPathUnits="userSpaceOnUse"
       id="clipPath104">
      <path
         d="m 138.0398,53.41976 h 44.55067 V 102.2762 H 138.0398 Z"
         id="path102" />
    </clipPath>
    <clipPath
       clipPathUnits="userSpaceOnUse"
       id="clipPath114">
      <path
         d="m 97.281,44.40406 h 36.25265 V 76.35262 H 97.281 Z"
         id="path112" />
    </clipPath>
    <clipPath
       clipPathUnits="userSpaceOnUse"
       id="clipPath124">
      <path
         d="M 62.3415,48.15042 H 97.78715 V 72.57721 H 62.3415 Z"
         id="path122" />
    </clipPath>
    <clipPath
       clipPathUnits="userSpaceOnUse"
       id="clipPath136">
      <path
         d="m 123.385,36.90631 h 110.8514 v 89.91786 H 123.385 Z"
         id="path134" />
    </clipPath>
    <clipPath
       clipPathUnits="userSpaceOnUse"
       id="clipPath146">
      <path
         d="m 64.04456,138.3913 h 123.4279 v 53.48934 H 64.04456 Z"
         id="path144" />
    </clipPath>
    <clipPath
       clipPathUnits="userSpaceOnUse"
       id="clipPath156">
      <path
         d="m 116.7007,162.1372 h 15.32269 v 61.06414 H 116.7007 Z"
         id="path154" />
    </clipPath>
    <clipPath
       clipPathUnits="userSpaceOnUse"
       id="clipPath166">
      <path
         d="m 47.72217,88.16214 h 44.72485 v 59.78258 H 47.72217 Z"
         id="path164" />
    </clipPath>
    <clipPath
       clipPathUnits="userSpaceOnUse"
       id="clipPath176">
      <path
         d="m 166.5956,138.891 h 30.75582 v 41.15749 H 166.5956 Z"
         id="path174" />
    </clipPath>
    <clipPath
       clipPathUnits="userSpaceOnUse"
       id="clipPath186">
      <path
         d="m 180.5904,68.84588 h 30.75582 v 41.15749 H 180.5904 Z"
         id="path184" />
    </clipPath>
  </defs>
  <g
     id="g8"
     transform="matrix(1.3333333,0,0,-1.3333333,0,345.60187)">
    <g
       id="g10" />
    <g
       id="g12">
      <g
         id="g14"
         clip-path="url(#clipPath18)">
        <g
           id="g20"
           clip-path="url(#clipPath24)">
          <path
             d="m 127.841,172.0654 c 3.7134,3.6684 7.029,7.6879 9.9006,12.0026 2.5956,3.9001 4.8235,8.0344 7.6952,11.7493 1.6328,2.1122 3.4761,4.0863 5.7562,5.5612 4.2456,2.7463 9.6149,3.5613 14.7436,2.2378 -8.8581,-3.1461 -15.6074,-9.9424 -18.4358,-18.5641 -0.7191,-2.1918 -1.1506,-4.4708 -2.1854,-6.5548 -1.0233,-2.0608 -2.5856,-3.8564 -4.5802,-5.2404 z"
             style="fill:#a1b789;fill-opacity:1;fill-rule:nonzero;stroke:none"
             id="path26" />
        </g>
      </g>
    </g>
    <g
       id="g28">
      <g
         id="g30"
         clip-path="url(#clipPath34)">
        <path
           d="m 40.2733,88.80032 c -7.92483,24.50098 -1.51824,51.47268 19.85657,67.43368 15.17615,11.3322 35.60602,14.733 54.14143,9.0133 l 20.2028,2.7483 c 6.3223,7.9033 15.6118,13.3668 26.0672,15.331 22.4484,4.2174 44.1734,-7.2136 57.8532,-24.5145 10.4653,-13.2356 16.0656,-29.1948 15.9866,-45.5573 C 231.3843,78.14281 204.2727,48.71006 167.0923,40.21416 153.9328,37.20716 140.629,37.08042 127.7956,37.01189 115.0503,36.94384 102.3635,37.06424 90.5652,40.24758 66.22095,46.816 47.96867,65.00868 40.2733,88.80032 Z"
           style="fill:#cb2511;fill-opacity:1;fill-rule:nonzero;stroke:none"
           id="path36" />
      </g>
    </g>
    <g
       id="g38">
      <g
         id="g40"
         clip-path="url(#clipPath44)">
        <path
           d="m 197.1984,133.854 c 1.3363,5.8239 11.8015,1.6114 8.7496,-3.6186 -2.6255,-4.4992 -28.6275,-2.3222 -17.1835,-9.1506 2.0146,-1.2022 4.1656,0.6533 6.3103,1.5406 12.4783,5.1627 20.3679,-12.7927 5.9914,-14.033 -4.6553,-0.4017 -8.6397,2.6074 -7.4185,5.935 -0.6708,4.2669 9.2239,4.8475 9.6603,0.5602 0.146,-1.4344 -1.5566,-2.481 -1.9265,-3.8248 -2.7327,-9.9269 23.1307,-1.5294 15.3099,5.664 -4.5529,4.1877 -22.7133,0.8221 -16.3402,9.4088 3.3828,4.5578 22.7791,-10.1528 19.3711,1.633 -0.623,2.1546 -4.0844,2.497 -7.2019,2.0712 -3.1683,-0.4327 -6.4548,-0.9808 -9.5403,-0.7983 -3.3706,0.1993 -6.3655,2.0679 -5.7817,4.6125 z"
           style="fill:#8f1b0f;fill-opacity:1;fill-rule:nonzero;stroke:none"
           id="path46" />
      </g>
    </g>
    <g
       id="g48">
      <g
         id="g50"
         clip-path="url(#clipPath54)">
        <path
           d="m 172.8751,110.9979 c -1.8521,-0.5912 -3.8491,0.6978 -5.24,3.4201 -6.2985,12.3273 2.0768,30.0833 9.2975,22.2131 -0.009,-1.8802 -1.5269,-3.018 -3.0359,-3.0927 -1.2257,-0.0606 -2.3504,1.1811 -3.0989,2.725 -5.0239,10.363 -11.0323,28.0383 -14.0366,17.8119 -1.0686,-3.6374 1.4524,-8.4738 6.0572,-8.8652 4.0043,-0.3404 7.4748,2.738 8.9532,6.9311 4.1827,-3.2805 6.1278,10.8021 1.4346,10.3322 -1.8375,-0.1839 -2.5028,-3.0953 -3.2543,-5.4543 -1.6082,-5.0481 -6.7741,-9.0626 -6.1743,-14.435 0.3546,-3.1764 2.7486,-6.4713 0.6786,-9.1362 -3.7517,-4.8302 -11.4825,1.5372 -15.811,-1.8962 -9.5479,-7.5738 26.0886,-11.4591 18.6669,-2.0352 1.6992,3.6162 5.3336,1.1686 4.8443,-3.5583 -0.4232,-4.0877 -3.5415,-4.4131 -6.3765,-3.5706 -0.9476,0.2815 -1.9769,0.77 -2.1608,2.2823 -0.5389,4.4311 5.4345,2.8214 6.4744,-4.4127 0.4897,-3.4057 1.4417,-6.5748 2.7816,-9.2593 z"
           style="fill:#a42117;fill-opacity:1;fill-rule:nonzero;stroke:none"
           id="path56" />
      </g>
    </g>
    <g
       id="g58">
      <g
         id="g60"
         clip-path="url(#clipPath64)">
        <path
           d="m 105.166,81.5204 c -1.7822,1.67254 -3.8138,2.95269 -5.88228,3.91918 -3.04212,1.42141 -6.21337,2.44378 -7.53218,4.72583 -3.16086,5.46955 4.06042,11.36309 13.85306,9.51502 5.2772,-0.37179 10.5686,0.51997 15.3735,2.59097 8.724,3.7602 3.9079,17.7948 -1.24,13.5357 -3.0568,-2.5291 1.8405,-6.7057 -0.2456,-9.4768 -11.3339,-15.05587 -3.259,21.8941 -12.6728,21.4642 -13.67574,-0.6246 3.8315,-14.4821 1.6704,-20.3644 -1.4244,-3.8771 -6.9588,-5.1346 -9.88069,-2.1555 -8.19885,-3.4806 -5.24867,-15.03698 3.74599,-14.60306 2.6697,0.12879 5.4194,1.0869 7.826,0.45835 18.5852,-4.85411 -39.85598,-25.73014 -12.70839,-24.63075 5.96969,0.24176 2.99069,5.03752 6.68059,7.54614 3.3128,2.2522 9.8423,2.17937 13.0242,-0.09745 -2.2921,-2.69061 -6.9288,-1.37556 -7.2304,2.05069 -0.7677,8.72123 26.2016,-2.27076 20.3357,10.90961 -1.9849,4.45975 -8.1746,1.01904 -13.4246,-2.87424 -3.292,-2.44124 -7.609,-3.37098 -11.6925,-2.51349 z"
           style="fill:#a42117;fill-opacity:1;fill-rule:nonzero;stroke:none"
           id="path66" />
      </g>
    </g>
    <g
       id="g68">
      <g
         id="g70"
         clip-path="url(#clipPath74)">
        <path
           d="m 85.95626,104.4527 c 1.61699,-1.6105 3.46028,-2.8431 5.33703,-3.7737 2.76014,-1.3687 5.63744,-2.35313 6.834,-4.55047 2.86791,-5.26653 -3.68404,-10.94134 -12.56898,-9.16185 -4.788,0.358 -9.589,-0.50069 -13.94843,-2.49477 -7.91541,-3.62063 -3.54571,-17.13431 1.12499,-13.03331 2.77347,2.43518 -1.66988,6.4568 0.22285,9.12508 10.28335,14.497 2.9569,-21.08152 11.49809,-20.66756 12.40813,0.60139 -3.47626,13.94455 -1.5155,19.60855 1.29234,3.73316 6.31371,4.94405 8.9648,2.07547 7.43886,3.35138 4.76215,14.47885 -3.39875,14.06105 -2.42222,-0.12401 -4.91706,-1.04656 -7.10056,-0.44134 -16.86252,4.67394 36.1615,24.77515 11.53036,23.71655 -5.4163,-0.2328 -2.71348,-4.8506 -6.06135,-7.2661 -3.00567,-2.1686 -8.92993,-2.0985 -11.81692,0.0939 2.07966,2.5907 6.28654,1.3245 6.56019,-1.9746 0.69654,-8.3975 -23.77288,2.1865 -18.45068,-10.50469 1.80084,-4.29422 7.41678,-0.98122 12.18017,2.76759 2.98684,2.3506 6.90369,3.2458 10.60869,2.4202 z"
           style="fill:#a42117;fill-opacity:1;fill-rule:nonzero;stroke:none"
           id="path76" />
      </g>
    </g>
    <g
       id="g78">
      <g
         id="g80"
         clip-path="url(#clipPath84)">
        <path
           d="m 89.13673,161.9469 c 6.35225,-2.1649 -1.01292,-10.3411 2.84356,-13.5671 1.40272,-1.1734 3.65059,-1.0463 4.92765,-2.3587 2.43779,-2.5053 -0.74414,-6.0504 0.16059,-9.0305 0.96864,-3.1906 6.53597,-5.6083 3.93367,-8.738 -1.05991,-1.2748 -3.08514,-1.0912 -4.52059,-1.9192 -1.22039,-0.7039 -1.87067,-2.0216 -1.65078,-3.345 2.47853,2.224 1.25995,6.3948 -2.00604,6.8661 -4.18129,0.6033 -9.62437,-10.94 -13.14494,-3.895 -4.04243,8.0893 9.96548,4.2595 12.27162,8.0254 0.91672,1.497 0.58192,3.4594 -0.77645,4.5511 -1.18623,3.3567 0.07032,6.8465 2.84079,8.6293 1.06364,0.6844 2.32699,0.834 3.53368,1.1061 1.20631,0.272 2.35526,0.6659 3.19571,1.8322 6.6903,9.2847 -7.74819,12.7709 -16.08922,2.0222 -4.21686,-5.4341 -9.933,-7.036 -10.87262,-1.6467 -0.75274,4.3175 4.25253,5.0525 7.37263,6.9407 2.83252,1.7141 4.67841,5.6525 7.98074,4.5271 z"
           style="fill:#a42117;fill-opacity:1;fill-rule:nonzero;stroke:none"
           id="path86" />
      </g>
    </g>
    <g
       id="g88">
      <g
         id="g90"
         clip-path="url(#clipPath94)">
        <path
           d="m 135.6167,119.1389 c -5.177,0.3329 -9.6748,2.9161 -11.6337,6.6814 -5.8021,11.153 8.9495,22.0614 22.8477,16.8953 -2.4073,-1.722 -5.3393,-2.716 -8.3904,-2.8446 -19.5182,-0.8221 -23.286,23.4404 -7.9664,25.9101 6.8187,1.0992 12.3405,-5.0351 9.8639,-10.9582 0.79,-7.8417 -12.1527,-8.8839 -12.8446,-1.0344 -0.2332,2.6465 2.2073,4.546 2.5615,7.062 1.9904,14.1382 -34.64136,-4.7345 -20.3565,-10.4577 0.1279,17.6123 40.7574,-14.8746 21.7265,-17.3722 -10.0085,-1.3135 -33.00276,7.1094 -25.7564,-3.015 2.0852,-2.9135 6.4715,-1.2498 10.3389,-0.3908 4.0787,0.9058 8.3418,0.0539 11.922,-1.9595 3.5215,-1.9803 6.2255,-4.9758 7.6875,-8.5164 z"
           style="fill:#8f1b0f;fill-opacity:1;fill-rule:nonzero;stroke:none"
           id="path96" />
      </g>
    </g>
    <g
       id="g98">
      <g
         id="g100"
         clip-path="url(#clipPath104)">
        <path
           d="m 170.3764,54.41976 c -5.1769,0.33289 -9.6748,2.91607 -11.6336,6.68138 -5.8021,11.15301 8.9494,22.06147 22.8477,16.89534 -2.4074,-1.72201 -5.3394,-2.71604 -8.3904,-2.84456 -19.5183,-0.82215 -23.286,23.4404 -7.9664,25.90998 6.8187,1.0993 12.3404,-5.03503 9.8638,-10.95812 0.79,-7.8417 -12.1527,-8.88387 -12.8445,-1.03439 -0.2333,2.64647 2.2073,4.54596 2.5615,7.06195 1.9904,14.13826 -34.6414,-4.73441 -20.3565,-10.4577 0.1278,17.61236 40.7574,-14.87451 21.7264,-17.37218 -10.0084,-1.31353 -33.0027,7.10944 -25.7564,-3.01501 2.0853,-2.91351 6.4715,-1.24977 10.339,-0.3908 4.0787,0.90588 8.3418,0.05389 11.922,-1.95944 3.5215,-1.9803 6.2255,-4.97587 7.6874,-8.51645 z"
           style="fill:#8f1b0f;fill-opacity:1;fill-rule:nonzero;stroke:none"
           id="path106" />
      </g>
    </g>
    <g
       id="g108">
      <g
         id="g110"
         clip-path="url(#clipPath114)">
        <path
           d="m 109.6098,72.53823 c 1.3362,5.82384 11.8015,1.61137 8.7495,-3.61867 -2.6255,-4.49919 -28.62745,-2.32213 -17.1835,-9.1506 2.0147,-1.20211 4.1656,0.6533 6.3103,1.54062 12.4784,5.16269 20.3679,-12.79271 5.9915,-14.03301 -4.6553,-0.40162 -8.6397,2.60746 -7.4185,5.93501 -0.6709,4.26694 9.2239,4.84755 9.6602,0.56023 0.146,-1.43439 -1.5565,-2.48104 -1.9264,-3.82479 -2.7328,-9.92693 23.1307,-1.5294 15.3099,5.66395 -4.5529,4.18768 -22.7134,0.82216 -16.3402,9.40886 3.3828,4.55779 22.7791,-10.1528 19.3711,1.63295 -0.623,2.15458 -4.0844,2.49702 -7.2019,2.07124 -3.1683,-0.43273 -6.4548,-0.98078 -9.5404,-0.79834 -3.3706,0.19929 -6.3654,2.06792 -5.7816,4.61255 z"
           style="fill:#8f1b0f;fill-opacity:1;fill-rule:nonzero;stroke:none"
           id="path116" />
      </g>
    </g>
    <g
       id="g118">
      <g
         id="g120"
         clip-path="url(#clipPath124)">
        <path
           d="m 63.76172,71.23427 7.39497,-11.469 13.90921,-8.47331 11.54763,-1.64654 c -6.63028,2.45477 -12.90767,5.67011 -18.68754,9.57194 -5.1859,3.50085 -9.93677,7.53147 -14.16427,12.01691 z"
           style="fill:#5e120c;fill-opacity:1;fill-rule:nonzero;stroke:none"
           id="path126" />
        <path
           d="m 68.64782,66.1734 c -0.12848,0.1064 -0.66143,0.58645 -0.65763,0.60133 0.19597,-0.18277 0.62715,-0.55931 0.65763,-0.60133 0,0 0,0 0,0 z m 1.07893,-0.95823 c -0.20345,0.16406 -0.63042,0.54629 -0.76048,0.67279 0.22571,-0.20439 0.69632,-0.60279 0.76048,-0.67279 0,0 0,0 0,0 z m -1.62696,1.49702 c -0.28134,0.26099 -0.80672,0.73742 -0.92568,0.86434 0.27709,-0.26498 0.80469,-0.73913 0.92568,-0.86434 0,0 0,0 0,0 z m 16.3915,-11.98033 c -0.14972,0.07493 -0.77978,0.42337 -0.77313,0.43518 0.22681,-0.13062 0.73379,-0.40104 0.77313,-0.43518 0,0 0,0 0,0 z m -3.4593,2.04226 c -0.22796,0.12792 -0.71166,0.43543 -0.86115,0.5383 0.25668,-0.16399 0.78637,-0.47977 0.86115,-0.5383 0,0 0,0 0,0 z m -1.97322,1.23511 c -0.45548,0.29681 -0.93788,0.61812 -0.84025,0.56869 0.1387,-0.10541 0.80002,-0.52416 0.84025,-0.56869 0,0 0,0 0,0 z m -10.25314,8.7935 c 0.424,-0.38944 0.74436,-0.65777 1.03704,-0.91398 1.46925,-1.28529 -0.76897,0.64175 -1.03704,0.91398 0,0 0,0 0,0 z m 6.86757,-6.43059 c 0.32085,-0.2305 0.57661,-0.41408 0.72833,-0.52935 -0.29924,0.21105 -0.71879,0.50501 -0.72833,0.52935 0,0 0,0 0,0 z m -2.70994,2.04643 c -0.07374,0.04772 -1.6454,1.30274 -2.48916,2.02768 0.72382,-0.60778 2.5629,-2.07541 2.48916,-2.02768 0,0 0,0 0,0 z m -0.60554,1.36205 c 1.00029,-0.8193 2.65189,-2.06922 3.41194,-2.62755 0.75419,-0.55407 -1.37027,0.95723 -3.23015,2.45006 -1.86512,1.49785 -0.31256,0.28079 -1.05936,0.90616 -0.74083,0.62127 0.72418,-0.58454 1.47927,-1.19092 0.74943,-0.6019 -0.50564,0.39727 -0.6017,0.46225 0,0 0,0 0,0 z m -0.015,0.07342 c -0.36556,0.29416 -0.67572,0.55303 -0.87652,0.72884 0.37471,-0.30499 0.73578,-0.59288 0.87652,-0.72884 0,0 0,0 0,0 z m -8.48758,7.10318 c 0.19889,-0.06083 0.90255,-0.94975 1.63745,-1.94427 0.18111,-0.24828 0.36212,-0.4964 0.54852,-0.75189 1.27115,-1.86311 2.52598,-3.75329 3.76802,-5.65222 0.24541,-0.37629 0.49081,-0.75255 0.74361,-1.14018 0.30268,-0.46233 0.60527,-0.92621 0.908,-1.39148 0.71782,-0.43322 1.43675,-0.86882 2.15752,-1.30608 0.39679,-0.24097 0.79357,-0.48194 1.20236,-0.7302 1.44418,-0.85937 2.80628,-1.7103 4.21674,-2.56726 0.70501,-0.42873 1.4247,-0.86036 2.1681,-1.29207 0.37171,-0.21512 1.94381,-1.1766 2.49649,-1.52688 -0.38012,0.25551 0.85155,-0.49517 1.52675,-0.90885 0.30528,-0.04432 0.51291,-0.07497 0.47498,-0.06974 0.33158,-0.05771 0.67879,-0.11373 1.02731,-0.16604 0.34836,-0.05293 -0.09516,0.0057 -0.53832,0.06568 0.39035,-0.06152 0.7818,-0.11994 1.18101,-0.17752 0.41921,-0.05891 0.8384,-0.11782 1.27029,-0.17852 1.40801,-0.18903 2.91758,-0.4134 4.21985,-0.61277 0.94408,-0.13392 2.32363,-0.33099 3.80927,-0.54383 -4.19199,0.66547 -8.75504,2.86753 -7.5511,2.29997 1.84901,-0.87033 0.90618,-0.40575 0.41141,-0.17146 -0.29048,0.13701 -0.67889,0.32275 -1.11117,0.53439 0.01086,-0.01102 0.04167,-0.03104 0.10619,-0.06517 -0.82222,0.39409 -1.97625,0.95567 -3.07373,1.55809 0.2067,-0.10737 0.47076,-0.24653 0.57077,-0.29095 -0.56126,0.29354 -0.10992,0.07267 -0.47393,0.27151 -1.01948,0.54696 -1.50238,0.81562 -0.32413,0.18069 -1.08947,0.60038 -1.76955,1.00717 -2.81787,1.64373 -0.40189,0.23273 -0.1821,0.10548 -0.06683,0.02951 -0.70464,0.40509 -2.28842,1.38691 -2.43922,1.47389 -0.15149,0.0859 4.34012,-2.58181 3.52699,-2.13085 -0.3303,0.18325 -1.00719,0.57917 -1.26607,0.72605 0.56777,-0.33754 1.27432,-0.7408 1.63893,-0.95228 -0.4004,0.22196 -0.96094,0.54398 -1.27016,0.72003 0.38252,-0.22333 0.6466,-0.37617 0.75764,-0.44546 -0.56198,0.31985 -0.98402,0.56219 -1.64319,0.95897 -0.29025,0.17931 0.25353,-0.14144 -0.36687,0.2348 -0.10799,0.0738 0.41151,-0.24502 0.37748,-0.21709 -0.5021,0.3056 -1.49479,0.92016 -1.73817,1.0778 -0.23657,0.15486 0.60215,-0.37715 0.62301,-0.38478 -1.92625,1.2002 -4.05832,2.68183 -4.71075,3.15312 -0.65875,0.47502 -0.04021,0.0319 0.24213,-0.16459 -0.76681,0.55072 -1.34005,0.96825 -2.22798,1.64524 -0.56831,0.43419 -0.34004,0.26403 -0.12344,0.10288 -0.15005,0.11607 -0.28224,0.21936 -0.36807,0.28719 -0.06273,0.05002 -0.22337,0.17603 -0.33103,0.26319 0.34656,-0.2668 0.99466,-0.76439 1.28361,-0.97529 -0.52033,0.40122 -1.75792,1.35098 -2.19413,1.71474 0.7088,-0.55915 1.47301,-1.15562 2.28832,-1.75944 -1.58043,1.18946 -3.17172,2.4407 -4.35853,3.48908 0.2165,-0.18266 0.31622,-0.25606 0.49694,-0.40239 -0.46577,0.38309 -1.1477,0.96002 -1.53866,1.32824 -0.22149,0.19849 -0.65586,0.59394 -1.08682,0.99232 0.76117,-0.6922 1.28069,-1.14503 1.82097,-1.61882 -0.0093,0.01145 -0.05706,0.05608 -0.14893,0.13843 1.22938,-1.04125 1.92226,-1.65249 2.81881,-2.37334 0.07012,-0.05465 0.14034,-0.1092 0.21278,-0.16529 0.29947,-0.22005 -0.72854,0.59249 -0.82458,0.68194 1.32528,-1.06813 2.80886,-2.19122 3.49578,-2.67464 -1.63861,1.19874 -3.04135,2.30146 -4.20248,3.28045 0.31119,-0.23945 1.4928,-1.20703 2.07289,-1.64736 -2.60767,2.04432 -2.8181,2.30718 -3.02057,2.48353 0.19383,-0.1639 0.38843,-0.32699 0.58978,-0.49412 -0.04793,0.04352 -0.0958,0.0871 -0.14506,0.13205 -1.10939,0.93643 -2.37272,2.07722 -2.30532,2.02219 0.05044,-0.0414 1.03376,-0.92989 2.10179,-1.83577 -0.10754,0.09903 -0.2148,0.19831 -0.325,0.30086 -1.24266,1.06868 -2.59547,2.33517 -3.77443,3.4647 0.20089,-0.17679 0.10053,-0.08301 -0.13717,0.15941 0.37264,-0.35229 0.90047,-0.85618 1.30652,-1.22633 -0.13477,0.13108 -0.38331,0.36258 -0.45798,0.44135 0.20195,-0.18605 0.51737,-0.48366 0.62416,-0.57049 -0.56368,0.52961 -1.16272,1.10501 -1.7416,1.67932 -0.10923,0.12562 0.25435,-0.24569 0.22924,-0.20943 -0.54918,0.54284 -1.31373,1.30796 -1.69531,1.7208 0.45695,-0.46026 1.34772,-1.36423 1.63618,-1.63679 -0.18103,0.18264 -0.36116,0.36606 -0.54578,0.55587 -0.37165,0.3727 -0.54726,0.55378 -0.12614,0.13894 0.22629,-0.22227 0.22204,-0.21634 0.16679,-0.15944 -0.24935,0.26042 -1.12682,1.15556 -1.08882,1.1422 0.22007,-0.22792 1.10061,-1.12019 1.33466,-1.33452 -0.15954,0.17691 -0.61748,0.62566 -0.65431,0.68038 0.97268,-0.99288 0.94932,-0.94564 1.1912,-1.19331 -0.10993,0.10413 -0.3907,0.38403 -0.38586,0.3684 0.61036,-0.60058 1.23031,-1.19235 1.87927,-1.79219 -0.05173,0.06103 -0.02265,0.04992 0.04004,7.7e-4 -0.27521,0.2552 -0.55883,0.52247 -1.0654,1.00473 0.14836,-0.11612 0.61149,-0.56023 1.04193,-0.96633 -0.0016,0.0053 -0.0032,0.01053 -0.0049,0.01595 -0.7048,0.65135 -1.75454,1.67088 -2.43839,2.37155 0.31763,-0.31357 1.49462,-1.4691 2.31667,-2.23755 -0.02383,0.02681 -0.04765,0.05362 -0.07216,0.08127 1.0315,-0.96651 2.28569,-2.05639 3.50426,-3.08127 -0.57506,0.50829 -1.26888,1.07639 -2.00529,1.73705 -0.3385,0.30397 -0.64453,0.58969 -0.96413,0.89217 -0.92838,0.84454 -3.57178,3.46387 -3.8591,3.77597 -0.31668,0.34369 2.33786,-2.33225 2.357,-2.34352 0.01914,-0.01127 -1.23185,1.22135 -0.64305,0.63978 0.30677,-0.30386 0.98353,-0.96088 1.48181,-1.43036 0.02463,-0.0085 0.04926,-0.01697 0.07464,-0.02569 -0.43626,0.4089 -0.94085,0.90188 -0.9759,0.90704 -0.21051,0.2069 -0.65805,0.63441 -0.71727,0.70754 0.0725,-0.06993 0.17926,-0.17686 0.18288,-0.17318 -0.10214,0.10137 -0.2517,0.24681 -0.26292,0.26613 0.51186,-0.50532 1.23067,-1.19085 1.80393,-1.72742 0.05198,-0.04187 0.104,-0.08367 0.15766,-0.12668 -0.0092,0.01123 -0.45402,0.43196 -0.83197,0.7969 -0.39831,0.3853 0.43543,-0.4087 1.10722,-1.02976 0.11022,-0.09438 0.2207,-0.18848 0.33479,-0.28513 -0.23464,0.21316 -0.50491,0.46197 -0.81921,0.75826 -0.3633,0.34927 -0.34532,0.34733 -0.70407,0.7006 0.67204,-0.63965 1.49679,-1.40195 2.16631,-2.0047 0.25123,-0.21142 0.50372,-0.42143 0.76525,-0.63624 -0.562,0.4964 -1.06975,0.96576 -1.36805,1.24755 -0.24546,0.22223 -0.49966,0.45604 -0.58436,0.54453 0.22956,-0.20738 -0.35798,0.34372 -0.26003,0.26947 0.31139,-0.30911 0.96163,-0.89891 1.18561,-1.12362 0.51318,-0.4631 1.08197,-0.96219 1.59075,-1.39927 0.06616,-0.05448 0.1324,-0.10886 0.20075,-0.16479 -0.43293,0.37057 -0.83943,0.7271 -1.28796,1.1332 0.21664,-0.16824 1.47604,-1.26725 2.40623,-2.04597 1.91514,-1.55905 3.88119,-3.11879 5.92959,-4.53347 0.08408,-0.05758 0.20541,-0.13809 0.33946,-0.22585 0.15193,-0.09707 0.30213,-0.19232 0.45731,-0.29003 -0.48929,0.32878 -0.92836,0.63303 -1.28435,0.88532 1.4525,-0.99363 -2.03572,1.4728 -2.24851,1.64825 2.29171,-1.68025 6.71694,-4.59134 9.57807,-6.16694 -0.68608,0.38337 -0.90445,0.50954 -0.16621,0.10162 0.19992,-0.1104 0.4003,-0.22005 0.60725,-0.3322 -2.90807,1.61103 -5.82099,3.43096 -7.98844,4.98318 1.2982,-0.90673 3.29089,-2.20634 3.85503,-2.53833 -0.39017,0.24405 -0.95486,0.60176 -1.02994,0.65774 0.68385,-0.42466 2.97946,-1.84142 3.67283,-2.2247 -3.35333,1.94041 -7.70571,4.93491 -9.94715,6.71533 3.40852,-2.66996 8.32559,-5.8175 11.55991,-7.61022 -0.56397,0.30581 -0.5716,0.30684 -0.27845,0.13689 1.00208,-0.55712 2.01601,-1.09549 3.07296,-1.62926 0.21459,-0.10397 0.14351,-0.06808 -0.36331,0.19403 -0.41693,0.21581 -0.66075,0.34141 -0.79193,0.41764 0.28322,-0.14367 3.55011,-1.79688 0.95388,-0.4815 -2.5898,1.31214 -6.91099,3.8486 -4.37289,2.38545 2.53809,-1.46314 3.58928,-1.96519 2.18413,-1.19997 -1.41148,0.76864 -5.73526,3.39927 -4.29144,2.51007 1.43771,-0.88542 4.55067,-2.63446 6.35092,-3.55132 1.80668,-0.92013 -1.26419,0.54441 1.42152,-0.75808 2.68571,-1.30249 0.45498,-0.20441 0.97185,-0.4478 0.818,-0.38478 2.33534,-1.07075 3.79726,-1.67448 1.02684,-0.42175 2.36234,-0.93844 3.04005,-1.1824 -0.04505,0.02497 -3.20103,1.25015 -1.95694,0.76305 0.67338,-0.26816 1.36831,-0.53465 2.02847,-0.77903 -2.70108,-0.5188 -4.67006,-0.2369 -3.49252,-0.39057 -2.0283,0.28725 -3.51994,0.50124 -4.78645,0.68509 -1.2731,0.16977 -2.67623,0.36701 -3.58123,0.4943 -0.43243,0.26232 -0.73355,0.44502 -0.81221,0.49106 -0.25944,0.15125 -4.89797,3.02004 -6.67489,4.04284 -0.13114,0.0814 -3.26208,2.00384 -3.52252,2.17987 -1.72621,1.04071 -2.32182,1.39417 -3.07819,1.85024 -0.35258,0.54138 -0.75955,1.17112 -1.5463,2.39584 -1.55078,2.41347 -2.01953,3.15712 -2.28014,3.5637 -1.62982,2.54438 -1.63199,2.5156 -2.37669,3.79678 -0.22507,0.38596 -0.59665,0.96344 -0.69484,1.17883 -0.19595,0.4301 -0.24087,0.66169 -0.06952,0.59951 0,0 0,0 0,0 z m 4.23222,-3.99066 c -0.39233,0.35242 -1.08468,1.00725 -1.48949,1.38777 0.44813,-0.44995 1.02376,-0.98689 1.6203,-1.52308 -0.04322,0.04461 -0.08639,0.08926 -0.13081,0.13531 0,0 0,0 0,0 z m 3.20912,-2.52034 c -0.27209,0.2268 -0.60585,0.49236 -0.90576,0.75285 -0.28512,0.24446 -0.58228,0.49701 -1.00494,0.87942 0.04257,-0.02809 0.75227,-0.6413 1.30783,-1.11415 0.0025,0.0029 0.0049,0.0058 0.0075,0.0089 -0.26634,0.23308 -0.58204,0.50813 -0.95703,0.83547 -0.12789,0.11051 -0.25543,0.22138 -0.38646,0.336 -0.0155,0.0042 0.18127,-0.17613 0.2585,-0.24123 -0.10489,0.07733 -0.43934,0.36354 -0.86471,0.74231 -0.05269,0.04459 -0.10533,0.08925 -0.1595,0.13532 -0.06572,0.04557 0.25107,-0.24903 -0.10567,0.07665 0.24305,-0.23639 0.90582,-0.81555 1.31762,-1.17818 -0.44684,0.42134 1.30201,-1.10062 1.74955,-1.45586 -0.08496,0.07328 -0.16975,0.14672 -0.25693,0.22254 z m 3.20624,-3.13685 c 0.25327,-0.18822 0.50768,-0.37516 0.77103,-0.56634 -0.37765,0.27574 -0.66411,0.49002 -0.92621,0.6879 0.05116,-0.04017 0.10236,-0.08028 0.15518,-0.12156 z M 95.60409,50.17776 c 0.30668,-0.04898 0.66924,-0.10427 1.06215,-0.16272 -2.10562,0.0053 -4.73222,1.10091 -4.92793,1.20225 -0.37662,0.16235 -0.75199,0.32717 -1.13731,0.49967 2.00115,-0.90946 4.16454,-1.78813 5.88023,-2.42885 -0.19272,0.78962 -0.54913,0.84162 -0.87714,0.88965 0,0 0,0 0,0 z m -4.07837,1.94736 c -0.14621,0.06353 -0.08777,0.0346 0.26305,-0.12196 1.86739,-0.83125 2.99492,-1.28378 1.8007,-0.78934 -1.01979,0.42221 -3.21137,1.39792 -2.57265,1.10457 0.85121,-0.38669 1.70938,-0.76057 2.60077,-1.13157 0.6863,-0.27893 1.35933,-0.53429 2.0505,-0.78377 -1.47913,0.57147 -2.87852,1.15791 -4.14237,1.72207 0,0 0,0 0,0 z m 4.97943,-2.01814 c -0.53201,0.19806 -1.16419,0.43862 -1.79916,0.69022 0.54987,-0.22 1.10231,-0.43478 1.67421,-0.65032 0.04122,-0.0132 0.08246,-0.02636 0.12495,-0.0399 z m -0.41296,-0.8017 c 0.15638,-0.02247 0.31277,-0.04488 0.46338,-0.06639 -0.7024,1.1262 -1.38108,1.38583 -0.44199,1.02577 0.21124,-0.08084 0.42285,-0.16091 0.63964,-0.24198 -0.23256,-0.77026 -0.26877,-0.76498 -0.30512,-0.75968 -0.11744,0.01395 -0.23489,0.0279 -0.35591,0.04228 z m -0.71066,0.09351 c 0.01521,0.0024 0.21128,-0.02165 0.59503,-0.07572 -0.78157,0.11275 -2.34435,0.33949 -2.27394,0.31902 0.52088,-0.07622 1.09259,-0.15905 1.67891,-0.2433 0,0 0,0 0,0 z m -1.01609,0.97448 c 0.49985,-0.06932 0.93544,-0.12947 0.14411,-0.01273 -0.30114,0.04423 -0.60227,0.08846 -0.9125,0.13402 0.25353,-0.04002 0.5071,-0.08005 0.76839,-0.12129 z M 75.50462,61.38042 c 0.17477,-0.12943 0.84553,-0.61297 1.23475,-0.89262 0.02113,-0.05828 -1.48927,1.06039 -1.23475,0.89262 0,0 0,0 0,0 z m -2.45174,1.88138 c 0.16373,-0.13082 0.81423,-0.63695 1.1979,-0.93349 0.01847,-0.05942 -1.44537,1.10984 -1.1979,0.93349 0,0 0,0 0,0 z m 4.36384,-7.86607 c 0.0021,-0.0013 0.0041,-0.0025 0.0063,-0.0038 -0.0021,0.0013 -0.0041,0.0025 -0.0063,0.0038 0,0 0,0 0,0 z"
           style="fill:#000000;fill-opacity:1;fill-rule:nonzero;stroke:none"
           id="path128" />
      </g>
    </g>
    <g
       id="g130">
      <g
         id="g132"
         clip-path="url(#clipPath136)">
        <path
           d="M 231.4853,125.8242 C 226.807,91.94033 201.4027,61.44874 163.492,47.42119 c -12.0309,-4.45163 -25.4179,-7.35032 -39.107,-8.57431 17.8142,-2.27926 35.9702,-0.40983 52.7834,5.54041 17.6165,6.23455 32.7095,16.88692 42.9475,30.60673 11.5554,15.48528 15.8715,33.33138 11.3694,50.83018 z"
           style="fill:#b31c0b;fill-opacity:1;fill-rule:nonzero;stroke:none"
           id="path138" />
      </g>
    </g>
    <g
       id="g140">
      <g
         id="g142"
         clip-path="url(#clipPath146)">
        <path
           d="m 92.39321,139.3913 c 2.79879,6.4679 7.81589,11.4268 13.93389,13.7304 3.9105,1.4724 8.0696,1.7575 12.1787,2.301 7.1702,0.9484 14.3188,2.6058 21.5356,1.5041 3.9416,-0.6018 7.854,-1.9768 11.4589,-3.7313 2.5729,-1.2522 5.0487,-2.691 7.4053,-4.3078 l 7.9586,-3.6545 c 0.1134,3.0623 -1.1311,6.0205 -3.4065,8.0968 -2.1075,1.9232 -5.0801,2.9862 -6.3543,5.5754 -2.0533,4.1725 1.0368,8.7862 4.3577,12.4159 2.74,2.9947 5.5721,5.8967 9.055,7.6873 3.1984,1.6443 6.7607,2.2933 9.8574,4.1497 2.4782,1.4855 4.5913,3.629 6.099,6.2696 -5.2735,-2.1517 -10.7988,-3.5652 -16.4264,-4.2021 -5.3586,-0.6065 -10.8517,-0.5235 -15.9544,-2.2873 -5.9313,-2.0503 -10.7472,-6.3635 -16.6301,-8.2188 -8.0924,-2.552 -16.7622,-0.3481 -24.7232,3.1689 -4.7077,2.0798 -9.2061,4.5559 -13.76733,6.9611 -3.93247,2.0737 -7.93554,4.1009 -12.04312,6.0309 0.85962,-3.0298 2.09775,-5.9108 3.67823,-8.5589 2.74749,-4.6034 6.45844,-8.3998 10.81562,-11.0647 -4.21316,-0.3492 -8.38035,-1.1158 -12.43913,-2.2882 -3.78362,-1.0929 -7.49537,-2.534 -11.0244,-4.4636 -4.77659,-2.6117 -9.13821,-6.0692 -12.91371,-10.2368 4.09084,2.1922 8.4691,3.653 12.97282,4.313 3.73337,0.5472 7.5192,0.5503 11.28242,0.8163 3.56995,0.2524 7.11883,0.7413 10.6228,1.4635 -0.62074,-2.4607 -1.77831,-4.7137 -3.3703,-6.5596 -2.0136,-2.3348 -4.70564,-4.0554 -5.75907,-7.0605 -0.95418,-2.7219 -0.3247,-5.8396 1.59998,-7.8498 z"
           style="fill:#65c369;fill-opacity:1;fill-rule:nonzero;stroke:none"
           id="path148" />
      </g>
    </g>
    <g
       id="g150">
      <g
         id="g152"
         clip-path="url(#clipPath156)">
        <path
           d="m 123.4704,167.748 1.4893,21.3415 -7.259,31.3278 7.7174,1.7841 4.8813,-25.5087 0.724,-33.5555 z"
           style="fill:#24792c;fill-opacity:1;fill-rule:nonzero;stroke:none"
           id="path158" />
      </g>
    </g>
    <g
       id="g160">
      <g
         id="g162"
         clip-path="url(#clipPath166)">
        <path
           d="m 89.67545,141.3198 c -5.18435,6.9967 -17.64651,7.0814 -26.0641,2.3748 -14.99204,-8.3826 -17.31084,-25.7929 -12.88485,-40.0334 2.0973,-6.74807 6.66146,-13.77149 15.80704,-14.45234 6.32482,-0.47085 11.87442,2.68525 15.51898,6.374 8.96701,9.07574 7.43648,21.03064 8.97446,33.82634 0.50749,4.2221 0.99381,8.7453 -1.35153,11.9106 z"
           style="fill:#fff2d0;fill-opacity:0.3343;fill-rule:nonzero;stroke:none"
           id="path168" />
      </g>
    </g>
    <g
       id="g170">
      <g
         id="g172"
         clip-path="url(#clipPath176)">
        <path
           d="m 183.025,178.8494 c 6.3523,-2.1648 -1.0129,-10.341 2.8436,-13.567 1.4027,-1.1735 3.6506,-1.0463 4.9276,-2.3587 2.4378,-2.5053 -0.7441,-6.0504 0.1606,-9.0305 0.9687,-3.1907 6.536,-5.6083 3.9337,-8.738 -1.0599,-1.2748 -3.0851,-1.0912 -4.5206,-1.9192 -1.2204,-0.7039 -1.8707,-2.0216 -1.6508,-3.345 2.4786,2.224 1.26,6.3948 -2.006,6.8661 -4.1813,0.6033 -9.6244,-10.94 -13.1449,-3.895 -4.0425,8.0893 9.9654,4.2594 12.2716,8.0254 0.9167,1.497 0.5819,3.4594 -0.7765,4.5511 -1.1862,3.3566 0.0703,6.8465 2.8408,8.6293 1.0637,0.6844 2.327,0.834 3.5337,1.1061 1.2063,0.272 2.3553,0.6659 3.1957,1.8322 6.6903,9.2846 -7.7482,12.7709 -16.0892,2.0222 -4.2169,-5.4341 -9.933,-7.0361 -10.8726,-1.6467 -0.7528,4.3175 4.2525,5.0525 7.3726,6.9407 2.8325,1.7141 4.6784,5.6525 7.9807,4.527 z"
           style="fill:#a42117;fill-opacity:1;fill-rule:nonzero;stroke:none"
           id="path178" />
      </g>
    </g>
    <g
       id="g180">
      <g
         id="g182"
         clip-path="url(#clipPath186)">
        <path
           d="m 197.0199,108.8043 c 6.3523,-2.1648 -1.0129,-10.34102 2.8436,-13.56705 1.4027,-1.17342 3.6506,-1.04622 4.9276,-2.35866 2.4378,-2.50534 -0.7441,-6.05038 0.1606,-9.0305 0.9687,-3.19065 6.5359,-5.60834 3.9337,-8.73804 -1.0599,-1.27472 -3.0852,-1.09119 -4.5206,-1.91916 -1.2204,-0.70392 -1.8707,-2.02161 -1.6508,-3.34501 2.4785,2.22397 1.26,6.39482 -2.006,6.86609 -4.1813,0.60335 -9.6244,-10.94001 -13.145,-3.89497 -4.0424,8.08931 9.9655,4.25944 12.2716,8.02539 0.9168,1.49701 0.582,3.45942 -0.7764,4.55109 -1.1862,3.35666 0.0703,6.8465 2.8408,8.62928 1.0636,0.68445 2.327,0.83406 3.5337,1.10614 1.2063,0.272 2.3552,0.66588 3.1957,1.8322 6.6903,9.2846 -7.7482,12.7709 -16.0892,2.02217 -4.2169,-5.43407 -9.933,-7.03604 -10.8727,-1.64668 -0.7527,4.31751 4.2526,5.05251 7.3727,6.94071 2.8325,1.7141 4.6784,5.6525 7.9807,4.527 z"
           style="fill:#a42117;fill-opacity:1;fill-rule:nonzero;stroke:none"
           id="path188" />
      </g>
    </g>
  </g>
</svg>
