<?xml version="1.0" encoding="UTF-8" standalone="no"?>
<svg
   xmlns:dc="http://purl.org/dc/elements/1.1/"
   xmlns:cc="http://creativecommons.org/ns#"
   xmlns:rdf="http://www.w3.org/1999/02/22-rdf-syntax-ns#"
   xmlns:svg="http://www.w3.org/2000/svg"
   xmlns="http://www.w3.org/2000/svg"
   viewBox="0 0 346.70212 331.54559"
   height="331.54559"
   width="346.70212"
   xml:space="preserve"
   id="svg2"
   version="1.1"><metadata
     id="metadata8"><rdf:RDF><cc:Work
         rdf:about=""><dc:format>image/svg+xml</dc:format><dc:type
           rdf:resource="http://purl.org/dc/dcmitype/StillImage" /></cc:Work></rdf:RDF></metadata><defs
     id="defs6"><clipPath
       id="clipPath20"
       clipPathUnits="userSpaceOnUse"><path
         id="path18"
         d="M 36,36 H 224.0266 V 156.4266 H 36 Z" /></clipPath><clipPath
       id="clipPath30"
       clipPathUnits="userSpaceOnUse"><path
         id="path28"
         d="m 150.7915,190.9391 23.6112,-13.3583 -17.8789,-31.6016 -23.6112,13.3582 z" /></clipPath><clipPath
       id="clipPath36"
       clipPathUnits="userSpaceOnUse"><path
         id="path34"
         d="M 0,0 H 260.0266 V 248.6592 H 0 Z" /></clipPath><clipPath
       id="clipPath46"
       clipPathUnits="userSpaceOnUse"><path
         id="path44"
         d="m 173.9027,109.9059 h 34.72231 v 30.39089 H 173.9027 Z" /></clipPath><clipPath
       id="clipPath56"
       clipPathUnits="userSpaceOnUse"><path
         id="path54"
         d="m 140.8649,106.3322 h 30.58814 v 50.94299 H 140.8649 Z" /></clipPath><clipPath
       id="clipPath66"
       clipPathUnits="userSpaceOnUse"><path
         id="path64"
         d="m 86.54712,64.24205 h 41.13878 v 60.15052 H 86.54712 Z" /></clipPath><clipPath
       id="clipPath76"
       clipPathUnits="userSpaceOnUse"><path
         id="path74"
         d="m 60.04626,58.01873 h 37.51087 v 57.99213 H 60.04626 Z" /></clipPath><clipPath
       id="clipPath86"
       clipPathUnits="userSpaceOnUse"><path
         id="path84"
         d="m 70.83948,117.8329 h 29.47107 v 39.12085 H 70.83948 Z" /></clipPath><clipPath
       id="clipPath96"
       clipPathUnits="userSpaceOnUse"><path
         id="path94"
         d="m 100.0464,114.1836 h 42.6496 v 46.41936 h -42.6496 z" /></clipPath><clipPath
       id="clipPath106"
       clipPathUnits="userSpaceOnUse"><path
         id="path104"
         d="m 133.2532,52.83063 h 42.6496 v 46.41936 h -42.6496 z" /></clipPath><clipPath
       id="clipPath116"
       clipPathUnits="userSpaceOnUse"><path
         id="path114"
         d="m 94.31531,44.28385 h 34.72231 V 74.67474 H 94.31531 Z" /></clipPath><clipPath
       id="clipPath126"
       clipPathUnits="userSpaceOnUse"><path
         id="path124"
         d="m 60.91899,47.80951 h 33.97577 v 23.3054 H 60.91899 Z" /></clipPath><clipPath
       id="clipPath138"
       clipPathUnits="userSpaceOnUse"><path
         id="path136"
         d="m 138.6067,36.78268 h 85.23337 v 87.59151 H 138.6067 Z" /></clipPath><clipPath
       id="clipPath148"
       clipPathUnits="userSpaceOnUse"><path
         id="path146"
         d="M 70.71886,185.6708 192.8926,172.3378 187.3802,121.8263 65.20647,135.1592 Z" /></clipPath><clipPath
       id="clipPath154"
       clipPathUnits="userSpaceOnUse"><path
         id="path152"
         d="M 0,0 H 260.0266 V 248.6592 H 0 Z" /></clipPath><clipPath
       id="clipPath164"
       clipPathUnits="userSpaceOnUse"><path
         id="path162"
         d="m 118.7377,151.595 h 15.32269 v 61.06414 H 118.7377 Z" /></clipPath><clipPath
       id="clipPath174"
       clipPathUnits="userSpaceOnUse"><path
         id="path172"
         d="m 43.19653,82.9688 h 42.81599 v 56.77722 H 43.19653 Z" /></clipPath><clipPath
       id="clipPath184"
       clipPathUnits="userSpaceOnUse"><path
         id="path182"
         d="m 173.429,72.23397 h 29.47107 v 41.64597 H 173.429 Z" /></clipPath></defs><g
     transform="matrix(1.3333333,0,0,-1.3333333,0,331.5456)"
     id="g10"><g
       id="g12" /><g
       id="g14"><g
         clip-path="url(#clipPath20)"
         id="g16"><path
           id="path22"
           style="fill:#cb2511;fill-opacity:1;fill-rule:nonzero;stroke:none"
           d="M 61.71424,148.3032 C 44.50891,138.3353 36.69411,121.6343 37.00915,104.591 37.68991,67.76193 73.09242,37.88628 114.0916,37.38296 c 6.5125,-0.07995 13.0476,-0.0628 19.5535,-0.30838 48.414,-1.82753 93.74,30.15646 89.0461,71.32752 -1.9583,17.1766 -13.8256,32.716 -33.7243,40.2307 -17.4111,6.5752 -37.5898,5.9882 -56.8657,3.7009 -3.218,-0.3818 -6.4264,-0.8087 -9.6234,-1.2813 l -27.55455,3.8283 c -11.7603,1.7426 -23.15004,-0.7499 -33.20901,-6.5775 z" /></g></g><g
       id="g24"><g
         clip-path="url(#clipPath30)"
         id="g26"><g
           clip-path="url(#clipPath36)"
           id="g32"><path
             id="path38"
             style="fill:#a1b789;fill-opacity:1;fill-rule:nonzero;stroke:none"
             d="m 134.2754,159.7154 c 4.3383,1.9328 8.4046,4.3084 12.1372,7.0895 3.3736,2.5136 6.4691,5.3564 10.0824,7.5644 2.0542,1.2553 4.2656,2.2776 6.6767,2.9192 2.6833,0.714 5.5443,0.9569 8.3959,0.7474 -2.27,-1.6092 -4.4196,-3.3565 -6.4398,-5.2273 -1.976,-1.83 -3.8584,-3.8055 -5.2365,-6.1575 -1.2309,-2.1008 -2.0191,-4.4908 -1.6312,-6.8932 0.2746,-1.7004 1.1329,-3.2521 2.4275,-4.3882 z" /></g></g></g><g
       id="g40"><g
         clip-path="url(#clipPath46)"
         id="g42"><path
           id="path48"
           style="fill:#8f1b0f;fill-opacity:1;fill-rule:nonzero;stroke:none"
           d="m 185.7254,136.6287 c 1.2765,5.521 11.2742,1.5276 8.3586,-3.4304 -2.5082,-4.2652 -27.3485,-2.2014 -16.4158,-8.6747 1.9247,-1.1396 3.9795,0.6193 6.0284,1.4605 11.9209,4.8942 19.4579,-12.1273 5.7238,-13.3031 -4.4473,-0.3808 -8.2537,2.4718 -7.0871,5.6263 -0.6409,4.045 8.8118,4.5954 9.2286,0.5311 0.1395,-1.3598 -1.4869,-2.352 -1.8403,-3.6259 -2.6107,-9.4106 22.0972,-1.4498 14.6259,5.3694 -4.3496,3.9699 -21.6986,0.7794 -15.6102,8.9195 3.2317,4.3207 21.7614,-9.6248 18.5056,1.548 -0.5951,2.0425 -3.9019,2.3671 -6.8801,1.9635 -3.0267,-0.4102 -6.1664,-0.9298 -9.1141,-0.7568 -3.22,0.1889 -6.0811,1.9604 -5.5233,4.3726 z" /></g></g><g
       id="g50"><g
         clip-path="url(#clipPath56)"
         id="g52"><path
           id="path58"
           style="fill:#a42117;fill-opacity:1;fill-rule:nonzero;stroke:none"
           d="m 166.5768,107.4661 c -1.7693,-0.5605 -3.6771,0.6615 -5.0059,3.2422 -6.017,11.6861 1.984,28.5186 8.8821,21.0578 -0.008,-1.7824 -1.4587,-2.8611 -2.9002,-2.9318 -1.1709,-0.0575 -2.2454,1.1196 -2.9604,2.5832 -4.7996,9.824 -10.5395,26.5799 -13.4096,16.8854 -1.0208,-3.4482 1.3876,-8.033 5.7866,-8.4041 3.8254,-0.3227 7.1408,2.5956 8.5532,6.5707 3.9959,-3.1099 5.854,10.2402 1.3705,9.7948 -1.7554,-0.1744 -2.391,-2.9344 -3.1089,-5.1706 -1.5363,-4.7856 -6.4714,-8.5913 -5.8984,-13.6842 0.3388,-3.0113 2.6258,-6.1348 0.6483,-8.6611 -3.5842,-4.5789 -10.9696,1.4573 -15.1046,-1.7976 -9.1214,-7.1799 24.9229,-10.863 17.8328,-1.9293 1.6233,3.4281 5.0954,1.1078 4.6279,-3.3733 -0.4043,-3.875 -3.3833,-4.1835 -6.0916,-3.3849 -0.9053,0.267 -1.8886,0.7301 -2.0643,2.1636 -0.5148,4.2007 5.1917,2.6747 6.1852,-4.1831 0.4678,-3.2286 1.3772,-6.2328 2.6573,-8.7777 z" /></g></g><g
       id="g60"><g
         clip-path="url(#clipPath66)"
         id="g62"><path
           id="path68"
           style="fill:#a42117;fill-opacity:1;fill-rule:nonzero;stroke:none"
           d="m 101.8928,79.52172 c -1.7026,1.58555 -3.64339,2.79911 -5.61947,3.71533 -2.9062,1.34749 -5.93577,2.31668 -7.19565,4.48004 -3.01965,5.18506 3.879,10.77209 13.23412,9.02013 5.0414,-0.35246 10.0965,0.49294 14.6866,2.45618 8.3343,3.5646 3.7334,16.8693 -1.1845,12.8317 -2.9203,-2.3975 1.7582,-6.3569 -0.2347,-8.9839 -10.8275,-14.27278 -3.1133,20.7554 -12.1065,20.3478 -13.06482,-0.592 3.6602,-13.7288 1.5957,-19.3052 -1.3608,-3.6754 -6.64788,-4.86757 -9.43926,-2.0434 -7.83253,-3.2995 -5.01417,-14.25485 3.57861,-13.8435 2.55045,0.12209 5.17725,1.03036 7.47635,0.43451 17.7549,-4.60165 -38.07527,-24.39189 -12.14058,-23.34967 5.70298,0.22918 2.85709,4.77551 6.38208,7.15365 3.1648,2.13506 9.4026,2.06602 12.4423,-0.09238 -2.1897,-2.55067 -6.6192,-1.30402 -6.9073,1.94402 -0.7334,8.26764 25.0309,-2.15265 19.4271,10.34219 -1.8962,4.2278 -7.8093,0.96604 -12.8248,-2.72474 -3.1449,-2.31427 -7.269,-3.19565 -11.1701,-2.38276 z" /></g></g><g
       id="g70"><g
         clip-path="url(#clipPath76)"
         id="g72"><path
           id="path78"
           style="fill:#a42117;fill-opacity:1;fill-rule:nonzero;stroke:none"
           d="m 83.54119,101.2612 c 1.54475,-1.52668 3.30568,-2.6952 5.09859,-3.57742 2.63682,-1.29747 5.38557,-2.23069 6.52867,-4.31375 C 97.90819,88.37742 91.649,82.99777 83.16103,84.6847 78.58694,85.02408 74.00044,84.21006 69.83578,82.31969 62.27402,78.88737 66.44849,66.07656 70.91051,69.96426 c 2.64955,2.30852 -1.59527,6.12097 0.21289,8.65047 9.82391,13.74299 2.82479,-19.98504 10.98438,-19.5926 11.85376,0.57011 -3.32095,13.21927 -1.44778,18.58868 1.2346,3.53899 6.03162,4.6869 8.56426,1.96752 7.10651,3.17707 4.54939,13.72578 -3.24689,13.32971 -2.31401,-0.11756 -4.69738,-0.99213 -6.78333,-0.41838 -16.10914,4.43084 34.54596,23.48654 11.01521,22.48294 -5.17431,-0.2206 -2.59225,-4.5982 -5.79054,-6.8881 -2.87139,-2.0558 -8.53097,-1.9893 -11.28897,0.089 1.98675,2.456 6.00567,1.2556 6.26709,-1.8719 0.66542,-7.96076 -22.71075,2.0728 -17.62634,-9.95832 1.72038,-4.07086 7.08542,-0.93018 11.63599,2.62362 2.8534,2.2284 6.59525,3.077 10.13471,2.2943 z" /></g></g><g
       id="g80"><g
         clip-path="url(#clipPath86)"
         id="g82"><path
           id="path88"
           style="fill:#a42117;fill-opacity:1;fill-rule:nonzero;stroke:none"
           d="m 86.57958,155.765 c 6.06845,-2.0522 -0.96766,-9.8032 2.71652,-12.8614 1.34005,-1.1124 3.48749,-0.9918 4.70749,-2.236 2.32888,-2.375 -0.71089,-5.7357 0.15342,-8.5608 0.92536,-3.0247 6.24389,-5.3166 3.75792,-8.2836 -1.01255,-1.2084 -2.9473,-1.0344 -4.31862,-1.8193 -1.16586,-0.6673 -1.78709,-1.9165 -1.57703,-3.171 2.3678,2.1083 1.20367,6.0622 -1.91641,6.509 -3.99448,0.5719 -9.19437,-10.371 -12.55765,-3.6924 -3.86182,7.6685 9.52024,4.0379 11.72335,7.6079 0.87576,1.4192 0.55592,3.2795 -0.74176,4.3144 -1.13323,3.1821 0.06718,6.4904 2.71387,8.1805 1.01612,0.6488 2.22302,0.7907 3.37581,1.0486 1.15241,0.2578 2.25002,0.6312 3.05291,1.7369 6.3914,8.8017 -7.402,12.1066 -15.37038,1.917 -4.02845,-5.1514 -9.48921,-6.6701 -10.38685,-1.5611 -0.71911,4.093 4.06254,4.7898 7.04323,6.5797 2.70597,1.625 4.4694,5.3585 7.62418,4.2916 z" /></g></g><g
       id="g90"><g
         clip-path="url(#clipPath96)"
         id="g92"><path
           id="path98"
           style="fill:#8f1b0f;fill-opacity:1;fill-rule:nonzero;stroke:none"
           d="m 130.983,115.1836 c -4.9457,0.3156 -9.2426,2.7644 -11.1139,6.3339 -5.5429,10.5729 8.5496,20.914 21.8269,16.0165 -2.2998,-1.6324 -5.1008,-2.5747 -8.0155,-2.6966 -18.6462,-0.7793 -22.2457,22.2213 -7.6105,24.5625 6.5141,1.042 11.7891,-4.7732 9.4232,-10.3883 0.7546,-7.4338 -11.6098,-8.4218 -12.2707,-0.9806 -0.2228,2.5089 2.1086,4.3096 2.447,6.6947 1.9015,13.4029 -33.09365,-4.4882 -19.447,-9.9138 0.1221,16.6963 38.9365,-14.1009 20.7558,-16.4686 -9.5613,-1.2452 -31.52827,6.7397 -24.6057,-2.8582 1.9921,-2.762 6.1824,-1.1848 9.877,-0.3705 3.8965,0.8588 7.9691,0.0511 11.3894,-1.8575 3.3642,-1.8773 5.9473,-4.7171 7.344,-8.0735 z" /></g></g><g
       id="g100"><g
         clip-path="url(#clipPath106)"
         id="g102"><path
           id="path108"
           style="fill:#8f1b0f;fill-opacity:1;fill-rule:nonzero;stroke:none"
           d="m 164.1898,53.83063 c -4.9457,0.31557 -9.2426,2.7644 -11.1139,6.33387 -5.5429,10.57292 8.5496,20.91402 21.8269,16.01658 -2.2998,-1.63244 -5.1008,-2.57477 -8.0155,-2.6966 -18.6463,-0.77939 -22.2457,22.22122 -7.6105,24.5624 6.5141,1.04206 11.7891,-4.7732 9.4231,-10.38822 0.7547,-7.43384 -11.6097,-8.4218 -12.2706,-0.98058 -0.2229,2.50882 2.1086,4.30952 2.447,6.69464 1.9015,13.40298 -33.0937,-4.48816 -19.447,-9.91377 0.1221,16.69625 38.9365,-14.10087 20.7558,-16.46863 -9.5614,-1.24521 -31.5283,6.73967 -24.6057,-2.8582 1.9921,-2.76197 6.1823,-1.18476 9.877,-0.37047 3.8965,0.85876 7.9691,0.05108 11.3894,-1.85753 3.3642,-1.8773 5.9473,-4.71706 7.344,-8.07349 z" /></g></g><g
       id="g110"><g
         clip-path="url(#clipPath116)"
         id="g112"><path
           id="path118"
           style="fill:#8f1b0f;fill-opacity:1;fill-rule:nonzero;stroke:none"
           d="m 106.138,71.00673 c 1.2765,5.52094 11.2742,1.52756 8.3586,-3.43045 -2.5082,-4.26519 -27.34848,-2.20136 -16.41578,-8.67467 1.92458,-1.13959 3.97948,0.61932 6.02838,1.46049 11.9209,4.89418 19.4579,-12.12735 5.7238,-13.30313 -4.4473,-0.38073 -8.2537,2.47184 -7.0871,5.62632 -0.6409,4.045 8.8118,4.59542 9.2286,0.53109 0.1395,-1.35979 -1.4869,-2.352 -1.8403,-3.62585 -2.6107,-9.41063 22.0972,-1.44986 14.6259,5.36935 -4.3496,3.96988 -21.6986,0.7794 -15.6102,8.91949 3.2317,4.32074 21.7614,-9.62473 18.5056,1.54802 -0.5952,2.04252 -3.9019,2.36715 -6.8801,1.96351 -3.0267,-0.41022 -6.1664,-0.92976 -9.1141,-0.75681 -3.22,0.18892 -6.0811,1.96036 -5.5233,4.37264 z" /></g></g><g
       id="g120"><g
         clip-path="url(#clipPath126)"
         id="g122"><path
           id="path128"
           style="fill:#5e120c;fill-opacity:1;fill-rule:nonzero;stroke:none"
           d="m 62.33826,69.77056 7.06458,-10.87248 13.28777,-8.0326 11.03171,-1.5609 c -6.33405,2.3271 -12.33098,5.3752 -17.85262,9.07409 -4.95421,3.31877 -9.49282,7.13975 -13.53144,11.39189 z" /><path
           id="path130"
           style="fill:#000000;fill-opacity:1;fill-rule:nonzero;stroke:none"
           d="m 67.00619,64.95883 c -0.12308,0.10072 -0.63299,0.55625 -0.629,0.57092 0.1874,-0.17358 0.60013,-0.5306 0.629,-0.57092 0,0 0,0 0,0 z m 1.03202,-0.90974 c -0.19488,0.15534 -0.60319,0.51836 -0.72741,0.63876 0.21585,-0.19411 0.6663,-0.57187 0.72741,-0.63876 0,0 0,0 0,0 z m -1.55544,1.42241 c -0.26905,0.24785 -0.77188,0.69968 -0.88539,0.82057 0.26498,-0.25163 0.76993,-0.70129 0.88539,-0.82057 0,0 0,0 0,0 z M 82.13771,54.10522 c -0.14288,0.07057 -0.74366,0.40007 -0.73706,0.4119 0.21621,-0.12369 0.69977,-0.37907 0.73706,-0.4119 0,0 0,0 0,0 z m -3.29772,1.93338 c -0.21755,0.12053 -0.67864,0.4117 -0.82101,0.50937 0.24469,-0.15523 0.74995,-0.45348 0.82101,-0.50937 0,0 0,0 0,0 z m -1.88164,1.16793 c -0.43429,0.28078 -0.8943,0.58467 -0.80091,0.53853 0.13201,-0.10021 0.76289,-0.49568 0.80091,-0.53853 0,0 0,0 0,0 z m -9.78621,8.37277 c 0.40535,-0.3697 0.71199,-0.62388 0.99188,-0.86699 1.40504,-1.21957 -0.73611,0.60778 -0.99188,0.86699 0,0 0,0 0,0 z m 6.55242,-6.13159 c 0.30699,-0.21874 0.55164,-0.39306 0.69665,-0.50277 -0.2863,0.20031 -0.68783,0.47906 -0.69665,0.50277 0,0 0,0 0,0 z m -2.59251,1.94273 c -0.07073,0.04497 -1.57435,1.23627 -2.38135,1.92476 0.69256,-0.57678 2.45209,-1.96972 2.38135,-1.92476 0,0 0,0 0,0 z m -0.56272,1.32179 c 0.9564,-0.77773 2.53605,-1.96345 3.26285,-2.49337 0.7212,-0.52588 -1.31086,0.90753 -3.08959,2.32395 -1.78371,1.4212 -0.29823,0.26759 -1.01232,0.86113 -0.70836,0.58966 0.69287,-0.55406 1.41486,-1.12964 0.71657,-0.57133 -0.48369,0.3767 -0.5758,0.43793 0,0 0,0 0,0 z m -0.01319,0.07169 c -0.34962,0.27904 -0.64617,0.52474 -0.83803,0.69183 0.35846,-0.28916 0.70386,-0.56212 0.83803,-0.69183 0,0 0,0 0,0 z m -8.13068,6.721 c 0.19505,-0.05389 0.87305,-0.89604 1.57988,-1.83941 0.17413,-0.23555 0.34816,-0.47095 0.52735,-0.71331 1.21994,-1.76975 2.42327,-3.56604 3.61385,-5.37113 0.23523,-0.35771 0.47043,-0.71539 0.71274,-1.08388 0.28216,-0.42738 0.56422,-0.8562 0.84638,-1.28629 0.69791,-0.41769 1.39686,-0.8378 2.0976,-1.25955 0.37889,-0.2283 0.75777,-0.45659 1.14811,-0.69179 1.37935,-0.81348 2.67952,-1.62055 4.02631,-2.43244 0.67319,-0.40619 1.36047,-0.81488 2.0706,-1.22305 0.35507,-0.20334 1.85605,-1.11446 2.38359,-1.44693 -0.35574,0.23848 0.76903,-0.44135 1.42052,-0.83741 0.31452,-0.0453 0.5342,-0.07753 0.49626,-0.07235 0.31593,-0.05513 0.64681,-0.10846 0.97899,-0.15807 0.33202,-0.05023 -0.0908,0.005 -0.51327,0.06155 0.37202,-0.0585 0.74513,-0.1139 1.12565,-0.16839 0.39961,-0.05569 0.7992,-0.11137 1.21089,-0.16873 1.34225,-0.17819 2.78111,-0.3909 4.02235,-0.58021 0.89506,-0.12596 2.20076,-0.31106 3.60817,-0.51119 -4.00923,0.58705 -8.37885,2.67965 -7.22874,2.14178 1.76292,-0.82317 0.86423,-0.38302 0.39257,-0.16122 -0.27691,0.12967 -0.64718,0.30549 -1.05929,0.50581 0.01026,-0.01068 0.03956,-0.02985 0.10102,-0.06227 -0.78394,0.3727 -1.8845,0.90325 -2.93059,1.4739 0.19712,-0.10145 0.44888,-0.2331 0.54437,-0.27478 -0.53513,0.27767 -0.10453,0.06945 -0.45149,0.25778 -0.97192,0.51764 -1.43225,0.77198 -0.30891,0.17126 -1.03847,0.56861 -1.68646,0.95445 -2.68559,1.55747 -0.38323,0.22001 -0.17365,0.09971 -0.06389,0.0275 -0.672,0.38281 -2.18205,1.31159 -2.32599,1.39352 -0.14463,0.08084 4.13808,-2.44224 3.36262,-2.01613 -0.315,0.17316 -0.96033,0.54778 -1.20727,0.68647 0.54131,-0.31937 1.21497,-0.7008 1.5625,-0.90113 -0.38181,0.20984 -0.91626,0.51444 -1.21117,0.68079 0.36472,-0.21125 0.61647,-0.35593 0.72223,-0.42172 -0.53583,0.30253 -0.93829,0.53164 -1.56677,0.90701 -0.27665,0.16983 0.24198,-0.13322 -0.34956,0.22266 -0.10282,0.07014 0.39242,-0.23164 0.36011,-0.20491 -0.47866,0.28925 -1.42521,0.87048 -1.65721,1.01973 -0.22547,0.14669 0.57416,-0.35671 0.59415,-0.36371 -1.83659,1.1354 -3.8734,2.53929 -4.49755,2.98671 -0.63022,0.45093 -0.0384,0.0304 0.2318,-0.15591 -0.73356,0.52284 -1.28202,0.91908 -2.13152,1.56166 -0.5437,0.41215 -0.32525,0.25074 -0.11794,0.09794 -0.14353,0.11021 -0.26998,0.2083 -0.35206,0.27273 -0.05999,0.04752 -0.21366,0.16716 -0.3166,0.25 0.33164,-0.2531 0.95165,-0.72545 1.22821,-0.92539 -0.49763,0.38115 -1.68191,1.28213 -2.09897,1.62784 0.6783,-0.53039 1.4094,-1.09654 2.18956,-1.66938 -1.51194,1.12908 -3.0351,2.31538 -4.1699,3.31146 0.20718,-0.17329 0.30279,-0.2426 0.47579,-0.3813 -0.44578,0.3633 -1.09843,0.91049 -1.47202,1.26066 -0.21185,0.18848 -0.62726,0.56405 -1.03947,0.94228 0.72829,-0.65686 1.22537,-1.08654 1.74212,-1.53643 -0.0088,0.01097 -0.05446,0.05343 -0.1423,0.13168 1.17663,-0.98746 1.83859,-1.56911 2.69618,-2.25351 0.06711,-0.05183 0.13431,-0.10356 0.20364,-0.15676 0.28682,-0.20829 -0.69682,0.56266 -0.78848,0.64793 1.26802,-1.01352 2.68721,-2.07972 3.34471,-2.53788 -1.56762,1.13776 -2.90978,2.18403 -4.0203,3.11371 0.29806,-0.22667 1.42827,-1.14535 1.98344,-1.56287 -2.49445,1.94066 -2.6957,2.1902 -2.88933,2.35769 0.18546,-0.15551 0.37166,-0.31024 0.56432,-0.4688 -0.04579,0.04141 -0.09152,0.08287 -0.13858,0.12564 -1.06128,0.88879 -2.26985,1.9715 -2.20525,1.91945 0.04834,-0.03916 0.98908,-0.88233 2.01081,-1.74206 -0.10273,0.09423 -0.20519,0.18869 -0.31045,0.28628 -1.18872,1.01434 -2.48217,2.21734 -3.61021,3.28904 0.19253,-0.1673 0.09647,-0.07836 -0.13069,0.15203 0.35666,-0.33406 0.86157,-0.81231 1.25016,-1.16336 -0.12881,0.12456 -0.36661,0.3442 -0.43788,0.41919 0.19328,-0.17643 0.49495,-0.45896 0.59734,-0.54101 -0.53907,0.50282 -1.11201,1.04903 -1.66564,1.59423 -0.10413,0.11974 0.24336,-0.23308 0.21957,-0.19834 -0.52518,0.51539 -1.25665,1.24135 -1.62127,1.63366 0.43733,-0.4365 1.28912,-1.29478 1.56523,-1.55319 -0.17305,0.1735 -0.34524,0.34772 -0.52172,0.52802 -0.35545,0.35378 -0.52334,0.52574 -0.1204,0.13222 0.21653,-0.21083 0.21249,-0.20517 0.15968,-0.15112 -0.23827,0.24748 -1.07758,1.097 -1.04072,1.08501 0.21049,-0.21632 1.05268,-1.06317 1.27688,-1.26611 -0.15221,0.16843 -0.59043,0.59401 -0.62531,0.64642 0.93016,-0.94253 0.90801,-0.89743 1.13911,-1.13283 -0.1052,0.09875 -0.37366,0.36451 -0.36925,0.34937 0.5838,-0.56997 1.17679,-1.13157 1.79754,-1.70082 -0.04924,0.0583 -0.0211,0.04822 0.03903,0.0018 -0.26322,0.24221 -0.53442,0.49598 -1.01899,0.95358 0.14241,-0.10947 0.58531,-0.53102 0.99686,-0.91665 -0.0015,0.0051 -0.0029,0.01022 -0.0045,0.01548 -0.67414,0.61809 -1.67802,1.58588 -2.3318,2.2512 0.30389,-0.29744 1.42961,-1.39404 2.2158,-2.12341 -0.02271,0.02557 -0.0454,0.05115 -0.06875,0.07753 0.98649,-0.91735 2.18652,-1.95093 3.3519,-2.92375 -0.54949,0.48326 -1.21358,1.02158 -1.9178,1.64872 -0.3237,0.28855 -0.61623,0.55997 -0.92172,0.84729 -0.88807,0.80124 -3.41633,3.28689 -3.69088,3.58339 -0.30261,0.32652 2.23619,-2.21294 2.25464,-2.22343 0.01845,-0.01049 -1.17785,1.15945 -0.61476,0.60751 0.29336,-0.28841 0.94057,-0.91197 1.41709,-1.35757 0.02384,-0.0076 0.04769,-0.01525 0.07226,-0.02308 -0.41723,0.38804 -0.89968,0.85606 -0.93377,0.86014 -0.20126,0.19644 -0.62952,0.60181 -0.68586,0.6716 0.06937,-0.06631 0.17143,-0.16782 0.17504,-0.16413 -0.09766,0.09621 -0.24075,0.23416 -0.25133,0.25272 0.48959,-0.47945 1.17721,-1.12976 1.72547,-1.63895 0.04984,-0.03953 0.09973,-0.079 0.15118,-0.11961 -0.0088,0.01073 -0.43404,0.41015 -0.79544,0.75655 -0.38085,0.36575 0.41666,-0.3875 1.05912,-0.97687 0.10556,-0.08934 0.21136,-0.17842 0.32062,-0.2699 -0.22442,0.20223 -0.4829,0.43833 -0.78346,0.71953 -0.34728,0.33168 -0.32978,0.33028 -0.6727,0.66575 0.64281,-0.60681 1.43159,-1.33012 2.07183,-1.90217 0.24053,-0.20021 0.48227,-0.39907 0.73265,-0.60248 -0.53738,0.47119 -1.02275,0.91688 -1.30784,1.18454 -0.23478,0.21081 -0.47791,0.43261 -0.55873,0.51685 0.21966,-0.19658 -0.34217,0.3264 -0.24815,0.25647 0.29746,-0.29379 0.91945,-0.85321 1.1332,-1.0671 0.4908,-0.43941 1.03478,-0.91293 1.52136,-1.32766 0.06331,-0.05162 0.12671,-0.10315 0.19211,-0.15614 -0.41401,0.35165 -0.8027,0.69004 -1.23151,1.07559 0.20766,-0.15889 1.4121,-1.2016 2.30147,-1.94085 1.83194,-1.47863 3.71081,-2.96119 5.66988,-4.30365 0.08041,-0.05463 0.19651,-0.13091 0.32478,-0.21405 0.14542,-0.09187 0.2884,-0.18147 0.43644,-0.27361 -0.46639,0.31089 -0.88659,0.59982 -1.22701,0.83932 1.38958,-0.94199 -1.94685,1.39766 -2.15006,1.5647 2.19238,-1.59309 6.41303,-4.34771 9.14026,-5.83694 -0.65387,0.36259 -0.86196,0.482 -0.15826,0.09648 0.19057,-0.10433 0.38157,-0.20796 0.57884,-0.31395 -2.77139,1.52408 -5.54524,3.24093 -7.61766,4.71459 1.24169,-0.86003 3.14041,-2.08876 3.67848,-2.40185 -0.37188,0.23078 -0.91018,0.56885 -0.98159,0.62208 0.6521,-0.40086 2.83976,-1.74122 3.50088,-2.10297 -3.19583,1.83527 -7.35251,4.67067 -9.49555,6.36083 3.25958,-2.53335 7.95069,-5.51037 11.03281,-7.2066 -0.53755,0.28906 -0.54492,0.28981 -0.26566,0.12875 0.95498,-0.527 1.92124,-1.03631 2.92848,-1.54132 0.20458,-0.09817 0.13687,-0.06413 -0.34606,0.18399 -0.39728,0.2043 -0.62967,0.32302 -0.75456,0.39546 0.26998,-0.13571 3.38338,-1.69933 0.90919,-0.45505 -2.46804,1.2412 -6.58634,3.63992 -4.16724,2.25667 2.4191,-1.38325 3.42106,-1.85758 2.082,-1.13374 -1.34511,0.72708 -5.46567,3.21511 -4.08953,2.37453 1.37031,-0.83702 4.33732,-2.4903 6.05287,-3.35756 1.72169,-0.87034 -1.20562,0.51264 1.35383,-0.71936 2.55945,-1.23199 0.43386,-0.19259 0.92641,-0.42284 0.77952,-0.36399 2.2255,-1.01285 3.61864,-1.58403 0.97855,-0.3989 2.25117,-0.88787 2.89706,-1.11839 -0.04281,0.02403 -3.05029,1.18307 -1.86465,0.72256 0.64913,-0.25668 1.31928,-0.51175 1.95486,-0.74523 -2.57404,-0.53972 -4.43609,-0.27506 -3.31652,-0.4193 -1.93464,0.27178 -3.35736,0.47439 -4.56534,0.64857 -1.23544,0.16284 -2.59912,0.35307 -3.46037,0.4732 -0.3927,0.23633 -0.66506,0.40023 -0.73791,0.44245 -0.24807,0.14318 -4.68128,2.86607 -6.38076,3.83387 -0.12533,0.07727 -3.11787,1.90137 -3.36646,2.06898 -1.67927,1.00409 -2.2395,1.33326 -2.98118,1.77702 -0.33272,0.50696 -0.72218,1.10508 -1.45857,2.2428 -1.48699,2.29678 -1.93623,3.00474 -2.18611,3.39168 -1.56261,2.42146 -1.56523,2.39352 -2.2772,3.61477 -0.21518,0.36787 -0.57145,0.91736 -0.6645,1.12332 -0.18567,0.41126 -0.22587,0.63417 -0.05799,0.57828 0,0 0,0 0,0 z m 4.05015,-3.78479 c -0.37541,0.33425 -1.03755,0.95587 -1.42493,1.31675 0.42827,-0.42757 0.97898,-0.937 1.54975,-1.44563 -0.04124,0.04249 -0.08244,0.08502 -0.12482,0.12888 0,0 0,0 0,0 z m 3.07488,-2.38298 c -0.26022,0.21521 -0.57974,0.46671 -0.86651,0.71401 -0.27268,0.23199 -0.55696,0.47152 -0.96102,0.83467 0.04089,-0.02637 0.71985,-0.60793 1.25116,-1.05667 0.0025,0.0029 0.0049,0.0059 0.0075,0.0089 -0.2546,0.2214 -0.55643,0.48254 -0.91508,0.79313 -0.12234,0.10482 -0.24435,0.20999 -0.36968,0.31871 -0.01502,0.0037 0.17304,-0.16762 0.24696,-0.22932 -0.1006,0.07293 -0.42061,0.34429 -0.82753,0.70358 -0.05045,0.04222 -0.10085,0.08451 -0.15271,0.12814 -0.06313,0.04282 0.23972,-0.23694 -0.10144,0.07216 0.23215,-0.22478 0.8663,-0.77396 1.26008,-1.11818 -0.42675,0.40081 1.24554,-1.04397 1.67385,-1.3806 -0.08119,0.06964 -0.16223,0.13942 -0.24555,0.21148 z m 3.05564,-2.99716 c 0.24234,-0.17861 0.48575,-0.356 0.73772,-0.5374 -0.36131,0.2617 -0.63535,0.46511 -0.88608,0.65295 0.04891,-0.03818 0.09787,-0.07632 0.14836,-0.11555 z M 92.78512,49.82553 c 0.28634,-0.04566 0.62382,-0.09696 0.98953,-0.15112 -2.01606,-0.03296 -4.53991,1.01054 -4.727,1.10756 -0.35907,0.15355 -0.71694,0.30943 -1.08432,0.47258 1.91633,-0.86463 3.98866,-1.70001 5.62757,-2.30768 -0.16775,0.786 -0.49973,0.83413 -0.80578,0.87866 0,0 0,0 0,0 z m -3.92786,1.85293 c -0.13937,0.06003 -0.08371,0.03257 0.25059,-0.11564 1.77946,-0.78681 2.85379,-1.21556 1.71573,-0.74774 -0.97184,0.39948 -3.06046,1.32235 -2.45184,1.04462 0.81118,-0.36591 1.62897,-0.71974 2.47842,-1.07089 0.6541,-0.26368 1.29566,-0.5047 1.95454,-0.74 -1.40951,0.5409 -2.74306,1.09582 -3.94744,1.62965 0,0 0,0 0,0 z m 4.74539,-1.90881 c -0.50697,0.1874 -1.10943,0.41496 -1.71454,0.65296 0.52398,-0.20821 1.05041,-0.41151 1.59539,-0.61554 0.03931,-0.01238 0.07863,-0.02473 0.11915,-0.03742 z m -0.35656,-0.8121 c 0.14112,-0.02013 0.28225,-0.04021 0.41871,-0.05956 -0.67217,1.11247 -1.33755,1.3652 -0.43515,1.02137 0.20839,-0.07924 0.41716,-0.15771 0.63139,-0.23725 -0.22178,-0.7719 -0.24857,-0.76802 -0.27545,-0.76413 -0.11202,0.01306 -0.22406,0.02612 -0.3395,0.03957 z m -0.67787,0.0881 c 0.01453,0.0025 0.20156,-0.02005 0.56759,-0.07119 -0.74545,0.10678 -2.23599,0.32159 -2.16891,0.30167 0.4968,-0.07225 1.04209,-0.15071 1.60132,-0.23048 0,0 0,0 0,0 z m -0.96371,0.96582 c 0.47648,-0.06546 0.89171,-0.12226 0.13742,-0.01162 -0.28705,0.0419 -0.57409,0.08381 -0.8698,0.12698 0.24165,-0.03806 0.48333,-0.07613 0.73238,-0.11536 z m -18.0252,10.42428 c 0.16713,-0.12284 0.80867,-0.58151 1.18083,-0.847 0.01943,-0.05685 -1.42459,1.00551 -1.18083,0.847 0,0 0,0 0,0 z m -2.34448,1.78546 c 0.15656,-0.12417 0.7787,-0.6043 1.14555,-0.88579 0.01682,-0.05793 -1.38257,1.05246 -1.14555,0.88579 0,0 0,0 0,0 z m 4.17629,-7.51006 c 0.002,-0.0012 0.004,-0.0024 0.006,-0.0036 -0.002,0.0012 -0.004,0.0024 -0.006,0.0036 0,0 0,0 0,0 z" /></g></g><g
       id="g132"><g
         clip-path="url(#clipPath138)"
         id="g134"><path
           id="path140"
           style="fill:#b31c0b;fill-opacity:1;fill-rule:nonzero;stroke:none"
           d="m 218.1928,123.3742 c 0.1272,-21.7209 -8.0937,-42.67323 -22.9886,-58.59016 -14.52,-15.51631 -34.3379,-25.11731 -55.5975,-26.93483 14.1019,-0.5403 28.085,2.21823 40.844,7.99878 12.6666,5.7387 23.9138,14.38652 31.8796,25.74041 5.0887,7.25305 8.7531,15.53648 10.011,24.35654 1.3456,9.43436 -0.0297,18.92216 -4.1485,27.42926 z" /></g></g><g
       id="g142"><g
         clip-path="url(#clipPath148)"
         id="g144"><g
           clip-path="url(#clipPath154)"
           id="g150"><path
             id="path156"
             style="fill:#65c369;fill-opacity:1;fill-rule:nonzero;stroke:none"
             d="m 92.26758,133.212 c 3.3283,5.8074 8.60692,9.9647 14.65582,11.5064 3.8663,0.9854 7.8464,0.8279 11.8044,0.9159 6.9078,0.1537 13.8684,0.9831 20.6079,-0.7974 3.6809,-0.9724 7.2531,-2.6719 10.4956,-4.6948 2.3128,-1.4428 4.5143,-3.0544 6.5862,-4.8212 l 7.1794,-4.2625 c 0.3911,2.878 -0.4814,5.7842 -2.3959,7.9807 -1.7805,2.0428 -4.4081,3.3898 -5.4567,5.9077 -0.8938,2.1459 -0.4167,4.6137 1.2139,6.2791 4.7176,0.3392 9.4712,0.1938 14.1343,-0.556 6.1738,-0.9928 12.193,-2.7772 17.8336,-5.4602 -3.9585,5.3889 -9.0347,9.9615 -14.8661,13.276 -4.753,2.7016 -9.9018,3.9636 -15.6603,4.3068 -6.2493,0.3725 -13.1482,-1.0849 -19.67,-0.9223 -7.969,0.1987 -15.9642,1.8539 -23.1507,5.529 -4.374,2.2367 -8.3123,5.1757 -12.3532,7.976 -3.48473,2.4149 -7.07811,4.739 -10.81212,6.922 0.50236,-2.9436 1.3796,-5.786 2.60611,-8.4441 2.13215,-4.6208 5.26291,-8.5802 9.12461,-11.5397 -4.0361,0.1043 -8.07271,-0.1895 -12.05033,-0.877 -3.70656,-0.6407 -7.38085,-1.6172 -10.93231,-3.0727 -4.80692,-1.97 -9.30742,-4.7797 -13.32488,-8.319 4.1122,1.6452 8.42158,2.5711 12.76707,2.7304 3.60273,0.132 7.19794,-0.2546 10.79935,-0.3911 3.41595,-0.1294 6.8368,-0.0336 10.24,0.2867 -0.8446,-2.2551 -2.1774,-4.2593 -3.8806,-5.8351 -2.15426,-1.9932 -4.88916,-3.3378 -6.20104,-6.0614 -1.18827,-2.4671 -0.91358,-5.4699 0.70592,-7.5622 z" /></g></g></g><g
       id="g158"><g
         clip-path="url(#clipPath164)"
         id="g160"><path
           id="path166"
           style="fill:#24792c;fill-opacity:1;fill-rule:nonzero;stroke:none"
           d="m 125.5074,157.2058 1.4893,21.3415 -7.259,31.3278 7.7174,1.7841 4.8813,-25.5087 0.724,-33.5555 z" /></g></g><g
       id="g168"><g
         clip-path="url(#clipPath174)"
         id="g170"><path
           id="path176"
           style="fill:#fff2d0;fill-opacity:0.33430002;fill-rule:nonzero;stroke:none"
           d="m 83.32012,133.4136 c -4.95273,6.6329 -16.85811,6.7132 -24.89962,2.2514 -14.32223,-7.9467 -16.53743,-24.4515 -12.30919,-37.95128 2.00361,-6.39706 6.36385,-13.05518 15.10083,-13.70062 6.04223,-0.44636 11.34389,2.54559 14.82562,6.04248 8.56639,8.6037 7.10423,19.93682 8.5735,32.06692 0.48481,4.0025 0.94941,8.2905 -1.29114,11.2911 z" /></g></g><g
       id="g178"><g
         clip-path="url(#clipPath184)"
         id="g180"><path
           id="path186"
           style="fill:#a42117;fill-opacity:1;fill-rule:nonzero;stroke:none"
           d="m 189.1691,112.6912 c 6.0683,-2.0523 -0.9679,-9.8033 2.7165,-12.8614 1.3401,-1.11233 3.4876,-0.99165 4.7075,-2.23598 2.3286,-2.37531 -0.7123,-5.73607 0.1534,-8.56082 0.927,-3.02485 6.2431,-5.31244 3.7579,-8.28355 -1.019,-1.21826 -2.9512,-1.02248 -4.3186,-1.81935 -2.1015,-1.22461 -2.3394,-4.1489 -0.4664,-5.69613 4.3473,2.74716 2.0871,9.45701 -3.0271,9.03408 -4.4205,-0.36557 -9.7797,-10.09047 -12.5576,-3.69239 -3.285,7.56585 9.5321,3.96779 11.7233,7.60798 0.8563,1.42244 0.5385,3.2692 -0.7417,4.31438 -1.1332,3.18208 0.0672,6.4904 2.7139,8.18046 1.0161,0.64885 2.223,0.79067 3.3758,1.04861 1.1524,0.25785 2.25,0.63121 3.0529,1.73691 6.3914,8.8017 -7.402,12.1066 -15.3704,1.917 -4.0285,-5.15145 -9.4892,-6.6701 -10.3869,-1.5611 -0.7191,4.093 4.0626,4.7898 7.0433,6.5797 2.706,1.6251 4.4694,5.3586 7.6242,4.2916 z" /></g></g></g></svg>