<?xml version="1.0" encoding="UTF-8" standalone="no"?>
<!-- Created with Inkscape (http://www.inkscape.org/) -->

<svg
   version="1.1"
   id="svg2"
   width="169.12627"
   height="176.6416"
   viewBox="0 0 169.12627 176.6416"
   xmlns="http://www.w3.org/2000/svg"
   xmlns:svg="http://www.w3.org/2000/svg">
  <defs
     id="defs6">
    <clipPath
       clipPathUnits="userSpaceOnUse"
       id="clipPath18">
      <path
         d="M 38.25549,36 H 90.84467 V 77.39813 H 38.25549 Z"
         id="path16" />
    </clipPath>
    <clipPath
       clipPathUnits="userSpaceOnUse"
       id="clipPath28">
      <path
         d="m 44.26075,54.42696 h 16.2224 v 17.69241 h -16.2224 z"
         id="path26" />
    </clipPath>
    <clipPath
       clipPathUnits="userSpaceOnUse"
       id="clipPath38">
      <path
         d="m 47.82466,61.06677 h 10.47177 v 9.060724 H 47.82466 Z"
         id="path36" />
    </clipPath>
    <clipPath
       clipPathUnits="userSpaceOnUse"
       id="clipPath48">
      <path
         d="M 36,67.86468 H 89.01276 V 91.98427 H 36 Z"
         id="path46" />
    </clipPath>
    <clipPath
       clipPathUnits="userSpaceOnUse"
       id="clipPath58">
      <path
         d="m 59.64263,74.80317 h 7.596962 V 96.48119 H 59.64263 Z"
         id="path56" />
    </clipPath>
  </defs>
  <g
     id="g8"
     transform="matrix(1.3333333,0,0,-1.3333333,0,176.6416)">
    <g
       id="g10" />
    <g
       id="g12">
      <g
         id="g14"
         clip-path="url(#clipPath18)">
        <path
           d="M 45.9737,74.11571 C 41.22867,70.8679 39.15474,65.54576 39.25925,60.16177 39.45931,49.85491 46.89906,40.49941 57.93395,37.81242 74.5599,33.76402 91.4353,45.34919 89.72469,61.37834 89.1498,66.76533 85.98833,71.74681 80.55896,74.22093 75.84444,76.3693 70.34786,76.14127 65.10375,75.40236 64.22932,75.27915 63.35736,75.14278 62.48826,74.99332 l -7.48887,1.22209 c -3.20087,0.57446 -6.29013,-0.22731 -9.02569,-2.0997 z"
           style="fill:#93d93b;fill-opacity:1;fill-rule:nonzero;stroke:none"
           id="path20" />
      </g>
    </g>
    <g
       id="g22">
      <g
         id="g24"
         clip-path="url(#clipPath28)">
        <path
           d="m 58.89343,69.59177 c -1.72579,1.90015 -5.87424,1.92316 -8.67632,0.64495 -4.9906,-2.27653 -5.76249,-7.00476 -4.28915,-10.87216 0.69816,-1.83261 2.21749,-3.74 5.2619,-3.9249 2.10543,-0.12788 3.9528,0.72925 5.16601,1.73102 2.98498,2.46476 2.47549,5.71143 2.98746,9.18645 0.16893,1.14662 0.33082,2.37503 -0.4499,3.23464 z"
           style="fill:#fffdd7;fill-opacity:0.5129;fill-rule:nonzero;stroke:none"
           id="path30" />
      </g>
    </g>
    <g
       id="g32">
      <g
         id="g34"
         clip-path="url(#clipPath38)">
        <path
           d="m 51.09091,62.09362 c 1.1988,-0.13353 2.32016,0.24882 3.07336,0.75123 0.60486,0.40346 1.00484,0.86951 1.42562,1.32678 0.67332,0.73169 1.41589,1.45994 1.64073,2.25843 0.22307,0.79217 -0.1031,1.62105 -1.25383,2.17213 -1.14529,0.54848 -2.85883,0.68699 -4.26464,0.32269 -1.77165,-0.45911 -2.39498,-1.49541 -2.64627,-2.49577 -0.16827,-0.66988 -0.22282,-1.34506 -0.24018,-2.02002 -0.02608,-1.01423 0.42853,-2.1109 2.26521,-2.31547 z"
           style="fill:#ffffff;fill-opacity:0.7447;fill-rule:nonzero;stroke:none"
           id="path40" />
      </g>
    </g>
    <g
       id="g42">
      <g
         id="g44"
         clip-path="url(#clipPath48)">
        <path
           d="m 59.6577,72.59134 c 1.47716,0.32085 2.97081,0.58026 4.47592,0.77738 3.23682,-0.1008 6.36735,-1.03878 8.99774,-2.69593 0.84886,-0.53478 1.63675,-1.1403 2.35265,-1.80811 0.66175,1.01271 0.763,2.2342 0.27521,3.32019 -0.69641,1.55047 -2.42534,2.55265 -4.32497,2.50698 3.09109,-0.66212 6.32783,-0.58767 9.37508,0.21566 2.70026,0.71184 5.16913,1.97581 7.20343,3.68789 -1.99178,-0.6907 -4.11854,-1.03267 -6.2602,-1.00662 -2.15695,0.02624 -4.28682,0.42523 -6.26771,1.17413 1.77366,1.64169 3.02825,3.66071 3.63986,5.85765 0.58259,2.09268 0.56239,4.27957 -0.05879,6.3637 -1.14034,-2.32136 -2.69252,-4.46981 -4.59893,-6.36559 -2.12303,-2.11119 -4.65343,-3.87805 -7.4753,-5.21964 l -4.72841,-0.02288 c -2.17857,0.13831 -4.26486,0.82679 -6.00688,1.98229 -2.71722,1.80236 -4.31227,4.5107 -6.25977,6.90948 -0.69527,0.85638 -1.44116,1.68026 -2.23464,2.46826 -0.35908,-3.30601 0.43398,-6.62976 2.27442,-9.53221 0.60806,-0.95894 1.32569,-1.8612 2.14182,-2.69288 -3.00079,-0.08301 -6.00042,0.19422 -8.91555,0.82397 -2.15772,0.46613 -4.25601,1.12285 -6.26268,1.96009 1.25113,-2.64951 3.51326,-4.83549 6.39941,-6.18396 4.04486,-1.88985 8.87582,-1.97192 13.00111,-0.22085 -2.27712,0.14564 -4.48149,-0.73806 -5.84571,-2.34347 -0.82634,-0.97244 -1.27834,-2.15024 -1.29057,-3.36291 3.30394,1.48168 6.79137,2.625 10.39346,3.40738 z"
           style="fill:#2a8930;fill-opacity:1;fill-rule:nonzero;stroke:none"
           id="path50" />
      </g>
    </g>
    <g
       id="g52">
      <g
         id="g54"
         clip-path="url(#clipPath58)">
        <path
           d="m 63.06653,77.33932 0.62565,7.11021 -3.04955,10.43727 3.24216,0.59439 2.05067,-8.49855 0.30413,-11.17947 z"
           style="fill:#1a561f;fill-opacity:1;fill-rule:nonzero;stroke:none"
           id="path60" />
      </g>
    </g>
  </g>
</svg>
