<?xml version="1.0" encoding="UTF-8" standalone="no"?>
<!-- Created with Inkscape (http://www.inkscape.org/) -->

<svg
   version="1.1"
   id="svg2"
   width="463.8288"
   height="357.00201"
   viewBox="0 0 463.8288 357.00201"
   xmlns="http://www.w3.org/2000/svg"
   xmlns:svg="http://www.w3.org/2000/svg">
  <defs
     id="defs6">
    <clipPath
       clipPathUnits="userSpaceOnUse"
       id="clipPath18">
      <path
         d="m 36,36 h 275.8716 v 75.56776 H 36 Z"
         id="path16" />
    </clipPath>
    <clipPath
       clipPathUnits="userSpaceOnUse"
       id="clipPath28">
      <path
         d="m 83.95235,72.92271 h 175.9401 v 124.889 H 83.95235 Z"
         id="path26" />
    </clipPath>
    <clipPath
       clipPathUnits="userSpaceOnUse"
       id="clipPath38">
      <path
         d="m 103.7412,79.81156 h 27.79668 v 36.58465 H 103.7412 Z"
         id="path36" />
    </clipPath>
    <clipPath
       clipPathUnits="userSpaceOnUse"
       id="clipPath52">
      <path
         d="m 123.2152,101.1111 h 24.46198 v 32.91277 H 123.2152 Z"
         id="path50" />
    </clipPath>
    <clipPath
       clipPathUnits="userSpaceOnUse"
       id="clipPath62">
      <path
         d="m 200.8597,97.47319 h 39.9615 v 77.08139 h -39.9615 z"
         id="path60" />
    </clipPath>
    <clipPath
       clipPathUnits="userSpaceOnUse"
       id="clipPath72">
      <path
         d="m 221.3853,125.1158 h 32.66949 v 28.10366 H 221.3853 Z"
         id="path70" />
    </clipPath>
    <clipPath
       clipPathUnits="userSpaceOnUse"
       id="clipPath82">
      <path
         d="m 157.1607,138.7208 h 27.74768 v 36.13032 H 157.1607 Z"
         id="path80" />
    </clipPath>
    <clipPath
       clipPathUnits="userSpaceOnUse"
       id="clipPath92">
      <path
         d="m 158.6353,86.66745 h 38.68342 v 55.46579 H 158.6353 Z"
         id="path90" />
    </clipPath>
    <clipPath
       clipPathUnits="userSpaceOnUse"
       id="clipPath102">
      <path
         d="m 179.3697,137.9948 h 35.2831 v 55.46579 h -35.2831 z"
         id="path100" />
    </clipPath>
    <clipPath
       clipPathUnits="userSpaceOnUse"
       id="clipPath112">
      <path
         d="m 184.3141,137.0883 h 28.79467 v 47.00004 H 184.3141 Z"
         id="path110" />
    </clipPath>
    <clipPath
       clipPathUnits="userSpaceOnUse"
       id="clipPath122">
      <path
         d="m 133.4038,98.38906 h 38.68342 v 55.46579 H 133.4038 Z"
         id="path120" />
    </clipPath>
    <clipPath
       clipPathUnits="userSpaceOnUse"
       id="clipPath132">
      <path
         d="m 91.28566,112.4404 h 35.2831 v 53.48129 h -35.2831 z"
         id="path130" />
    </clipPath>
    <clipPath
       clipPathUnits="userSpaceOnUse"
       id="clipPath142">
      <path
         d="m 125.8041,99.00237 h 40.09946 v 42.84085 H 125.8041 Z"
         id="path140" />
    </clipPath>
    <clipPath
       clipPathUnits="userSpaceOnUse"
       id="clipPath152">
      <path
         d="m 118.246,147.6625 h 27.74768 v 36.13032 H 118.246 Z"
         id="path150" />
    </clipPath>
    <clipPath
       clipPathUnits="userSpaceOnUse"
       id="clipPath162">
      <path
         d="m 146.0563,144.3072 h 40.09946 v 42.84085 H 146.0563 Z"
         id="path160" />
    </clipPath>
    <clipPath
       clipPathUnits="userSpaceOnUse"
       id="clipPath172">
      <path
         d="m 166.3237,91.49182 h 30.27633 v 44.1157 H 166.3237 Z"
         id="path170" />
    </clipPath>
    <clipPath
       clipPathUnits="userSpaceOnUse"
       id="clipPath182">
      <path
         d="m 197.2368,84.72971 h 40.09946 v 42.84085 H 197.2368 Z"
         id="path180" />
    </clipPath>
    <clipPath
       clipPathUnits="userSpaceOnUse"
       id="clipPath192">
      <path
         d="m 102.2883,81.06527 h 32.02681 v 34.1303 H 102.2883 Z"
         id="path190" />
    </clipPath>
    <clipPath
       clipPathUnits="userSpaceOnUse"
       id="clipPath202">
      <path
         d="m 178.9989,77.30819 h 80.82304 v 96.3316 H 178.9989 Z"
         id="path200" />
    </clipPath>
    <clipPath
       clipPathUnits="userSpaceOnUse"
       id="clipPath212">
      <path
         d="m 164.4128,227.7123 31.3413,-6.1666 -7.5562,-38.4035 -31.3412,6.1665 z"
         id="path210" />
    </clipPath>
    <clipPath
       clipPathUnits="userSpaceOnUse"
       id="clipPath218">
      <path
         d="M 0,0 H 347.8716 V 267.7515 H 0 Z"
         id="path216" />
    </clipPath>
    <clipPath
       clipPathUnits="userSpaceOnUse"
       id="clipPath228">
      <path
         d="m 105.8942,161.1976 h 109.2237 v 51.98052 H 105.8942 Z"
         id="path226" />
    </clipPath>
    <clipPath
       clipPathUnits="userSpaceOnUse"
       id="clipPath238">
      <path
         d="m 155.2675,185.7915 h 12.32674 v 45.95997 H 155.2675 Z"
         id="path236" />
    </clipPath>
    <clipPath
       clipPathUnits="userSpaceOnUse"
       id="clipPath248">
      <path
         d="m 90.41989,125.3131 h 39.05419 v 44.1157 H 90.41989 Z"
         id="path246" />
    </clipPath>
  </defs>
  <g
     id="g8"
     transform="matrix(1.3333333,0,0,-1.3333333,0,357.002)">
    <g
       id="g10" />
    <g
       id="g12">
      <g
         id="g14"
         clip-path="url(#clipPath18)">
        <path
           d="M 100.3985,104.2733 C 84.06059,109.6469 67.20055,106.1221 68.66929,95.14148 70.16808,83.93612 93.60638,85.73621 92.62082,73.11083 91.92324,64.17454 79.00887,63.47967 67.24527,65.3562 52.71029,67.67482 37.62578,62.95473 37.02401,51.49187 36.04796,32.8998 65.0103,34.28304 91.87805,43.97326 c 10.68935,3.85527 21.84725,5.09194 33.17135,5.21529 11.3211,0.12331 22.8176,-0.86501 34.2288,-1.56614 28.6519,-1.76048 60.0147,4.13143 83.6768,-4.08702 15.3044,-5.3156 31.9069,-9.6074 38.5774,2.8817 4.8897,9.15506 -1.5669,18.80341 -11.8444,20.64343 -9.324,1.66933 -21.9998,-1.38082 -23.4552,7.33508 -1.0049,6.01828 6.3277,9.75571 14.0448,10.36879 14.8684,1.18121 30.8506,-2.39204 43.6007,4.93979 3.8133,2.19285 7.0127,5.46279 6.9932,9.51053 -0.0399,8.28739 -10.8496,11.67839 -21.3641,11.32859 -31.945,-1.0626 -62.8362,-12.28625 -94.5539,-16.09873 -32.2273,-3.87372 -63.8025,-0.28589 -94.555,9.82873 z"
           style="fill:#f6ce46;fill-opacity:1;fill-rule:nonzero;stroke:none"
           id="path20" />
      </g>
    </g>
    <g
       id="g22">
      <g
         id="g24"
         clip-path="url(#clipPath28)">
        <path
           d="m 87.29509,120.6296 c -5.4273,22.2327 -2.14677,47.1508 17.50751,58.7762 6.2833,3.7166 13.5543,5.2474 20.8262,6.2513 8.8184,1.2174 17.8686,1.7905 26.9102,1.6049 l 17.8127,2.3954 c 7.0894,3.1445 14.4315,5.2546 21.8424,6.3438 11.6235,1.7083 23.7311,0.9415 34.7061,-4.4801 18.2021,-8.9919 29.3073,-28.4445 31.5392,-49.5766 2.1709,-20.5544 -3.2202,-42.00819 -21.405,-53.37526 C 220.9091,78.48943 200.1757,80.44381 180.8627,78.50649 160.4951,76.46337 139.6028,69.98021 120.5984,77.36806 101.8603,84.6524 91.75945,102.3414 87.29509,120.6296 Z"
           style="fill:#b62210;fill-opacity:1;fill-rule:nonzero;stroke:none"
           id="path30" />
      </g>
    </g>
    <g
       id="g32">
      <g
         id="g34"
         clip-path="url(#clipPath38)">
        <path
           d="m 129.2137,82.64798 c -5.3915,2.86588 -10.113,6.66398 -13.8977,11.17966 -4.8409,5.776 -8.019,12.55866 -9.2462,19.73306 5.8621,-3.1051 10.9279,-7.3109 14.8592,-12.3367 4.318,-5.52004 7.1551,-11.88155 8.2847,-18.57602 z"
           style="fill:#dc432b;fill-opacity:1;fill-rule:nonzero;stroke:none"
           id="path40" />
        <g
           id="g42"
           transform="matrix(1,0,0,-1,106.0698,113.5607)">
          <path
             d="M 23.14396,30.91277 C 17.7524,28.04688 13.03091,24.24879 9.246264,19.7331 4.40534,13.95711 1.227215,7.174449 0,0 c 5.8621,3.105109 10.9279,7.310936 14.85922,12.33672 4.31797,5.52007 7.15514,11.88158 8.28474,18.57605 z"
             style="fill:none;stroke:#000000;stroke-width:2;stroke-linecap:butt;stroke-linejoin:miter;stroke-miterlimit:4;stroke-dasharray:none;stroke-opacity:1"
             id="path44" />
        </g>
      </g>
    </g>
    <g
       id="g46">
      <g
         id="g48"
         clip-path="url(#clipPath52)">
        <path
           d="m 139.0848,102.1111 c -0.9696,2.8227 -1.7967,6.4746 -2.5372,10.7652 -1.026,5.945 -1.8538,12.8625 -2.5434,20.1476 -3.1215,-1.4689 -1.7068,-5.775 1.7899,-5.4481 3.8175,0.3568 12.2862,8.2775 10.6837,2.7627 -0.3781,-1.3012 -2.216,-1.223 -3.7844,-1.2866 -3.0059,-0.122 -5.5564,-2.1151 -6.1201,-4.7535 -0.7425,-3.4756 1.9497,-6.7834 5.8239,-7.1558 -1.7888,-2.1944 -4.6642,-3.4332 -7.6658,-3.3026 -4.8492,0.2109 -10.5765,1.022 -10.5157,-2.8032 0.104,-6.5388 9.6465,-0.9559 13.6943,-3.0111 2.3593,-1.198 2.9411,-4.0557 1.1748,-5.9146 z"
           style="fill:#a42117;fill-opacity:1;fill-rule:nonzero;stroke:none"
           id="path54" />
      </g>
    </g>
    <g
       id="g56">
      <g
         id="g58"
         clip-path="url(#clipPath62)">
        <path
           d="m 225.9531,147.393 c 4.5147,2.4355 9.5205,-2.3984 6.5718,-6.3461 -2.4991,-3.3458 -12.8895,-1.3354 -11.0874,-7.2308 1.8569,-6.075 9.072,1.2225 14.0563,1.0068 12.0756,-0.5227 -4.382,-23.6325 -9.8527,-13.8352 -1.8553,-3.8028 -6.7708,-5.4964 -10.934,-3.7673 -5.3092,2.2051 -11.2323,6.0181 -12.5826,1.5566 -2.3568,-7.7878 11.7387,-3.1263 13.6391,-7.4583 1.5701,-3.579 -6.7953,-8.0336 -2.0424,-11.52011 8.1124,-5.95079 3.423,9.78811 6.7385,14.57271 2.7013,3.8984 9.1571,2.9988 10.1566,-1.5177 5.0342,4.4911 3.0099,12.2141 -3.6733,14.2218 -3.229,0.97 -7.0996,0.0926 -9.7296,2.1528 -6.7317,5.2733 3.2093,20.0574 13.0662,30.2427 4.7068,4.8636 10.2115,8.8505 9.3751,12.0702 -0.2892,1.1133 -1.5387,1.9062 -2.7864,2.0054 -2.1634,0.172 -3.513,-2.4427 -5.4438,-4.3121 -2.828,-2.7381 -2.1166,-7.5702 -5.9873,-9.205 -1.0131,-0.4279 -2.136,-0.4297 -3.2111,-0.5236 -1.6433,-0.1434 -3.2657,-0.5099 -4.8162,-1.102 -2.7407,-1.1863 -3.0261,-4.6298 -0.5119,-6.1758 1.9367,-1.1909 4.6185,-0.304 6.6226,-1.3725 3.2417,-1.7282 2.3748,-5.9061 0.2838,-9.3674 -4.8212,-7.9807 -16.1818,-7.4339 -15.7153,-1.929 0.3013,3.5549 5.3128,3.7256 9.5479,4.1792 3.1444,0.3368 6.0731,1.6239 8.3161,3.6547 z"
           style="fill:#a42117;fill-opacity:1;fill-rule:nonzero;stroke:none"
           id="path64" />
      </g>
    </g>
    <g
       id="g66">
      <g
         id="g68"
         clip-path="url(#clipPath72)">
        <path
           d="m 232.5291,149.7664 c 1.1964,5.0762 10.5669,1.4045 7.8342,-3.1541 -2.3508,-3.9215 -25.6328,-2.024 -15.3859,-7.9758 1.8039,-1.0478 3.7298,0.5695 5.6501,1.3429 11.1731,4.4998 18.2373,-11.1504 5.3647,-12.2314 -4.1683,-0.3501 -7.7359,2.2727 -6.6424,5.173 -0.6007,3.7191 8.2589,4.2252 8.6497,0.4883 0.1307,-1.2502 -1.3937,-2.1625 -1.725,-3.3337 -2.4468,-8.6525 20.7111,-1.3331 13.7084,4.9368 -4.0767,3.65 -20.3373,0.7166 -14.6309,8.2009 3.029,3.9726 20.3962,-8.8494 17.3447,1.4233 -0.5578,1.8779 -3.6571,2.1764 -6.4485,1.8053 -2.8368,-0.3772 -5.7796,-0.8549 -8.5423,-0.6958 -3.018,0.1737 -5.6996,1.8024 -5.1768,4.0203 z"
           style="fill:#8f1b0f;fill-opacity:1;fill-rule:nonzero;stroke:none"
           id="path74" />
      </g>
    </g>
    <g
       id="g76">
      <g
         id="g78"
         clip-path="url(#clipPath82)">
        <path
           d="m 171.9761,173.6776 c 5.6877,-1.8869 -0.907,-9.0135 2.5461,-11.8253 1.256,-1.0228 3.2687,-0.9119 4.4121,-2.0559 2.1828,-2.1836 -0.6662,-5.2736 0.1438,-7.8711 0.8674,-2.781 5.8523,-4.8883 3.5222,-7.6162 -0.949,-1.1111 -2.7624,-0.9511 -4.0477,-1.6728 -1.0927,-0.6135 -1.675,-1.762 -1.4781,-2.9155 2.2193,1.9384 1.1282,5.5738 -1.7962,5.9845 -3.7438,0.5259 -8.6175,-9.5354 -11.7698,-3.3949 -3.6196,7.0508 8.923,3.7126 10.9879,6.9951 0.8208,1.3048 0.521,3.0153 -0.6952,3.9668 -1.0622,2.9257 0.0629,5.9675 2.5436,7.5214 0.9523,0.5966 2.0835,0.727 3.164,0.9641 1.0801,0.2371 2.1089,0.5804 2.8614,1.597 5.9905,8.0927 -6.9377,11.1313 -14.4061,1.7626 -3.7758,-4.7364 -8.8939,-6.1327 -9.7353,-1.4353 -0.674,3.7632 3.8077,4.4039 6.6014,6.0496 2.5362,1.4941 4.189,4.9268 7.1459,3.9459 z"
           style="fill:#a42117;fill-opacity:1;fill-rule:nonzero;stroke:none"
           id="path84" />
      </g>
    </g>
    <g
       id="g86">
      <g
         id="g88"
         clip-path="url(#clipPath92)">
        <path
           d="m 173.081,100.7967 c -1.5958,1.4578 -3.4148,2.5736 -5.2669,3.416 -2.7239,1.239 -5.5634,2.1301 -6.7443,4.1192 -2.8302,4.7673 3.6357,9.9042 12.4039,8.2934 4.7251,-0.3241 9.4631,0.4532 13.7653,2.2583 7.8114,3.2775 3.4991,15.5102 -1.1103,11.798 -2.737,-2.2044 1.648,-5.8448 -0.2199,-8.2602 -10.1483,-13.1229 -2.918,19.0833 -11.3471,18.7086 -12.2451,-0.5444 3.4307,-12.6228 1.4956,-17.75 -1.2753,-3.3793 -6.2308,-4.4754 -8.847,-1.8787 -7.3412,-3.0337 -4.6996,-13.1065 3.3541,-12.7283 2.3904,0.1123 4.8525,0.9474 7.0073,0.3995 16.641,-4.2309 -35.6866,-22.4268 -11.3789,-21.46856 5.3451,0.21072 2.6778,4.39079 5.9817,6.57734 2.9662,1.96306 8.8127,1.89958 11.6617,-0.08493 -2.0523,-2.34519 -6.2039,-1.19897 -6.474,1.78741 -0.6874,7.60154 23.4607,-1.97923 18.2084,9.50904 -1.7772,3.8871 -7.3194,0.8882 -12.0202,-2.5053 -2.9477,-2.1278 -6.8131,-2.9382 -10.4694,-2.1908 z"
           style="fill:#a42117;fill-opacity:1;fill-rule:nonzero;stroke:none"
           id="path94" />
      </g>
    </g>
    <g
       id="g96">
      <g
         id="g98"
         clip-path="url(#clipPath102)">
        <path
           d="m 193.8154,152.1241 c -1.5957,1.4578 -3.4148,2.5736 -5.2669,3.416 -2.7239,1.239 -5.5634,2.1301 -6.7442,4.1191 -2.8302,4.7674 3.6356,9.9043 12.4039,8.2935 4.7251,-0.3241 9.463,0.4532 13.7652,2.2583 7.8115,3.2774 3.4991,15.5102 -1.1102,11.7979 -2.7371,-2.2043 1.6479,-5.8448 -0.2199,-8.2601 -10.1483,-13.1229 -2.9181,19.0833 -11.3471,18.7086 -12.2452,-0.5444 3.4306,-12.6228 1.4956,-17.75 -1.2754,-3.3793 -6.2308,-4.4754 -8.8471,-1.8787 -7.3411,-3.0338 -4.6996,-13.1065 3.3541,-12.7283 2.3904,0.1122 4.8525,0.9473 7.0073,0.3995 16.6411,-4.2309 -35.6866,-22.4268 -11.3789,-21.4686 5.3452,0.2107 2.6779,4.3908 5.9817,6.5774 2.9662,1.963 8.8127,1.8995 11.6618,-0.085 -1.8175,-2.9424 -6.7647,-1.5765 -6.4741,1.7874 0.3903,4.5167 21.1853,-1.0062 14.0766,8.5317 -1.6752,2.2478 -5.0575,0.4092 -7.8884,-1.5279 -2.9902,-2.0461 -6.8117,-2.8475 -10.4694,-2.1908 z"
           style="fill:#a42117;fill-opacity:1;fill-rule:nonzero;stroke:none"
           id="path104" />
      </g>
    </g>
    <g
       id="g106">
      <g
         id="g108"
         clip-path="url(#clipPath112)">
        <path
           d="m 208.4757,138.2114 c -1.6583,-0.5153 -3.4463,0.6082 -4.6918,2.981 -5.6395,10.7447 1.8596,26.2211 8.3249,19.3613 -0.008,-1.6388 -1.3672,-2.6305 -2.7183,-2.6956 -1.0974,-0.0528 -2.1045,1.0295 -2.7747,2.3751 -4.4984,9.0326 -9.8783,24.4386 -12.5683,15.5252 -0.9568,-3.1705 1.3005,-7.3859 5.4236,-7.7271 3.5854,-0.2967 6.6928,2.3865 8.0166,6.0413 3.7452,-2.8593 5.4867,9.4153 1.2845,9.0057 -1.6452,-0.1603 -2.241,-2.6979 -2.9139,-4.7541 -1.4399,-4.4 -6.0654,-7.8991 -5.5283,-12.5817 0.3175,-2.7687 2.461,-5.6405 0.6076,-7.9633 -3.3593,-4.2101 -10.2814,1.3399 -14.157,-1.6528 -8.5492,-6.6014 23.3594,-9.9879 16.7141,-1.7739 1.5214,3.152 4.7757,1.0186 4.3375,-3.1015 -0.3789,-3.5628 -3.171,-3.8465 -5.7094,-3.1122 -0.8485,0.2454 -1.7701,0.6712 -1.9348,1.9893 -0.4825,3.8623 4.866,2.4592 5.7972,-3.8461 0.4384,-2.9685 1.2908,-5.7308 2.4905,-8.0706 z"
           style="fill:#8f1b0f;fill-opacity:1;fill-rule:nonzero;stroke:none"
           id="path114" />
      </g>
    </g>
    <g
       id="g116">
      <g
         id="g118"
         clip-path="url(#clipPath122)">
        <path
           d="m 147.8495,112.5183 c -1.5957,1.4578 -3.4148,2.5736 -5.2669,3.416 -2.7239,1.239 -5.5634,2.1301 -6.7443,4.1192 -2.8302,4.7673 3.6357,9.9042 12.4039,8.2934 4.7252,-0.3241 9.4631,0.4532 13.7653,2.2583 7.8114,3.2775 3.4991,15.5103 -1.1102,11.798 -2.7371,-2.2044 1.6479,-5.8448 -0.22,-8.2602 -10.1483,-13.1229 -2.918,19.0833 -11.347,18.7086 -12.2452,-0.5444 3.4306,-12.6228 1.4956,-17.75 -1.2754,-3.3793 -6.2308,-4.4754 -8.8471,-1.8787 -7.3412,-3.0337 -4.6996,-13.1065 3.3541,-12.7283 2.3904,0.1123 4.8525,0.9474 7.0073,0.3995 16.6411,-4.2309 -35.6866,-22.4268 -11.3789,-21.46855 5.3451,0.21071 2.6778,4.39075 5.9817,6.57735 2.9662,1.963 8.8127,1.8996 11.6618,-0.0849 -2.0524,-2.3452 -6.204,-1.199 -6.4741,1.7874 -0.6874,7.6015 23.4607,-1.9793 18.2084,9.509 -1.7772,3.8871 -7.3194,0.8882 -12.0202,-2.5053 -2.9476,-2.1278 -6.813,-2.9382 -10.4694,-2.1908 z"
           style="fill:#a42117;fill-opacity:1;fill-rule:nonzero;stroke:none"
           id="path124" />
      </g>
    </g>
    <g
       id="g126">
      <g
         id="g128"
         clip-path="url(#clipPath132)">
        <path
           d="m 113.3694,152.2798 c 1.4478,-1.4037 3.0983,-2.4781 4.7787,-3.2893 2.4714,-1.1929 5.0477,-2.0509 6.1191,-3.9662 2.5679,-4.5904 -3.2987,-9.5366 -11.2541,-7.9856 -4.2872,0.312 -8.5859,-0.4364 -12.4893,-2.1745 -7.08741,-3.1558 -3.17482,-14.9345 1.0073,-11.36 2.4833,2.1225 -1.4952,5.6278 0.1995,7.9535 9.2076,12.6359 2.6476,-18.375 10.2953,-18.0141 11.1101,0.5241 -3.1126,12.1543 -1.357,17.0911 1.1572,3.2539 5.6533,4.3093 8.027,1.809 6.6607,2.9211 4.264,12.62 -3.0432,12.2559 -2.1688,-0.1081 -4.4027,-0.9122 -6.3578,-0.3847 -15.09849,4.0739 32.3787,21.5944 10.3242,20.6717 -4.8497,-0.2029 -2.4296,-4.2278 -5.4273,-6.3332 -2.6912,-1.8902 -7.9957,-1.8291 -10.5807,0.0818 1.8621,2.2581 5.6289,1.1544 5.8739,-1.7211 0.6237,-7.3194 -21.28598,1.9058 -16.52054,-9.1561 1.61245,-3.7429 6.64091,-0.8552 10.90604,2.4123 2.6744,2.0488 6.1815,2.8291 9.4989,2.1095 z"
           style="fill:#a42117;fill-opacity:1;fill-rule:nonzero;stroke:none"
           id="path134" />
      </g>
    </g>
    <g
       id="g136">
      <g
         id="g138"
         clip-path="url(#clipPath142)">
        <path
           d="m 154.8626,100.0024 c -4.6354,0.2901 -8.6627,2.5417 -10.4166,5.8236 -5.1952,9.7211 8.0132,19.2291 20.4576,14.7262 -2.1555,-1.5009 -4.7808,-2.3673 -7.5127,-2.4793 -17.4764,-0.7166 -20.8501,20.431 -7.133,22.5836 6.1054,0.9581 11.0495,-4.3887 8.832,-9.5514 0.7073,-6.8349 -10.8814,-7.7433 -11.5009,-0.9015 -0.2089,2.3067 1.9764,3.9623 2.2935,6.1553 1.7822,12.3231 -31.0175,-4.1266 -18.227,-9.1151 0.1145,15.3511 36.4938,-12.9649 19.4537,-15.1419 -8.9615,-1.1449 -29.5504,6.1967 -23.0621,-2.628 1.8672,-2.5394 5.7945,-1.0893 9.2574,-0.3406 3.6521,0.7896 7.4692,0.047 10.6749,-1.7079 3.1531,-1.726 5.5742,-4.337 6.8832,-7.423 z"
           style="fill:#8f1b0f;fill-opacity:1;fill-rule:nonzero;stroke:none"
           id="path144" />
      </g>
    </g>
    <g
       id="g146">
      <g
         id="g148"
         clip-path="url(#clipPath152)">
        <path
           d="m 133.0614,182.6194 c 5.6878,-1.887 -0.9069,-9.0135 2.5461,-11.8253 1.256,-1.0228 3.2687,-0.9119 4.4122,-2.0559 2.1827,-2.1837 -0.6663,-5.2736 0.1438,-7.8711 0.8673,-2.781 5.8522,-4.8883 3.5221,-7.6162 -0.949,-1.1111 -2.7624,-0.9511 -4.0477,-1.6728 -1.0927,-0.6136 -1.6749,-1.7621 -1.4781,-2.9156 2.2193,1.9385 1.1282,5.5739 -1.7961,5.9846 -3.7439,0.5259 -8.6176,-9.5355 -11.7699,-3.3949 -3.6195,7.0508 8.923,3.7126 10.9879,6.9951 0.8208,1.3048 0.521,3.0153 -0.6952,3.9668 -1.0622,2.9257 0.0629,5.9675 2.5436,7.5214 0.9524,0.5966 2.0835,0.727 3.164,0.9641 1.0801,0.2371 2.1089,0.5804 2.8614,1.597 5.9905,8.0926 -6.9376,11.1313 -14.4061,1.7626 -3.7757,-4.7365 -8.8939,-6.1328 -9.7353,-1.4353 -0.6739,3.7632 3.8077,4.4038 6.6014,6.0496 2.5362,1.4941 4.189,4.9268 7.1459,3.9459 z"
           style="fill:#a42117;fill-opacity:1;fill-rule:nonzero;stroke:none"
           id="path154" />
      </g>
    </g>
    <g
       id="g156">
      <g
         id="g158"
         clip-path="url(#clipPath162)">
        <path
           d="m 175.1148,145.3072 c -4.6354,0.2902 -8.6627,2.5417 -10.4166,5.8236 -5.1952,9.7212 8.0133,19.2292 20.4576,14.7263 -2.1555,-1.5009 -4.7808,-2.3673 -7.5126,-2.4794 -17.4765,-0.7166 -20.8502,20.4311 -7.1331,22.5836 6.1054,0.9582 11.0495,-4.3886 8.832,-9.5513 0.7073,-6.8349 -10.8814,-7.7433 -11.5009,-0.9016 -0.2088,2.3067 1.9764,3.9624 2.2935,6.1553 1.7822,12.3232 -31.0175,-4.1265 -18.227,-9.1151 0.1145,15.3512 36.4938,-12.9648 19.4537,-15.1418 -8.9615,-1.1449 -29.5503,6.1967 -23.0621,-2.628 1.8672,-2.5394 5.7946,-1.0893 9.2575,-0.3406 3.652,0.7896 7.4691,0.047 10.6748,-1.7079 3.1531,-1.726 5.5742,-4.337 6.8832,-7.4231 z"
           style="fill:#8f1b0f;fill-opacity:1;fill-rule:nonzero;stroke:none"
           id="path164" />
      </g>
    </g>
    <g
       id="g166">
      <g
         id="g168"
         clip-path="url(#clipPath172)">
        <path
           d="m 189.0441,92.49182 c -3.3075,0.47094 -6.0811,3.28232 -6.9845,7.21617 -2.3132,10.07331 5.7061,19.42751 13.5235,15.12621 0.2521,-1.6717 -2.3551,-2.6934 -4.8925,-2.6957 -2.3066,-0.002 -2.6963,0.941 -4.9941,2.3751 -3.2314,2.017 -11.285,3.61 -15.8834,4.3094 -2.2649,0.3445 -3.0065,1.8581 -2.1336,3.3532 1.1682,2.0007 4.0471,0.87 6.6096,0.2509 4.0375,-0.9753 8.1264,1.3928 8.8048,5.139 2.0408,0.3121 3.0389,2.5023 2.707,4.4535 -1.1021,6.4776 -8.523,-0.1686 -8.8845,-9.309 -0.3263,-8.2494 -2.0191,-16.347 3.1625,-14.0776 1.8417,-0.3843 3.6564,-0.8687 5.4333,-1.4529 1.9498,-0.6411 3.9384,-1.6713 3.8903,-3.5345 -0.2121,-8.21196 -19.7761,6.9849 -18.193,-3.97139 0.842,-5.82659 8.2171,1.07129 13.352,0.88819 10.0658,-0.3589 12.0608,-5.79412 4.4826,-8.07058 z"
           style="fill:#8f1b0f;fill-opacity:1;fill-rule:nonzero;stroke:none"
           id="path174" />
      </g>
    </g>
    <g
       id="g176">
      <g
         id="g178"
         clip-path="url(#clipPath182)">
        <path
           d="m 226.2953,85.72971 c -4.6354,0.29015 -8.6627,2.5417 -10.4167,5.8236 -5.1951,9.72119 8.0133,19.22919 20.4576,14.72629 -2.1555,-1.501 -4.7808,-2.3674 -7.5126,-2.4794 -17.4765,-0.7166 -20.8501,20.431 -7.1331,22.5836 6.1054,0.9581 11.0495,-4.3886 8.832,-9.5513 0.7074,-6.835 -10.8814,-7.7433 -11.5009,-0.9016 -0.2088,2.3067 1.9764,3.9623 2.2936,6.1553 1.7821,12.3232 -31.0176,-4.1266 -18.2271,-9.1151 0.1145,15.3512 36.4939,-12.9649 19.4537,-15.14186 -8.9615,-1.1449 -29.5503,6.19666 -23.062,-2.62794 1.8671,-2.53946 5.7945,-1.08932 9.2574,-0.34063 3.652,0.78958 7.4691,0.04697 10.6748,-1.70788 3.1532,-1.72606 5.5743,-4.33705 6.8833,-7.42308 z"
           style="fill:#8f1b0f;fill-opacity:1;fill-rule:nonzero;stroke:none"
           id="path184" />
      </g>
    </g>
    <g
       id="g186">
      <g
         id="g188"
         clip-path="url(#clipPath192)">
        <path
           d="m 126.9678,84.70415 c -1.709,2.9733 -3.4762,6.30354 -5.4645,9.86051 -3.4351,6.14524 -7.2844,12.54184 -11.5807,18.84314 -2.8316,1.984 -6.909,-0.0283 -6.6197,-3.267 0.2866,-3.2092 4.5977,-4.643 8.4156,-3.1916 2.924,1.1115 5.514,3.5465 8.6425,2.8172 1.3925,-0.3246 2.5168,-1.2899 2.7774,-2.5663 0.2743,-1.3435 -0.5317,-2.7033 -0.1878,-4.037 0.5571,-2.1611 3.8669,-3.23817 3.5672,-5.58861 -0.3254,-2.5524 -3.9745,-2.98569 -7.3008,-2.04616 -6.0114,1.69789 -12.7592,1.34988 -13.2378,-2.8032 -0.6801,-5.90208 8.5482,-5.53822 17.239,-3.01115 7.1896,2.09052 12.4138,-3.87701 9.0547,-6.84042 -1.9068,-1.68221 -5.1073,-0.57783 -5.3051,1.83059 z"
           style="fill:#ffffff;fill-opacity:0.5552;fill-rule:nonzero;stroke:none"
           id="path194" />
      </g>
    </g>
    <g
       id="g196">
      <g
         id="g198"
         clip-path="url(#clipPath202)">
        <path
           d="m 247.2706,172.6398 c 5.8553,-14.1487 6.993,-29.1304 4.0344,-43.3645 -3.5066,-16.8703 -12.9341,-33.53214 -30.5315,-42.24356 -6.2032,-3.07081 -13.174,-4.70264 -20.3505,-5.76005 -6.6255,-0.97623 -13.4991,-1.50591 -20.4241,-1.60834 13.6699,-2.37092 27.7118,-1.62576 40.9803,2.19579 7.5808,2.18341 14.8369,5.37937 20.6773,10.18794 9.9597,8.20022 14.9513,20.21522 16.5656,32.55412 2.1964,16.7881 -1.6798,33.6715 -10.9515,48.0386 z"
           style="fill:#9c170e;fill-opacity:1;fill-rule:nonzero;stroke:none"
           id="path204" />
      </g>
    </g>
    <g
       id="g206">
      <g
         id="g208"
         clip-path="url(#clipPath212)">
        <g
           id="g214"
           clip-path="url(#clipPath218)">
          <path
             d="m 158.031,190.0969 c 3.562,3.5608 6.7424,7.4625 9.4968,11.6508 2.4898,3.7858 4.6268,7.799 7.3814,11.405 1.5662,2.0503 3.3344,3.9666 5.5215,5.3983 4.0725,2.6658 9.2228,3.4569 14.1424,2.1722 -8.4969,-3.0539 -14.9709,-9.651 -17.6841,-18.0201 -0.6897,-2.1276 -1.1036,-4.3398 -2.0962,-6.3628 -0.9816,-2.0003 -2.4802,-3.7433 -4.3934,-5.0868 z"
             style="fill:#8b764b;fill-opacity:1;fill-rule:nonzero;stroke:none"
             id="path220" />
        </g>
      </g>
    </g>
    <g
       id="g222">
      <g
         id="g224"
         clip-path="url(#clipPath228)">
        <path
           d="m 131.0437,162.1976 c 2.4715,6.2784 6.9017,11.092 12.304,13.3281 3.4531,1.4292 7.1257,1.706 10.7541,2.2336 6.3314,0.9205 12.6438,2.5294 19.0164,1.4599 3.4806,-0.5841 6.9353,-1.9188 10.1185,-3.6219 2.2719,-1.2155 4.4581,-2.6122 6.5391,-4.1815 l 7.0276,-3.5475 c 0.1001,2.9726 -0.9988,5.8441 -3.008,7.8596 -1.861,1.8668 -4.4859,2.8987 -5.611,5.412 -1.8131,4.0502 0.9155,8.5287 3.8479,12.052 2.4195,2.907 4.9203,5.724 7.9958,7.4621 2.8243,1.5961 5.9698,2.2261 8.7043,4.028 2.1883,1.4421 4.0542,3.5227 5.3855,6.086 -4.6566,-2.0887 -9.5355,-3.4608 -14.5048,-4.079 -4.7318,-0.5887 -9.5824,-0.5081 -14.0881,-2.2203 -5.2375,-1.9902 -9.49,-6.177 -14.6848,-7.9779 -7.1457,-2.4772 -14.8014,-0.3379 -21.8312,3.076 -4.157,2.0188 -8.1292,4.4224 -12.1568,6.7571 -3.4725,2.0129 -7.0073,3.9808 -10.6344,5.8542 0.7591,-2.941 1.8524,-5.7376 3.248,-8.3081 2.4261,-4.4685 5.7029,-8.1537 9.5504,-10.7405 -3.7203,-0.339 -7.4,-1.083 -10.984,-2.2211 -3.3411,-1.0609 -6.6186,-2.4597 -9.7348,-4.3328 -4.2179,-2.5352 -8.0693,-5.8914 -11.4032,-9.9368 3.6124,2.1279 7.4785,3.5459 11.4554,4.1866 3.2966,0.5311 6.6396,0.5342 9.9626,0.7924 3.1524,0.2449 6.2861,0.7195 9.3802,1.4206 -0.5481,-2.3887 -1.5703,-4.5756 -2.9761,-6.3675 -1.778,-2.2663 -4.1552,-3.9364 -5.0854,-6.8535 -0.8425,-2.6422 -0.2867,-5.6685 1.4128,-7.6198 z"
           style="fill:#bcc185;fill-opacity:1;fill-rule:nonzero;stroke:none"
           id="path230" />
      </g>
    </g>
    <g
       id="g232">
      <g
         id="g234"
         clip-path="url(#clipPath238)">
        <path
           d="m 159.8506,188.9832 0.9248,16.3699 -4.5079,24.0299 4.7926,1.3685 3.0313,-19.5664 2.5029,-24.3936 z"
           style="fill:#627849;fill-opacity:1;fill-rule:nonzero;stroke:none"
           id="path240" />
      </g>
    </g>
    <g
       id="g242">
      <g
         id="g244"
         clip-path="url(#clipPath248)">
        <path
           d="m 126.9377,164.3289 c -4.4963,5.0997 -15.3044,5.1615 -22.6048,1.731 -13.00222,-6.1098 -15.01325,-18.7996 -11.17471,-29.179 1.81894,-4.9184 5.77732,-10.0375 13.70901,-10.5338 5.4854,-0.3432 10.2984,1.9572 13.4593,4.6458 7.7768,6.615 6.4494,15.3285 7.7833,24.6548 0.4401,3.0774 0.8619,6.3742 -1.1721,8.6812 z"
           style="fill:#fff7e2;fill-opacity:0.2971;fill-rule:nonzero;stroke:none"
           id="path250" />
      </g>
    </g>
  </g>
</svg>
