<?xml version="1.0" encoding="UTF-8" standalone="no"?>
<svg
   xmlns:dc="http://purl.org/dc/elements/1.1/"
   xmlns:cc="http://creativecommons.org/ns#"
   xmlns:rdf="http://www.w3.org/1999/02/22-rdf-syntax-ns#"
   xmlns:svg="http://www.w3.org/2000/svg"
   xmlns="http://www.w3.org/2000/svg"
   viewBox="0 0 463.8288 330.63361"
   height="330.63361"
   width="463.8288"
   xml:space="preserve"
   id="svg2"
   version="1.1"><metadata
     id="metadata8"><rdf:RDF><cc:Work
         rdf:about=""><dc:format>image/svg+xml</dc:format><dc:type
           rdf:resource="http://purl.org/dc/dcmitype/StillImage" /></cc:Work></rdf:RDF></metadata><defs
     id="defs6"><clipPath
       id="clipPath20"
       clipPathUnits="userSpaceOnUse"><path
         id="path18"
         d="m 36,36 h 275.8716 v 75.56776 H 36 Z" /></clipPath><clipPath
       id="clipPath30"
       clipPathUnits="userSpaceOnUse"><path
         id="path28"
         d="m 91.72841,69.77174 h 169.6681 v 107.3389 H 91.72841 Z" /></clipPath><clipPath
       id="clipPath40"
       clipPathUnits="userSpaceOnUse"><path
         id="path38"
         d="m 112.8266,74.36834 h 25.59355 v 33.642 H 112.8266 Z" /></clipPath><clipPath
       id="clipPath54"
       clipPathUnits="userSpaceOnUse"><path
         id="path52"
         d="m 130.5734,93.81516 h 22.32378 v 29.97012 H 130.5734 Z" /></clipPath><clipPath
       id="clipPath64"
       clipPathUnits="userSpaceOnUse"><path
         id="path62"
         d="m 200.8268,90.52354 h 36.34786 v 69.93423 H 200.8268 Z" /></clipPath><clipPath
       id="clipPath74"
       clipPathUnits="userSpaceOnUse"><path
         id="path72"
         d="m 219.3986,115.5348 h 29.75 v 25.6188 h -29.75 z" /></clipPath><clipPath
       id="clipPath84"
       clipPathUnits="userSpaceOnUse"><path
         id="path82"
         d="m 161.2875,127.8447 h 25.2967 v 32.88138 h -25.2967 z" /></clipPath><clipPath
       id="clipPath94"
       clipPathUnits="userSpaceOnUse"><path
         id="path92"
         d="m 162.6217,80.74648 h 35.19145 v 50.37626 H 162.6217 Z" /></clipPath><clipPath
       id="clipPath104"
       clipPathUnits="userSpaceOnUse"><path
         id="path102"
         d="m 181.3824,127.1879 h 32.11481 v 50.37626 H 181.3824 Z" /></clipPath><clipPath
       id="clipPath114"
       clipPathUnits="userSpaceOnUse"><path
         id="path112"
         d="m 185.8561,126.3676 h 26.24403 v 42.71639 H 185.8561 Z" /></clipPath><clipPath
       id="clipPath124"
       clipPathUnits="userSpaceOnUse"><path
         id="path122"
         d="m 139.7921,91.35226 h 35.19145 v 50.37626 H 139.7921 Z" /></clipPath><clipPath
       id="clipPath134"
       clipPathUnits="userSpaceOnUse"><path
         id="path132"
         d="m 101.6832,104.066 h 32.11481 v 48.58067 H 101.6832 Z" /></clipPath><clipPath
       id="clipPath144"
       clipPathUnits="userSpaceOnUse"><path
         id="path142"
         d="m 132.9158,91.90718 h 36.47269 V 130.8603 H 132.9158 Z" /></clipPath><clipPath
       id="clipPath154"
       clipPathUnits="userSpaceOnUse"><path
         id="path152"
         d="m 126.0771,135.9353 h 25.2967 v 32.88138 h -25.2967 z" /></clipPath><clipPath
       id="clipPath164"
       clipPathUnits="userSpaceOnUse"><path
         id="path162"
         d="m 151.2401,132.8994 h 36.47269 v 38.95312 H 151.2401 Z" /></clipPath><clipPath
       id="clipPath174"
       clipPathUnits="userSpaceOnUse"><path
         id="path172"
         d="m 169.5782,85.11153 h 27.58464 v 40.10661 H 169.5782 Z" /></clipPath><clipPath
       id="clipPath184"
       clipPathUnits="userSpaceOnUse"><path
         id="path182"
         d="m 197.5487,78.99318 h 36.47269 V 117.9463 H 197.5487 Z" /></clipPath><clipPath
       id="clipPath194"
       clipPathUnits="userSpaceOnUse"><path
         id="path192"
         d="m 111.6385,75.67752 h 29.16849 v 31.07175 H 111.6385 Z" /></clipPath><clipPath
       id="clipPath204"
       clipPathUnits="userSpaceOnUse"><path
         id="path202"
         d="m 180.9994,70.54873 h 80.07433 v 87.45543 H 180.9994 Z" /></clipPath><clipPath
       id="clipPath214"
       clipPathUnits="userSpaceOnUse"><path
         id="path212"
         d="m 204.8383,203.5771 8.5612,-11.8953 -31.0097,-22.3181 -8.5612,11.8952 z" /></clipPath><clipPath
       id="clipPath220"
       clipPathUnits="userSpaceOnUse"><path
         id="path218"
         d="M 0,0 H 347.8716 V 247.9752 H 0 Z" /></clipPath><clipPath
       id="clipPath230"
       clipPathUnits="userSpaceOnUse"><path
         id="path228"
         d="m 124.4196,204.0984 103.368,-13.5664 -6.145,-46.8213 -103.3679,13.5664 z" /></clipPath><clipPath
       id="clipPath236"
       clipPathUnits="userSpaceOnUse"><path
         id="path234"
         d="M 0,0 H 347.8716 V 247.9752 H 0 Z" /></clipPath><clipPath
       id="clipPath246"
       clipPathUnits="userSpaceOnUse"><path
         id="path244"
         d="m 163.8047,170.1998 h 11.34372 v 41.77533 H 163.8047 Z" /></clipPath><clipPath
       id="clipPath256"
       clipPathUnits="userSpaceOnUse"><path
         id="path254"
         d="m 100.8999,115.7133 h 35.52692 v 40.10661 H 100.8999 Z" /></clipPath></defs><g
     transform="matrix(1.3333333,0,0,-1.3333333,0,330.6336)"
     id="g10"><g
       id="g12" /><g
       id="g14"><g
         clip-path="url(#clipPath20)"
         id="g16"><path
           id="path22"
           style="fill:#f6ce46;fill-opacity:1;fill-rule:nonzero;stroke:none"
           d="M 100.3985,104.2733 C 84.06059,109.6469 67.20055,106.1221 68.66929,95.14148 70.16808,83.93612 93.60638,85.73621 92.62082,73.11083 91.92324,64.17454 79.00887,63.47967 67.24527,65.3562 52.71029,67.67482 37.62578,62.95474 37.02401,51.49187 36.04796,32.89981 65.0103,34.28303 91.87805,43.97326 c 10.68935,3.85527 21.84725,5.09194 33.17135,5.21529 11.3211,0.12331 22.8176,-0.86501 34.2288,-1.56614 28.6519,-1.76048 60.0147,4.13143 83.6768,-4.08702 15.3044,-5.31561 31.9069,-9.6074 38.5774,2.8817 4.8897,9.15507 -1.5669,18.80341 -11.8444,20.64343 -9.324,1.66934 -21.9998,-1.38081 -23.4552,7.33508 -1.0049,6.01829 6.3277,9.75571 14.0448,10.36879 14.8684,1.18121 30.8506,-2.39204 43.6007,4.93979 3.8133,2.19285 7.0127,5.46279 6.9932,9.51053 -0.0399,8.28739 -10.8496,11.67839 -21.3641,11.32859 -31.945,-1.0626 -62.8362,-12.28625 -94.5539,-16.09873 -32.2273,-3.87372 -63.8025,-0.28589 -94.555,9.82873 z" /></g></g><g
       id="g24"><g
         clip-path="url(#clipPath30)"
         id="g26"><path
           id="path32"
           style="fill:#b62210;fill-opacity:1;fill-rule:nonzero;stroke:none"
           d="m 115.0187,169.323 c -15.35231,-9.3944 -22.57552,-25.3329 -22.28168,-41.7211 0.4396,-24.5178 17.58368,-45.09964 40.37888,-52.62312 12.731,-4.20181 25.9562,-4.29638 39.0704,-4.18133 13.1792,0.11562 26.6442,0.40032 39.7306,3.4893 27.678,6.53324 50.8335,28.99295 48.2878,56.95265 -1.5167,16.6586 -12.6044,31.3878 -30.4161,38.3982 -15.7386,6.1945 -33.9127,5.7 -51.2876,3.5324 -2.9025,-0.3622 -5.7962,-0.7694 -8.6794,-1.223 l -24.8515,3.6539 c -10.5968,1.6372 -20.8787,-0.7261 -29.9514,-6.2779 z" /></g></g><g
       id="g34"><g
         clip-path="url(#clipPath40)"
         id="g36"><path
           id="path42"
           style="fill:#dc432b;fill-opacity:1;fill-rule:nonzero;stroke:none"
           d="m 136.096,77.20475 c -4.8783,2.59308 -9.1504,6.02962 -12.5748,10.11545 -4.3801,5.22617 -7.2557,11.36317 -8.366,17.8547 5.304,-2.8096 9.8876,-6.61502 13.4447,-11.16239 3.9069,-4.9946 6.474,-10.75054 7.4961,-16.80776 z" /><g
           transform="matrix(1,0,0,-1,115.1552,105.1749)"
           id="g44"><path
             id="path46"
             style="fill:none;stroke:#000000;stroke-width:2;stroke-linecap:butt;stroke-linejoin:miter;stroke-miterlimit:4;stroke-dasharray:none;stroke-opacity:1"
             d="M 20.94084,27.97012 C 16.06251,25.37704 11.79047,21.9405 8.366093,17.85467 3.985986,12.6285 1.110394,6.491497 0,0 c 5.304074,2.809527 9.887648,6.614992 13.44474,11.16236 3.90693,4.9946 6.47403,10.75054 7.4961,16.80776 z" /></g></g></g><g
       id="g48"><g
         clip-path="url(#clipPath54)"
         id="g50"><path
           id="path56"
           style="fill:#a42117;fill-opacity:1;fill-rule:nonzero;stroke:none"
           d="m 145.0275,94.81516 c -0.8773,2.55397 -1.6257,5.85824 -2.2957,9.74044 -0.9283,5.3791 -1.6773,11.6381 -2.3013,18.2297 -2.8243,-1.3291 -1.5443,-5.2252 1.6195,-4.9295 3.4541,0.3228 11.1167,7.4895 9.6667,2.4997 -0.3421,-1.1773 -2.0051,-1.1066 -3.4241,-1.1641 -2.7198,-0.1104 -5.0275,-1.9137 -5.5375,-4.301 -0.6719,-3.1448 1.764,-6.1377 5.2695,-6.4746 -1.6185,-1.9855 -4.2202,-3.1064 -6.9361,-2.9882 -4.3876,0.1908 -9.5697,0.9247 -9.5147,-2.5364 0.0941,-5.91637 8.7283,-0.8649 12.3907,-2.7245 2.1347,-1.08395 2.6611,-3.66956 1.063,-5.35154 z" /></g></g><g
       id="g58"><g
         clip-path="url(#clipPath64)"
         id="g60"><path
           id="path66"
           style="fill:#a42117;fill-opacity:1;fill-rule:nonzero;stroke:none"
           d="m 223.6267,135.7866 c 4.085,2.2036 8.6142,-2.1701 5.9462,-5.7421 -2.2612,-3.0273 -11.6625,-1.2082 -10.032,-6.5424 1.6802,-5.4967 8.2085,1.1061 12.7183,0.9109 10.9261,-0.4729 -3.9649,-21.3828 -8.9148,-12.5181 -1.6787,-3.4408 -6.1263,-4.9733 -9.8932,-3.4087 -4.8038,1.9952 -10.163,5.4452 -11.3847,1.4084 -2.1326,-7.0465 10.6212,-2.8287 12.3407,-6.7484 1.4206,-3.23822 -6.1485,-7.26881 -1.848,-10.42342 7.3402,-5.38433 3.0971,8.85632 6.097,13.18552 2.4442,3.5273 8.2854,2.7133 9.1898,-1.3733 4.555,4.0637 2.7234,11.0514 -3.3236,12.868 -2.9216,0.8777 -6.4238,0.0839 -8.8034,1.9479 -6.0909,4.7714 2.9038,18.1481 11.8224,27.3638 4.2587,4.4007 9.2394,8.008 8.4827,10.9212 -0.2617,1.0074 -1.3923,1.7248 -2.5212,1.8146 -1.9575,0.1556 -3.1786,-2.2102 -4.9256,-3.9016 -2.5588,-2.4775 -1.9152,-6.8497 -5.4174,-8.3288 -0.9166,-0.3872 -1.9327,-0.3888 -2.9054,-0.4738 -1.4869,-0.1298 -2.9548,-0.4614 -4.3577,-0.9971 -2.4798,-1.0734 -2.7381,-4.189 -0.4632,-5.5879 1.7523,-1.0775 4.1788,-0.2751 5.9921,-1.2418 2.9332,-1.5638 2.1488,-5.3439 0.2569,-8.4757 -4.3623,-7.221 -14.6414,-6.7263 -14.2194,-1.7454 0.2726,3.2165 4.8071,3.371 8.6391,3.7814 2.845,0.3047 5.4949,1.4693 7.5244,3.3068 z" /></g></g><g
       id="g68"><g
         clip-path="url(#clipPath74)"
         id="g70"><path
           id="path76"
           style="fill:#8f1b0f;fill-opacity:1;fill-rule:nonzero;stroke:none"
           d="m 229.5767,137.9341 c 1.0825,4.5929 9.561,1.2708 7.0884,-2.8539 -2.127,-3.5482 -23.1927,-1.8313 -13.9213,-7.2166 1.6322,-0.948 3.3748,0.5153 5.1124,1.2151 10.1094,4.0715 16.5011,-10.089 4.854,-11.0671 -3.7715,-0.3168 -6.9995,2.0563 -6.0102,4.6806 -0.5435,3.3651 7.4728,3.823 7.8263,0.4418 0.1183,-1.1312 -1.261,-1.9566 -1.5607,-3.0164 -2.2139,-7.8288 18.7395,-1.2061 12.4034,4.4669 -3.6886,3.3026 -18.4013,0.6484 -13.2381,7.4202 2.7406,3.5945 18.4546,-8.0069 15.6936,1.2878 -0.5047,1.6992 -3.309,1.9693 -5.8346,1.6335 -2.5668,-0.3413 -5.2294,-0.7735 -7.7292,-0.6296 -2.7307,0.1572 -5.157,1.6309 -4.684,3.6377 z" /></g></g><g
       id="g78"><g
         clip-path="url(#clipPath84)"
         id="g80"><path
           id="path86"
           style="fill:#a42117;fill-opacity:1;fill-rule:nonzero;stroke:none"
           d="m 174.7877,159.5691 c 5.1464,-1.7073 -0.8206,-8.1554 2.3038,-10.6996 1.1364,-0.9254 2.9575,-0.8251 3.9921,-1.8602 1.975,-1.9758 -0.6028,-4.7716 0.1301,-7.1218 0.7848,-2.5163 5.2952,-4.423 3.1869,-6.8912 -0.8587,-1.0053 -2.4994,-0.8606 -3.6624,-1.5136 -0.9887,-0.5551 -1.5155,-1.5943 -1.3373,-2.638 2.008,1.7539 1.0207,5.0432 -1.6253,5.4149 -3.3874,0.4758 -7.7972,-8.6278 -10.6494,-3.0717 -3.275,6.3796 8.0736,3.3592 9.9419,6.3291 0.7427,1.1807 0.4715,2.7283 -0.629,3.5892 -0.961,2.6473 0.057,5.3995 2.3015,6.8055 0.8617,0.5398 1.8852,0.6578 2.8628,0.8723 0.9773,0.2145 1.9081,0.5252 2.589,1.445 5.4202,7.3223 -6.2772,10.0717 -13.0348,1.5948 -3.4163,-4.2856 -8.0472,-5.549 -8.8085,-1.2987 -0.6098,3.405 3.4452,3.9847 5.973,5.4738 2.2948,1.3518 3.7902,4.4578 6.4656,3.5702 z" /></g></g><g
       id="g88"><g
         clip-path="url(#clipPath94)"
         id="g90"><path
           id="path96"
           style="fill:#a42117;fill-opacity:1;fill-rule:nonzero;stroke:none"
           d="m 175.7875,93.62595 c -1.4439,1.31904 -3.0898,2.32862 -4.7656,3.09084 -2.4646,1.12099 -5.0338,1.92728 -6.1022,3.72701 -2.5608,4.3135 3.2896,8.9615 11.2231,7.504 4.2754,-0.2932 8.5623,0.4101 12.4549,2.0433 7.0679,2.9655 3.1661,14.0338 -1.0045,10.6749 -2.4765,-1.9945 1.4911,-5.2884 -0.199,-7.4739 -9.1822,-11.8737 -2.6403,17.2668 -10.2669,16.9277 -11.0795,-0.4926 3.104,-11.4212 1.3532,-16.0603 -1.154,-3.0576 -5.6377,-4.0494 -8.0049,-1.6999 -6.6423,-2.7449 -4.2522,-11.8589 3.0348,-11.5167 2.1629,0.1016 4.3906,0.8572 6.3403,0.3615 15.057,-3.82814 -32.2895,-20.29193 -10.2957,-19.4249 4.8363,0.19066 2.4229,3.97282 5.4123,5.95123 2.6838,1.77619 7.9738,1.71875 10.5516,-0.07686 -1.857,-2.12194 -5.6134,-1.08483 -5.8577,1.61727 -0.622,6.87797 21.2273,-1.79082 16.475,8.60381 -1.608,3.51715 -6.6226,0.80367 -10.876,-2.26675 -2.667,-1.92527 -6.1644,-2.6585 -9.4727,-1.98225 z" /></g></g><g
       id="g98"><g
         clip-path="url(#clipPath104)"
         id="g100"><path
           id="path106"
           style="fill:#a42117;fill-opacity:1;fill-rule:nonzero;stroke:none"
           d="m 194.5482,140.0674 c -1.4438,1.319 -3.0897,2.3286 -4.7655,3.0908 -2.4646,1.121 -5.0338,1.9273 -6.1023,3.727 -2.5608,4.3135 3.2896,8.9615 11.2232,7.504 4.2753,-0.2932 8.5622,0.4101 12.4549,2.0433 7.0678,2.9655 3.166,14.0338 -1.0046,10.6749 -2.4765,-1.9945 1.4911,-5.2884 -0.1989,-7.4739 -9.1823,-11.8737 -2.6403,17.2668 -10.267,16.9277 -11.0795,-0.4926 3.1041,-11.4212 1.3532,-16.0603 -1.1539,-3.0576 -5.6376,-4.0494 -8.0048,-1.6999 -6.6424,-2.7449 -4.2523,-11.8588 3.0348,-11.5166 2.1629,0.1015 4.3905,0.8571 6.3403,0.3614 15.0569,-3.8281 -32.2896,-20.2919 -10.2958,-19.4249 4.8364,0.1907 2.4229,3.9728 5.4123,5.9512 2.6839,1.7762 7.9738,1.7188 10.5517,-0.0768 -1.6445,-2.6623 -6.1208,-1.4265 -5.8578,1.6172 0.3532,4.0868 19.1686,-0.9104 12.7366,7.7196 -1.5158,2.0338 -4.5761,0.3702 -7.1375,-1.3825 -2.7056,-1.8513 -6.1632,-2.5764 -9.4728,-1.9822 z" /></g></g><g
       id="g108"><g
         clip-path="url(#clipPath114)"
         id="g110"><path
           id="path116"
           style="fill:#8f1b0f;fill-opacity:1;fill-rule:nonzero;stroke:none"
           d="m 207.8129,127.479 c -1.5005,-0.4663 -3.1183,0.5503 -4.2452,2.6972 -5.1027,9.7219 1.6825,23.7251 7.5324,17.5183 -0.007,-1.4828 -1.237,-2.3802 -2.4595,-2.439 -0.993,-0.0479 -1.9042,0.9314 -2.5106,2.149 -4.0702,8.1728 -8.9379,22.1122 -11.3719,14.0473 -0.8657,-2.8687 1.1767,-6.6828 4.9073,-6.9916 3.2441,-0.2684 6.0557,2.1594 7.2535,5.4663 3.3887,-2.5872 4.9645,8.519 1.1622,8.1484 -1.4886,-0.1451 -2.0276,-2.4411 -2.6364,-4.3015 -1.3029,-3.9812 -5.4881,-7.1472 -5.0022,-11.3841 0.2873,-2.5051 2.2268,-5.1036 0.5498,-7.2053 -3.0395,-3.8092 -9.3026,1.2124 -12.8094,-1.4954 -7.7353,-5.973 21.1358,-9.0371 15.1231,-1.605 1.3766,2.8519 4.3211,0.9216 3.9246,-2.8063 -0.3428,-3.2237 -2.8691,-3.4803 -5.1659,-2.8159 -0.7677,0.222 -1.6016,0.6073 -1.7506,1.7999 -0.4366,3.4946 4.4028,2.2251 5.2453,-3.48 0.3967,-2.6859 1.168,-5.1852 2.2535,-7.3023 z" /></g></g><g
       id="g118"><g
         clip-path="url(#clipPath124)"
         id="g120"><path
           id="path126"
           style="fill:#a42117;fill-opacity:1;fill-rule:nonzero;stroke:none"
           d="m 152.9579,104.2317 c -1.4438,1.3191 -3.0898,2.3286 -4.7656,3.0909 -2.4646,1.121 -5.0338,1.9272 -6.1022,3.727 -2.5608,4.3135 3.2896,8.9614 11.2231,7.5039 4.2754,-0.2932 8.5623,0.4101 12.4549,2.0434 7.0679,2.9654 3.1661,14.0338 -1.0045,10.6749 -2.4765,-1.9946 1.4911,-5.2885 -0.199,-7.4739 -9.1822,-11.8737 -2.6403,17.2667 -10.2669,16.9277 -11.0795,-0.4926 3.104,-11.4212 1.3532,-16.0603 -1.1539,-3.0577 -5.6376,-4.0494 -8.0049,-1.6999 -6.6423,-2.745 -4.2522,-11.8589 3.0349,-11.5167 2.1628,0.1016 4.3905,0.8572 6.3402,0.3615 15.057,-3.8282 -32.2895,-20.29196 -10.2957,-19.42493 4.8363,0.19066 2.4229,3.97282 5.4123,5.95123 2.6838,1.7762 7.9738,1.7188 10.5516,-0.07685 -1.857,-2.12194 -5.6134,-1.08483 -5.8577,1.61727 -0.622,6.87798 21.2274,-1.79083 16.475,8.60378 -1.608,3.5172 -6.6226,0.8037 -10.8759,-2.2667 -2.6671,-1.9253 -6.1645,-2.6585 -9.4728,-1.9823 z" /></g></g><g
       id="g128"><g
         clip-path="url(#clipPath134)"
         id="g130"><path
           id="path136"
           style="fill:#a42117;fill-opacity:1;fill-rule:nonzero;stroke:none"
           d="m 121.7599,140.2081 c 1.3101,-1.27 2.8034,-2.2421 4.3239,-2.9761 2.2361,-1.0794 4.5672,-1.8557 5.5366,-3.5886 2.3234,-4.1535 -2.9847,-8.6289 -10.1829,-7.2255 -3.879,0.2823 -7.7685,-0.3949 -11.3004,-1.9675 -6.4127,-2.8554 -2.8725,-13.5129 0.9114,-10.2786 2.247,1.9205 -1.3528,5.0921 0.1806,7.1964 8.3311,11.433 2.3955,-16.6258 9.3152,-16.2994 10.0526,0.4743 -2.8163,10.9973 -1.2278,15.4642 1.047,2.9442 5.1151,3.8991 7.2629,1.6368 6.0267,2.6431 3.8581,11.4187 -2.7535,11.0892 -1.9624,-0.0978 -3.9836,-0.8253 -5.7525,-0.348 -13.6613,3.686 29.2964,19.5387 9.3414,18.7039 -4.3881,-0.1836 -2.1984,-3.8254 -4.9107,-5.7303 -2.4351,-1.7103 -7.2346,-1.655 -9.5735,0.074 1.6848,2.0431 5.093,1.0445 5.3147,-1.5573 0.5643,-6.6227 -19.2597,1.7244 -14.9479,-8.2845 1.459,-3.3866 6.0088,-0.7738 9.8678,2.1827 2.4199,1.8538 5.5931,2.5598 8.5947,1.9086 z" /></g></g><g
       id="g138"><g
         clip-path="url(#clipPath144)"
         id="g140"><path
           id="path146"
           style="fill:#8f1b0f;fill-opacity:1;fill-rule:nonzero;stroke:none"
           d="m 159.3033,92.90718 c -4.1941,0.26253 -7.8381,2.29974 -9.425,5.26923 -4.7007,8.79579 7.2504,17.39869 18.5102,13.32439 -1.9503,-1.358 -4.3257,-2.1419 -6.7975,-2.2433 -15.8129,-0.6484 -18.8654,18.4862 -6.4541,20.4338 5.5242,0.8669 9.9977,-3.9709 7.9913,-8.6421 0.64,-6.1843 -9.8456,-7.0062 -10.4061,-0.8158 -0.189,2.0872 1.7882,3.5852 2.0752,5.5694 1.6125,11.1501 -28.0649,-3.7337 -16.492,-8.2474 0.1036,13.8899 33.0199,-11.7307 17.6019,-13.7005 -8.1085,-1.0359 -26.7374,5.6068 -20.8667,-2.3778 1.6893,-2.29768 5.2429,-0.9856 8.3761,-0.3082 3.3044,0.7145 6.7582,0.0425 9.6587,-1.54526 2.853,-1.56176 5.0436,-3.9242 6.228,-6.71646 z" /></g></g><g
       id="g148"><g
         clip-path="url(#clipPath154)"
         id="g150"><path
           id="path156"
           style="fill:#a42117;fill-opacity:1;fill-rule:nonzero;stroke:none"
           d="m 139.5774,167.6597 c 5.1463,-1.7073 -0.8206,-8.1554 2.3037,-10.6996 1.1365,-0.9254 2.9576,-0.8251 3.9922,-1.8602 1.975,-1.9758 -0.6029,-4.7716 0.1301,-7.1219 0.7848,-2.5162 5.2951,-4.4229 3.1869,-6.8912 -0.8587,-1.0053 -2.4994,-0.8605 -3.6624,-1.5135 -0.9887,-0.5551 -1.5155,-1.5943 -1.3374,-2.638 2.008,1.7539 1.0208,5.0432 -1.6252,5.4149 -3.3875,0.4758 -7.7972,-8.6278 -10.6494,-3.0718 -3.275,6.3796 8.0736,3.3592 9.9419,6.3292 0.7427,1.1806 0.4714,2.7283 -0.629,3.5892 -0.9611,2.6472 0.0569,5.3995 2.3014,6.8055 0.8618,0.5397 1.8853,0.6577 2.8629,0.8723 0.9773,0.2145 1.9081,0.5252 2.589,1.445 5.4202,7.3223 -6.2772,10.0717 -13.0348,1.5947 -3.4163,-4.2855 -8.0473,-5.5489 -8.8085,-1.2986 -0.6098,3.4049 3.4452,3.9846 5.973,5.4737 2.2948,1.3519 3.7902,4.4579 6.4656,3.5703 z" /></g></g><g
       id="g158"><g
         clip-path="url(#clipPath164)"
         id="g160"><path
           id="path166"
           style="fill:#8f1b0f;fill-opacity:1;fill-rule:nonzero;stroke:none"
           d="m 177.6277,133.8994 c -4.1942,0.2625 -7.8381,2.2997 -9.4251,5.2692 -4.7006,8.7958 7.2505,17.3987 18.5102,13.3244 -1.9503,-1.358 -4.3257,-2.142 -6.7975,-2.2433 -15.8128,-0.6484 -18.8653,18.4862 -6.454,20.4338 5.5242,0.8669 9.9976,-3.9709 7.9912,-8.6421 0.64,-6.1843 -9.8456,-7.0062 -10.4061,-0.8158 -0.1889,2.0872 1.7883,3.5852 2.0752,5.5694 1.6126,11.1501 -28.0649,-3.7338 -16.4919,-8.2474 0.1036,13.8899 33.0199,-11.7307 17.6018,-13.7005 -8.1084,-1.0359 -26.7373,5.6068 -20.8667,-2.3778 1.6894,-2.2977 5.2429,-0.9856 8.3762,-0.3082 3.3044,0.7144 6.7581,0.0425 9.6587,-1.5453 2.8529,-1.5617 5.0436,-3.9242 6.228,-6.7164 z" /></g></g><g
       id="g168"><g
         clip-path="url(#clipPath174)"
         id="g170"><path
           id="path176"
           style="fill:#8f1b0f;fill-opacity:1;fill-rule:nonzero;stroke:none"
           d="m 190.231,86.11153 c -2.9926,0.42611 -5.5022,2.96987 -6.3196,6.52925 -2.093,9.11442 5.1629,17.57822 12.2362,13.68632 0.2281,-1.5126 -2.1309,-2.437 -4.4268,-2.4391 -2.087,-0.002 -2.4397,0.8514 -4.5187,2.1491 -2.9238,1.8249 -10.2107,3.2663 -14.3714,3.8991 -2.0493,0.3117 -2.7204,1.6812 -1.9305,3.034 1.057,1.8103 3.6618,0.7871 5.9804,0.227 3.6532,-0.8825 7.3528,1.2602 7.9666,4.6499 1.8465,0.2823 2.7497,2.2641 2.4494,4.0295 -0.9972,5.861 -7.7117,-0.1526 -8.0388,-8.4229 -0.2952,-7.4641 -1.8269,-14.79088 2.8615,-12.7375 1.6663,-0.3477 3.3083,-0.78601 4.916,-1.31462 1.7642,-0.58006 3.5635,-1.51221 3.52,-3.19804 -0.1919,-7.43022 -17.8936,6.31996 -16.4611,-3.59333 0.7618,-5.27194 7.4349,0.9693 12.081,0.80363 9.1075,-0.32474 10.9126,-5.24255 4.0558,-7.30231 z" /></g></g><g
       id="g178"><g
         clip-path="url(#clipPath184)"
         id="g180"><path
           id="path186"
           style="fill:#8f1b0f;fill-opacity:1;fill-rule:nonzero;stroke:none"
           d="m 223.9363,79.99318 c -4.1942,0.26253 -7.8381,2.29974 -9.4251,5.26923 -4.7006,8.79578 7.2505,17.39869 18.5102,13.32444 -1.9503,-1.35806 -4.3257,-2.142 -6.7975,-2.24335 -15.8128,-0.64839 -18.8653,18.4862 -6.4541,20.4338 5.5243,0.8669 9.9977,-3.9709 7.9913,-8.6421 0.64,-6.1843 -9.8456,-7.0062 -10.4061,-0.8158 -0.1889,2.0872 1.7883,3.5852 2.0752,5.5694 1.6125,11.1501 -28.0649,-3.7337 -16.4919,-8.2474 0.1036,13.8899 33.0199,-11.73071 17.6018,-13.70048 -8.1084,-1.03591 -26.7374,5.60682 -20.8667,-2.37778 1.6894,-2.29772 5.2429,-0.98563 8.3762,-0.3082 3.3044,0.71441 6.7581,0.04249 9.6587,-1.54531 2.8529,-1.56175 5.0436,-3.9242 6.228,-6.71645 z" /></g></g><g
       id="g188"><g
         clip-path="url(#clipPath194)"
         id="g190"><path
           id="path196"
           style="fill:#ffffff;fill-opacity:0.55519996;fill-rule:nonzero;stroke:none"
           d="m 134.064,79.06521 c -1.5463,2.69026 -3.1454,5.70349 -4.9444,8.92187 -3.1081,5.56027 -6.591,11.34799 -10.4783,17.04942 -2.562,1.7951 -6.2513,-0.0256 -5.9896,-2.956 0.2594,-2.90373 4.1601,-4.201 7.6146,-2.88783 2.6456,1.00573 4.9891,3.20893 7.8198,2.54903 1.2599,-0.2937 2.2772,-1.167 2.513,-2.32194 0.2482,-1.21567 -0.4811,-2.44598 -0.17,-3.65279 0.5042,-1.95539 3.4989,-2.92988 3.2277,-5.05658 -0.2945,-2.30943 -3.5961,-2.70147 -6.6059,-1.85138 -5.439,1.53626 -11.5446,1.22139 -11.9776,-2.53636 -0.6154,-5.34025 7.7345,-5.01102 15.598,-2.72451 6.5052,1.89152 11.2321,-3.50795 8.1928,-6.18927 -1.7253,-1.52207 -4.6212,-0.52282 -4.8001,1.65634 z" /></g></g><g
       id="g198"><g
         clip-path="url(#clipPath204)"
         id="g200"><path
           id="path206"
           style="fill:#9c170e;fill-opacity:1;fill-rule:nonzero;stroke:none"
           d="m 247.8138,157.0042 c 4.2833,-8.6833 6.1728,-18.352 5.4734,-28.009 -1.1429,-15.7824 -8.9841,-30.33452 -21.6142,-39.8644 -8.7999,-6.63991 -19.3276,-10.33791 -29.9854,-13.10734 -6.4906,-1.68658 -13.0616,-3.04731 -19.6882,-4.07709 10.8932,-1.05121 21.887,-0.01351 32.3912,3.05741 16.0648,4.69659 30.6345,14.13019 39.0336,28.58572 6.5487,11.2708 8.622,24.7142 4.5881,37.0933 -2.0173,6.1909 -5.5186,11.7942 -10.1985,16.3214 z" /></g></g><g
       id="g208"><g
         clip-path="url(#clipPath214)"
         id="g210"><g
           clip-path="url(#clipPath220)"
           id="g216"><path
             id="path222"
             style="fill:#8b764b;fill-opacity:1;fill-rule:nonzero;stroke:none"
             d="m 175.2244,181.0314 c 5.1865,0.6926 10.2573,2.0743 15.0782,4.1085 2.7477,1.1594 5.4009,2.5256 8.0371,3.9191 2.115,1.118 4.2252,2.2565 6.4608,3.1101 1.9078,0.7285 3.8906,1.2431 5.9119,1.5344 -4.1885,-4.9639 -9.0175,-9.3498 -14.3604,-13.0425 -1.5403,-1.0645 -3.1312,-2.0751 -4.8943,-2.7095 -1.7411,-0.6265 -3.6142,-0.8606 -5.5093,-0.6985 z" /></g></g></g><g
       id="g224"><g
         clip-path="url(#clipPath230)"
         id="g226"><g
           clip-path="url(#clipPath236)"
           id="g232"><path
             id="path238"
             style="fill:#bcc185;fill-opacity:1;fill-rule:nonzero;stroke:none"
             d="m 141.0612,155.2951 c 2.9563,5.3414 7.4975,9.1382 12.6073,10.5081 3.266,0.8757 6.5934,0.6916 9.9106,0.7376 5.7884,0.0804 11.6408,0.7805 17.2318,-0.9292 3.0537,-0.9338 5.9974,-2.5413 8.651,-4.4406 1.8958,-1.3569 3.6919,-2.8684 5.374,-4.5213 l 5.8868,-4.0099 c 0.2471,2.6318 -0.3779,5.2632 -1.7731,7.4051 -1.287,1.9758 -3.1656,3.4522 -4.3965,5.5158 -1.3996,2.3465 -1.7117,5.2308 0.2028,6.9377 1.1929,1.0636 2.9334,1.1761 4.5808,1.1745 3.3254,-0.003 6.6562,-0.0824 9.9349,-0.5217 2.7984,-0.3749 5.555,-0.9997 8.3273,-1.5327 2.1754,-0.4181 4.3613,-0.7799 6.5554,-1.0849 -3.2244,2.524 -6.7781,4.5963 -10.5628,6.1595 -4.7649,1.968 -9.8211,3.1014 -14.945,3.6581 -5.9263,0.6439 -11.9377,0.5295 -17.8457,1.0232 -6.6676,0.5572 -13.3159,1.9368 -19.2229,5.3299 -3.6334,2.0872 -6.8195,4.8589 -10.1105,7.4933 -2.8372,2.2711 -5.7786,4.4546 -8.8509,6.504 0.3346,-2.7278 0.9862,-5.3654 1.9356,-7.8358 1.6503,-4.2944 4.1561,-7.9862 7.3032,-10.7599 -3.3775,0.1339 -6.7662,-0.1004 -10.1155,-0.6994 -3.1222,-0.5583 -6.2272,-1.4273 -9.2433,-2.7408 -4.0824,-1.7777 -7.9327,-4.3351 -11.3999,-7.5718 3.4912,1.4837 7.1264,2.3044 10.7697,2.4071 3.0159,0.085 6.019,-0.3035 9.0309,-0.4622 2.8611,-0.1507 5.7294,-0.0939 8.5823,0.17 -0.7729,-2.0783 -1.9474,-3.9199 -3.4195,-5.3619 -1.862,-1.8238 -4.1912,-3.0422 -5.3691,-5.5496 -1.067,-2.2711 -0.9247,-5.0515 0.3703,-7.0022 z" /></g></g></g><g
       id="g240"><g
         clip-path="url(#clipPath246)"
         id="g242"><path
           id="path248"
           style="fill:#627849;fill-opacity:1;fill-rule:nonzero;stroke:none"
           d="m 168.0467,173.1829 0.8368,14.8116 -4.0788,21.7425 4.3364,1.2382 2.7427,-17.7038 2.2646,-22.0716 z" /></g></g><g
       id="g250"><g
         clip-path="url(#clipPath256)"
         id="g252"><path
           id="path258"
           style="fill:#fff7e2;fill-opacity:0.29710005;fill-rule:nonzero;stroke:none"
           d="m 134.0367,151.1104 c -4.0683,4.6142 -13.8476,4.6701 -20.453,1.5662 -11.7645,-5.5283 -13.58411,-17.01 -10.111,-26.4014 1.6458,-4.4502 5.2274,-9.082 12.4041,-9.531 4.9632,-0.3106 9.3181,1.7708 12.178,4.2035 7.0366,5.9853 5.8355,13.8693 7.0424,22.3079 0.3983,2.7844 0.7799,5.7674 -1.0605,7.8548 z" /></g></g></g></svg>