<?xml version="1.0" encoding="UTF-8" standalone="no"?>
<!-- Created with Inkscape (http://www.inkscape.org/) -->

<svg
   version="1.1"
   id="svg2"
   width="258.59546"
   height="266.58572"
   viewBox="0 0 258.59546 266.58572"
   xmlns="http://www.w3.org/2000/svg"
   xmlns:svg="http://www.w3.org/2000/svg">
  <defs
     id="defs6">
    <clipPath
       clipPathUnits="userSpaceOnUse"
       id="clipPath18">
      <path
         d="m 36,36 h 121.9466 v 78.85289 H 36 Z"
         id="path16" />
    </clipPath>
    <clipPath
       clipPathUnits="userSpaceOnUse"
       id="clipPath28">
      <path
         d="m 56.87775,85.21421 2.2467,18.74389 32.51118,-3.8969 -2.2467,-18.74389 z"
         id="path26" />
    </clipPath>
    <clipPath
       clipPathUnits="userSpaceOnUse"
       id="clipPath34">
      <path
         d="M 0,0 H 193.9466 V 199.9393 H 0 Z"
         id="path32" />
    </clipPath>
    <clipPath
       clipPathUnits="userSpaceOnUse"
       id="clipPath44">
      <path
         d="M 45.95356,147.3787 153.0134,147.2655 152.9561,93.03425 45.89622,93.14745 Z"
         id="path42" />
    </clipPath>
    <clipPath
       clipPathUnits="userSpaceOnUse"
       id="clipPath50">
      <path
         d="M 0,0 H 193.9466 V 199.9393 H 0 Z"
         id="path48" />
    </clipPath>
    <clipPath
       clipPathUnits="userSpaceOnUse"
       id="clipPath60">
      <path
         d="m 89.43341,109.5517 h 15.07978 v 54.38766 H 89.43341 Z"
         id="path58" />
    </clipPath>
  </defs>
  <g
     id="g8"
     transform="matrix(1.3333333,0,0,-1.3333333,0,266.58573)">
    <g
       id="g10" />
    <g
       id="g12">
      <g
         id="g14"
         clip-path="url(#clipPath18)">
        <path
           d="M 55.2883,111.0245 C 46.786,108.526 37.16704,105.6007 37.00213,98.17097 36.77286,87.84135 55.13091,85.82104 55.71732,75.82859 56.22753,67.13468 42.45332,63.00629 42.76453,54.35111 43.15654,43.44872 60.91733,39.16558 73.3743,49.18164 c 5.48361,4.40912 9.92767,10.77476 17.4435,10.83372 12.4987,0.09805 14.6626,-14.35916 24.0716,-20.06066 13.7094,-8.30738 30.4453,2.33987 25.8171,14.15072 -2.8964,7.39146 -16.2447,13.64757 -8.8936,20.12432 3.39,2.98678 8.7543,1.14272 13.3545,1.80002 11.9439,1.70659 15.9191,15.59176 6.6928,25.11064 -4.6179,4.7643 -11.4185,7.2139 -18.308,8.8443 -13.793,3.2639 -28.2724,3.5869 -42.51087,2.2913 -2.40433,-0.2188 -4.80294,-0.4833 -7.19411,-0.7933 l -20.59879,2.3702 c -2.58424,-1.0853 -5.24269,-2.0299 -7.96013,-2.8284 z"
           style="fill:#55110c;fill-opacity:1;fill-rule:nonzero;stroke:none"
           id="path20" />
      </g>
    </g>
    <g
       id="g22">
      <g
         id="g24"
         clip-path="url(#clipPath28)">
        <g
           id="g30"
           clip-path="url(#clipPath34)">
          <path
             d="m 62.88659,101.7951 c -3.93997,-1.5904 -4.57062,-6.47312 -2.47996,-10.07279 3.72355,-6.41117 12.81204,-8.42312 20.54311,-7.58883 3.66346,0.39533 7.58836,1.74081 8.37801,5.28489 0.5461,2.45098 -0.86029,4.82756 -2.63764,6.49065 -4.37296,4.09188 -10.76044,4.24848 -17.44785,5.66198 -2.20658,0.4664 -4.57327,0.9436 -6.35567,0.2241 z"
             style="fill:#fffdd7;fill-opacity:0.5129;fill-rule:nonzero;stroke:none"
             id="path36" />
        </g>
      </g>
    </g>
    <g
       id="g38">
      <g
         id="g40"
         clip-path="url(#clipPath44)">
        <g
           id="g46"
           clip-path="url(#clipPath50)">
          <path
             d="m 93.5697,102.8969 c 3.04299,0.7544 6.11977,1.3637 9.22,1.8259 6.6659,-0.2451 13.1109,-2.4668 18.524,-6.38555 1.7468,-1.26464 3.368,-2.69619 4.8407,-4.27466 1.3654,2.3899 1.5769,5.274 0.5751,7.83941 -1.4304,3.6627 -4.9886,6.0329 -8.901,5.9292 6.3644,-1.5702 13.0306,-1.4015 19.3084,0.4888 5.5629,1.675 10.6506,4.6543 14.8445,8.6926 -4.1037,-1.6266 -8.4846,-2.4295 -12.8953,-2.3633 -4.4421,0.0666 -8.8275,1.0134 -12.9053,2.7861 3.6569,3.8727 6.2458,8.6375 7.5109,13.8238 1.205,4.9402 1.1689,10.1042 -0.1052,15.0269 -2.3543,-5.479 -5.5564,-10.5488 -9.4873,-15.0212 -4.3776,-4.9805 -9.5934,-9.1471 -15.4083,-12.3089 l -9.73812,-0.0437 c -4.48638,0.3313 -8.78134,1.9616 -12.36611,4.6938 -5.59157,4.2619 -8.86978,10.6606 -12.87463,16.3291 -1.42975,2.0237 -2.96385,3.9708 -4.59604,5.8332 -0.74777,-7.8057 0.87723,-15.6559 4.66033,-22.5135 1.2499,-2.2656 2.72559,-4.3977 4.40432,-6.3634 -6.18028,-0.1894 -12.35728,0.4717 -18.35934,1.9651 -4.44263,1.1054 -8.76238,2.6607 -12.893,4.642 2.57008,-6.259 7.22344,-11.4257 13.16402,-14.6162 8.3256,-4.4713 18.27467,-4.6756 26.77502,-0.5498 -4.68933,0.3489 -9.23141,-1.733 -12.045,-5.5209 -1.70426,-2.2944 -2.63808,-5.07462 -2.66631,-7.93809 6.80811,3.49152 13.99328,6.18369 21.41366,8.02329 z"
             style="fill:#bcc185;fill-opacity:1;fill-rule:nonzero;stroke:none"
             id="path52" />
        </g>
      </g>
    </g>
    <g
       id="g54">
      <g
         id="g56"
         clip-path="url(#clipPath60)">
        <path
           d="m 96.09793,114.6413 1.46211,18.9291 -7.12663,27.7865 7.57674,1.5824 4.79225,-22.6252 0.7108,-29.7624 z"
           style="fill:#627849;fill-opacity:1;fill-rule:nonzero;stroke:none"
           id="path62" />
      </g>
    </g>
  </g>
</svg>
