<?xml version="1.0" encoding="UTF-8" standalone="no"?>
<!-- Created with Inkscape (http://www.inkscape.org/) -->

<svg
   version="1.1"
   id="svg2"
   width="208.47133"
   height="210.28787"
   viewBox="0 0 208.47133 210.28787"
   xmlns="http://www.w3.org/2000/svg"
   xmlns:svg="http://www.w3.org/2000/svg">
  <defs
     id="defs6">
    <clipPath
       clipPathUnits="userSpaceOnUse"
       id="clipPath18">
      <path
         d="m 36,36 h 84.3535 V 94.5219 H 36 Z"
         id="path16" />
    </clipPath>
    <clipPath
       clipPathUnits="userSpaceOnUse"
       id="clipPath28">
      <path
         d="M 42.67339,60.57004 H 63.07568 V 85.39799 H 42.67339 Z"
         id="path26" />
    </clipPath>
    <clipPath
       clipPathUnits="userSpaceOnUse"
       id="clipPath38">
      <path
         d="M 47.28472,70.22905 H 60.2463 V 82.50038 H 47.28472 Z"
         id="path36" />
    </clipPath>
    <clipPath
       clipPathUnits="userSpaceOnUse"
       id="clipPath48">
      <path
         d="m 41.3403,80.99647 h 68.00515 v 34.17765 H 41.3403 Z"
         id="path46" />
    </clipPath>
    <clipPath
       clipPathUnits="userSpaceOnUse"
       id="clipPath58">
      <path
         d="m 71.93138,91.08999 h 9.24188 v 30.62587 h -9.24188 z"
         id="path56" />
    </clipPath>
  </defs>
  <g
     id="g8"
     transform="matrix(1.3333333,0,0,-1.3333333,0,210.28787)">
    <g
       id="g10" />
    <g
       id="g12">
      <g
         id="g14"
         clip-path="url(#clipPath18)">
        <path
           d="M 47.92458,90.19102 C 40.25442,85.45336 36.97259,77.71562 37.00017,69.89204 37.0553,54.25386 49.31285,39.91062 67.37169,37.52158 c 2.71763,-0.35952 5.43898,-0.42954 8.12245,-0.47942 2.9783,-0.05537 5.95758,-0.09191 8.92181,0.12901 20.25795,1.50978 37.19395,15.93723 34.69145,34.49063 -1.0641,7.88925 -6.1815,15.11975 -14.9127,18.68229 -7.66927,3.12931 -16.61548,2.80553 -25.14554,1.71863 -1.42082,-0.18103 -2.8389,-0.38288 -4.25541,-0.59503 L 62.60936,93.24548 C 57.40184,94.1023 52.36695,92.93496 47.92458,90.19102 Z"
           style="fill:#93d93b;fill-opacity:1;fill-rule:nonzero;stroke:none"
           id="path20" />
      </g>
    </g>
    <g
       id="g22">
      <g
         id="g24"
         clip-path="url(#clipPath28)">
        <path
           d="m 61.31265,82.17577 c -2.23299,2.76418 -7.60065,2.79764 -11.22624,0.93822 -6.45732,-3.31171 -7.45606,-10.18992 -5.54972,-15.81587 0.90334,-2.66592 2.8692,-5.44063 6.80835,-5.70961 2.72421,-0.18602 5.11451,1.06085 6.68428,2.51814 3.86224,3.58552 3.20302,8.3085 3.86545,13.36364 0.21858,1.66801 0.42805,3.455 -0.58212,4.70548 z"
           style="fill:#fffdd7;fill-opacity:0.5129;fill-rule:nonzero;stroke:none"
           id="path30" />
      </g>
    </g>
    <g
       id="g32">
      <g
         id="g34"
         clip-path="url(#clipPath38)">
        <path
           d="m 51.21701,71.26811 c 1.55111,-0.19424 3.00204,0.36197 3.97661,1.09283 0.78262,0.58692 1.30015,1.26489 1.8446,1.93007 0.8712,1.0644 1.832,2.1238 2.12293,3.28537 0.28863,1.15239 -0.1334,2.35816 -1.62232,3.15983 -1.48189,0.79789 -3.69903,0.99938 -5.518,0.46942 -2.29233,-0.66787 -3.09886,-2.17539 -3.424,-3.63062 -0.21773,-0.97449 -0.28831,-1.95667 -0.31076,-2.93855 -0.03375,-1.47542 0.55447,-3.07076 2.93094,-3.36835 z"
           style="fill:#ffffff;fill-opacity:0.7447;fill-rule:nonzero;stroke:none"
           id="path40" />
      </g>
    </g>
    <g
       id="g42">
      <g
         id="g44"
         clip-path="url(#clipPath48)">
        <path
           d="m 71.65698,87.4177 c 1.9113,0.46674 3.84391,0.84411 5.79137,1.13087 4.1881,-0.14664 8.23868,-1.51113 11.64212,-3.9218 1.09834,-0.77796 2.11779,-1.65882 3.0441,-2.6303 0.85622,1.47321 0.98723,3.25013 0.35609,4.82993 -0.90108,2.2555 -3.13814,3.71338 -5.59606,3.64694 3.99955,-0.9632 8.18755,-0.85489 12.13038,0.31371 3.49382,1.03553 6.68832,2.87425 9.32042,5.36483 -2.5771,-1.00476 -5.3289,-1.50224 -8.1,-1.46434 -2.79086,0.03817 -5.54669,0.61858 -8.10975,1.70802 2.29493,2.38818 3.91825,5.32524 4.7096,8.52124 0.75381,3.0442 0.72766,6.2255 -0.07607,9.2573 -1.47548,-3.3769 -3.48384,-6.5023 -5.95054,-9.2601 -2.74697,-3.0712 -6.02105,-5.64144 -9.67225,-7.59307 l -6.11807,-0.03328 c -2.81883,0.20119 -5.51828,1.20274 -7.77227,2.88365 -3.5158,2.6219 -5.57962,6.5618 -8.09948,10.0513 -0.8996,1.2458 -1.86471,2.4443 -2.89139,3.5906 -0.46461,-4.8093 0.56153,-9.6444 2.94286,-13.8666 0.78677,-1.39498 1.7153,-2.70751 2.77129,-3.91737 -3.8827,-0.12075 -7.76391,0.28253 -11.53577,1.19864 -2.79187,0.67809 -5.50684,1.63342 -8.10326,2.85133 1.61884,-3.85424 4.54579,-7.0342 8.28016,-8.99584 5.23363,-2.7492 11.48438,-2.86858 16.82208,-0.32128 -2.94636,0.21187 -5.79859,-1.07366 -7.56375,-3.40908 -1.06919,-1.41461 -1.65403,-3.12797 -1.66986,-4.89207 4.27495,2.15543 8.78733,3.81863 13.44805,4.95677 z"
           style="fill:#2a8930;fill-opacity:1;fill-rule:nonzero;stroke:none"
           id="path50" />
      </g>
    </g>
    <g
       id="g52">
      <g
         id="g54"
         clip-path="url(#clipPath58)">
        <path
           d="m 76.06765,94.32465 0.80953,10.34335 -3.9458,15.1832 4.19501,0.8647 2.65335,-12.363 0.39352,-16.26291 z"
           style="fill:#1a561f;fill-opacity:1;fill-rule:nonzero;stroke:none"
           id="path60" />
      </g>
    </g>
  </g>
</svg>
