<?xml version="1.0" encoding="UTF-8" standalone="no"?>
<svg
   xmlns:dc="http://purl.org/dc/elements/1.1/"
   xmlns:cc="http://creativecommons.org/ns#"
   xmlns:rdf="http://www.w3.org/1999/02/22-rdf-syntax-ns#"
   xmlns:svg="http://www.w3.org/2000/svg"
   xmlns="http://www.w3.org/2000/svg"
   viewBox="0 0 450.71506 385.78986"
   height="385.78986"
   width="450.71506"
   xml:space="preserve"
   id="svg2"
   version="1.1"><metadata
     id="metadata8"><rdf:RDF><cc:Work
         rdf:about=""><dc:format>image/svg+xml</dc:format><dc:type
           rdf:resource="http://purl.org/dc/dcmitype/StillImage" /></cc:Work></rdf:RDF></metadata><defs
     id="defs6"><clipPath
       id="clipPath20"
       clipPathUnits="userSpaceOnUse"><path
         id="path18"
         d="M 36,36 H 302.0363 V 242.1609 H 36 Z" /></clipPath><clipPath
       id="clipPath34"
       clipPathUnits="userSpaceOnUse"><path
         id="path32"
         d="m 196.3706,183.0584 h 48.29889 v 70.284 H 196.3706 Z" /></clipPath></defs><g
     transform="matrix(1.3333333,0,0,-1.3333333,0,385.78987)"
     id="g10"><g
       id="g12" /><g
       id="g14"><g
         clip-path="url(#clipPath20)"
         id="g16"><path
           id="path22"
           style="fill:#055509;fill-opacity:1;fill-rule:nonzero;stroke:none"
           d="m 159.0731,210.3142 c -6.6342,4.6231 -13.8108,8.4146 -21.3687,11.2893 -14.0057,5.3272 -29.0344,7.4196 -43.96251,6.1207 17.64941,7.9472 36.74581,12.1767 56.10041,12.4251 18.6292,0.2391 37.1211,-3.2168 54.4066,-10.1679 l 25.4156,-3.036 c 13.2829,0.5039 26.5023,-2.071 38.625,-7.5234 11.3393,-5.1 21.4395,-12.5953 29.6063,-21.9703 -10.0076,3.2828 -20.51,4.8002 -31.0375,4.4843 -7.874,-0.2362 -15.6835,-1.4979 -23.2313,-3.7531 7.7167,-10.1837 14.1486,-21.2799 19.15,-33.0375 7.3748,-17.3369 11.5277,-35.8057 14.1047,-54.4609 1.3561,-9.8166 2.2783,-19.68813 2.7641,-29.58596 -5.6929,12.18352 -11.5581,24.28576 -17.5938,36.30316 -5.8225,11.5928 -11.8642,23.1938 -20.5109,32.8828 -5.5718,6.2434 -12.1122,11.5493 -19.3703,15.714 -2.1814,-22.7629 -6.4269,-45.2805 -12.6844,-67.27496 -5.994,-21.06848 -13.811,-41.57509 -23.3625,-61.28751 3.1384,21.87462 3.6095,44.04933 1.4031,66.03747 -2.103,20.9585 -6.6248,41.6032 -13.475,61.5219 -18.6698,0.9761 -37.3355,-1.0436 -55.2966,-5.9471 -18.3082,-4.9981 -35.66164,-12.9296 -52.6905,-21.4732 -9.5146,-4.7736 -18.93301,-9.7366 -28.24962,-14.8859 13.78569,19.4101 30.47115,36.5875 49.47266,50.9312 21.61166,16.314 45.90446,28.7315 71.78516,36.6938 z" /><g
           transform="matrix(1,0,0,-1,37.81528,240.1609)"
           id="g24"><path
             id="path26"
             style="fill:none;stroke:#000000;stroke-width:2;stroke-linecap:butt;stroke-linejoin:miter;stroke-miterlimit:4;stroke-dasharray:none;stroke-opacity:1"
             d="M 121.2578,29.84673 C 114.6236,25.22356 107.447,21.43209 99.88909,18.55735 85.88345,13.23014 70.85477,11.13779 55.92661,12.43672 73.57607,4.489479 92.67239,0.2600266 112.027,0.01161128 130.6562,-0.2274943 149.1481,3.228401 166.4336,10.17951 l 25.4156,3.03596 c 13.2829,-0.50385 26.5023,2.07105 38.625,7.52344 11.3393,5.10001 21.4395,12.59524 29.6063,21.97031 -10.0076,-3.2828 -20.5099,-4.80019 -31.0375,-4.48437 -7.8739,0.23622 -15.6835,1.49789 -23.2312,3.75312 7.7167,10.18371 14.1485,21.2799 19.1499,33.0375 7.3748,17.33694 11.5277,35.80573 14.1047,54.46093 1.3561,9.8165 2.2783,19.6881 2.7641,29.5859 -5.6929,-12.1835 -11.5581,-24.2857 -17.5938,-36.3031 -5.8225,-11.5928 -11.8642,-23.19385 -20.5109,-32.88279 -5.5718,-6.2434 -12.1122,-11.54928 -19.3703,-15.71406 -2.1813,22.76297 -6.4269,45.28055 -12.6844,67.27495 -5.994,21.0685 -13.811,41.5751 -23.3625,61.2876 3.1384,-21.8747 3.6095,-44.0494 1.4031,-66.0376 -2.103,-20.9584 -6.6248,-41.60309 -13.475,-61.52183 C 117.567,74.18941 98.90127,76.20912 80.94009,81.11254 62.6319,86.11069 45.27848,94.04214 28.24962,102.5858 18.73502,107.3594 9.31661,112.3224 0,117.4717 13.78569,98.06157 30.47115,80.88418 49.47266,66.54047 71.0843,50.22646 95.37708,37.80895 121.2578,29.84673 Z" /></g></g></g><g
       id="g28"><g
         clip-path="url(#clipPath34)"
         id="g30"><path
           id="path36"
           style="fill:#09351f;fill-opacity:1;fill-rule:nonzero;stroke:none"
           d="m 197.8991,208.6823 21.712,42.9941 23.2442,-11.3615 -19.6084,-21.8519 -19.8438,-33.0923 z" /><path
           id="path38"
           style="fill:#000000;fill-opacity:1;fill-rule:nonzero;stroke:none"
           d="m 201.0795,194.2797 c -0.0841,0.3283 -0.4305,1.7844 -0.4249,1.8193 0.127,-0.549 0.4076,-1.6979 0.4249,-1.8193 0,0 0,0 0,0 z m 0.6888,-2.9453 c -0.1305,0.5136 -0.4023,1.69 -0.4843,2.0736 0.1443,-0.6249 0.4453,-1.8605 0.4843,-2.0736 0,0 0,0 0,0 z m -1.036,4.5562 c -0.1816,0.7832 -0.5279,2.2105 -0.6031,2.5771 0.1814,-0.7824 0.5273,-2.2083 0.6031,-2.5771 0,0 0,0 0,0 z m 18.5094,15.099 c -0.1762,-0.3063 -0.9484,-1.5991 -0.9551,-1.5838 0.2824,0.4659 0.8944,1.504 0.9551,1.5838 0,0 0,0 0,0 z m -4.3282,-7.1563 c -0.278,-0.4824 -0.8957,-1.5 -1.0923,-1.8129 0.3279,0.5419 0.9879,1.66 1.0923,1.8129 0,0 0,0 0,0 z m -2.5014,-4.1828 c -0.585,-0.9731 -1.2088,-2.0133 -1.0928,-1.7948 0.1879,0.2921 1.0282,1.7173 1.0928,1.7948 0,0 0,0 0,0 z m -11.1074,-3.8283 c 0.2591,-1.1199 0.4555,-1.907 0.6321,-2.6577 0.8869,-3.7675 -0.4726,1.8836 -0.6321,2.6577 0,0 0,0 0,0 z m 6.6989,-3.4406 c 0.4201,0.7004 0.7543,1.2528 0.9561,1.5756 -0.3891,-0.6476 -0.9345,-1.5672 -0.9561,-1.5756 0,0 0,0 0,0 z m -3.6122,-5.9975 c -0.0437,-0.0798 -0.513,-0.8645 -1.123,-1.8803 -0.3296,1.4 -0.749,3.1928 -1.0391,4.4458 0.2477,-1.0445 0.6934,-2.931 1.0434,-4.4184 0.6573,1.0943 1.1628,1.9332 1.1187,1.8529 0,0 0,0 0,0 z m -0.9632,0.4665 c 0.0394,-0.1698 0.0804,-0.3462 0.1227,-0.5283 1.3329,2.2067 3.2474,5.4009 4.1501,6.8956 0.9587,1.5875 -1.7035,-2.8645 -4.1593,-6.9549 -0.003,0.0125 -0.006,0.0251 -0.009,0.0376 -1.0858,4.6129 -0.1784,0.8791 -0.6182,2.764 -0.3702,1.5898 0.1978,-0.7927 0.6438,-2.6939 0.1795,0.2985 0.3506,0.5823 0.4999,0.8292 0.7572,1.2521 -0.0373,-0.0723 -0.5046,-0.8593 -0.0628,0.2609 -0.1124,0.464 -0.1256,0.51 0,0 0,0 0,0 z m -0.006,0.2331 c -0.2122,0.896 -0.3936,1.6755 -0.5108,2.2028 0.2203,-0.9134 0.4303,-1.7861 0.5108,-2.2028 0,0 0,0 0,0 z m -5.1991,22.0813 c 0.028,0.3533 0.9766,2.4749 2.0566,4.7881 0.271,0.5759 0.5423,1.1523 0.822,1.7465 2.0577,4.2049 4.1548,8.4249 6.2653,12.6369 0.4184,0.8338 0.8369,1.6676 1.2681,2.5268 1.2937,2.5834 2.5983,5.1753 3.9106,7.7796 0.4354,0.8636 0.8708,1.7273 1.3195,2.6172 1.5675,3.1425 3.0863,6.11 4.6351,9.1813 0.3031,0.6007 0.6079,1.2065 0.9146,1.8189 0.9815,-0.4758 1.975,-0.9542 2.9841,-1.4353 0.8303,-0.395 4.3938,-2.1404 5.6521,-2.7684 -1.2135,0.6248 4.6377,-2.2482 4.3737,-2.1199 0.6444,-0.3264 1.3184,-0.663 1.9948,-0.9966 0.6756,-0.3338 -0.1864,0.0825 -1.0467,0.4995 0.7561,-0.3761 1.5143,-0.7496 2.2878,-1.1284 0.8129,-0.3963 1.6258,-0.7927 2.4635,-1.2012 1.7904,-0.8667 3.6588,-1.7813 5.4384,-2.6573 -0.695,-0.7701 -1.375,-1.5217 -2.0207,-2.2342 -5.0314,-5.611 -18.8429,-20.9842 -16.3668,-18.2162 2.81,3.1431 1.3512,1.5338 0.5953,0.6943 -0.443,-0.4927 -1.0373,-1.1531 -1.702,-1.8919 0.0244,0.0195 0.0784,0.073 0.1812,0.1836 -0.2132,-0.2386 -0.441,-0.4939 -0.6807,-0.7628 -0.9076,-1.5245 -2.0376,-3.4265 -3.1605,-5.2751 0.2482,0.4188 0.5682,0.9525 0.6806,1.1537 -0.6784,-1.1325 -0.1497,-0.222 -0.5969,-0.9589 -1.2412,-2.0624 -1.8354,-3.0457 -0.4013,-0.6567 -1.3389,-2.2077 -2.1973,-3.5979 -3.5185,-5.7648 -0.4961,-0.8322 -0.2247,-0.3772 -0.0744,-0.1404 -0.8676,-1.4618 -2.866,-4.7881 -3.051,-5.1105 -0.185,-0.3248 5.4129,9.0206 4.4221,7.3494 -0.4029,-0.6794 -1.2444,-2.0777 -1.5615,-2.6166 0.7091,1.1788 1.5807,2.6336 2.0351,3.38 -0.4894,-0.8211 -1.1826,-1.977 -1.5626,-2.6184 0.4752,0.7925 0.8032,1.3358 0.9458,1.5636 -0.6933,-1.1575 -1.2145,-2.0317 -2.0412,-3.4078 -0.3678,-0.6045 0.3076,0.5356 -0.4712,-0.7633 -0.1424,-0.2236 0.5131,0.8608 0.4642,0.7918 -0.6317,-1.046 -1.8846,-3.1366 -2.1966,-3.6506 -0.3043,-0.4988 0.7626,1.2717 0.7848,1.3175 -2.4355,-4.0527 -5.2041,-8.6648 -6.0591,-10.0831 -0.8624,-1.4319 -0.054,-0.0838 0.3116,0.5322 -1.0017,-1.6605 -1.7553,-2.9172 -2.9435,-4.8949 -0.7606,-1.2647 -0.4571,-0.7549 -0.1689,-0.2679 -0.2015,-0.3335 -0.3797,-0.6282 -0.4957,-0.8192 -0.085,-0.1392 -0.3019,-0.4984 -0.4486,-0.7379 0.4665,0.7828 1.3349,2.226 1.7162,2.8707 -0.6714,-1.1027 -2.2431,-3.7394 -2.8922,-4.804 -0.0106,0.0463 -0.0206,0.0904 -0.0301,0.132 0.0102,-0.0425 0.0205,-0.0852 0.0307,-0.1279 0.9444,1.5877 1.9517,3.264 3.0049,5.029 -1.0061,-1.6718 -2.0272,-3.3848 -3.0035,-5.0196 -0.48,2.0167 -0.9355,3.9383 -1.3261,5.6498 0.1375,-0.5742 0.2014,-0.8082 0.3156,-1.2723 -0.2939,1.2142 -0.7298,3.0183 -0.9788,4.1455 -0.1421,0.6103 -0.4214,1.8186 -0.7026,3.0207 0.4983,-2.0936 0.8315,-3.4934 1.1741,-4.9669 -0.006,0.0347 -0.0355,0.1728 -0.0937,0.4278 0.7168,-2.9566 1.1335,-4.8505 1.6195,-6.9533 0.1023,0.1686 0.2058,0.3397 0.3112,0.5143 0.0948,0.1599 0.1897,0.3198 0.2874,0.4845 0.2468,0.427 -0.1911,-0.3007 -0.5939,-0.9685 -0.1122,0.4805 -0.2182,0.9361 -0.2407,1.0465 0.0807,-0.34 0.1621,-0.6834 0.2437,-1.0278 1.6497,2.755 3.3295,5.5445 4.1333,6.9086 -1.5035,-2.5012 -2.8833,-4.8058 -4.1283,-6.8763 -0.2403,1.0232 -0.4691,2.0017 -0.6857,2.9359 0.1122,-0.4393 0.4006,-1.6597 0.6923,-2.8935 0.4763,0.7949 0.9566,1.5964 1.2852,2.1513 -0.4848,-0.8048 -0.9092,-1.5095 -1.2816,-2.1276 -1.0428,4.4555 -1.1764,5.0247 -1.286,5.4984 0.1222,-0.5118 0.2443,-1.0235 0.3701,-1.5505 -0.0297,0.1367 -0.0593,0.2733 -0.0898,0.4139 -0.693,2.9408 -1.5085,6.3919 -1.4639,6.2227 0.0333,-0.1271 0.6691,-2.8086 1.3378,-5.641 -0.0666,0.308 -0.1331,0.6156 -0.2015,0.9321 -0.78,3.3151 -1.6477,7.0967 -2.4349,10.3886 0.1378,-0.5275 0.0708,-0.252 -0.0851,0.4419 0.2507,-1.0281 0.5984,-2.501 0.8648,-3.6008 -0.0867,0.3838 -0.2498,1.0662 -0.2971,1.2917 0.1335,-0.5486 0.3384,-1.4246 0.4101,-1.6889 -0.3642,1.5619 -0.7569,3.2366 -1.1421,4.882 -0.0682,0.3449 0.1702,-0.7096 0.1564,-0.6146 -0.3629,1.5565 -0.8819,3.7296 -1.1379,4.8672 0.3161,-1.2998 0.9111,-3.8561 1.1051,-4.647 -0.1187,0.5196 -0.2374,1.0388 -0.3595,1.5733 -0.2483,1.0571 -0.3656,1.565 -0.0811,0.3826 0.1529,-0.6335 0.15,-0.6186 0.1136,-0.4587 -0.1633,0.7282 -0.7576,3.2396 -0.7238,3.1753 0.1497,-0.6341 0.7412,-3.1422 0.9011,-3.7663 -0.1007,0.4855 -0.4095,1.7598 -0.4293,1.897 0.65,-2.7783 0.6315,-2.6718 0.7871,-3.3702 -0.0728,0.3001 -0.257,1.094 -0.2565,1.0585 0.4038,-1.7092 0.8075,-3.4184 1.2235,-5.1793 -0.0306,0.1716 -0.009,0.1302 0.0329,-0.0186 -0.1757,0.7469 -0.3562,1.5256 -0.6862,2.9147 0.1022,-0.3516 0.4012,-1.6291 0.6744,-2.8115 -3e-4,0.0133 -6e-4,0.0266 -9e-4,0.0403 -0.45,1.9034 -1.1316,4.8151 -1.5827,6.7679 0.2125,-0.8832 0.9851,-4.1555 1.5092,-6.389 -0.0143,0.0754 -0.0286,0.1507 -0.0433,0.2282 0.6583,-2.8049 1.4431,-6.0587 2.1801,-9.2138 -0.3454,1.5611 -0.7725,3.2914 -1.2308,5.2548 -0.2104,0.9025 -0.4009,1.7404 -0.6013,2.6197 -0.588,2.471 -2.3286,9.8317 -2.5191,10.6751 -0.2097,0.9275 1.5493,-6.5225 1.5634,-6.5598 0.0141,-0.0371 -0.7991,3.4322 -0.4148,1.7989 0.2001,-0.853 0.6378,-2.7151 0.9549,-4.0666 0.0187,-0.0332 0.0375,-0.0662 0.0567,-0.1001 -0.2769,1.1757 -0.6004,2.5682 -0.6299,2.6035 -0.1352,0.5838 -0.43,1.7957 -0.4649,1.9886 0.0479,-0.1973 0.1171,-0.496 0.1214,-0.4915 -0.0664,0.2838 -0.165,0.693 -0.1701,0.7401 0.3358,-1.4138 0.8013,-3.3604 1.1649,-4.903 0.0343,-0.1242 0.0687,-0.2483 0.104,-0.376 -0.005,0.0308 -0.2853,1.2366 -0.5266,2.2699 -0.254,1.0897 0.2826,-1.1608 0.7045,-2.9531 0.0706,-0.2761 0.1412,-0.5519 0.2139,-0.8357 -0.1467,0.6184 -0.3162,1.3363 -0.5147,2.1826 -0.2278,0.9929 -0.213,0.9778 -0.4402,1.9682 0.4305,-1.8062 0.9478,-3.9945 1.3599,-5.7541 0.157,-0.6221 0.3136,-1.2429 0.4747,-1.8811 -0.3409,1.4632 -0.6525,2.8194 -0.8358,3.6267 -0.1525,0.6405 -0.3117,1.3091 -0.3627,1.5562 0.1448,-0.5939 -0.2227,0.9711 -0.1573,0.7504 0.1919,-0.8664 0.5971,-2.56 0.731,-3.2003 0.3166,-1.3406 0.6631,-2.8056 0.9694,-4.1055 0.0401,-0.1624 0.0801,-0.3247 0.1214,-0.4919 -0.2596,1.1051 -0.5052,2.1565 -0.7783,3.3386 0.136,-0.4973 0.8986,-3.7244 1.4457,-6.0867 0.1724,-0.7216 0.3443,-1.4489 0.5158,-2.1805 2.1683,3.6029 4.3478,7.143 6.5189,10.7478 0.1049,0.1749 0.2548,0.4286 0.4195,0.7084 0.1853,0.3185 0.3704,0.6367 0.5611,0.9644 -0.6139,-1.0211 -1.1602,-1.9272 -1.6091,-2.6682 1.8096,3.044 -2.5866,-4.2934 -2.8677,-4.736 2.9292,4.9276 8.41,14.0362 11.7852,19.6938 -0.8138,-1.3547 -1.0758,-1.7879 -0.2053,-0.3275 0.2355,0.3954 0.4711,0.7907 0.7137,1.1979 -3.4411,-5.7147 -7.0063,-11.7154 -9.7436,-16.2276 1.6241,2.7134 4.0916,6.8096 4.7659,7.9666 -0.4767,-0.7936 -1.1687,-1.9527 -1.2665,-2.1033 0.8309,1.4109 3.6266,6.0404 4.4396,7.4226 -4.0041,-6.6586 -9.4332,-15.735 -12.3707,-20.5836 4.4488,7.4003 10.4498,17.4354 14.2701,23.7687 -0.6604,-1.1063 -0.6655,-1.1236 -0.3121,-0.5481 1.1858,1.9708 2.3721,3.9425 3.5948,5.9747 0.2432,0.4119 0.1598,0.2766 -0.4316,-0.7009 -0.4865,-0.8037 -0.7683,-1.2762 -0.9294,-1.531 0.1896,0.3198 1.5517,2.5919 2.0584,3.4386 0.2922,0.3262 0.3673,0.4106 -10e-4,10e-4 -0.1753,-0.2914 -0.4818,-0.8014 -0.9612,-1.5995 -2.9911,-4.9794 -8.1659,-13.5928 -5.1445,-8.5454 3.0197,5.0445 4.2078,7.046 2.5581,4.3036 -1.6562,-2.7531 -6.8791,-11.4292 -5.1316,-8.5112 1.7397,2.905 5.406,9.0404 7.4804,12.4934 1.9728,3.2841 -0.9549,-1.6723 1.1786,1.8741 0.1911,0.2124 0.4132,0.4595 0.6704,0.746 4.0164,4.4739 0.658,0.7554 1.4261,1.6105 1.2151,1.3531 3.4491,3.8437 5.5664,6.2042 1.4834,1.657 3.398,3.7897 4.3504,4.8617 -0.0782,-0.0756 -4.5959,-5.1188 -2.8184,-3.1264 4.3977,4.9008 9.3047,10.3741 7.313,8.1275 0.9981,1.1134 1.8999,2.1187 2.7259,3.039 -1.8724,0.9154 -3.4454,1.6857 -4.8591,2.379 -3.4954,1.6884 -7.5299,3.664 -7.979,3.8785 -0.3782,0.1802 -5.3827,2.6462 -9.4914,4.645 -0.8299,-1.651 -1.5868,-3.1661 -2.0983,-4.2108 -0.1396,-0.2734 -3.4538,-6.8076 -3.7467,-7.3547 -3.1398,-6.2532 -2.6889,-5.3876 -5.7948,-11.525 -2.5963,-5.1311 -3.397,-6.6966 -3.8347,-7.5604 -2.7401,-5.4059 -2.7059,-5.3768 -4.1004,-7.9867 -0.4214,-0.7899 -1.0449,-2.0232 -1.287,-2.4267 -0.4851,-0.8088 -0.7624,-1.1634 -0.7272,-0.849 0,0 0,0 0,0 z m 2.5442,-12.642 c -0.2522,1.0459 -0.6991,2.9553 -0.9663,4.0591 0.2898,-1.2863 0.6645,-2.8567 1.0471,-4.4517 -0.0267,0.1297 -0.0534,0.2592 -0.0808,0.3926 0,0 0,0 0,0 z m 2.0218,-7.6479 c -0.1629,0.6929 -0.3655,1.5004 -0.5472,2.2841 -0.1731,0.7357 -0.3546,1.4934 -0.6138,2.6221 0.0276,-0.086 0.4645,-1.9054 0.7996,-3.3331 0.002,0.008 0.004,0.0165 0.006,0.025 -0.1598,0.7019 -0.3503,1.5258 -0.5795,2.4963 -0.0783,0.328 -0.1566,0.656 -0.2373,0.9941 -0.011,0.0155 0.109,-0.515 0.1567,-0.7086 -0.0664,0.2335 -0.2727,1.0846 -0.5379,2.194 -0.0333,0.1316 -0.0666,0.2633 -0.1009,0.3991 -0.0435,0.1392 0.1535,-0.7177 -0.0694,0.2321 0.1495,-0.6836 0.5632,-2.3938 0.8152,-3.4752 -0.2692,1.2468 0.793,-3.3193 1.0615,-4.4116 -0.0505,0.2251 -0.101,0.45 -0.153,0.6817 z m 3.6343,0.9979 c 0.335,0.5596 0.67,1.119 1.0152,1.6955 -0.4957,-0.8254 -0.8751,-1.4555 -1.2233,-2.0338 0.0686,0.1116 0.1373,0.2233 0.2081,0.3383 z m 31.1889,44.0232 c -2.6746,-2.9332 -8.1666,-9.097 -8.5466,-9.4944 -0.5616,-0.6287 -1.1233,-1.2576 -1.7021,-1.9056 3.6704,4.0866 7.6055,8.465 10.2487,11.4 0,0 0,0 0,0 z m -10.0682,-10.0744 c -0.213,-0.2392 -0.1234,-0.1423 0.3948,0.4322 2.7561,3.0589 4.3956,4.8706 2.6606,2.937 -1.4816,-1.6511 -4.705,-5.2481 -3.755,-4.1961 1.2603,1.4013 2.5209,2.8028 3.8198,4.2471 0.9895,1.1095 1.94,2.1871 2.9049,3.2855 -2.1256,-2.3658 -4.1625,-4.6338 -6.0251,-6.7057 0,0 0,0 0,0 z m 7.1871,8.0307 c -0.7582,-0.846 -1.6609,-1.8548 -2.5742,-2.8746 0.7944,0.8841 1.5889,1.7681 2.4074,2.6791 0.0551,0.0645 0.1101,0.129 0.1668,0.1955 z m 0.9522,1.0843 c -1.5479,-1.7231 -3.091,-3.4466 -1.5291,-1.7127 0.351,0.3899 0.7021,0.7798 1.0638,1.1816 0.1536,0.1753 0.3072,0.3506 0.4653,0.5311 z m 0.9423,1.0617 c -0.0131,-0.0214 -0.2703,-0.3138 -0.7849,-0.8882 1.0522,1.1706 3.1588,3.5125 3.0462,3.4024 -0.7029,-0.7804 -1.4729,-1.6365 -2.2613,-2.5142 0,0 0,0 0,0 z m 2.7633,1.8497 c -0.7016,-0.7847 -1.3127,-1.4686 -0.19,-0.2233 0.427,0.4739 0.8541,0.9479 1.2941,1.4364 -0.3645,-0.4005 -0.7288,-0.8008 -1.1041,-1.2131 z m -32.0412,-43.1653 c 0.2231,0.3695 1.0717,1.786 1.5627,2.596 0.0497,0.0138 -1.8781,-3.1509 -1.5627,-2.596 0,0 0,0 0,0 z m -3.1727,-5.2621 c 0.2152,0.3563 1.0631,1.7717 1.5603,2.5933 0.0424,5e-4 -1.8784,-3.1526 -1.5603,-2.5933 0,0 0,0 0,0 z m 13.5325,59.4328 c 0.002,0.004 0.004,0.009 0.007,0.0131 -0.002,-0.004 -0.004,-0.009 -0.007,-0.0131 0,0 0,0 0,0 z" /></g></g></g></svg>