<?xml version="1.0" encoding="UTF-8" standalone="no"?>
<!-- Created with Inkscape (http://www.inkscape.org/) -->

<svg
   version="1.1"
   id="svg2"
   width="409.86679"
   height="231.67133"
   viewBox="0 0 409.86679 231.67133"
   xmlns="http://www.w3.org/2000/svg"
   xmlns:svg="http://www.w3.org/2000/svg">
  <defs
     id="defs6">
    <clipPath
       clipPathUnits="userSpaceOnUse"
       id="clipPath18">
      <path
         d="m 36,36 h 235.4001 v 75.56776 H 36 Z"
         id="path16" />
    </clipPath>
    <clipPath
       clipPathUnits="userSpaceOnUse"
       id="clipPath28">
      <path
         d="M 102.1201,55.9016 H 209.1732 V 91.66626 H 102.1201 Z"
         id="path26" />
    </clipPath>
    <clipPath
       clipPathUnits="userSpaceOnUse"
       id="clipPath38">
      <path
         d="M 98.43446,121.1929 205.4943,121.0797 205.437,66.84848 98.37712,66.96167 Z"
         id="path36" />
    </clipPath>
    <clipPath
       clipPathUnits="userSpaceOnUse"
       id="clipPath44">
      <path
         d="M 0,0 H 307.4001 V 173.7535 H 0 Z"
         id="path42" />
    </clipPath>
    <clipPath
       clipPathUnits="userSpaceOnUse"
       id="clipPath54">
      <path
         d="m 141.9143,83.36588 h 15.07978 v 54.38766 H 141.9143 Z"
         id="path52" />
    </clipPath>
  </defs>
  <g
     id="g8"
     transform="matrix(1.3333333,0,0,-1.3333333,0,231.67133)">
    <g
       id="g10" />
    <g
       id="g12">
      <g
         id="g14"
         clip-path="url(#clipPath18)">
        <path
           d="M 91.0298,104.2733 C 77.10619,109.6469 62.73765,106.1221 63.98934,95.14148 65.26665,83.93612 85.24135,85.73621 84.40142,73.11083 83.80694,64.17454 72.80099,63.47967 62.77576,65.3562 50.3887,67.67482 37.53331,62.95474 37.02046,51.49187 36.18865,32.89981 60.87106,34.28303 83.76843,43.97326 c 9.10976,3.85527 18.61877,5.09194 28.26937,5.21529 9.6481,0.12331 19.4458,-0.86501 29.1707,-1.56614 24.4179,-1.76048 51.146,4.13143 71.3114,-4.08702 13.0428,-5.31561 27.1918,-9.6074 32.8766,2.8817 4.1671,9.15507 -1.3353,18.80341 -10.0941,20.64343 -7.9461,1.66934 -18.7487,-1.38081 -19.989,7.33508 -0.8565,6.01829 5.3925,9.75571 11.9692,10.36879 12.6713,1.18121 26.2917,-2.39204 37.1576,4.93979 3.2498,2.19285 5.9765,5.46279 5.9598,9.51053 -0.034,8.28739 -9.2463,11.67839 -18.207,11.32859 -27.2243,-1.0626 -53.5505,-12.28625 -80.5812,-16.09873 -27.4648,-3.87372 -54.374,-0.28589 -80.582,9.82873 z"
           style="fill:#f6ce46;fill-opacity:1;fill-rule:nonzero;stroke:none"
           id="path20" />
      </g>
    </g>
    <g
       id="g22">
      <g
         id="g24"
         clip-path="url(#clipPath28)">
        <path
           d="m 119.1376,89.42363 c -7.4466,-1.09769 -15.8712,-2.38291 -16.0156,-5.64708 -0.2008,-4.53824 15.8778,-5.42584 16.3914,-9.81594 0.4468,-3.81959 -11.6171,-5.63337 -11.3445,-9.43594 0.3433,-4.78987 15.8988,-6.67164 26.809,-2.27117 4.8027,1.93711 8.695,4.7338 15.2776,4.75971 10.9468,0.04307 12.842,-6.30858 21.0827,-8.81349 12.0071,-3.64978 26.6649,1.02801 22.6114,6.21701 -2.5367,3.24737 -14.2277,5.99594 -7.7893,8.84144 2.9691,1.31222 7.6674,0.50205 11.6964,0.79082 10.4607,0.74978 13.9424,6.85011 5.8617,11.03213 -4.0445,2.09315 -10.0007,3.1694 -16.0348,3.88567 -12.0803,1.43398 -24.7618,1.5759 -37.2323,1.00668 -2.1058,-0.09612 -4.2066,-0.21233 -6.3009,-0.34854 l -18.0411,1.04133 c -2.2633,-0.47679 -4.5917,-0.8918 -6.9717,-1.24263 z"
           style="fill:#55110c;fill-opacity:1;fill-rule:nonzero;stroke:none"
           id="path30" />
      </g>
    </g>
    <g
       id="g32">
      <g
         id="g34"
         clip-path="url(#clipPath38)">
        <g
           id="g40"
           clip-path="url(#clipPath44)">
          <path
             d="m 146.0506,76.7111 c 3.043,0.7544 6.1198,1.36371 9.22,1.82589 6.6659,-0.24507 13.1109,-2.46675 18.524,-6.38551 1.7468,-1.26464 3.368,-2.69619 4.8407,-4.27466 1.3654,2.3899 1.5769,5.274 0.5751,7.83942 -1.4304,3.66267 -4.9886,6.03289 -8.901,5.92918 6.3644,-1.57021 13.0306,-1.40144 19.3084,0.48882 5.5629,1.675 10.6506,4.65427 14.8445,8.69259 -4.1037,-1.62662 -8.4846,-2.42951 -12.8953,-2.36333 -4.4421,0.06666 -8.8275,1.01344 -12.9053,2.78615 3.6569,3.87267 6.2458,8.63748 7.5109,13.82385 1.205,4.9402 1.1689,10.1041 -0.1052,15.0268 -2.3543,-5.479 -5.5564,-10.5488 -9.4873,-15.0212 -4.3776,-4.9805 -9.5934,-9.14711 -15.4083,-12.30888 l -9.7381,-0.04374 c -4.4864,0.33133 -8.7814,1.9616 -12.3661,4.69388 -5.5916,4.26184 -8.8698,10.66054 -12.8747,16.32914 -1.4297,2.0236 -2.9638,3.9707 -4.596,5.8331 -0.7478,-7.8057 0.8772,-15.6558 4.6603,-22.51344 1.2499,-2.26568 2.7256,-4.39776 4.4043,-6.3634 -6.1802,-0.18947 -12.3572,0.47168 -18.3593,1.96506 -4.4426,1.10538 -8.7624,2.66067 -12.89299,4.64202 2.57009,-6.25904 7.22339,-11.42573 13.16399,-14.61618 8.3256,-4.47135 18.2747,-4.67565 26.775,-0.54982 -4.6893,0.34888 -9.2314,-1.73302 -12.045,-5.52093 -1.7042,-2.29443 -2.638,-5.0746 -2.6663,-7.93808 6.8082,3.49153 13.9933,6.18367 21.4137,8.02327 z"
             style="fill:#bcc185;fill-opacity:1;fill-rule:nonzero;stroke:none"
             id="path46" />
        </g>
      </g>
    </g>
    <g
       id="g48">
      <g
         id="g50"
         clip-path="url(#clipPath54)">
        <path
           d="m 148.5788,88.45549 1.4621,18.92911 -7.1266,27.7865 7.5768,1.5824 4.7922,-22.6252 0.7108,-29.76242 z"
           style="fill:#627849;fill-opacity:1;fill-rule:nonzero;stroke:none"
           id="path56" />
      </g>
    </g>
  </g>
</svg>
