<?xml version="1.0" encoding="UTF-8" standalone="no"?>
<!-- Created with Inkscape (http://www.inkscape.org/) -->

<svg
   version="1.1"
   id="svg2"
   width="409.86679"
   height="419.51721"
   viewBox="0 0 409.86679 419.51721"
   xmlns="http://www.w3.org/2000/svg"
   xmlns:svg="http://www.w3.org/2000/svg">
  <defs
     id="defs6">
    <clipPath
       clipPathUnits="userSpaceOnUse"
       id="clipPath18">
      <path
         d="m 36,36.44179 h 235.4001 v 162.158 H 36 Z"
         id="path16" />
    </clipPath>
    <clipPath
       clipPathUnits="userSpaceOnUse"
       id="clipPath28">
      <path
         d="m 56.65504,105.6706 h 54.21311 v 67.62901 H 56.65504 Z"
         id="path26" />
    </clipPath>
    <clipPath
       clipPathUnits="userSpaceOnUse"
       id="clipPath38">
      <path
         d="m 69.73882,133.4397 h 33.10146 v 31.52945 H 69.73882 Z"
         id="path36" />
    </clipPath>
    <clipPath
       clipPathUnits="userSpaceOnUse"
       id="clipPath48">
      <path
         d="m 52.87257,164.3955 h 189.2774 v 94.50883 H 52.87257 Z"
         id="path46" />
    </clipPath>
    <clipPath
       clipPathUnits="userSpaceOnUse"
       id="clipPath58">
      <path
         d="m 142.4263,194.3403 h 22.5475 v 84.29768 h -22.5475 z"
         id="path56" />
    </clipPath>
    <clipPath
       clipPathUnits="userSpaceOnUse"
       id="clipPath68">
      <path
         d="m 171.7947,37.438 h 99.27539 V 151.3328 H 171.7947 Z"
         id="path66" />
    </clipPath>
    <clipPath
       clipPathUnits="userSpaceOnUse"
       id="clipPath78">
      <path
         d="M 127.6813,36 H 266.8 V 170.2068 H 127.6813 Z"
         id="path76" />
    </clipPath>
  </defs>
  <g
     id="g8"
     transform="matrix(1.3333333,0,0,-1.3333333,0,419.5172)">
    <g
       id="g10" />
    <g
       id="g12">
      <g
         id="g14"
         clip-path="url(#clipPath18)">
        <path
           d="M 68.01125,188.092 C 46.39555,174.7785 36.55732,152.4807 37.01526,129.7337 38.09101,76.29826 90.44168,29.33157 147.2716,38.62221 c 3.6193,0.59167 7.3861,0.66537 11.0189,0.22452 60.3211,-7.32021 117.5974,40.69534 111.6888,95.97487 -2.4488,22.9104 -17.3461,43.6592 -42.3118,53.7105 -21.839,8.7924 -47.1601,7.9969 -71.346,4.9409 -4.0373,-0.5101 -8.0627,-1.0801 -12.0739,-1.7106 l -34.571,5.111 c -14.75571,2.3217 -29.04214,-1.0065 -41.66535,-8.7814 z"
           style="fill:#e42c18;fill-opacity:1;fill-rule:nonzero;stroke:none"
           id="path20" />
      </g>
    </g>
    <g
       id="g22">
      <g
         id="g24"
         clip-path="url(#clipPath28)">
        <path
           d="m 107.7032,165.9108 c -6.3357,7.9469 -21.56546,8.0431 -31.85241,2.6974 -18.32144,-9.521 -21.1552,-29.2955 -15.7463,-45.4697 2.56307,-7.6644 8.14083,-15.6415 19.31745,-16.4148 7.72942,-0.5348 14.51146,3.0499 18.9654,7.2395 10.95836,10.3082 9.08796,23.8864 10.96746,38.4197 0.6202,4.7954 1.2146,9.9329 -1.6516,13.5279 z"
           style="fill:#fffdd7;fill-opacity:0.5129;fill-rule:nonzero;stroke:none"
           id="path30" />
      </g>
    </g>
    <g
       id="g32">
      <g
         id="g34"
         clip-path="url(#clipPath38)">
        <path
           d="m 79.05866,134.552 c 4.40101,-0.5584 8.51774,1.0406 11.28289,3.1418 2.22056,1.6874 3.68895,3.6365 5.23372,5.5488 2.47188,3.0601 5.19793,6.1058 6.02343,9.4453 0.8189,3.313 -0.3785,6.7796 -4.60304,9.0843 -4.2046,2.2939 -10.49531,2.8732 -15.6563,1.3496 -6.50408,-1.9201 -8.79245,-6.2542 -9.71497,-10.4379 -0.61776,-2.8015 -0.81802,-5.6253 -0.88174,-8.4481 -0.09574,-4.2418 1.57321,-8.8283 8.31601,-9.6838 z"
           style="fill:#ffffff;fill-opacity:0.7447;fill-rule:nonzero;stroke:none"
           id="path40" />
      </g>
    </g>
    <g
       id="g42">
      <g
         id="g44"
         clip-path="url(#clipPath48)">
        <path
           d="m 137.0532,180.9812 c 5.423,1.3419 10.9064,2.4268 16.432,3.2512 11.8829,-0.4216 23.3757,-4.3444 33.0324,-11.2749 3.1163,-2.2366 6.0088,-4.769 8.637,-7.562 2.4294,4.2354 2.8011,9.344 1.0104,13.8858 -2.5567,6.4844 -8.9039,10.6757 -15.8778,10.4847 11.348,-2.7691 23.2306,-2.4577 34.4177,0.9019 9.9131,2.9771 18.9768,8.2633 26.4451,15.4236 -7.3122,-2.8886 -15.1199,-4.3189 -22.9824,-4.2099 -7.9185,0.1097 -15.7377,1.7784 -23.0099,4.9105 6.5114,6.8658 11.1173,15.3098 13.3626,24.4979 2.1388,8.752 2.0646,17.8981 -0.2158,26.6144 -4.1864,-9.7085 -9.8848,-18.6938 -16.8836,-26.6223 -7.794,-8.8295 -17.0836,-16.2188 -27.4432,-21.8297 l -17.3589,-0.0956 c -7.9979,0.5784 -15.6571,3.4578 -22.0524,8.2903 -9.9754,7.5379 -15.8311,18.8647 -22.9808,28.8969 -2.55241,3.5816 -5.29073,7.0272 -8.20376,10.3228 -1.31823,-13.8264 1.59324,-27.727 8.34986,-39.8657 2.2323,-4.0105 4.8668,-7.784 7.863,-11.2622 -11.01645,-0.3472 -22.02868,0.8122 -32.73064,3.446 -7.92141,1.9494 -15.62461,4.696 -22.99149,8.1975 4.59315,-11.0808 12.89785,-20.223 23.49342,-25.8626 14.84945,-7.9038 32.58481,-8.247 47.72951,-0.9237 -8.3597,0.6092 -16.4524,-3.0867 -21.4607,-9.8009 -3.0336,-4.0669 -4.69301,-8.9927 -4.73791,-14.0644 12.12941,6.1968 24.93241,10.9784 38.15631,14.2504 z"
           style="fill:#26832f;fill-opacity:1;fill-rule:nonzero;stroke:none"
           id="path50" />
      </g>
    </g>
    <g
       id="g52">
      <g
         id="g54"
         clip-path="url(#clipPath58)">
        <path
           d="m 152.3249,201.7648 2.2969,29.7364 -11.1955,43.6509 11.9026,2.4858 7.5284,-35.5427 1.1165,-46.7549 z"
           style="fill:#1a561f;fill-opacity:1;fill-rule:nonzero;stroke:none"
           id="path60" />
      </g>
    </g>
    <g
       id="g62">
      <g
         id="g64"
         clip-path="url(#clipPath68)">
        <path
           d="M 265.897,150.3328 C 265.8219,122.9251 254.8484,96.39219 234.7391,75.27464 218.665,58.39465 196.973,45.66566 172.7947,38.438 c 24.8639,0.22785 48.7698,9.39843 67.2555,25.67533 15.8335,13.94165 26.7465,32.45592 29.4049,52.80437 1.4797,11.3263 0.2873,22.6842 -3.5581,33.4151 z"
           style="fill:#bc2617;fill-opacity:1;fill-rule:nonzero;stroke:none"
           id="path70" />
      </g>
    </g>
    <g
       id="g72">
      <g
         id="g74"
         clip-path="url(#clipPath78)">
        <path
           d="m 255.9995,169.2068 c -0.1026,-31.7664 -15.109,-62.5189 -42.6086,-86.99481 -21.9815,-19.56445 -51.6455,-34.31773 -84.7096,-42.69483 46.8127,-9.75578 94.5869,9.3988 121.3103,47.87656 8.3467,12.01804 14.0233,25.42868 15.4517,39.46368 1.5035,14.7738 -1.765,29.5125 -9.4438,42.3494 z"
           style="fill:#bc2617;fill-opacity:0.3433;fill-rule:nonzero;stroke:none"
           id="path80" />
      </g>
    </g>
  </g>
</svg>
